<svg xmlns="http://www.w3.org/2000/svg" width="500" height="500" viewBox="0 0 500 500">
  <title>glyph</title>
  <path d="M250,68.25a181.75,181.75,0,1,1-128.5167,53.2333A180.5607,180.5607,0,0,1,250,68.25m0-31C132.5015,37.25,37.25,132.5015,37.25,250S132.5015,462.75,250,462.75,462.75,367.4985,462.75,250,367.4985,37.25,250,37.25Z" fill="#880707"/>
  <g>
    <g>
      <path d="M238.8555,293.1426c-.0284-.2442-.0528-.5039-.07-.7774l-9.4747-147.8466a14.9425,14.9425,0,0,1,.0655-2.7168h41.249a14.984,14.984,0,0,1,.0508,2.915L259.2051,292.5635c-.0156.2011-.0352.3945-.0567.5791Z" fill="#880707"/>
      <path d="M254.1528,157.3019l-4.65,59.9385-3.8415-59.9385h8.4919m22.41-31H223.4365c-5.7689,0-10.2511,8.9728-9.5951,19.2082l9.4759,147.8469c.5582,8.7095,4.6861,15.2857,9.5951,15.2857h32.18c4.8216,0,8.9046-6.3508,9.5664-14.88l11.4708-147.847c.8043-10.3673-3.7056-19.6139-9.5664-19.6139Z" fill="#880707"/>
    </g>
    <g>
      <ellipse cx="250" cy="350" rx="16.375" ry="16.1982" fill="#880707"/>
      <path d="M250,341.3019A8.7,8.7,0,1,1,241.125,350,8.7978,8.7978,0,0,1,250,341.3019m0-15A23.6988,23.6988,0,1,0,273.875,350,23.787,23.787,0,0,0,250,326.3019Z" fill="#880707"/>
    </g>
  </g>
</svg>
