<svg xmlns="http://www.w3.org/2000/svg" width="500" height="500" viewBox="0 0 500 500">
  <path d="M250,68.25a181.75,181.75,0,1,1-128.5167,53.2333A180.5607,180.5607,0,0,1,250,68.25m0-31C132.5015,37.25,37.25,132.5015,37.25,250S132.5015,462.75,250,462.75,462.75,367.4985,462.75,250,367.4985,37.25,250,37.25Z" fill="#006400"/>
  <path d="M154.0522,255.78a5.31,5.31,0,0,0-4.59,2.2491l-13.9382,20.7371c-2.1411,3.1857-.5387,8.5762,3.5791,12.04l80.941,68.0865a10.8029,10.8029,0,0,0,6.7427,2.753,5.31,5.31,0,0,0,4.59-2.2491L245.3151,338.66c2.1411-3.1856.5386-8.5762-3.5792-12.04l-80.941-68.0865a10.8021,10.8021,0,0,0-6.7427-2.753Z" fill="#006400"/>
  <path d="M340.857,136.8745a11.1754,11.1754,0,0,0-9.0792,5.1463L203.9267,328.1978c-3.7918,5.5215-3.1421,13.1943,1.4509,17.1376l14.2668,12.249a9.2821,9.2821,0,0,0,6.1028,2.2888,11.1749,11.1749,0,0,0,9.0791-5.1461L362.6775,168.55c3.7917-5.5214,3.1421-13.1943-1.451-17.1376L346.96,139.1633a9.2811,9.2811,0,0,0-6.1028-2.2888Z" fill="#006400"/>
</svg>
