<svg xmlns="http://www.w3.org/2000/svg" width="500" height="500" viewBox="0 0 500 500">
  <path d="M250,68.25a181.75,181.75,0,1,1-128.5167,53.2333A180.5607,180.5607,0,0,1,250,68.25m0-31C132.5015,37.25,37.25,132.5015,37.25,250S132.5015,462.75,250,462.75,462.75,367.4985,462.75,250,367.4985,37.25,250,37.25Z" fill="#6b6b6b"/>
  <g>
    <g>
      <ellipse cx="240" cy="348.1914" rx="16.375" ry="16.1982" fill="#6b6b6b"/>
      <path d="M240,339.4936a8.7,8.7,0,1,1-8.875,8.6982A8.7979,8.7979,0,0,1,240,339.4936m0-15a23.6988,23.6988,0,1,0,23.875,23.6982A23.7871,23.7871,0,0,0,240,324.4936Z" fill="#6b6b6b"/>
    </g>
    <path d="M226.675,302.1917a3.3773,3.3773,0,0,1-3.3641-3.0783l-.54-6.0748c-2.408-19.0236,4.7835-39.8261,24.7961-60.973,17.9625-18.6793,27.9525-32.4233,27.9525-48.262,0-17.9906-12.7885-29.9557-37.9425-30.3-12.9664,0-27.1966,3.4125-37.1965,8.9638a3.3663,3.3663,0,0,1-4.724-1.6126l-6.8857-15.9093a3.3668,3.3668,0,0,1,1.4115-4.2726c13.4662-7.5951,34.7268-12.5628,54.5862-12.5628,45.9476,0,66.7411,25.0205,66.7411,51.82,0,23.9588-15.1965,41.2322-34.3956,61.3174-17.572,18.3063-23.9825,33.8293-22.7785,51.7912l.26,5.62a3.3773,3.3773,0,0,1-3.3737,3.5332Z" fill="#6b6b6b" stroke="#6b6b6b" stroke-miterlimit="10" stroke-width="10"/>
  </g>
</svg>
