<svg xmlns="http://www.w3.org/2000/svg" width="500" height="500" viewBox="0 0 500 500">
  <path d="M250,68.25a181.75,181.75,0,1,1-128.5167,53.2333A180.5607,180.5607,0,0,1,250,68.25m0-31C132.5015,37.25,37.25,132.5015,37.25,250S132.5015,462.75,250,462.75,462.75,367.4985,462.75,250,367.4985,37.25,250,37.25Z" fill="#006400"/>
  <path d="M255.21,108.915H234.5228a8.3084,8.3084,0,0,0-8.3084,8.3084v147.08a8.3085,8.3085,0,0,0,8.3084,8.3084H255.21a8.3084,8.3084,0,0,0,8.3085-8.3084v-147.08a8.3084,8.3084,0,0,0-8.3085-8.3084Z" fill="#006400"/>
  <path d="M249.4463,241.1934a7.5707,7.5707,0,0,0-5.37,2.2245l-15.6371,15.6372a7.5948,7.5948,0,0,0,0,10.7406l84.2177,84.2177a7.5948,7.5948,0,0,0,10.7407,0l15.6371-15.6371a7.5948,7.5948,0,0,0,0-10.7407l-84.2178-84.2177a7.5707,7.5707,0,0,0-5.37-2.2245Z" fill="#006400"/>
</svg>
