<svg xmlns="http://www.w3.org/2000/svg" width="180" height="180" viewBox="0 0 180 180">
  <title>bub</title>
  <g>
    <path d="M148.2345,30.9468l-12.8984-.0309-1.51.0309V45.8991c0,.4115-.4936.7723-1.057.7723H47.231c-.5634,0-1.057-.3608-1.057-.7723V30.9159l-14.4085.0309c-7.76,0-14.0734,5.6887-14.0734,12.6816v116.98c0,6.9929,6.3131,12.6816,14.0734,12.6816h116.469c7.76,0,14.0734-5.6887,14.0734-12.6816V43.6284C162.3079,36.6355,155.9948,30.9468,148.2345,30.9468ZM47.231,54.16h85.538c5.0192,0,9.1024-3.7061,9.1024-8.2612V38.4358h6.3631c3.3242,0,6.028,2.33,6.028,5.1926v116.98c0,2.863-2.7038,5.1927-6.028,5.1927H31.7655c-3.3242,0-6.028-2.33-6.028-5.1927V43.6284c0-2.863,2.7038-5.1926,6.028-5.1926h6.3621v7.4633C38.1276,50.4542,42.2118,54.16,47.231,54.16Z" fill="#284162"/>
    <g>
      <path d="M126.0088,38.0952H53.9912V24.812l15.0117.0015c.4805-6.628,10.4688-12.1348,22.2383-12.1348S112.999,18.1855,113.48,24.8135l12.5293-.0015Zm-71.0176-1h70.0176V25.812l-12.5108.0015v-.5c0-6.3067-9.7343-11.6348-21.2568-11.6348S69.9844,19.0068,69.9844,25.3135v.5L54.9912,25.812Z" fill="#284162"/>
      <g>
        <path d="M126.0747,20.8433h-9.003a13.244,13.244,0,0,0-1.49-2.5634c-4.1964-5.6994-13.4027-9.57-24.341-9.57s-20.1438,3.87-24.3406,9.57a13.2389,13.2389,0,0,0-1.4895,2.5634H53.9252a4.2393,4.2393,0,0,0-4.4594,3.9653v13.29a4.239,4.239,0,0,0,4.4594,3.9649h72.15a4.2389,4.2389,0,0,0,4.4594-3.9649v-13.29A4.2392,4.2392,0,0,0,126.0747,20.8433Zm-.566,16.752H54.4912V25.3119h9.9682v.0014h5.0254c0-6.5777,9.9633-12.1347,21.7564-12.1347s21.7572,5.557,21.7572,12.1347h5.0254v-.0014h7.4849Z" fill="#284162"/>
        <path d="M126.0752,42.564h-72.15a4.7369,4.7369,0,0,1-4.959-4.4649V24.8086a4.7369,4.7369,0,0,1,4.959-4.4653H65.0879a13.964,13.964,0,0,1,1.41-2.36C70.9375,11.9551,80.4189,8.21,91.2412,8.21s20.3047,3.7451,24.7432,9.7734a13.8994,13.8994,0,0,1,1.41,2.36h8.6807a4.7369,4.7369,0,0,1,4.959,4.4653V38.0991A4.7369,4.7369,0,0,1,126.0752,42.564Zm-72.15-21.2207a3.7415,3.7415,0,0,0-3.959,3.4653V38.0991a3.7412,3.7412,0,0,0,3.959,3.4649h72.15a3.7412,3.7412,0,0,0,3.959-3.4649V24.8086a3.7415,3.7415,0,0,0-3.959-3.4653h-9.332l-.1309-.3008a12.7649,12.7649,0,0,0-1.4326-2.4663C110.9258,12.7988,101.7529,9.21,91.2412,9.21s-19.6836,3.5888-23.9385,9.3662a12.8394,12.8394,0,0,0-1.4336,2.4668l-.1308.3Zm72.084,16.7519H53.9912V24.812l15.0117.0015c.4805-6.628,10.4688-12.1348,22.2383-12.1348S112.999,18.1855,113.48,24.8135l12.5293-.0015Zm-71.0176-1h70.0176V25.812l-12.5108.0015v-.5c0-6.3067-9.7343-11.6348-21.2568-11.6348S69.9844,19.0068,69.9844,25.3135v.5L54.9912,25.812Z" fill="#284162"/>
      </g>
    </g>
    <path d="M63.5312,133.5221a3.7052,3.7052,0,0,1,3.6944,3.6943V149.558a3.7052,3.7052,0,0,1-3.6944,3.6944H48.6349a3.7053,3.7053,0,0,1-3.6943-3.6944V137.2164a3.7052,3.7052,0,0,1,3.6943-3.6943H63.5312m0-3H48.6349a6.7019,6.7019,0,0,0-6.6943,6.6943V149.558a6.702,6.702,0,0,0,6.6943,6.6944H63.5312a6.702,6.702,0,0,0,6.6944-6.6944V137.2164a6.702,6.702,0,0,0-6.6944-6.6943Z" fill="#284162"/>
    <g>
      <path d="M63.5312,63.6484a3.7052,3.7052,0,0,1,3.6944,3.6944V79.6843a3.7052,3.7052,0,0,1-3.6944,3.6944H48.6349a3.7053,3.7053,0,0,1-3.6943-3.6944V67.3428a3.7053,3.7053,0,0,1,3.6943-3.6944H63.5312m0-3H48.6349a6.702,6.702,0,0,0-6.6943,6.6944V79.6843a6.702,6.702,0,0,0,6.6943,6.6944H63.5312a6.702,6.702,0,0,0,6.6944-6.6944V67.3428a6.702,6.702,0,0,0-6.6944-6.6944Z" fill="#284162"/>
      <path d="M63.5312,98.866a3.7051,3.7051,0,0,1,3.6944,3.6943v12.3416a3.7052,3.7052,0,0,1-3.6944,3.6943H48.6349a3.7052,3.7052,0,0,1-3.6943-3.6943V102.56a3.7052,3.7052,0,0,1,3.6943-3.6943H63.5312m0-3H48.6349a6.7019,6.7019,0,0,0-6.6943,6.6943v12.3416a6.7019,6.7019,0,0,0,6.6943,6.6943H63.5312a6.702,6.702,0,0,0,6.6944-6.6943V102.56a6.7019,6.7019,0,0,0-6.6944-6.6943Z" fill="#284162"/>
    </g>
    <line x1="84.1022" y1="74.0749" x2="138.6835" y2="74.0749" fill="none" stroke="#284162" stroke-miterlimit="10" stroke-width="4"/>
    <line x1="84.1022" y1="108.7311" x2="138.6835" y2="108.7311" fill="none" stroke="#284162" stroke-miterlimit="10" stroke-width="4"/>
    <line x1="84.1022" y1="143.3872" x2="138.6835" y2="143.3872" fill="none" stroke="#284162" stroke-miterlimit="10" stroke-width="4"/>
  </g>
</svg>
