<svg xmlns="http://www.w3.org/2000/svg" width="180" height="180" viewBox="0 0 180 180">
  <title>bub</title>
  <g>
    <path d="M26.267,152.345l-7.84,11h148.94a3.698,3.698,0,0,1,3.69,3.68v1.78a3.6916,3.6916,0,0,1-3.69,3.68H10.277a.41.41,0,0,1-.11-.01h-.12a3.4979,3.4979,0,0,1-2.25-.84l-.99-.85a4.3453,4.3453,0,0,1-.65-5.72l23-32.28a27.7079,27.7079,0,0,1-4.85-4.08q-7.89-8.28-9.04-21.8a1.5483,1.5483,0,0,1,1.58-1.64h7.3a1.5723,1.5723,0,0,1,1.56,1.34,21.1758,21.1758,0,0,0,6.5,12.77,18.6606,18.6606,0,0,0,4.36,3.01l1.8-2.53,4.79-6.73,4.42-6.2,9.09-12.75,1.39-1.96a28.8348,28.8348,0,0,0-10.26-5.6l-10.01-3.55q-10.59-3.69-15.41-10.52-4.8-6.825-4.81-18.2,0-13.59,7.6-21.97a24.55,24.55,0,0,1,11.8-7.32v-4.48a3.0662,3.0662,0,0,1,3.06-3.06h9.71a3.0728,3.0728,0,0,1,3.06,3.06v4.49a24.8,24.8,0,0,1,11.27,7.2q7.155,7.755,8.12,19.6a1.4892,1.4892,0,0,1-1.5,1.59h-6.89a1.5123,1.5123,0,0,1-1.48-1.28,20.4049,20.4049,0,0,0-5.52-11.53,16.3619,16.3619,0,0,0-11.98-4.61q-7.7848,0-12.51,4.87-4.74,4.875-4.74,13a14.7773,14.7773,0,0,0,3.49,10.19c2.33,2.61,6.17,4.84,11.55,6.72l8.16,2.95c6.27,2.13,11.14,4.84,14.66,8.1l1.12-1.57,1.25-1.74,1.15-1.63,2.21-3.09,3.13-4.39,5.88-8.26a3.5346,3.5346,0,0,1,5.24-.71l.76.64.03.03,30.32,21.95,43.27-6.31-1.12-9.18a.7834.7834,0,0,1,1.28-.69l14.4,12.01a.7889.7889,0,0,1,.14,1.05l-11.02,15.72a.7876.7876,0,0,1-1.42-.36l-1.11-9.1-44.87,6.53-.04.01a2.997,2.997,0,0,1-2.6-.48l-29.26-21.2-5.11,7.16-2.96,4.16-3.13,4.38-.75,1.06-1.49,2.08-6.55,9.21-1.07,1.49-7.95,11.17-1.91,2.67-3.83,5.38-3.18,4.47-1,1.39-1.14,1.6-4.03,5.66-.32.45-1.38,1.94-3.55,4.97Z" fill="#284162"/>
    <path d="M116.718,99.4093a6.4239,6.4239,0,0,1-1.2308.1192,6.2925,6.2925,0,0,1-3.6079-1.1368l-14.3878-10-.1876,65.71a4.6,4.6,0,0,0,4.6664,4.5035l17.572.0461a4.603,4.603,0,0,0,4.6921-4.4788l.1593-55.8443L116.7948,99.39C116.7689,99.3956,116.7439,99.4042,116.718,99.4093Z" fill="none" stroke="#284162" stroke-miterlimit="10" stroke-width="4"/>
    <path d="M130.9167,154.2437a4.4542,4.4542,0,0,0,4.5183,4.36l17.869.047a4.4567,4.4567,0,0,0,4.5432-4.3365l.173-60.6871-26.9414,3.7661Z" fill="none" stroke="#284162" stroke-miterlimit="10" stroke-width="4"/>
    <path d="M50.2022,127.473l-.9921,1.3922-1.14,1.6007-4.0365,5.6653-.3179.4462-1.3822,1.94-3.5438,4.974-8.5547,12.0076a3.7509,3.7509,0,0,0,3.727,3.1l19.3418.0508a3.7321,3.7321,0,0,0,3.8046-3.6317l.1069-37.3883-3.829,5.3747Z" fill="none" stroke="#284162" stroke-miterlimit="10" stroke-width="4"/>
    <path d="M63.7891,108.4209l-.13,45.4865a4.8,4.8,0,0,0,4.8687,4.6989l17.1658.0451a4.8028,4.8028,0,0,0,4.8959-4.6732l.2-70.2445-5.7226-3.9776Z" fill="none" stroke="#284162" stroke-miterlimit="10" stroke-width="4"/>
  </g>
</svg>
