<svg xmlns="http://www.w3.org/2000/svg" width="180" height="180" viewBox="0 0 180 180">
  <title>bub</title>
  <g>
    <path d="M60.4746,149.3424a7.3557,7.3557,0,0,1-1.5534-.1678,7.7673,7.7673,0,0,1-4.707-3.15L19.1058,95.9652l-7.9848,6.6116a5.5334,5.5334,0,0,0-.73,7.7673l41.1918,49.7452a5.53,5.53,0,0,0,7.7673.73l71.69-59.3829-66.445,46.6041A7.1925,7.1925,0,0,1,60.4746,149.3424Z" fill="#284162"/>
    <path d="M146.804,30.6885,103.04,18.6646a7.2487,7.2487,0,0,0-7.3448.5531L17.1826,74.2912a7.2486,7.2486,0,0,0-2.9889,4.9711,7.7484,7.7484,0,0,0,1.3609,5.4993l4.1539,5.9249,35.1084,50.059a7.7675,7.7675,0,0,0,4.7257,3.1411,7.3557,7.3557,0,0,0,1.5534.1678,7.1929,7.1929,0,0,0,4.126-1.2894l66.445-46.604,12.0735-8.4695a7.3168,7.3168,0,0,0,3.0044-6.8353L150.3366,35.7A4.8157,4.8157,0,0,0,146.804,30.6885ZM61.096,136.1628,25.7111,85.7061l-3.7283-5.3L88.086,34.044l10.2529-7.1895,1.5348-1.0781.2517.1429L142.38,37.53l-2.8149,35.419-.6556,8.2707.0622.3262Z" fill="#284162"/>
    <path d="M134.3856,34.5691a35.432,35.432,0,0,1,10.4579-7.9662c10.8743-5.5925,22.168-5.2508,25.247.7425s-3.2344,15.3731-14.0962,20.9563-22.168,5.2507-25.247-.7425a8.0906,8.0906,0,0,1-.4443-5.8256" fill="none" stroke="#284162" stroke-miterlimit="10" stroke-width="4"/>
    <path d="M127.5223,43.2312a6.77,6.77,0,1,1-.0062,0m0-3.1069a9.877,9.877,0,1,0,9.8739,9.88v-.0031a9.8738,9.8738,0,0,0-9.8708-9.8769Z" fill="#284162"/>
  </g>
</svg>
