<svg xmlns="http://www.w3.org/2000/svg" width="180" height="180" viewBox="0 0 180 180">
  <title>bub</title>
  <path d="M153.03,38.11,140.8,23.45A4.3548,4.3548,0,0,0,137.44,22H98.75V14.92A5.9322,5.9322,0,0,0,92.83,9H87.68a5.9344,5.9344,0,0,0-5.93,5.92V22H63.34c-2.29,0-4.09,1.49-4.09,3.39V55.61c0,1.9,1.8,3.39,4.09,3.39H81.75v6H42.56a4.3548,4.3548,0,0,0-3.36,1.45L26.97,81.11a2.9753,2.9753,0,0,0-.06,3.81l12.25,15.56A4.3508,4.3508,0,0,0,42.59,102H81.75v64H53.29A2.2961,2.2961,0,0,0,51,168.29v2.42A2.2961,2.2961,0,0,0,53.29,173h74.42a2.2961,2.2961,0,0,0,2.29-2.29v-2.42a2.2961,2.2961,0,0,0-2.29-2.29H98.75V102h17.91c2.29,0,4.09-1.49,4.09-3.39V68.39c0-1.9-1.8-3.39-4.09-3.39H98.75V59h38.66a4.3508,4.3508,0,0,0,3.43-1.52l12.25-15.56A2.9753,2.9753,0,0,0,153.03,38.11ZM86.75,14.92a.9261.9261,0,0,1,.93-.92h5.15a.9176.9176,0,0,1,.92.92V22h-7Zm7,151.08h-7V102h7Zm22-96.38V97.38H42.9L31.65,83.08,42.86,69.62ZM86.75,65V59h7v6ZM137.1,54.38H64.25V26.62h72.89l11.21,13.46Z" fill="#284162" stroke="#284162" stroke-miterlimit="10" stroke-width="2"/>
</svg>
