<svg xmlns="http://www.w3.org/2000/svg" width="180" height="180" viewBox="0 0 180 180">
  <title>bub</title>
  <g>
    <path d="M90,15.14A73.93,73.93,0,1,1,16.07,89.07,74.014,74.014,0,0,1,90,15.14m0-11a84.93,84.93,0,1,0,84.93,84.93A84.93,84.93,0,0,0,90,4.14Z" fill="#284162"/>
    <path d="M112.0845,128.1908c-7.6729,15.5011-18.0286,23.2278-24.2028,24.4582-5.8109,1.1581-8.7485-4.1088-8.1211-18.017.6285-16.74,1.1442-27.4167,1.5544-42.4135.113-6.0649-.2846-8.0631-2.4636-7.6289-2.5423.5065-6.2136,4.8256-8.7944,8.9278l-2.1415-2.2165c6.4-11.4707,17.9554-22.648,24.8558-24.023,6.3563-1.2665,7.6961,4.5087,7.3934,20.9954-.4819,13.6891-.963,27.38-1.4811,40.8879-.2581,5.3391.976,6.792,2.61,6.4667,1.2717-.2535,4.3961-2.5753,8.686-9.472ZM98.0585,36.9593c1.23,6.1747-1.6067,12.7822-7.7809,14.0126-5.0852,1.013-9.0409-1.7861-10.199-7.5974-1.05-5.2663,1.2795-12.5273,8.3615-13.9384C93.7065,28.3865,97.1173,32.238,98.0585,36.9593Z" fill="#284162"/>
  </g>
</svg>
