<svg version="1.1" xmlns="http://www.w3.org/2000/svg" viewBox="0 0 200 152" overflow="visible" >
<g>
	<g>
		<path fill="#000000" d="M51.464,0h23.872v110.496c-12.246,2.325-21.237,3.255-31.002,3.255C15.191,113.75,0,100.576,0,75.308
			c0-24.337,16.122-40.147,41.078-40.147c3.875,0,6.82,0.309,10.386,1.239V0z M51.464,55.62c-2.79-0.929-5.115-1.239-8.06-1.239
			c-12.091,0-19.067,7.441-19.067,20.461c0,12.712,6.666,19.687,18.912,19.687c2.634,0,4.805-0.155,8.215-0.619V55.62z"/>
		<path fill="#000000" d="M113.312,36.865v55.338c0,19.067-1.395,28.212-5.58,36.118c-3.876,7.597-8.992,12.401-19.532,17.672
			l-22.167-10.541c10.541-4.96,15.656-9.299,18.911-15.967c3.411-6.82,4.497-14.726,4.497-35.497V36.865H113.312z M89.441,0.127
			h23.871v24.492H89.441V0.127z"/>
	</g>
</g>
</svg>
