<?xml version="1.0" encoding="UTF-8" standalone="no"?>
<svg
   xmlns:dc="http://purl.org/dc/elements/1.1/"
   xmlns:cc="http://creativecommons.org/ns#"
   xmlns:rdf="http://www.w3.org/1999/02/22-rdf-syntax-ns#"
   xmlns:svg="http://www.w3.org/2000/svg"
   xmlns="http://www.w3.org/2000/svg"
   xmlns:sodipodi="http://sodipodi.sourceforge.net/DTD/sodipodi-0.dtd"
   xmlns:inkscape="http://www.inkscape.org/namespaces/inkscape"
   version="1.1"
   id="svg2"
   viewBox="0 0 254 250"
   height="250"
   width="254"
   inkscape:version="0.91 r13725"
   sodipodi:docname="People.svg">
  <sodipodi:namedview
     pagecolor="#ffffff"
     bordercolor="#666666"
     borderopacity="1"
     objecttolerance="10"
     gridtolerance="10"
     guidetolerance="10"
     inkscape:pageopacity="0"
     inkscape:pageshadow="2"
     inkscape:window-width="1863"
     inkscape:window-height="1283"
     id="namedview60"
     showgrid="false"
     inkscape:zoom="0.3337544"
     inkscape:cx="-630.33586"
     inkscape:cy="1070.1149"
     inkscape:window-x="0"
     inkscape:window-y="0"
     inkscape:window-maximized="0"
     inkscape:current-layer="svg2" />
  <defs
     id="defs4">
    <marker
       style="overflow:visible"
       id="marker4806"
       refX="0"
       refY="0"
       orient="auto">
      <path
         transform="matrix(0.8,0,0,0.8,10,0)"
         style="fill:#000000;fill-opacity:1;fill-rule:evenodd;stroke:#000000;stroke-width:1pt;stroke-opacity:1"
         d="M 0,0 5,-5 -12.5,0 5,5 0,0 Z"
         id="path4808" />
    </marker>
    <marker
       style="overflow:visible"
       id="marker4742"
       refX="0"
       refY="0"
       orient="auto">
      <path
         transform="matrix(0.8,0,0,0.8,10,0)"
         style="fill:#000000;fill-opacity:1;fill-rule:evenodd;stroke:#000000;stroke-width:1pt;stroke-opacity:1"
         d="M 0,0 5,-5 -12.5,0 5,5 0,0 Z"
         id="path4744" />
    </marker>
    <marker
       style="overflow:visible"
       id="marker4684"
       refX="0"
       refY="0"
       orient="auto">
      <path
         transform="matrix(0.8,0,0,0.8,10,0)"
         style="fill:#000000;fill-opacity:1;fill-rule:evenodd;stroke:#000000;stroke-width:1pt;stroke-opacity:1"
         d="M 0,0 5,-5 -12.5,0 5,5 0,0 Z"
         id="path4686" />
    </marker>
    <marker
       style="overflow:visible"
       id="marker4632"
       refX="0"
       refY="0"
       orient="auto">
      <path
         transform="matrix(0.8,0,0,0.8,10,0)"
         style="fill:#000000;fill-opacity:1;fill-rule:evenodd;stroke:#000000;stroke-width:1pt;stroke-opacity:1"
         d="M 0,0 5,-5 -12.5,0 5,5 0,0 Z"
         id="path4634" />
    </marker>
    <marker
       style="overflow:visible"
       id="marker4586"
       refX="0"
       refY="0"
       orient="auto">
      <path
         transform="matrix(0.8,0,0,0.8,10,0)"
         style="fill:#000000;fill-opacity:1;fill-rule:evenodd;stroke:#000000;stroke-width:1pt;stroke-opacity:1"
         d="M 0,0 5,-5 -12.5,0 5,5 0,0 Z"
         id="path4588" />
    </marker>
    <marker
       style="overflow:visible"
       id="marker4546"
       refX="0"
       refY="0"
       orient="auto">
      <path
         transform="matrix(0.8,0,0,0.8,10,0)"
         style="fill:#000000;fill-opacity:1;fill-rule:evenodd;stroke:#000000;stroke-width:1pt;stroke-opacity:1"
         d="M 0,0 5,-5 -12.5,0 5,5 0,0 Z"
         id="path4548" />
    </marker>
    <marker
       style="overflow:visible"
       id="marker4512"
       refX="0"
       refY="0"
       orient="auto">
      <path
         transform="matrix(0.8,0,0,0.8,10,0)"
         style="fill:#000000;fill-opacity:1;fill-rule:evenodd;stroke:#000000;stroke-width:1pt;stroke-opacity:1"
         d="M 0,0 5,-5 -12.5,0 5,5 0,0 Z"
         id="path4514" />
    </marker>
    <marker
       style="overflow:visible"
       id="marker4484"
       refX="0"
       refY="0"
       orient="auto">
      <path
         transform="matrix(0.8,0,0,0.8,10,0)"
         style="fill:#000000;fill-opacity:1;fill-rule:evenodd;stroke:#000000;stroke-width:1pt;stroke-opacity:1"
         d="M 0,0 5,-5 -12.5,0 5,5 0,0 Z"
         id="path4486" />
    </marker>
    <marker
       style="overflow:visible"
       id="marker4462"
       refX="0"
       refY="0"
       orient="auto">
      <path
         transform="matrix(0.8,0,0,0.8,10,0)"
         style="fill:#000000;fill-opacity:1;fill-rule:evenodd;stroke:#000000;stroke-width:1pt;stroke-opacity:1"
         d="M 0,0 5,-5 -12.5,0 5,5 0,0 Z"
         id="path4464" />
    </marker>
    <marker
       style="overflow:visible"
       id="Arrow1Lstart"
       refX="0"
       refY="0"
       orient="auto">
      <path
         transform="matrix(0.8,0,0,0.8,10,0)"
         style="fill:#000000;fill-opacity:1;fill-rule:evenodd;stroke:#000000;stroke-width:1pt;stroke-opacity:1"
         d="M 0,0 5,-5 -12.5,0 5,5 0,0 Z"
         id="path4192" />
    </marker>
  </defs>
  <metadata
     id="metadata7">
    <rdf:RDF>
      <cc:Work
         rdf:about="">
        <dc:format>image/svg+xml</dc:format>
        <dc:type
           rdf:resource="http://purl.org/dc/dcmitype/StillImage" />
        <dc:title />
      </cc:Work>
    </rdf:RDF>
  </metadata>
  <flowRoot
     xml:space="preserve"
     id="flowRoot4138"
     style="font-style:normal;font-weight:normal;font-size:106.7828064px;line-height:125%;font-family:sans-serif;letter-spacing:0px;word-spacing:0px;fill:#000000;fill-opacity:1;stroke:none;stroke-width:1px;stroke-linecap:butt;stroke-linejoin:miter;stroke-opacity:1"
     transform="matrix(0.74936748,0,0,0.89602188,80.984656,-790.92583)"><flowRegion
       id="flowRegion4140"><rect
         id="rect4142"
         width="61.871834"
         height="122.63884"
         x="160.20389"
         y="159.63989"
         style="font-size:106.7828064px" /></flowRegion><flowPara
       id="flowPara4144">$</flowPara></flowRoot>  <rect
     style="fill:#3095b4;fill-opacity:0.34901962;fill-rule:evenodd;stroke:#000000;stroke-width:10;stroke-linecap:square;stroke-linejoin:round;stroke-miterlimit:4;stroke-dasharray:none;stroke-dashoffset:0;stroke-opacity:1"
     id="rect3336-5-7"
     width="243.45105"
     height="239.03162"
     x="5.2744746"
     y="-244.51581"
     ry="34.250484"
     rx="34.250484"
     transform="scale(1,-1)" />
  <g
     id="g5304"
     transform="matrix(4.7163314,0,0,4.7163314,-624.2449,-3150.2314)">
    <path
       inkscape:connector-curvature="0"
       id="path5142"
       d="m 163.50494,681.79258 a 5.1029925,6.7757801 0 0 0 -5.10295,6.77605 5.1029925,6.7757801 0 0 0 1.37075,4.61193 10.576265,12.84411 0 0 0 -6.8437,12.00166 10.576265,12.84411 0 0 0 0.13138,1.95922 l 20.884,0 a 10.576265,12.84411 0 0 0 0.13692,-1.95922 10.576265,12.84411 0 0 0 -6.84018,-12.01054 5.1029925,6.7757801 0 0 0 1.36723,-4.60305 5.1029925,6.7757801 0 0 0 -5.10345,-6.77605 z"
       style="opacity:1;fill:#000000;fill-opacity:1;fill-rule:nonzero;stroke:#000000;stroke-width:0;stroke-linecap:butt;stroke-linejoin:miter;stroke-miterlimit:4;stroke-dasharray:none;stroke-dashoffset:0;stroke-opacity:1" />
    <path
       inkscape:connector-curvature="0"
       id="path5144"
       d="m 155.06628,681.74798 c -2.81837,5e-5 -5.10306,3.03382 -5.10296,6.77607 0.002,1.71202 0.49144,3.35977 1.37076,4.61191 -4.11353,1.88428 -6.83823,6.66252 -6.8437,12.00166 0.003,0.65619 0.0464,1.31117 0.13138,1.95922 l 6.86865,0.0446 c -0.0459,-0.50809 -0.11586,-1.50971 -0.11856,-2.02158 0.005,-5.55235 2.76809,-10.25388 6.5953,-12.2134 -0.63603,-1.83718 -1.04622,-2.7931 -1.0478,-4.57373 7.8e-4,-2.05878 0.51681,-2.81057 1.38885,-4.68353 -0.84722,-0.99442 -2.21459,-1.89883 -3.24192,-1.9012 z"
       style="opacity:1;fill:#000001;fill-opacity:1;fill-rule:nonzero;stroke:#000000;stroke-width:0;stroke-linecap:butt;stroke-linejoin:miter;stroke-miterlimit:4;stroke-dasharray:none;stroke-dashoffset:0;stroke-opacity:1" />
  </g>
</svg>
