<svg xmlns="http://www.w3.org/2000/svg" xmlns:xlink="http://www.w3.org/1999/xlink" viewBox="0 0 2728 332">
  <defs>
    <clipPath id="a">
      <rect width="2728" height="332.5" fill="none"/>
    </clipPath>
    <clipPath id="b">
      <rect x="-0.81" y="-160.66" width="2729.62" height="690.3" fill="none"/>
    </clipPath>
    <linearGradient id="c" x1="625.76" y1="432.18" x2="631.5" y2="426.44" gradientTransform="matrix(48, 0, 0, -53, -28240.55, 23176.9)" gradientUnits="userSpaceOnUse">
      <stop offset="0" stop-color="#807e7e"/>
      <stop offset="1" stop-color="#838282"/>
    </linearGradient>
    <linearGradient id="d" x1="655.96" y1="435.36" x2="660.25" y2="431.07" gradientTransform="matrix(28, 0, 0, -16, -15828.53, 6944.53)" gradientUnits="userSpaceOnUse">
      <stop offset="0" stop-color="#959393"/>
      <stop offset="1" stop-color="#939191"/>
    </linearGradient>
    <linearGradient id="e" x1="578.98" y1="437.06" x2="583.98" y2="432.06" gradientTransform="matrix(28, 0, 0, -11, -16316.53, 4761.15)" gradientUnits="userSpaceOnUse">
      <stop offset="0" stop-color="#747474"/>
      <stop offset="1" stop-color="#767575"/>
    </linearGradient>
    <linearGradient id="f" x1="581.42" y1="435.63" x2="585.69" y2="431.36" gradientTransform="matrix(29, 0, 0, -11, -16923.53, 4761.15)" gradientUnits="userSpaceOnUse">
      <stop offset="0" stop-color="#767575"/>
      <stop offset="1" stop-color="#797979"/>
    </linearGradient>
    <linearGradient id="g" x1="597.58" y1="431.81" x2="602.5" y2="426.89" gradientTransform="matrix(34, 0, 0, -40, -19906.54, 17490.13)" gradientUnits="userSpaceOnUse">
      <stop offset="0" stop-color="#757575"/>
      <stop offset="1" stop-color="#797979"/>
    </linearGradient>
    <linearGradient id="h" x1="619.82" y1="434.16" x2="624.14" y2="429.84" gradientTransform="matrix(22, 0, 0, -57, -12383.53, 24888.85)" gradientUnits="userSpaceOnUse">
      <stop offset="0" stop-color="#8d8b8b"/>
      <stop offset="1" stop-color="#8c8a8a"/>
    </linearGradient>
    <linearGradient id="i" x1="615.93" y1="433.14" x2="620.8" y2="428.27" gradientTransform="matrix(35, 0, 0, -34, -20378.54, 14836.47)" gradientUnits="userSpaceOnUse">
      <stop offset="0" stop-color="#928f90"/>
      <stop offset="1" stop-color="#979495"/>
    </linearGradient>
    <linearGradient id="j" x1="652.4" y1="426.01" x2="657.09" y2="421.32" gradientTransform="matrix(28, 0, 0, -18, -15852.53, 7884.08)" gradientUnits="userSpaceOnUse">
      <stop offset="0" stop-color="#868485"/>
      <stop offset="1" stop-color="#858383"/>
    </linearGradient>
    <linearGradient id="k" x1="663.28" y1="430.4" x2="669.24" y2="424.45" gradientTransform="matrix(22, 0, 0, -28, -12162.53, 12246.83)" gradientUnits="userSpaceOnUse">
      <stop offset="0" stop-color="#828181"/>
      <stop offset="1" stop-color="#828181"/>
    </linearGradient>
    <linearGradient id="l" x1="660.05" y1="433.12" x2="664.98" y2="428.19" gradientTransform="matrix(24, 0, 0, -50, -13387.53, 21844.88)" gradientUnits="userSpaceOnUse">
      <stop offset="0" stop-color="#807e7e"/>
      <stop offset="1" stop-color="#7f7e7e"/>
    </linearGradient>
    <linearGradient id="m" x1="643.02" y1="432.44" x2="647.97" y2="427.49" gradientTransform="matrix(41, 0, 0, -50, -23806.55, 21844.88)" gradientUnits="userSpaceOnUse">
      <stop offset="0" stop-color="#818080"/>
      <stop offset="1" stop-color="#7c7a7b"/>
    </linearGradient>
    <linearGradient id="n" x1="654.72" y1="436.41" x2="659.25" y2="431.89" gradientTransform="matrix(31, 0, 0, -16, -17653.53, 6944.53)" gradientUnits="userSpaceOnUse">
      <stop offset="0" stop-color="#949292"/>
      <stop offset="1" stop-color="#8e8c8c"/>
    </linearGradient>
    <linearGradient id="o" x1="672.27" y1="435.82" x2="677.84" y2="430.25" gradientTransform="matrix(22, 0, 0, -13, -12116.53, 5638.7)" xlink:href="#h"/>
    <linearGradient id="p" x1="598.68" y1="430.91" x2="603.22" y2="426.37" gradientTransform="matrix(30, 0, 0, -46, -17422.53, 20107.83)" gradientUnits="userSpaceOnUse">
      <stop offset="0" stop-color="#777677"/>
      <stop offset="1" stop-color="#7a7979"/>
    </linearGradient>
    <linearGradient id="q" x1="633.09" y1="432.57" x2="638.49" y2="427.18" gradientTransform="matrix(41, 0, 0, -46, -23899.55, 20103.83)" gradientUnits="userSpaceOnUse">
      <stop offset="0" stop-color="#878585"/>
      <stop offset="1" stop-color="#868485"/>
    </linearGradient>
    <linearGradient id="r" x1="625.63" y1="431.37" x2="630.22" y2="426.78" gradientTransform="matrix(69, 0, 0, -46, -41086.57, 20103.83)" gradientUnits="userSpaceOnUse">
      <stop offset="0" stop-color="#828181"/>
      <stop offset="1" stop-color="#858383"/>
    </linearGradient>
    <linearGradient id="s" x1="646.75" y1="422.16" x2="651.38" y2="417.53" gradientTransform="matrix(30, 0, 0, -14, -17104.53, 6142.98)" gradientUnits="userSpaceOnUse">
      <stop offset="0" stop-color="#878585"/>
      <stop offset="1" stop-color="#878585"/>
    </linearGradient>
    <linearGradient id="t" x1="643.58" y1="428.16" x2="648.21" y2="423.53" gradientTransform="matrix(33, 0, 0, -24, -18946.53, 10505.73)" gradientUnits="userSpaceOnUse">
      <stop offset="0" stop-color="#838282"/>
      <stop offset="1" stop-color="#858383"/>
    </linearGradient>
    <linearGradient id="u" x1="611.8" y1="436.82" x2="616.32" y2="432.3" gradientTransform="matrix(49, 0, 0, -31, -29023.55, 13491.66)" gradientUnits="userSpaceOnUse">
      <stop offset="0" stop-color="#a09d9d"/>
      <stop offset="1" stop-color="#a19f9f"/>
    </linearGradient>
    <linearGradient id="v" x1="614.11" y1="435.95" x2="619.28" y2="430.78" gradientTransform="matrix(12, 0, 0, -28, -6268.53, 12190.83)" gradientUnits="userSpaceOnUse">
      <stop offset="0" stop-color="#9b999a"/>
      <stop offset="1" stop-color="#a09d9d"/>
    </linearGradient>
    <linearGradient id="w" x1="618.27" y1="434.96" x2="623.34" y2="429.89" gradientTransform="matrix(13, 0, 0, -28, -6870.53, 12190.83)" gradientUnits="userSpaceOnUse">
      <stop offset="0" stop-color="#9e9c9c"/>
      <stop offset="1" stop-color="#a5a2a2"/>
    </linearGradient>
    <linearGradient id="x" x1="601.52" y1="436.86" x2="606.28" y2="432.1" gradientTransform="matrix(43, 0, 0, -27, -25425.55, 11738.53)" gradientUnits="userSpaceOnUse">
      <stop offset="0" stop-color="#8a8787"/>
      <stop offset="1" stop-color="#8d8b8b"/>
    </linearGradient>
    <linearGradient id="y" x1="601.71" y1="438.86" x2="606.47" y2="434.1" gradientTransform="matrix(36, 0, 0, -52, -21110.54, 22620.52)" gradientUnits="userSpaceOnUse">
      <stop offset="0" stop-color="#928f90"/>
      <stop offset="1" stop-color="#959393"/>
    </linearGradient>
    <linearGradient id="z" x1="603.36" y1="437.58" x2="608.14" y2="432.81" gradientTransform="matrix(33, 0, 0, -52, -19242.53, 22620.52)" gradientUnits="userSpaceOnUse">
      <stop offset="0" stop-color="#9e9c9c"/>
      <stop offset="1" stop-color="#979495"/>
    </linearGradient>
    <linearGradient id="aa" x1="605.88" y1="436.62" x2="611" y2="431.5" gradientTransform="matrix(43, 0, 0, -27, -25382.55, 11738.53)" gradientUnits="userSpaceOnUse">
      <stop offset="0" stop-color="#9b999a"/>
      <stop offset="1" stop-color="#979495"/>
    </linearGradient>
    <linearGradient id="ab" x1="609.65" y1="435.94" x2="614.37" y2="431.22" gradientTransform="matrix(80, 0, 0, -31, -48100.58, 13491.66)" gradientUnits="userSpaceOnUse">
      <stop offset="0" stop-color="#9b999a"/>
      <stop offset="1" stop-color="#959393"/>
    </linearGradient>
    <linearGradient id="ac" x1="546.13" y1="434.29" x2="551.51" y2="428.92" gradientTransform="matrix(9, 0, 0, -49, -4564.53, 21392.63)" gradientUnits="userSpaceOnUse">
      <stop offset="0" stop-color="#757575"/>
      <stop offset="1" stop-color="#787778"/>
    </linearGradient>
    <linearGradient id="ad" x1="597.09" y1="433.05" x2="601.98" y2="428.16" gradientTransform="matrix(34, 0, 0, -49, -19906.54, 21392.63)" gradientUnits="userSpaceOnUse">
      <stop offset="0" stop-color="#777677"/>
      <stop offset="1" stop-color="#7c7b7c"/>
    </linearGradient>
    <linearGradient id="ae" x1="602.45" y1="435.89" x2="607.37" y2="430.97" gradientTransform="matrix(49, 0, 0, -48, -29115.55, 20908.36)" xlink:href="#q"/>
    <linearGradient id="af" x1="602.98" y1="436.01" x2="607.76" y2="431.23" gradientTransform="matrix(49, 0, 0, -53, -29115.55, 23108.9)" gradientUnits="userSpaceOnUse">
      <stop offset="0" stop-color="gray"/>
      <stop offset="1" stop-color="#858383"/>
    </linearGradient>
    <linearGradient id="ag" x1="610.93" y1="438.13" x2="615.38" y2="433.67" gradientTransform="matrix(49, 0, 0, -45, -29023.55, 19562.51)" gradientUnits="userSpaceOnUse">
      <stop offset="0" stop-color="#a5a2a2"/>
      <stop offset="1" stop-color="#acaaaa"/>
    </linearGradient>
    <linearGradient id="ah" x1="653.24" y1="432.24" x2="657.87" y2="427.61" gradientTransform="matrix(24, 0, 0, -34, -13420.53, 14836.47)" gradientUnits="userSpaceOnUse">
      <stop offset="0" stop-color="#8c8a8a"/>
      <stop offset="1" stop-color="#8e8c8c"/>
    </linearGradient>
    <linearGradient id="ai" x1="643.8" y1="432.53" x2="648.71" y2="427.62" gradientTransform="matrix(41, 0, 0, -55, -23801.55, 24047.42)" gradientUnits="userSpaceOnUse">
      <stop offset="0" stop-color="#777677"/>
      <stop offset="1" stop-color="#747474"/>
    </linearGradient>
    <linearGradient id="aj" x1="586.61" y1="432.1" x2="590.99" y2="427.72" gradientTransform="matrix(37, 0, 0, -61, -21850.54, 26657.95)" gradientUnits="userSpaceOnUse">
      <stop offset="0" stop-color="#706c6c"/>
      <stop offset="1" stop-color="#767272"/>
    </linearGradient>
    <linearGradient id="ak" x1="602.04" y1="432.8" x2="607.09" y2="427.74" gradientTransform="matrix(76, 0, 0, -61, -45778.57, 26657.95)" gradientUnits="userSpaceOnUse">
      <stop offset="0" stop-color="#797575"/>
      <stop offset="1" stop-color="#7b7778"/>
    </linearGradient>
    <linearGradient id="al" x1="613.79" y1="438.6" x2="618.62" y2="433.77" gradientTransform="matrix(44, 0, 0, -45, -25922.55, 19562.51)" gradientUnits="userSpaceOnUse">
      <stop offset="0" stop-color="#b2b0b0"/>
      <stop offset="1" stop-color="#afacac"/>
    </linearGradient>
    <linearGradient id="am" x1="616.43" y1="437.73" x2="621.24" y2="432.91" gradientTransform="matrix(26, 0, 0, -26, -14852.53, 11300.28)" gradientUnits="userSpaceOnUse">
      <stop offset="0" stop-color="#a9a6a6"/>
      <stop offset="1" stop-color="#aca9a9"/>
    </linearGradient>
    <linearGradient id="an" x1="636.1" y1="436.1" x2="640.65" y2="431.55" gradientTransform="matrix(45, 0, 0, -52, -26314.55, 22671.52)" xlink:href="#n"/>
    <linearGradient id="ao" x1="652.19" y1="434.73" x2="656.57" y2="430.35" gradientTransform="matrix(28, 0, 0, -52, -15852.53, 22671.52)" gradientUnits="userSpaceOnUse">
      <stop offset="0" stop-color="#888686"/>
      <stop offset="1" stop-color="#8a8989"/>
    </linearGradient>
    <linearGradient id="ap" x1="651.32" y1="429.42" x2="656.35" y2="424.39" gradientTransform="matrix(31, 0, 0, -7, -17673.53, 3032.05)" gradientUnits="userSpaceOnUse">
      <stop offset="0" stop-color="#949292"/>
      <stop offset="1" stop-color="#928f90"/>
    </linearGradient>
    <linearGradient id="aq" x1="651.85" y1="435.94" x2="656.31" y2="431.47" gradientTransform="matrix(31, 0, 0, -51, -17673.53, 22230.16)" gradientUnits="userSpaceOnUse">
      <stop offset="0" stop-color="#888686"/>
      <stop offset="1" stop-color="#8f8d8e"/>
    </linearGradient>
    <linearGradient id="ar" x1="597.01" y1="437.95" x2="601.64" y2="433.32" gradientTransform="matrix(52, 0, 0, -54, -31026.58, 23484.08)" gradientUnits="userSpaceOnUse">
      <stop offset="0" stop-color="#7f7e7e"/>
      <stop offset="1" stop-color="#7f7e7e"/>
    </linearGradient>
    <linearGradient id="as" x1="597.89" y1="439.43" x2="602.67" y2="434.66" gradientTransform="matrix(52, 0, 0, -79, -31026.58, 34366.02)" gradientUnits="userSpaceOnUse">
      <stop offset="0" stop-color="#818080"/>
      <stop offset="1" stop-color="#868485"/>
    </linearGradient>
    <linearGradient id="at" x1="596.77" y1="436.13" x2="601.4" y2="431.5" gradientTransform="matrix(50, 0, 0, -17, -29796.55, 7378.8)" gradientUnits="userSpaceOnUse">
      <stop offset="0" stop-color="#7c7a7b"/>
      <stop offset="1" stop-color="#7e7d7d"/>
    </linearGradient>
    <linearGradient id="au" x1="592.62" y1="438.43" x2="597.31" y2="433.73" gradientTransform="matrix(32, 0, 0, -79, -18703.53, 34366.02)" gradientUnits="userSpaceOnUse">
      <stop offset="0" stop-color="#8a8989"/>
      <stop offset="1" stop-color="#868485"/>
    </linearGradient>
    <linearGradient id="av" x1="587.06" y1="437.12" x2="591.68" y2="432.5" gradientTransform="matrix(23, 0, 0, -48, -13168.53, 20908.36)" xlink:href="#c"/>
    <linearGradient id="aw" x1="616.03" y1="433.25" x2="621.04" y2="428.24" gradientTransform="matrix(31, 0, 0, -20, -17922.53, 8708.62)" gradientUnits="userSpaceOnUse">
      <stop offset="0" stop-color="#9e9c9c"/>
      <stop offset="1" stop-color="#a4a1a1"/>
    </linearGradient>
    <linearGradient id="ax" x1="616.05" y1="435.08" x2="620.92" y2="430.21" gradientTransform="matrix(35, 0, 0, -34, -20378.54, 14820.47)" gradientUnits="userSpaceOnUse">
      <stop offset="0" stop-color="#9b999a"/>
      <stop offset="1" stop-color="#9d9b9b"/>
    </linearGradient>
    <linearGradient id="ay" x1="617.61" y1="434.57" x2="622.69" y2="429.49" gradientTransform="matrix(61, 0, 0, -34, -36311.6, 14820.47)" gradientUnits="userSpaceOnUse">
      <stop offset="0" stop-color="#9d9b9b"/>
      <stop offset="1" stop-color="#a6a4a4"/>
    </linearGradient>
    <linearGradient id="az" x1="619.28" y1="436.45" x2="623.9" y2="431.83" gradientTransform="matrix(22, 0, 0, -26, -12383.53, 11300.28)" gradientUnits="userSpaceOnUse">
      <stop offset="0" stop-color="#a9a6a6"/>
      <stop offset="1" stop-color="#afadad"/>
    </linearGradient>
    <linearGradient id="ba" x1="619.16" y1="436.3" x2="624.26" y2="431.21" gradientTransform="matrix(22, 0, 0, -19, -12383.53, 8257.34)" gradientUnits="userSpaceOnUse">
      <stop offset="0" stop-color="#a8a5a5"/>
      <stop offset="1" stop-color="#aaa7a7"/>
    </linearGradient>
    <linearGradient id="bb" x1="616.58" y1="434.62" x2="621.19" y2="430.02" gradientTransform="matrix(61, 0, 0, -19, -36311.6, 8257.34)" xlink:href="#am"/>
    <linearGradient id="bc" x1="618.27" y1="437.91" x2="623.11" y2="433.07" gradientTransform="matrix(57, 0, 0, -33, -33851.58, 14351.22)" gradientUnits="userSpaceOnUse">
      <stop offset="0" stop-color="#b4b1b1"/>
      <stop offset="1" stop-color="#afacac"/>
    </linearGradient>
    <linearGradient id="bd" x1="665.51" y1="428.77" x2="670.56" y2="423.73" gradientTransform="matrix(25, 0, 0, -5, -13958.53, 2156.5)" gradientUnits="userSpaceOnUse">
      <stop offset="0" stop-color="#8c8a8a"/>
      <stop offset="1" stop-color="#8a8787"/>
    </linearGradient>
    <linearGradient id="be" x1="627.25" y1="436.86" x2="632.06" y2="432.05" gradientTransform="matrix(33, 0, 0, -33, -19063.53, 14351.22)" gradientUnits="userSpaceOnUse">
      <stop offset="0" stop-color="#b4b1b1"/>
      <stop offset="1" stop-color="#acaaaa"/>
    </linearGradient>
    <linearGradient id="bf" x1="628.03" y1="438.82" x2="632.8" y2="434.05" gradientTransform="matrix(33, 0, 0, -30, -19063.53, 13033.39)" gradientUnits="userSpaceOnUse">
      <stop offset="0" stop-color="#b8b5b5"/>
      <stop offset="1" stop-color="#b5b2b2"/>
    </linearGradient>
    <linearGradient id="bg" x1="628.48" y1="438.12" x2="633.63" y2="432.97" gradientTransform="matrix(40, 0, 0, -30, -23332.55, 13033.39)" gradientUnits="userSpaceOnUse">
      <stop offset="0" stop-color="#b9b7b7"/>
      <stop offset="1" stop-color="#b2b0b0"/>
    </linearGradient>
    <linearGradient id="bh" x1="624.35" y1="437.62" x2="629.33" y2="432.65" gradientTransform="matrix(56, 0, 0, -39, -33152.58, 16965.86)" gradientUnits="userSpaceOnUse">
      <stop offset="0" stop-color="#b1aeae"/>
      <stop offset="1" stop-color="#aaa7a7"/>
    </linearGradient>
    <linearGradient id="bi" x1="644.38" y1="437.68" x2="648.92" y2="433.14" gradientTransform="matrix(25, 0, 0, -39, -14082.53, 16965.86)" gradientUnits="userSpaceOnUse">
      <stop offset="0" stop-color="#afadad"/>
      <stop offset="1" stop-color="#a5a2a2"/>
    </linearGradient>
    <linearGradient id="bj" x1="635.49" y1="438.19" x2="639.98" y2="433.7" gradientTransform="matrix(36, 0, 0, -27, -20836.54, 11730.53)" xlink:href="#bh"/>
    <linearGradient id="bk" x1="643.67" y1="434.18" x2="648.22" y2="429.63" gradientTransform="matrix(28, 0, 0, -25, -15904.53, 10885)" gradientUnits="userSpaceOnUse">
      <stop offset="0" stop-color="#a09d9d"/>
      <stop offset="1" stop-color="#9e9c9c"/>
    </linearGradient>
    <linearGradient id="bl" x1="651.2" y1="436.52" x2="656" y2="431.72" gradientTransform="matrix(23, 0, 0, -39, -12829.53, 16978.86)" gradientUnits="userSpaceOnUse">
      <stop offset="0" stop-color="#a6a4a4"/>
      <stop offset="1" stop-color="#a09d9d"/>
    </linearGradient>
    <linearGradient id="bm" x1="593.86" y1="436.01" x2="598.94" y2="430.94" gradientTransform="matrix(47, 0, 0, -72, -27975.55, 31384.96)" gradientUnits="userSpaceOnUse">
      <stop offset="0" stop-color="#747474"/>
      <stop offset="1" stop-color="#727172"/>
    </linearGradient>
    <linearGradient id="bn" x1="594.42" y1="435.58" x2="599.07" y2="430.93" gradientTransform="matrix(47, 0, 0, -21, -27975.55, 9133.91)" gradientUnits="userSpaceOnUse">
      <stop offset="0" stop-color="#767575"/>
      <stop offset="1" stop-color="#7a7979"/>
    </linearGradient>
    <linearGradient id="bo" x1="601.78" y1="434.92" x2="606.29" y2="430.41" gradientTransform="matrix(76, 0, 0, -70, -45778.57, 30532.52)" gradientUnits="userSpaceOnUse">
      <stop offset="0" stop-color="#7f7b7b"/>
      <stop offset="1" stop-color="#757575"/>
    </linearGradient>
    <linearGradient id="bp" x1="594.93" y1="435.42" x2="599.61" y2="430.74" gradientTransform="matrix(42, 0, 0, -21, -24876.55, 9133.91)" xlink:href="#at"/>
    <linearGradient id="bq" x1="595.96" y1="435.45" x2="600.78" y2="430.63" gradientTransform="matrix(41, 0, 0, -36, -24244.55, 15685.04)" gradientUnits="userSpaceOnUse">
      <stop offset="0" stop-color="#807e7e"/>
      <stop offset="1" stop-color="#7c7b7c"/>
    </linearGradient>
    <linearGradient id="br" x1="596.78" y1="436.02" x2="601.32" y2="431.49" gradientTransform="matrix(41, 0, 0, -70, -24244.55, 30532.52)" gradientUnits="userSpaceOnUse">
      <stop offset="0" stop-color="#767575"/>
      <stop offset="1" stop-color="#7c7a7b"/>
    </linearGradient>
    <linearGradient id="bs" x1="608.51" y1="431.44" x2="613.21" y2="426.75" gradientTransform="matrix(77, 0, 0, -46, -46274.58, 20107.83)" gradientUnits="userSpaceOnUse">
      <stop offset="0" stop-color="#7e7d7d"/>
      <stop offset="1" stop-color="#7c7a7b"/>
    </linearGradient>
    <linearGradient id="bt" x1="632.31" y1="434.7" x2="636.86" y2="430.15" gradientTransform="matrix(64, 0, 0, -51, -37928.6, 22230.16)" gradientUnits="userSpaceOnUse">
      <stop offset="0" stop-color="#858383"/>
      <stop offset="1" stop-color="#868485"/>
    </linearGradient>
    <linearGradient id="bu" x1="633.36" y1="432.41" x2="637.99" y2="427.78" gradientTransform="matrix(64, 0, 0, -33, -37928.6, 14416.22)" gradientUnits="userSpaceOnUse">
      <stop offset="0" stop-color="#818080"/>
      <stop offset="1" stop-color="#7e7d7d"/>
    </linearGradient>
    <linearGradient id="bv" x1="647.05" y1="435.82" x2="651.69" y2="431.18" gradientTransform="matrix(40, 0, 0, -40, -23168.55, 17430.13)" gradientUnits="userSpaceOnUse">
      <stop offset="0" stop-color="#8a8787"/>
      <stop offset="1" stop-color="#838282"/>
    </linearGradient>
    <linearGradient id="bw" x1="643" y1="437.73" x2="647.36" y2="433.37" gradientTransform="matrix(32, 0, 0, -51, -18344.53, 22202.16)" xlink:href="#bl"/>
    <linearGradient id="bx" x1="635.16" y1="436.36" x2="639.73" y2="431.79" gradientTransform="matrix(45, 0, 0, -51, -26314.55, 22202.16)" gradientUnits="userSpaceOnUse">
      <stop offset="0" stop-color="#9a9797"/>
      <stop offset="1" stop-color="#9d9b9b"/>
    </linearGradient>
    <linearGradient id="by" x1="651.82" y1="437.64" x2="656.41" y2="433.05" gradientTransform="matrix(28, 0, 0, -33, -15856.53, 14349.22)" gradientUnits="userSpaceOnUse">
      <stop offset="0" stop-color="#979495"/>
      <stop offset="1" stop-color="#9d9b9b"/>
    </linearGradient>
    <linearGradient id="bz" x1="637.95" y1="438.04" x2="642.4" y2="433.59" gradientTransform="matrix(45, 0, 0, -26, -26294.55, 11295.28)" gradientUnits="userSpaceOnUse">
      <stop offset="0" stop-color="#9a9797"/>
      <stop offset="1" stop-color="#9e9c9c"/>
    </linearGradient>
    <linearGradient id="ca" x1="609.11" y1="434.87" x2="613.66" y2="430.31" gradientTransform="matrix(91, 0, 0, -71, -54870.58, 30961.71)" gradientUnits="userSpaceOnUse">
      <stop offset="0" stop-color="#818080"/>
      <stop offset="1" stop-color="#878585"/>
    </linearGradient>
    <linearGradient id="cb" x1="610.27" y1="431.49" x2="614.83" y2="426.92" gradientTransform="matrix(91, 0, 0, -39, -54870.58, 17053.86)" gradientUnits="userSpaceOnUse">
      <stop offset="0" stop-color="#807e7e"/>
      <stop offset="1" stop-color="#818080"/>
    </linearGradient>
    <linearGradient id="cc" x1="610.79" y1="436.46" x2="615.4" y2="431.86" gradientTransform="matrix(80, 0, 0, -71, -48100.58, 30961.71)" gradientUnits="userSpaceOnUse">
      <stop offset="0" stop-color="#8e8c8c"/>
      <stop offset="1" stop-color="#8f8d8e"/>
    </linearGradient>
    <linearGradient id="cd" x1="609.39" y1="429.76" x2="614.33" y2="424.83" gradientTransform="matrix(17, 0, 0, -37, -9357.53, 16199.33)" gradientUnits="userSpaceOnUse">
      <stop offset="0" stop-color="#807e7e"/>
      <stop offset="1" stop-color="#807e7e"/>
    </linearGradient>
    <linearGradient id="ce" x1="613.39" y1="428.84" x2="618.23" y2="424" gradientTransform="matrix(37, 0, 0, -37, -21623.54, 16199.33)" gradientUnits="userSpaceOnUse">
      <stop offset="0" stop-color="#7f7e7e"/>
      <stop offset="1" stop-color="#828181"/>
    </linearGradient>
    <linearGradient id="cf" x1="613.1" y1="434.77" x2="618.35" y2="429.53" gradientTransform="matrix(17, 0, 0, -59, -9343.53, 25738.45)" gradientUnits="userSpaceOnUse">
      <stop offset="0" stop-color="#959393"/>
      <stop offset="1" stop-color="#8f8d8e"/>
    </linearGradient>
    <linearGradient id="cg" x1="613.37" y1="433.6" x2="617.86" y2="429.11" gradientTransform="matrix(30, 0, 0, -54, -17325.53, 23562.08)" gradientUnits="userSpaceOnUse">
      <stop offset="0" stop-color="#949292"/>
      <stop offset="1" stop-color="#8a8989"/>
    </linearGradient>
    <linearGradient id="ch" x1="613.81" y1="431.87" x2="618.69" y2="426.99" gradientTransform="matrix(37, 0, 0, -41, -21623.54, 17924.41)" gradientUnits="userSpaceOnUse">
      <stop offset="0" stop-color="#8a8787"/>
      <stop offset="1" stop-color="#858383"/>
    </linearGradient>
    <linearGradient id="ci" x1="616.62" y1="433.26" x2="621.53" y2="428.36" gradientTransform="matrix(57, 0, 0, -57, -33866.58, 24888.85)" gradientUnits="userSpaceOnUse">
      <stop offset="0" stop-color="#878585"/>
      <stop offset="1" stop-color="#908e8f"/>
    </linearGradient>
    <linearGradient id="cj" x1="617.21" y1="434.62" x2="621.98" y2="429.85" gradientTransform="matrix(57, 0, 0, -82, -33866.58, 35815.71)" gradientUnits="userSpaceOnUse">
      <stop offset="0" stop-color="#828181"/>
      <stop offset="1" stop-color="#838282"/>
    </linearGradient>
    <linearGradient id="ck" x1="618.08" y1="435.98" x2="622.97" y2="431.09" gradientTransform="matrix(57, 0, 0, -54, -33851.58, 23546.08)" gradientUnits="userSpaceOnUse">
      <stop offset="0" stop-color="#9a9797"/>
      <stop offset="1" stop-color="#9b999a"/>
    </linearGradient>
    <linearGradient id="cl" x1="619.9" y1="433.03" x2="624.52" y2="428.41" gradientTransform="matrix(55, 0, 0, -82, -32593.58, 35815.71)" gradientUnits="userSpaceOnUse">
      <stop offset="0" stop-color="#7c7b7c"/>
      <stop offset="1" stop-color="#858383"/>
    </linearGradient>
    <linearGradient id="cm" x1="619.46" y1="433.7" x2="623.83" y2="429.33" gradientTransform="matrix(86, 0, 0, -66, -51615.58, 28835.32)" gradientUnits="userSpaceOnUse">
      <stop offset="0" stop-color="#818080"/>
      <stop offset="1" stop-color="#8a8989"/>
    </linearGradient>
    <linearGradient id="cn" x1="628.18" y1="434.57" x2="632.76" y2="429.99" gradientTransform="matrix(28, 0, 0, -54, -16003.53, 23546.08)" gradientUnits="userSpaceOnUse">
      <stop offset="0" stop-color="#959393"/>
      <stop offset="1" stop-color="#a19f9f"/>
    </linearGradient>
    <linearGradient id="co" x1="618.53" y1="431.98" x2="623.01" y2="427.5" gradientTransform="matrix(86, 0, 0, -39, -51615.58, 17029.86)" gradientUnits="userSpaceOnUse">
      <stop offset="0" stop-color="#928f90"/>
      <stop offset="1" stop-color="#928f90"/>
    </linearGradient>
    <linearGradient id="cp" x1="631.35" y1="436.39" x2="635.82" y2="431.92" gradientTransform="matrix(28, 0, 0, -40, -15988.53, 17426.13)" gradientUnits="userSpaceOnUse">
      <stop offset="0" stop-color="#a9a6a6"/>
      <stop offset="1" stop-color="#a5a2a2"/>
    </linearGradient>
    <linearGradient id="cq" x1="621.37" y1="435.25" x2="626.28" y2="430.34" gradientTransform="matrix(71, 0, 0, -40, -42377.57, 17426.13)" gradientUnits="userSpaceOnUse">
      <stop offset="0" stop-color="#aaa7a7"/>
      <stop offset="1" stop-color="#a19f9f"/>
    </linearGradient>
    <linearGradient id="cr" x1="622.23" y1="433.66" x2="626.76" y2="429.13" gradientTransform="matrix(75, 0, 0, -39, -44833.57, 17029.86)" gradientUnits="userSpaceOnUse">
      <stop offset="0" stop-color="#979495"/>
      <stop offset="1" stop-color="#8f8d8e"/>
    </linearGradient>
    <linearGradient id="cs" x1="620.61" y1="434.1" x2="625.88" y2="428.82" gradientTransform="matrix(75, 0, 0, -26, -44833.57, 11333.28)" gradientUnits="userSpaceOnUse">
      <stop offset="0" stop-color="#9b999a"/>
      <stop offset="1" stop-color="#9b999a"/>
    </linearGradient>
    <linearGradient id="ct" x1="632.92" y1="431.91" x2="637.61" y2="427.22" gradientTransform="matrix(41, 0, 0, -38, -23899.55, 16594.61)" gradientUnits="userSpaceOnUse">
      <stop offset="0" stop-color="#8a8989"/>
      <stop offset="1" stop-color="#8f8d8e"/>
    </linearGradient>
    <linearGradient id="cu" x1="643.77" y1="433.19" x2="648.66" y2="428.3" gradientTransform="matrix(28, 0, 0, -26, -15904.53, 11333.28)" gradientUnits="userSpaceOnUse">
      <stop offset="0" stop-color="#9d9b9b"/>
      <stop offset="1" stop-color="#979495"/>
    </linearGradient>
    <linearGradient id="cv" x1="650.11" y1="433.69" x2="654.93" y2="428.86" gradientTransform="matrix(24, 0, 0, -32, -13444.53, 13963.94)" gradientUnits="userSpaceOnUse">
      <stop offset="0" stop-color="#949292"/>
      <stop offset="1" stop-color="#8f8d8e"/>
    </linearGradient>
  </defs>
  <title>backbanner</title>
  <g clip-path="url(#a)">
    <g>
      <rect x="0.93" y="-160.65" width="2727.42" height="690.74" fill="#284262"/>
      <g opacity="0.4">
        <g clip-path="url(#b)">
          <g opacity="0.4">
            <polygon points="2047.68 319.05 1814.96 522.86 2074.74 422.87 2047.68 319.05" stroke="#fff" stroke-miterlimit="10" stroke-width="0.75" fill="url(#c)"/>
            <polygon points="2680.9 34.48 2621.36 -27.04 2529.36 26.8 2680.9 34.48" stroke="#fff" stroke-miterlimit="10" stroke-width="0.75" fill="url(#d)"/>
            <polygon points="-111.76 -3.96 -73.88 7.57 39.78 -34.73 -111.76 -3.96" stroke="#fff" stroke-miterlimit="10" stroke-width="0.75" fill="url(#e)"/>
            <polygon points="39.78 -34.73 -73.88 7.57 83.08 3.73 39.78 -34.73" stroke="#fff" stroke-miterlimit="10" stroke-width="0.75" fill="url(#f)"/>
            <polygon points="581 261.37 396.98 357.5 548.52 415.19 581 261.37" stroke="#fff" stroke-miterlimit="10" stroke-width="0.75" fill="url(#g)"/>
            <polygon points="1235.86 253.68 1273.74 411.34 1354.92 192.15 1235.86 253.68" stroke="#fff" stroke-miterlimit="10" stroke-width="0.75" fill="url(#h)"/>
            <polygon points="1354.92 192.15 1165.5 122.93 1235.86 253.68 1354.92 192.15" stroke="#fff" stroke-miterlimit="10" stroke-width="0.75" fill="url(#i)"/>
            <polygon points="2431.94 299.82 2551.01 230.6 2399.47 253.68 2431.94 299.82" stroke="#fff" stroke-miterlimit="10" stroke-width="0.75" fill="url(#j)"/>
            <polygon points="2448.17 338.28 2551.01 230.6 2431.94 299.82 2448.17 338.28" stroke="#fff" stroke-miterlimit="10" stroke-width="0.75" fill="url(#k)"/>
            <polygon points="2578.06 422.87 2551.01 230.6 2448.17 338.28 2578.06 422.87" stroke="#fff" stroke-miterlimit="10" stroke-width="0.75" fill="url(#l)"/>
            <polygon points="2772.91 311.36 2551.01 230.6 2578.06 422.87 2772.91 311.36" stroke="#fff" stroke-miterlimit="10" stroke-width="0.75" fill="url(#m)"/>
            <polygon points="2680.9 34.48 2789.14 -15.5 2621.36 -27.04 2680.9 34.48" stroke="#fff" stroke-miterlimit="10" stroke-width="0.75" fill="url(#n)"/>
            <polygon points="2799.96 15.26 2789.14 -15.5 2680.9 34.48 2799.96 15.26" stroke="#fff" stroke-miterlimit="10" stroke-width="0.75" fill="url(#o)"/>
            <polygon points="581 261.37 548.52 415.19 710.88 438.25 581 261.37" stroke="#fff" stroke-miterlimit="10" stroke-width="0.75" fill="url(#p)"/>
            <polygon points="2074.74 422.87 2269.58 245.98 2047.68 319.05 2074.74 422.87" stroke="#fff" stroke-miterlimit="10" stroke-width="0.75" fill="url(#q)"/>
            <polygon points="2074.74 422.87 2448.17 338.28 2269.58 245.98 2074.74 422.87" stroke="#fff" stroke-miterlimit="10" stroke-width="0.75" fill="url(#r)"/>
            <polygon points="2431.94 299.82 2399.47 253.68 2269.58 245.98 2431.94 299.82" stroke="#fff" stroke-miterlimit="10" stroke-width="0.75" fill="url(#s)"/>
            <polygon points="2448.17 338.28 2431.94 299.82 2269.58 245.98 2448.17 338.28" stroke="#fff" stroke-miterlimit="10" stroke-width="0.75" fill="url(#t)"/>
            <polygon points="1165.5 15.26 900.31 -15.5 1100.56 103.7 1165.5 15.26" stroke="#fff" stroke-miterlimit="10" stroke-width="0.75" fill="url(#u)"/>
            <polygon points="1165.5 122.93 1165.5 15.26 1100.56 103.7 1165.5 122.93" stroke="#fff" stroke-miterlimit="10" stroke-width="0.75" fill="url(#v)"/>
            <polygon points="1235.86 46.02 1165.5 15.26 1165.5 122.93 1235.86 46.02" stroke="#fff" stroke-miterlimit="10" stroke-width="0.75" fill="url(#w)"/>
            <polygon points="526.87 -46.27 434.87 -15.5 667.58 57.56 526.87 -46.27" stroke="#fff" stroke-miterlimit="10" stroke-width="0.75" fill="url(#x)"/>
            <polygon points="667.58 57.56 721.71 -142.4 526.87 -46.27 667.58 57.56" stroke="#fff" stroke-miterlimit="10" stroke-width="0.75" fill="url(#y)"/>
            <polygon points="846.18 -46.27 721.71 -142.4 667.58 57.56 846.18 -46.27" stroke="#fff" stroke-miterlimit="10" stroke-width="0.75" fill="url(#z)"/>
            <polygon points="846.18 -46.27 667.58 57.56 900.31 -15.5 846.18 -46.27" stroke="#fff" stroke-miterlimit="10" stroke-width="0.75" fill="url(#aa)"/>
            <polygon points="900.31 -15.5 667.58 57.56 1100.56 103.7 900.31 -15.5" stroke="#fff" stroke-miterlimit="10" stroke-width="0.75" fill="url(#ab)"/>
            <polygon points="402.4 169.08 353.69 353.65 396.98 357.5 402.4 169.08" stroke="#fff" stroke-miterlimit="10" stroke-width="0.75" fill="url(#ac)"/>
            <polygon points="402.4 169.08 396.98 357.5 581 261.37 402.4 169.08" stroke="#fff" stroke-miterlimit="10" stroke-width="0.75" fill="url(#ad)"/>
            <polygon points="667.58 57.56 434.87 -15.5 402.4 169.08 667.58 57.56" stroke="#fff" stroke-miterlimit="10" stroke-width="0.75" fill="url(#ae)"/>
            <polygon points="667.58 57.56 402.4 169.08 581 261.37 667.58 57.56" stroke="#fff" stroke-miterlimit="10" stroke-width="0.75" fill="url(#af)"/>
            <polygon points="1165.5 15.26 1068.09 -157.78 900.31 -15.5 1165.5 15.26" stroke="#fff" stroke-miterlimit="10" stroke-width="0.75" fill="url(#ag)"/>
            <polygon points="2269.58 245.98 2399.47 253.68 2269.58 122.93 2269.58 245.98" stroke="#fff" stroke-miterlimit="10" stroke-width="0.75" fill="url(#ah)"/>
            <polygon points="2578.06 422.87 2799.96 522.86 2772.91 311.36 2578.06 422.87" stroke="#fff" stroke-miterlimit="10" stroke-width="0.75" fill="url(#ai)"/>
            <polygon points="-57.64 284.44 -155.06 445.95 45.19 519.01 -57.64 284.44" stroke="#fff" stroke-miterlimit="10" stroke-width="0.75" fill="url(#aj)"/>
            <polygon points="-57.64 284.44 45.19 519.01 353.69 353.65 -57.64 284.44" stroke="#fff" stroke-miterlimit="10" stroke-width="0.75" fill="url(#ak)"/>
            <polygon points="1306.22 -53.95 1068.09 -157.78 1165.5 15.26 1306.22 -53.95" stroke="#fff" stroke-miterlimit="10" stroke-width="0.75" fill="url(#al)"/>
            <polygon points="1235.86 46.02 1306.22 -53.95 1165.5 15.26 1235.86 46.02" stroke="#fff" stroke-miterlimit="10" stroke-width="0.75" fill="url(#am)"/>
            <polygon points="2399.47 253.68 2513.12 53.72 2269.58 122.93 2399.47 253.68" stroke="#fff" stroke-miterlimit="10" stroke-width="0.75" fill="url(#an)"/>
            <polygon points="2399.47 253.68 2551.01 230.6 2513.12 53.72 2399.47 253.68" stroke="#fff" stroke-miterlimit="10" stroke-width="0.75" fill="url(#ao)"/>
            <polygon points="2513.12 53.72 2680.9 34.48 2529.36 26.8 2513.12 53.72" stroke="#fff" stroke-miterlimit="10" stroke-width="0.75" fill="url(#ap)"/>
            <polygon points="2551.01 230.6 2680.9 34.48 2513.12 53.72 2551.01 230.6" stroke="#fff" stroke-miterlimit="10" stroke-width="0.75" fill="url(#aq)"/>
            <polygon points="28.95 -177.01 39.78 -34.73 310.39 30.64 28.95 -177.01" stroke="#fff" stroke-miterlimit="10" stroke-width="0.75" fill="url(#ar)"/>
            <polygon points="261.68 -273.15 28.95 -177.01 310.39 30.64 261.68 -273.15" stroke="#fff" stroke-miterlimit="10" stroke-width="0.75" fill="url(#as)"/>
            <polygon points="310.39 30.64 39.78 -34.73 83.08 3.73 310.39 30.64" stroke="#fff" stroke-miterlimit="10" stroke-width="0.75" fill="url(#at)"/>
            <polygon points="434.87 -15.5 261.68 -273.15 310.39 30.64 434.87 -15.5" stroke="#fff" stroke-miterlimit="10" stroke-width="0.75" fill="url(#au)"/>
            <polygon points="434.87 -15.5 310.39 30.64 402.4 169.08 434.87 -15.5" stroke="#fff" stroke-miterlimit="10" stroke-width="0.75" fill="url(#av)"/>
            <polygon points="1333.28 61.41 1235.86 46.02 1165.5 122.93 1333.28 61.41" stroke="#fff" stroke-miterlimit="10" stroke-width="0.75" fill="url(#aw)"/>
            <polygon points="1354.92 192.15 1333.28 61.41 1165.5 122.93 1354.92 192.15" stroke="#fff" stroke-miterlimit="10" stroke-width="0.75" fill="url(#ax)"/>
            <polygon points="1663.42 61.41 1333.28 61.41 1354.92 192.15 1663.42 61.41" stroke="#fff" stroke-miterlimit="10" stroke-width="0.75" fill="url(#ay)"/>
            <polygon points="1354.92 -11.66 1306.22 -53.95 1235.86 46.02 1354.92 -11.66" stroke="#fff" stroke-miterlimit="10" stroke-width="0.75" fill="url(#az)"/>
            <polygon points="1333.28 61.41 1354.92 -11.66 1235.86 46.02 1333.28 61.41" stroke="#fff" stroke-miterlimit="10" stroke-width="0.75" fill="url(#ba)"/>
            <polygon points="1663.42 61.41 1354.92 -11.66 1333.28 61.41 1663.42 61.41" stroke="#fff" stroke-miterlimit="10" stroke-width="0.75" fill="url(#bb)"/>
            <polygon points="1636.36 -65.49 1354.92 -11.66 1663.42 61.41 1636.36 -65.49" stroke="#fff" stroke-miterlimit="10" stroke-width="0.75" fill="url(#bc)"/>
            <polygon points="2799.96 15.26 2680.9 34.48 2816.2 30.64 2799.96 15.26" stroke="#fff" stroke-miterlimit="10" stroke-width="0.75" fill="url(#bd)"/>
            <polygon points="1814.96 15.26 1636.36 -65.49 1663.42 61.41 1814.96 15.26" stroke="#fff" stroke-miterlimit="10" stroke-width="0.75" fill="url(#be)"/>
            <polygon points="1793.31 -100.1 1636.36 -65.49 1814.96 15.26 1793.31 -100.1" stroke="#fff" stroke-miterlimit="10" stroke-width="0.75" fill="url(#bf)"/>
            <polygon points="2009.79 -77.03 1793.31 -100.1 1814.96 15.26 2009.79 -77.03" stroke="#fff" stroke-miterlimit="10" stroke-width="0.75" fill="url(#bg)"/>
            <polygon points="2118.04 72.94 2009.79 -77.03 1814.96 15.26 2118.04 72.94" stroke="#fff" stroke-miterlimit="10" stroke-width="0.75" fill="url(#bh)"/>
            <polygon points="2145.09 26.8 2009.79 -77.03 2118.04 72.94 2145.09 26.8" stroke="#fff" stroke-miterlimit="10" stroke-width="0.75" fill="url(#bi)"/>
            <polygon points="2204.63 -27.04 2009.79 -77.03 2145.09 26.8 2204.63 -27.04" stroke="#fff" stroke-miterlimit="10" stroke-width="0.75" fill="url(#bj)"/>
            <polygon points="2145.09 26.8 2118.04 72.94 2269.58 122.93 2145.09 26.8" stroke="#fff" stroke-miterlimit="10" stroke-width="0.75" fill="url(#bk)"/>
            <polygon points="2204.63 -27.04 2145.09 26.8 2269.58 122.93 2204.63 -27.04" stroke="#fff" stroke-miterlimit="10" stroke-width="0.75" fill="url(#bl)"/>
            <polygon points="-73.88 7.57 -57.64 284.44 180.5 84.48 -73.88 7.57" stroke="#fff" stroke-miterlimit="10" stroke-width="0.75" fill="url(#bm)"/>
            <polygon points="83.08 3.73 -73.88 7.57 180.5 84.48 83.08 3.73" stroke="#fff" stroke-miterlimit="10" stroke-width="0.75" fill="url(#bn)"/>
            <polygon points="180.5 84.48 -57.64 284.44 353.69 353.65 180.5 84.48" stroke="#fff" stroke-miterlimit="10" stroke-width="0.75" fill="url(#bo)"/>
            <polygon points="83.08 3.73 180.5 84.48 310.39 30.64 83.08 3.73" stroke="#fff" stroke-miterlimit="10" stroke-width="0.75" fill="url(#bp)"/>
            <polygon points="310.39 30.64 180.5 84.48 402.4 169.08 310.39 30.64" stroke="#fff" stroke-miterlimit="10" stroke-width="0.75" fill="url(#bq)"/>
            <polygon points="180.5 84.48 353.69 353.65 402.4 169.08 180.5 84.48" stroke="#fff" stroke-miterlimit="10" stroke-width="0.75" fill="url(#br)"/>
            <polygon points="710.88 438.25 997.73 411.34 581 261.37 710.88 438.25" stroke="#fff" stroke-miterlimit="10" stroke-width="0.75" fill="url(#bs)"/>
            <polygon points="2551.01 230.6 2897.38 184.46 2680.9 34.48 2551.01 230.6" stroke="#fff" stroke-miterlimit="10" stroke-width="0.75" fill="url(#bt)"/>
            <polygon points="2772.91 311.36 2897.38 184.46 2551.01 230.6 2772.91 311.36" stroke="#fff" stroke-miterlimit="10" stroke-width="0.75" fill="url(#bu)"/>
            <polygon points="2680.9 34.48 2897.38 184.46 2816.2 30.64 2680.9 34.48" stroke="#fff" stroke-miterlimit="10" stroke-width="0.75" fill="url(#bv)"/>
            <polygon points="2269.58 122.93 2377.82 -73.19 2204.63 -27.04 2269.58 122.93" stroke="#fff" stroke-miterlimit="10" stroke-width="0.75" fill="url(#bw)"/>
            <polygon points="2513.12 53.72 2377.82 -73.19 2269.58 122.93 2513.12 53.72" stroke="#fff" stroke-miterlimit="10" stroke-width="0.75" fill="url(#bx)"/>
            <polygon points="2529.36 26.8 2377.82 -73.19 2513.12 53.72 2529.36 26.8" stroke="#fff" stroke-miterlimit="10" stroke-width="0.75" fill="url(#by)"/>
            <polygon points="2529.36 26.8 2621.36 -27.04 2377.82 -73.19 2529.36 26.8" stroke="#fff" stroke-miterlimit="10" stroke-width="0.75" fill="url(#bz)"/>
            <polygon points="1073.5 330.59 667.58 57.56 581 261.37 1073.5 330.59" stroke="#fff" stroke-miterlimit="10" stroke-width="0.75" fill="url(#ca)"/>
            <polygon points="581 261.37 997.73 411.34 1073.5 330.59 581 261.37" stroke="#fff" stroke-miterlimit="10" stroke-width="0.75" fill="url(#cb)"/>
            <polygon points="1100.56 103.7 667.58 57.56 1073.5 330.59 1100.56 103.7" stroke="#fff" stroke-miterlimit="10" stroke-width="0.75" fill="url(#cc)"/>
            <polygon points="997.73 411.34 1089.73 472.86 1073.5 330.59 997.73 411.34" stroke="#fff" stroke-miterlimit="10" stroke-width="0.75" fill="url(#cd)"/>
            <polygon points="1089.73 472.86 1273.74 411.34 1073.5 330.59 1089.73 472.86" stroke="#fff" stroke-miterlimit="10" stroke-width="0.75" fill="url(#ce)"/>
            <polygon points="1100.56 103.7 1073.5 330.59 1165.5 122.93 1100.56 103.7" stroke="#fff" stroke-miterlimit="10" stroke-width="0.75" fill="url(#cf)"/>
            <polygon points="1165.5 122.93 1073.5 330.59 1235.86 253.68 1165.5 122.93" stroke="#fff" stroke-miterlimit="10" stroke-width="0.75" fill="url(#cg)"/>
            <polygon points="1073.5 330.59 1273.74 411.34 1235.86 253.68 1073.5 330.59" stroke="#fff" stroke-miterlimit="10" stroke-width="0.75" fill="url(#ch)"/>
            <polygon points="1273.74 411.34 1582.24 269.06 1354.92 192.15 1273.74 411.34" stroke="#fff" stroke-miterlimit="10" stroke-width="0.75" fill="url(#ci)"/>
            <polygon points="1273.74 411.34 1517.29 584.38 1582.24 269.06 1273.74 411.34" stroke="#fff" stroke-miterlimit="10" stroke-width="0.75" fill="url(#cj)"/>
            <polygon points="1582.24 269.06 1663.42 61.41 1354.92 192.15 1582.24 269.06" stroke="#fff" stroke-miterlimit="10" stroke-width="0.75" fill="url(#ck)"/>
            <polygon points="1517.29 584.38 1814.96 522.86 1582.24 269.06 1517.29 584.38" stroke="#fff" stroke-miterlimit="10" stroke-width="0.75" fill="url(#cl)"/>
            <polygon points="1582.24 269.06 1814.96 522.86 2047.68 319.05 1582.24 269.06" stroke="#fff" stroke-miterlimit="10" stroke-width="0.75" fill="url(#cm)"/>
            <polygon points="1733.77 169.08 1663.42 61.41 1582.24 269.06 1733.77 169.08" stroke="#fff" stroke-miterlimit="10" stroke-width="0.75" fill="url(#cn)"/>
            <polygon points="1582.24 269.06 2047.68 319.05 1733.77 169.08 1582.24 269.06" stroke="#fff" stroke-miterlimit="10" stroke-width="0.75" fill="url(#co)"/>
            <polygon points="1814.96 15.26 1663.42 61.41 1733.77 169.08 1814.96 15.26" stroke="#fff" stroke-miterlimit="10" stroke-width="0.75" fill="url(#cp)"/>
            <polygon points="2118.04 72.94 1814.96 15.26 1733.77 169.08 2118.04 72.94" stroke="#fff" stroke-miterlimit="10" stroke-width="0.75" fill="url(#cq)"/>
            <polygon points="1733.77 169.08 2047.68 319.05 2139.69 172.92 1733.77 169.08" stroke="#fff" stroke-miterlimit="10" stroke-width="0.75" fill="url(#cr)"/>
            <polygon points="2139.69 172.92 2118.04 72.94 1733.77 169.08 2139.69 172.92" stroke="#fff" stroke-miterlimit="10" stroke-width="0.75" fill="url(#cs)"/>
            <polygon points="2047.68 319.05 2269.58 245.98 2139.69 172.92 2047.68 319.05" stroke="#fff" stroke-miterlimit="10" stroke-width="0.75" fill="url(#ct)"/>
            <polygon points="2269.58 122.93 2118.04 72.94 2139.69 172.92 2269.58 122.93" stroke="#fff" stroke-miterlimit="10" stroke-width="0.75" fill="url(#cu)"/>
            <polygon points="2269.58 245.98 2269.58 122.93 2139.69 172.92 2269.58 245.98" stroke="#fff" stroke-miterlimit="10" stroke-width="0.75" fill="url(#cv)"/>
          </g>
        </g>
      </g>
    </g>
  </g>
</svg>
