<?xml version="1.0" encoding="utf-8"?>
<!-- Generator: Adobe Illustrator 22.1.0, SVG Export Plug-In . SVG Version: 6.00 Build 0)  -->
<svg version="1.1"
	 id="svg2" inkscape:export-filename="/Users/tm-tbs/Desktop/Graphics/panels/bubbles.png" inkscape:export-xdpi="90" inkscape:export-ydpi="90" inkscape:version="0.91 r13725" sodipodi:docname="bubbles.svg" xmlns:cc="http://creativecommons.org/ns#" xmlns:dc="http://purl.org/dc/elements/1.1/" xmlns:inkscape="http://www.inkscape.org/namespaces/inkscape" xmlns:rdf="http://www.w3.org/1999/02/22-rdf-syntax-ns#" xmlns:sodipodi="http://sodipodi.sourceforge.net/DTD/sodipodi-0.dtd" xmlns:svg="http://www.w3.org/2000/svg"
	 xmlns="http://www.w3.org/2000/svg" xmlns:xlink="http://www.w3.org/1999/xlink" x="0px" y="0px" viewBox="0 0 392 391"
	 style="enable-background:new 0 0 392 391;" xml:space="preserve">
<style type="text/css">
	.st0{fill-opacity:0.1176;}
	.st1{fill-opacity:0.2353;}
	.st2{fill-opacity:0.3922;}
</style>
<sodipodi:namedview  bordercolor="#666666" borderopacity="1" gridtolerance="10" guidetolerance="10" id="namedview60" inkscape:current-layer="svg2" inkscape:cx="170.55167" inkscape:cy="171.68783" inkscape:pageopacity="0" inkscape:pageshadow="2" inkscape:window-height="839" inkscape:window-maximized="0" inkscape:window-width="1440" inkscape:window-x="28" inkscape:window-y="66" inkscape:zoom="0.52991453" objecttolerance="10" pagecolor="#ffffff" showgrid="false" units="mm">
	</sodipodi:namedview>
<g id="g4263" transform="matrix(0.5823554,0,0,0.5823554,-28.593324,159.73347)">
	<circle id="path4192" class="st0" cx="385.6" cy="62" r="334.3"/>
	<circle id="circle4194" class="st0" cx="179.3" cy="62" r="128"/>
	<circle id="circle4196" class="st0" cx="513.9" cy="62" r="206.2"/>
	<circle id="circle4198" class="st1" cx="128.3" cy="10" r="53.3"/>
	<circle id="circle4200" class="st1" cx="216.9" cy="98.6" r="71.2"/>
	<circle id="circle4202" class="st1" cx="107.5" cy="99.6" r="37.9"/>
	<circle id="circle4223" class="st2" cx="440" cy="142" r="96.3"/>
	<circle id="circle4225" class="st2" cx="467.2" cy="-34.3" r="82"/>
	<circle id="circle4227" class="st2" cx="596.2" cy="-41.8" r="47"/>
	<circle id="circle4229" class="st2" cx="652.3" cy="11.6" r="30.4"/>
	<circle id="circle4231" class="st2" cx="659.4" cy="67.5" r="26"/>
	<circle id="circle4233" class="st2" cx="632.9" cy="108.2" r="22.5"/>
	<circle id="circle4235" class="st2" cx="588.8" cy="114.9" r="21.9"/>
	<circle id="circle4237" class="st2" cx="549.2" cy="100.5" r="20.3"/>
	<circle id="circle4239" class="st2" cx="537.3" cy="63.2" r="18.8"/>
	<circle id="circle4241" class="st2" cx="544.8" cy="28.3" r="16.8"/>
	<circle id="circle4243" class="st2" cx="576.7" cy="18.8" r="16.4"/>
	<circle id="circle4245" class="st2" cx="607.9" cy="21" r="14.7"/>
	<circle id="circle4247" class="st2" cx="568.2" cy="46.3" r="12.3"/>
	<circle id="circle4249" class="st2" cx="592.1" cy="42.2" r="11.5"/>
	<circle id="circle4251" class="st2" cx="622.7" cy="46.2" r="14.4"/>
	<circle id="circle4253" class="st2" cx="619.9" cy="74.2" r="13.6"/>
	<circle id="circle4255" class="st2" cx="593.2" cy="79.6" r="13.6"/>
	<circle id="circle4257" class="st2" cx="567.9" cy="71.6" r="12.8"/>
	<circle id="circle4259" class="st2" cx="602.9" cy="59.4" r="8.8"/>
	<circle id="circle4261" class="st2" cx="583.7" cy="59" r="7.3"/>
</g>
</svg>
