<svg id="svg2" xmlns="http://www.w3.org/2000/svg" viewBox="0 0 528.51 358"><defs><style>.cls-1{fill-opacity:0.12;}.cls-2{fill-opacity:0.24;}.cls-3{fill-opacity:0.39;}.cls-4{fill:none;}</style></defs><title>bubbles</title><g id="g4263"><circle id="path4192" class="cls-1" cx="263.97" cy="178.84" r="150.5"/><circle id="circle4194" class="cls-1" cx="171.1" cy="178.84" r="57.62"/><circle id="circle4196" class="cls-1" cx="321.74" cy="178.84" r="92.83"/><circle id="circle4198" class="cls-2" cx="148.14" cy="155.43" r="23.99"/><circle id="circle4200" class="cls-2" cx="188.03" cy="195.32" r="32.06"/><circle id="circle4202" class="cls-2" cx="138.77" cy="195.77" r="17.06"/><circle id="circle4223" class="cls-3" cx="288.47" cy="214.86" r="43.36" transform="translate(30.18 465.19) rotate(-80.78)"/><circle id="circle4225" class="cls-3" cx="300.72" cy="135.48" r="36.91"/><circle id="circle4227" class="cls-3" cx="358.79" cy="132.1" r="21.16"/><circle id="circle4229" class="cls-3" cx="384.04" cy="156.15" r="13.69"/><circle id="circle4231" class="cls-3" cx="387.24" cy="181.31" r="11.71"/><circle id="circle4233" class="cls-3" cx="375.31" cy="199.63" r="10.13"/><circle id="circle4235" class="cls-3" cx="355.46" cy="202.65" r="9.86"/><circle id="circle4237" class="cls-3" cx="337.63" cy="196.17" r="9.14"/><circle id="circle4239" class="cls-3" cx="332.27" cy="179.38" r="8.47"/><circle id="circle4241" class="cls-3" cx="335.65" cy="163.67" r="7.56"/><circle id="circle4243" class="cls-3" cx="350.01" cy="159.39" r="7.39"/><circle id="circle4245" class="cls-3" cx="364.06" cy="160.38" r="6.61"/><circle id="circle4247" class="cls-3" cx="346.18" cy="171.77" r="5.54"/><circle id="circle4249" class="cls-3" cx="356.95" cy="169.93" r="5.18"/><circle id="circle4251" class="cls-3" cx="370.72" cy="171.73" r="6.48"/><circle id="circle4253" class="cls-3" cx="369.46" cy="184.33" r="6.13"/><circle id="circle4255" class="cls-3" cx="357.43" cy="186.76" r="6.13"/><circle id="circle4257" class="cls-3" cx="346.05" cy="183.16" r="5.76"/><circle id="circle4259" class="cls-3" cx="361.8" cy="177.67" r="3.96"/><circle id="circle4261" class="cls-3" cx="353.16" cy="177.49" r="3.28"/></g><rect class="cls-4" width="528.51" height="358"/></svg>