<svg id="svg2" xmlns="http://www.w3.org/2000/svg" xmlns:xlink="http://www.w3.org/1999/xlink" viewBox="0 0 530.84 357.67"><defs><style>.cls-1,.cls-10,.cls-5,.cls-6{fill:none;}.cls-2,.cls-9{fill-opacity:0.18;}.cls-10,.cls-16,.cls-17,.cls-20,.cls-3,.cls-5,.cls-6,.cls-9{stroke:#000;}.cls-16,.cls-17,.cls-20,.cls-3,.cls-9{stroke-linejoin:round;}.cls-3{stroke-width:3.76px;}.cls-16,.cls-4{fill:#fff;}.cls-16,.cls-17,.cls-5{stroke-width:2px;}.cls-7{fill-opacity:0.55;}.cls-8{fill-opacity:0.47;}.cls-10,.cls-20,.cls-9{stroke-width:4px;}.cls-10,.cls-17,.cls-20{stroke-linecap:round;}.cls-11{clip-path:url(#clip-path);}.cls-12{clip-path:url(#clip-path-2);}.cls-13{clip-path:url(#clip-path-3);}.cls-14{clip-path:url(#clip-path-4);}.cls-15,.cls-17,.cls-20{fill-opacity:0.35;}.cls-18{clip-path:url(#clip-path-5);}.cls-19{clip-path:url(#clip-path-6);}</style><clipPath id="clip-path"><path class="cls-1" d="M358.2,45.05h31.92a.69.69,0,0,1,.71.67h0V59a.69.69,0,0,1-.67.71h-32a.69.69,0,0,1-.7-.68h0V45.76C357.6,45.26,357.84,45.05,358.2,45.05Z"/></clipPath><clipPath id="clip-path-2"><path class="cls-1" d="M358.2,89.1h31.92a.69.69,0,0,1,.71.67h0V103a.69.69,0,0,1-.68.7H358.2a.67.67,0,0,1-.7-.64h0V89.8A.85.85,0,0,1,358.2,89.1Z"/></clipPath><clipPath id="clip-path-3"><path class="cls-1" d="M358.91,133.24h31.93a.69.69,0,0,1,.71.67h0v13.17a.69.69,0,0,1-.67.71h-32a.7.7,0,0,1-.71-.69h0V133.9a.67.67,0,0,1,.68-.66h.06Z"/></clipPath><clipPath id="clip-path-4"><path class="cls-1" d="M121.73,113h12c.1,0,.2.1.2.3v5c0,.1-.1.3-.2.3h-12c-.11,0-.21-.1-.21-.3v-5C121.52,113.14,121.62,113,121.73,113Z"/></clipPath><clipPath id="clip-path-5"><path class="cls-1" d="M147.84,49.7h12c.1,0,.2.1.2.3v5c0,.1-.1.31-.2.31h-12c-.1,0-.2-.1-.2-.31V50C147.59,49.8,147.69,49.7,147.84,49.7Z"/></clipPath><clipPath id="clip-path-6"><path class="cls-1" d="M173.84,69.2h12c.1,0,.2.1.2.3v5c0,.1-.1.3-.2.3h-12c-.1,0-.2-.1-.2-.3v-5C173.65,69.3,173.75,69.2,173.84,69.2Z"/></clipPath></defs><title>builder</title><g id="layer1"><path id="rect4338" class="cls-2" d="M422.84,0V139.5a15,15,0,0,1-14.94,15.06H117a15,15,0,0,1-15-15h0V0"/><path id="path4328" class="cls-3" d="M265.47,190.82l-6.16,5.66V185.16l-19.47-20.91-1.21-4.44h47.58l-1.37,4.44-19.5,20.81Z"/><path id="rect4340" class="cls-2" d="M101.33,357.67,99,208.28a7,7,0,0,1,6.93-7.07H418.71a7,7,0,0,1,7,7h0L428,357.67"/><path id="rect4342" class="cls-4" d="M106.17,357.62l-1.17-90a3.38,3.38,0,0,1,3.33-3.43h308.2a3.38,3.38,0,0,1,3.33,3.43h0l1.17,90"/><path id="rect4344" class="cls-4" d="M108.69,206.48H256.58a3.8,3.8,0,0,1,3.74,3.74V256.9a3.8,3.8,0,0,1-3.74,3.74H108.69A3.79,3.79,0,0,1,105,256.9V210.22a3.73,3.73,0,0,1,3.7-3.74Z"/><path id="rect4348" class="cls-4" d="M267.09,206.58h149.1a3.79,3.79,0,0,1,3.73,3.74V257a3.78,3.78,0,0,1-3.73,3.73H267.09a3.79,3.79,0,0,1-3.74-3.73V210.32a3.67,3.67,0,0,1,3.6-3.74h.14Z"/><g id="g5372"><g id="g5292"><path id="path5256" class="cls-5" d="M136.37,276.78h33.14"/><path id="path5258" class="cls-5" d="M146.37,280h23.14"/></g><g id="g5288"><path id="path5260" class="cls-5" d="M115.26,289.58h54"/><path id="path5262" class="cls-5" d="M146.17,292.71H169.3"/></g><path id="path5264" class="cls-5" d="M136.17,302.34H169.3"/><g id="g5284"><path id="path5268" class="cls-5" d="M127.58,315h42.33"/><path id="path5270" class="cls-5" d="M138.39,318.27h31.45"/></g><path id="path5272" class="cls-5" d="M137,327.8h33.13"/><g id="g5280"><path id="path5276" class="cls-5" d="M129.3,340.53h40.81"/><path id="path5278" class="cls-5" d="M147,343.76h23.13"/></g><path id="path5254" class="cls-6" d="M175,271.23v78.08"/></g><path id="path5201" class="cls-5" d="M111.84,215.27h50.3"/><g id="g5217"><path id="path5203" class="cls-5" d="M111.84,226.28h139.1"/><path id="path5205" class="cls-5" d="M111.84,232.54h139.1"/><path id="path5207" class="cls-5" d="M111.84,238.9h139.1"/></g><g id="g5213"><path id="path5209" class="cls-5" d="M111.84,247.19h21.7"/><path id="path5211" class="cls-5" d="M111.52,252.64h21.72"/></g><g id="g4899"><rect id="rect5397" x="177.68" y="301.63" width="31.62" height="8.18"/><rect id="rect5427" x="177.68" y="314.46" width="42.83" height="8.18"/><rect id="rect5458" x="177.68" y="339.92" width="61.11" height="8.18"/><rect id="rect5479" x="177.68" y="327.19" width="22.93" height="8.18"/><rect id="rect5503" x="177.68" y="288.91" width="42.33" height="8.18"/><rect id="rect5519" x="177.68" y="276.18" width="45.46" height="8.18"/><rect id="rect5222" x="271.43" y="211.63" width="7.17" height="6.16"/></g><path id="path5224" class="cls-5" d="M282.14,214.66H386.69"/><g id="g4935"><rect id="rect5334" class="cls-2" x="209.3" y="301.63" width="81.62" height="8.18"/><rect id="rect5431" class="cls-2" x="220.41" y="314.46" width="55.05" height="8.18"/><rect id="rect5462" class="cls-2" x="238.8" y="339.92" width="13.84" height="8.18"/><rect id="rect5483" class="cls-2" x="200.62" y="327.19" width="59.09" height="8.18"/><rect id="rect5507" class="cls-2" x="219.91" y="288.91" width="109.1" height="8.18"/><rect id="rect5523" class="cls-2" x="223.14" y="276.18" width="117.28" height="8.18"/><rect id="rect5232" class="cls-2" x="271.43" y="223.04" width="7.17" height="6.16"/></g><path id="path5234" class="cls-5" d="M282.14,226.18h66.57"/><g id="g4926"><rect id="rect5401" class="cls-7" x="290.92" y="301.63" width="6.26" height="8.18"/><rect id="rect5433" class="cls-7" x="275.57" y="314.46" width="6.26" height="8.18"/><rect id="rect5464" class="cls-7" x="252.64" y="339.92" width="1.62" height="8.18"/><rect id="rect5485" class="cls-7" x="259.71" y="327.19" width="4.55" height="8.18"/><rect id="rect5509" class="cls-7" x="329.11" y="288.91" width="8.28" height="8.18"/><rect id="rect5525" class="cls-7" x="340.42" y="276.18" width="8.99" height="8.18"/><rect id="rect5238" class="cls-7" x="271.43" y="234.56" width="7.17" height="6.16"/></g><path id="path5240" class="cls-5" d="M282.14,237.59h73.44"/><g id="g4944"><rect id="rect5403" class="cls-8" x="297.19" y="301.63" width="1.62" height="8.18"/><rect id="rect5435" class="cls-8" x="281.73" y="314.46" width="5.96" height="8.18"/><rect id="rect5466" class="cls-8" x="254.25" y="339.92" width="1.52" height="8.18"/><rect id="rect5487" class="cls-8" x="264.26" y="327.19" width="2.32" height="8.18"/><rect id="rect5511" class="cls-8" x="337.39" y="288.91" width="4.34" height="8.18"/><rect id="rect5527" class="cls-8" x="349.31" y="276.18" width="4.65" height="8.18"/><rect id="rect5244" class="cls-8" x="271.43" y="245.97" width="7.17" height="6.16"/></g><path id="path5246" class="cls-5" d="M282.14,249.11h86"/><ellipse id="path4304" class="cls-9" cx="374.06" cy="37.27" rx="14.85" ry="14.95"/><path id="path4306" class="cls-10" d="M386,29.5,376.08,36"/><g class="cls-11"><path id="path4355" class="cls-2" d="M374.06,15.46c-7.17,0-13.23,8.08-13.94,18.68a14.8,14.8,0,0,1,27.78-.8C387,23,381,15.46,374.06,15.46Zm-11.22,33c2.63,5.25,6.77,8.38,11.21,8.38,4.25,0,8.29-2.93,10.91-7.78a14.83,14.83,0,0,1-10.81,4.75,14.59,14.59,0,0,1-11.31-5.32Z"/></g><ellipse id="circle4320" class="cls-9" cx="374.06" cy="81.42" rx="14.85" ry="14.95"/><path id="path4322" class="cls-10" d="M374.06,67.08V78.9"/><g class="cls-12"><path id="path4357" class="cls-2" d="M374.06,59.5c-7.17,0-13.23,8.08-13.94,18.69a14.81,14.81,0,0,1,27.78-.81C387,67.18,381,59.6,374.06,59.5ZM362.84,92.63c2.63,5.26,6.77,8.39,11.21,8.39,4.25,0,8.29-2.93,10.91-7.78a14.64,14.64,0,0,1-20.68.91A13.78,13.78,0,0,1,362.84,92.63Z"/></g><ellipse id="circle4361" class="cls-9" cx="374.67" cy="125.46" rx="14.85" ry="14.95"/><path id="path4363" class="cls-10" d="M366,136.78l7.17-9.4"/><g class="cls-13"><path id="path4365" class="cls-2" d="M374.67,103.64c-7.17,0-13.23,8.08-13.94,18.69a14.81,14.81,0,0,1,27.78-.81C387.6,111.22,381.74,103.64,374.67,103.64Zm-11.21,33c2.62,5.25,6.76,8.38,11.21,8.38,4.24,0,8.28-2.93,10.91-7.78A14.84,14.84,0,0,1,374.77,142a14.65,14.65,0,0,1-11.31-5.31Z"/></g><g class="cls-14"><path id="path4418" class="cls-15" d="M127.69,101.9c-2.73,0-5,3-5.26,7.07a5.61,5.61,0,0,1,5.26-3.84,5.48,5.48,0,0,1,5.15,3.53C132.53,104.9,130.31,101.9,127.69,101.9Zm-4.25,12.42c1,2,2.53,3.13,4.25,3.13a5,5,0,0,0,4.14-2.93,5.55,5.55,0,0,1-7.84.38h0A5,5,0,0,1,123.44,114.32Z"/></g><circle id="circle4427" class="cls-16" cx="127.68" cy="111.52" r="4.34"/><path id="path4420" class="cls-15" d="M131.93,111.42c-.3-1.72-2.53-4.24-4.24-4.24s-3.84,2.32-4.55,4.24a4.46,4.46,0,0,0,4.44,3.84A4.37,4.37,0,0,0,131.93,111.42Z"/><path id="rect4437" class="cls-17" d="M127.69,11.62c-.91,0-1.72,1.72-1.72,3.74v92a4.59,4.59,0,0,1,1.72-.3,5,5,0,0,1,1.71.3v-92C129.4,13.34,128.7,11.62,127.69,11.62Zm1.71,104a4.54,4.54,0,0,1-1.71.31,4.8,4.8,0,0,1-1.72-.31v22.63c0,2.12.71,3.74,1.72,3.74s1.71-1.72,1.71-3.74Z"/><path id="rect4412" class="cls-17" d="M153.75,11.62c-.91,0-1.72,1.72-1.72,3.74V44a4.79,4.79,0,0,1,1.72-.3,5,5,0,0,1,1.72.3V15.36C155.47,13.36,154.66,11.62,153.75,11.62Zm1.72,40.71a4.79,4.79,0,0,1-1.72.3,5,5,0,0,1-1.72-.3v86c0,2.12.81,3.74,1.72,3.74s1.72-1.72,1.72-3.74Z"/><g class="cls-18"><path id="path4451" class="cls-15" d="M153.75,38.59c-2.73,0-4.95,3-5.25,7.07a5.6,5.6,0,0,1,5.25-3.84,5.48,5.48,0,0,1,5.15,3.54C158.6,41.42,156.37,38.59,153.75,38.59ZM149.51,51c1,2,2.52,3.14,4.24,3.14a5,5,0,0,0,4.14-2.93,5.6,5.6,0,0,1-4,1.81A5.53,5.53,0,0,1,149.51,51Z"/></g><circle id="circle4455" class="cls-16" cx="153.84" cy="48.18" r="4.34"/><path id="path4453" class="cls-15" d="M158.09,48.08c-.3-1.81-2.62-4.34-4.24-4.34s-3.33,1.72-4.55,4.34a4.44,4.44,0,0,0,8.79,0Z"/><path id="rect4433" class="cls-17" d="M179.84,11.62c-.91,0-1.72,1.72-1.72,3.74V63.64a4.79,4.79,0,0,1,1.72-.3,5,5,0,0,1,1.72.3V15.36C181.53,13.34,180.84,11.62,179.84,11.62Zm1.69,60.28a4.6,4.6,0,0,1-1.72.31,5,5,0,0,1-1.72-.31v66.37c0,2.12.81,3.74,1.72,3.74s1.72-1.72,1.72-3.74Z"/><g class="cls-19"><path id="path4460" class="cls-15" d="M179.84,58c-2.73,0-5,3-5.25,7.08a5.6,5.6,0,0,1,5.25-3.84A5.48,5.48,0,0,1,185,64.75C184.66,60.9,182.44,58,179.84,58ZM175.6,70.51c1,2,2.52,3.13,4.24,3.13A5,5,0,0,0,184,70.71a5.59,5.59,0,0,1-4,1.82,5.86,5.86,0,0,1-4.41-2Z"/></g><circle id="circle4464" class="cls-16" cx="179.91" cy="67.58" r="4.34"/><path id="path4462" class="cls-15" d="M184.15,67.48c-1.31-1.82-2.62-4.14-4.24-4.14s-3.53,1.82-4.54,4.14a4.46,4.46,0,0,0,4.47,3.84A4.35,4.35,0,0,0,184.15,67.48Z"/><g id="g4723"><g id="g4703"><path id="rect4570" class="cls-20" d="M217.5,22.3h33.24a5,5,0,0,1,4.95,5v17a5,5,0,0,1-4.95,5H217.5a5,5,0,0,1-4.95-5v-17A5,5,0,0,1,217.5,22.3Z"/><path id="rect4668" class="cls-2" d="M213.56,48.36v.71a5.31,5.31,0,0,0,5.27,5.35h30.51a5.25,5.25,0,0,0,5.26-5.22h0v-.84a4.86,4.86,0,0,1-3.94,1.92H217.4A4.8,4.8,0,0,1,213.56,48.36Z"/></g><g id="g4707"><path id="rect4677" class="cls-20" d="M216.9,66.48h33.23a5,5,0,0,1,5,5v17a5,5,0,0,1-5,5H216.9a5,5,0,0,1-5-5v-17A5,5,0,0,1,216.9,66.48Z"/><path id="path4679" class="cls-2" d="M213,92.44v.71a5.3,5.3,0,0,0,5.25,5.35h30.51A5.23,5.23,0,0,0,254,93.29v-.85a4.84,4.84,0,0,1-4,1.92H216.9A4.85,4.85,0,0,1,213,92.44Z"/></g><g id="g4711"><path id="rect4681" class="cls-20" d="M215.18,110.49h33.23a5,5,0,0,1,5,5v17a5,5,0,0,1-5,5H215.18a5,5,0,0,1-5-5v-17A5,5,0,0,1,215.18,110.49Z"/><path id="path4683" class="cls-2" d="M211.24,136.55v.71a5.3,5.3,0,0,0,5.25,5.35H247a5.23,5.23,0,0,0,5.25-5.21h0v-.85a4.8,4.8,0,0,1-3.94,1.92H215.08A4.76,4.76,0,0,1,211.24,136.55Z"/></g><g id="g4715"><path id="rect4685" class="cls-20" d="M276.4,110.59h33.23a5,5,0,0,1,4.95,5v17a5,5,0,0,1-4.95,4.95H276.4a5,5,0,0,1-4.95-4.95v-17a4.89,4.89,0,0,1,4.78-5h.17Z"/><path id="path4687" class="cls-2" d="M272.46,136.55v.7a5.31,5.31,0,0,0,5.25,5.36h30.51a5.25,5.25,0,0,0,5.25-5.25h0v-.81a4.86,4.86,0,0,1-3.94,1.92H276.29A4.77,4.77,0,0,1,272.46,136.55Z"/></g><g id="g4719"><path id="rect4689" class="cls-20" d="M274.07,66.46h33.24a5,5,0,0,1,4.95,5v17a5,5,0,0,1-4.95,5H274.07a5,5,0,0,1-5-5v-17A5,5,0,0,1,274.07,66.46Z"/><path id="path4691" class="cls-2" d="M270.13,92.42v.71a5.3,5.3,0,0,0,5.25,5.35h30.51a5.23,5.23,0,0,0,5.25-5.21h0v-.85a4.84,4.84,0,0,1-3.94,1.92H274A4.57,4.57,0,0,1,270.13,92.42Z"/></g><g id="g4699"><path id="rect4695" class="cls-20" d="M274.37,22.34h33.24a5,5,0,0,1,5,4.95v17a5,5,0,0,1-5,5H274.37a5,5,0,0,1-4.95-5v-17A5,5,0,0,1,274.37,22.34Z"/><path id="path4697" class="cls-2" d="M270.44,48.3V49a5.31,5.31,0,0,0,5.25,5.36h30.5a5.25,5.25,0,0,0,5.26-5.24h0V48.3a4.82,4.82,0,0,1-3.94,1.92H274.27A4.48,4.48,0,0,1,270.44,48.3Z"/></g></g></g><polygon class="cls-1" points="0 1 528.51 1 530.84 357.57 2.33 357.57 0 1"/></svg>