<?xml version="1.0" encoding="utf-8"?>
<!-- Generator: Adobe Illustrator 22.1.0, SVG Export Plug-In . SVG Version: 6.00 Build 0)  -->
<svg version="1.1"
	 id="svg2" inkscape:export-filename="/Users/tm-tbs/Desktop/Graphics/panels/Builder.png" inkscape:export-xdpi="90" inkscape:export-ydpi="90" inkscape:version="0.91 r13725" sodipodi:docname="Builder.svg" xmlns:cc="http://creativecommons.org/ns#" xmlns:dc="http://purl.org/dc/elements/1.1/" xmlns:inkscape="http://www.inkscape.org/namespaces/inkscape" xmlns:rdf="http://www.w3.org/1999/02/22-rdf-syntax-ns#" xmlns:sodipodi="http://sodipodi.sourceforge.net/DTD/sodipodi-0.dtd" xmlns:svg="http://www.w3.org/2000/svg"
	 xmlns="http://www.w3.org/2000/svg" xmlns:xlink="http://www.w3.org/1999/xlink" x="0px" y="0px" viewBox="0 0 498.9 354.3"
	 style="enable-background:new 0 0 498.9 354.3;" xml:space="preserve">
<style type="text/css">
	.st0{fill-opacity:0.1765;}
	.st1{stroke:#000000;stroke-width:3.7621;stroke-linejoin:round;}
	.st2{fill:#FFFFFF;}
	.st3{fill:none;stroke:#000000;stroke-width:2;}
	.st4{fill:none;stroke:#000000;}
	.st5{fill-opacity:0.549;}
	.st6{fill-opacity:0.4706;}
	.st7{fill-opacity:0.1765;stroke:#000000;stroke-width:4;stroke-linejoin:round;}
	.st8{fill:none;stroke:#000000;stroke-width:4;stroke-linecap:round;}
	.st9{clip-path:url(#SVGID_2_);fill-opacity:0.1765;}
	.st10{clip-path:url(#SVGID_4_);fill-opacity:0.1765;}
	.st11{clip-path:url(#SVGID_6_);fill-opacity:0.1765;}
	.st12{clip-path:url(#SVGID_8_);fill-opacity:0.3529;}
	.st13{fill:#FFFFFF;stroke:#000000;stroke-width:2;stroke-linejoin:round;}
	.st14{fill-opacity:0.3529;}
	.st15{fill-opacity:0.3529;stroke:#000000;stroke-width:2;stroke-linecap:round;stroke-linejoin:round;}
	.st16{clip-path:url(#SVGID_10_);fill-opacity:0.3529;}
	.st17{clip-path:url(#SVGID_12_);fill-opacity:0.3529;}
	.st18{fill-opacity:0.3529;stroke:#000000;stroke-width:4;stroke-linecap:round;stroke-linejoin:round;}
</style>
<sodipodi:namedview  bordercolor="#666666" borderopacity="1.0" id="base" inkscape:current-layer="layer1" inkscape:cx="229.59165" inkscape:cy="314.90562" inkscape:document-units="px" inkscape:pageopacity="0" inkscape:pageshadow="2" inkscape:showpageshadow="true" inkscape:snap-global="false" inkscape:snap-nodes="false" inkscape:snap-others="false" inkscape:window-height="856" inkscape:window-maximized="0" inkscape:window-width="1440" inkscape:window-x="8" inkscape:window-y="46" inkscape:zoom="2.8284271" pagecolor="#ffffff" showgrid="false">
	</sodipodi:namedview>
<g id="layer1" transform="translate(0,-609.44882)" inkscape:groupmode="layer" inkscape:label="Layer 1">
	<path id="rect4338_2_" class="st0" d="M408.3,609.4v138.1c0,8.2-6.6,14.9-14.8,14.9h-288c-8.2,0-14.8-6.7-14.8-14.9V609.4"/>
	<path id="path4328" inkscape:connector-curvature="0" sodipodi:nodetypes="ccccccccc" class="st1" d="M252.5,798.3l-6.1,5.6v-11.2
		L227.1,772l-1.2-4.4l47.1,0l-1.3,4.4l-19.3,20.6L252.5,798.3z"/>
	<path id="rect4340_2_" class="st0" d="M87.7,963.8V814.5c0-3.9,3.1-7,6.9-7h309.6c3.8,0,6.9,3.1,6.9,7v149.3"/>
	<path id="rect4342_2_" class="st2" d="M93.6,963.8V874c0-1.9,1.5-3.4,3.3-3.4H402c1.8,0,3.3,1.5,3.3,3.4v89.8"/>
	<path id="rect4344" class="st2" d="M97.3,813.8h146.4c2,0,3.7,1.7,3.7,3.7v46.2c0,2-1.7,3.7-3.7,3.7H97.3c-2,0-3.7-1.7-3.7-3.7
		v-46.2C93.6,815.5,95.2,813.8,97.3,813.8z"/>
	<path id="rect4348" class="st2" d="M254.1,813.9h147.6c2,0,3.7,1.7,3.7,3.7v46.2c0,2-1.7,3.7-3.7,3.7H254.1c-2,0-3.7-1.7-3.7-3.7
		v-46.2C250.4,815.5,252,813.9,254.1,813.9z"/>
	<g id="g5372">
		<g id="g5292" transform="translate(0,-2)">
			<path id="path5256" inkscape:connector-curvature="0" class="st3" d="M124.7,885.4h32.8"/>
			<path id="path5258" inkscape:connector-curvature="0" class="st3" d="M134.6,888.6h22.9"/>
		</g>
		<g id="g5288" transform="translate(0,0.2627411)">
			<path id="path5260" inkscape:connector-curvature="0" class="st3" d="M103.8,895.8h53.5"/>
			<path id="path5262" inkscape:connector-curvature="0" class="st3" d="M134.4,898.9h22.9"/>
		</g>
		<path id="path5264" inkscape:connector-curvature="0" class="st3" d="M124.5,908.7h32.8"/>
		<g id="g5284" transform="translate(0,-2.6363525)">
			<path id="path5268" inkscape:connector-curvature="0" class="st3" d="M116,923.9h41.9"/>
			<path id="path5270" inkscape:connector-curvature="0" class="st3" d="M126.7,927.1h31.1"/>
		</g>
		<path id="path5272" inkscape:connector-curvature="0" class="st3" d="M125.3,933.9h32.8"/>
		<g id="g5280" transform="translate(0,-2)">
			<path id="path5276" inkscape:connector-curvature="0" class="st3" d="M117.7,948.5h40.4"/>
			<path id="path5278" inkscape:connector-curvature="0" class="st3" d="M135.2,951.7h22.9"/>
		</g>
		<path id="path5254" inkscape:connector-curvature="0" class="st4" d="M162.9,877.9v77.3"/>
	</g>
	<path id="path5201" inkscape:connector-curvature="0" class="st3" d="M100.4,822.5h49.8"/>
	<g id="g5217" transform="translate(0,1.502594)">
		<path id="path5203" inkscape:connector-curvature="0" class="st3" d="M100.4,831.9h137.7"/>
		<path id="path5205" inkscape:connector-curvature="0" class="st3" d="M100.4,838.1h137.7"/>
		<path id="path5207" inkscape:connector-curvature="0" class="st3" d="M100.4,844.4h137.7"/>
	</g>
	<g id="g5213">
		<path id="path5209" inkscape:connector-curvature="0" class="st3" d="M100.4,854.1h21.5"/>
		<path id="path5211" inkscape:connector-curvature="0" class="st3" d="M100.1,859.5h21.5"/>
	</g>
	<g id="g4899">
		<rect id="rect5397" x="165.6" y="908" width="31.3" height="8.1"/>
		<rect id="rect5427" x="165.6" y="920.7" width="42.4" height="8.1"/>
		<rect id="rect5458" x="165.6" y="945.9" width="60.5" height="8.1"/>
		<rect id="rect5479" x="165.6" y="933.3" width="22.7" height="8.1"/>
		<rect id="rect5503" x="165.6" y="895.4" width="41.9" height="8.1"/>
		<rect id="rect5519" x="165.6" y="882.8" width="45" height="8.1"/>
		<rect id="rect5222" x="258.4" y="818.9" width="7.1" height="6.1"/>
	</g>
	<path id="path5224" inkscape:connector-curvature="0" class="st3" d="M269,821.9h103.5"/>
	<g id="g4935">
		<rect id="rect5334" x="196.9" y="908" class="st0" width="80.8" height="8.1"/>
		<rect id="rect5431" x="207.9" y="920.7" class="st0" width="54.5" height="8.1"/>
		<rect id="rect5462" x="226.1" y="945.9" class="st0" width="13.7" height="8.1"/>
		<rect id="rect5483" x="188.3" y="933.3" class="st0" width="58.5" height="8.1"/>
		<rect id="rect5507" x="207.4" y="895.4" class="st0" width="108" height="8.1"/>
		<rect id="rect5523" x="210.6" y="882.8" class="st0" width="116.1" height="8.1"/>
		<rect id="rect5232" x="258.4" y="830.2" class="st0" width="7.1" height="6.1"/>
	</g>
	<path id="path5234" inkscape:connector-curvature="0" class="st3" d="M269,833.3h65.9"/>
	<g id="g4926">
		<rect id="rect5401" x="277.7" y="908" class="st5" width="6.2" height="8.1"/>
		<rect id="rect5433" x="262.5" y="920.7" class="st5" width="6.2" height="8.1"/>
		<rect id="rect5464" x="239.8" y="945.9" class="st5" width="1.6" height="8.1"/>
		<rect id="rect5485" x="246.8" y="933.3" class="st5" width="4.5" height="8.1"/>
		<rect id="rect5509" x="315.5" y="895.4" class="st5" width="8.2" height="8.1"/>
		<rect id="rect5525" x="326.7" y="882.8" class="st5" width="8.9" height="8.1"/>
		<rect id="rect5238" x="258.4" y="841.6" class="st5" width="7.1" height="6.1"/>
	</g>
	<path id="path5240" inkscape:connector-curvature="0" class="st3" d="M269,844.6h72.7"/>
	<g id="g4944">
		<rect id="rect5403" x="283.9" y="908" class="st6" width="1.6" height="8.1"/>
		<rect id="rect5435" x="268.6" y="920.7" class="st6" width="5.9" height="8.1"/>
		<rect id="rect5466" x="241.4" y="945.9" class="st6" width="1.5" height="8.1"/>
		<rect id="rect5487" x="251.3" y="933.3" class="st6" width="2.3" height="8.1"/>
		<rect id="rect5511" x="323.7" y="895.4" class="st6" width="4.3" height="8.1"/>
		<rect id="rect5527" x="335.5" y="882.8" class="st6" width="4.6" height="8.1"/>
		<rect id="rect5244" x="258.4" y="852.9" class="st6" width="7.1" height="6.1"/>
	</g>
	<path id="path5246" inkscape:connector-curvature="0" class="st3" d="M269,856h85.1"/>
	<ellipse id="path4304" class="st7" cx="360" cy="646.3" rx="14.7" ry="14.8"/>
	<path id="path4306" inkscape:connector-curvature="0" class="st8" d="M371.8,638.6L362,645"/>
	<g>
		<defs>
			<path id="SVGID_1_" d="M344.3,654h31.6c0.4,0,0.7,0.3,0.7,0.7v13.1c0,0.4-0.3,0.7-0.7,0.7h-31.6c-0.4,0-0.7-0.3-0.7-0.7v-13.1
				C343.7,654.2,343.9,654,344.3,654z"/>
		</defs>
		<clipPath id="SVGID_2_">
			<use xlink:href="#SVGID_1_"  style="overflow:visible;"/>
		</clipPath>
		<path id="path4355" inkscape:connector-curvature="0" class="st9" d="M360,624.7c-7.1,0-13.1,8-13.8,18.5c2-6,7.6-10,13.9-10
			c6,0,11.4,3.6,13.6,9.2C372.8,632.2,366.9,624.7,360,624.7z M348.9,657.4c2.6,5.2,6.7,8.3,11.1,8.3c4.2,0,8.2-2.9,10.8-7.7
			c-2.8,3-6.7,4.7-10.7,4.7C355.8,662.7,351.7,660.8,348.9,657.4z"/>
	</g>
	<ellipse id="circle4320" class="st7" cx="360" cy="690" rx="14.7" ry="14.8"/>
	<path id="path4322" inkscape:connector-curvature="0" class="st8" d="M360,675.8v11.7"/>
	<g>
		<defs>
			<path id="SVGID_3_" d="M344.3,697.6h31.6c0.4,0,0.7,0.3,0.7,0.7v13.1c0,0.4-0.3,0.7-0.7,0.7h-31.6c-0.4,0-0.7-0.3-0.7-0.7v-13.1
				C343.7,697.9,344,697.6,344.3,697.6z"/>
		</defs>
		<clipPath id="SVGID_4_">
			<use xlink:href="#SVGID_3_"  style="overflow:visible;"/>
		</clipPath>
		<path id="path4357" inkscape:connector-curvature="0" class="st10" d="M360,668.3c-7.1,0-13.1,8-13.8,18.5c2-6,7.6-10,13.9-10
			c6,0,11.4,3.6,13.6,9.2C372.8,675.9,366.9,668.4,360,668.3z M348.9,701.1c2.6,5.2,6.7,8.3,11.1,8.3c4.2,0,8.2-2.9,10.8-7.7
			c-2.8,3-6.7,4.7-10.7,4.7C355.8,706.4,351.7,704.4,348.9,701.1z"/>
	</g>
	<ellipse id="circle4361" class="st7" cx="360.6" cy="733.6" rx="14.7" ry="14.8"/>
	<path id="path4363" inkscape:connector-curvature="0" class="st8" d="M352,744.8l7.1-9.3"/>
	<g>
		<defs>
			<path id="SVGID_5_" d="M345,741.3h31.6c0.4,0,0.7,0.3,0.7,0.7V755c0,0.4-0.3,0.7-0.7,0.7H345c-0.4,0-0.7-0.3-0.7-0.7v-13.1
				C344.3,741.6,344.6,741.3,345,741.3z"/>
		</defs>
		<clipPath id="SVGID_6_">
			<use xlink:href="#SVGID_5_"  style="overflow:visible;"/>
		</clipPath>
		<path id="path4365" inkscape:connector-curvature="0" class="st11" d="M360.6,712c-7.1,0-13.1,8-13.8,18.5c2-6,7.6-10,13.9-10
			c6,0,11.4,3.6,13.6,9.2C373.4,719.5,367.6,712,360.6,712z M349.5,744.7c2.6,5.2,6.7,8.3,11.1,8.3c4.2,0,8.2-2.9,10.8-7.7
			c-2.8,3-6.7,4.7-10.7,4.7C356.4,750,352.3,748.1,349.5,744.7z"/>
	</g>
	<g>
		<defs>
			<path id="SVGID_7_" d="M110.2,721.3h11.9c0.1,0,0.2,0.1,0.2,0.3v4.9c0,0.1-0.1,0.3-0.2,0.3h-11.9c-0.1,0-0.2-0.1-0.2-0.3v-4.9
				C110,721.4,110.1,721.3,110.2,721.3z"/>
		</defs>
		<clipPath id="SVGID_8_">
			<use xlink:href="#SVGID_7_"  style="overflow:visible;"/>
		</clipPath>
		<path id="path4418" inkscape:connector-curvature="0" class="st12" d="M116.1,710.3c-2.7,0-4.9,3-5.2,7c0.8-2.3,2.9-3.8,5.2-3.8
			c2.3,0,4.3,1.4,5.1,3.5C120.9,713.2,118.7,710.3,116.1,710.3z M111.9,722.6c1,2,2.5,3.1,4.2,3.1c1.6,0,3.1-1.1,4.1-2.9
			c-1,1.1-2.5,1.8-4,1.8C114.5,724.6,113,723.9,111.9,722.6z"/>
	</g>
	<ellipse id="circle4427" class="st13" cx="116.1" cy="719.8" rx="4.3" ry="4.3"/>
	<path id="path4420" inkscape:connector-curvature="0" class="st14" d="M120.3,719.7c-0.3-1.7-2.5-4.2-4.2-4.2
		c-1.7,0-3.8,2.3-4.5,4.2c0.3,2.2,2.2,3.8,4.4,3.8C118.2,723.5,120,721.9,120.3,719.7z"/>
	<path id="rect4437" inkscape:connector-curvature="0" class="st15" d="M116.1,620.9c-0.9,0-1.7,1.7-1.7,3.7v91.1
		c0.5-0.2,1.1-0.3,1.7-0.3c0.6,0,1.1,0.1,1.7,0.3v-91.1C117.8,622.6,117.1,620.9,116.1,620.9z M117.8,723.9
		c-0.5,0.2-1.1,0.3-1.7,0.3c-0.6,0-1.1-0.1-1.7-0.3v22.4c0,2.1,0.7,3.7,1.7,3.7s1.7-1.7,1.7-3.7V723.9L117.8,723.9z"/>
	<path id="rect4412" inkscape:connector-curvature="0" class="st15" d="M141.9,620.9c-0.9,0-1.7,1.7-1.7,3.7v28.4
		c0.5-0.2,1.1-0.3,1.7-0.3c0.6,0,1.1,0.1,1.7,0.3v-28.4C143.6,622.6,142.8,620.9,141.9,620.9L141.9,620.9z M143.6,661.2
		c-0.5,0.2-1.1,0.3-1.7,0.3c-0.6,0-1.1-0.1-1.7-0.3v85.1c0,2.1,0.8,3.7,1.7,3.7c0.9,0,1.7-1.7,1.7-3.7V661.2L143.6,661.2z"/>
	<g>
		<defs>
			<path id="SVGID_9_" d="M136,658.6h11.9c0.1,0,0.2,0.1,0.2,0.3v4.9c0,0.1-0.1,0.3-0.2,0.3H136c-0.1,0-0.2-0.1-0.2-0.3v-4.9
				C135.8,658.7,135.9,658.6,136,658.6z"/>
		</defs>
		<clipPath id="SVGID_10_">
			<use xlink:href="#SVGID_9_"  style="overflow:visible;"/>
		</clipPath>
		<path id="path4451" inkscape:connector-curvature="0" class="st16" d="M141.9,647.6c-2.7,0-4.9,3-5.2,7c0.8-2.3,2.9-3.8,5.2-3.8
			c2.3,0,4.3,1.4,5.1,3.5C146.7,650.4,144.5,647.6,141.9,647.6z M137.7,659.9c1,2,2.5,3.1,4.2,3.1c1.6,0,3.1-1.1,4.1-2.9
			c-1,1.1-2.5,1.8-4,1.8C140.3,661.9,138.8,661.2,137.7,659.9z"/>
	</g>
	<ellipse id="circle4455" class="st13" cx="142" cy="657.1" rx="4.3" ry="4.3"/>
	<path id="path4453" inkscape:connector-curvature="0" class="st14" d="M146.2,657c-0.3-1.8-2.6-4.3-4.2-4.3c-1.7,0-3.3,1.7-4.5,4.3
		c0.3,2.2,2.2,3.8,4.4,3.8C144,660.8,145.8,659.2,146.2,657z"/>
	<path id="rect4433" inkscape:connector-curvature="0" class="st15" d="M167.7,620.9c-0.9,0-1.7,1.7-1.7,3.7v47.8
		c0.5-0.2,1.1-0.3,1.7-0.3c0.6,0,1.1,0.1,1.7,0.3v-47.8C169.4,622.6,168.7,620.9,167.7,620.9z M169.4,680.6
		c-0.5,0.2-1.1,0.3-1.7,0.3c-0.6,0-1.1-0.1-1.7-0.3v65.7c0,2.1,0.8,3.7,1.7,3.7c0.9,0,1.7-1.7,1.7-3.7V680.6L169.4,680.6z"/>
	<g>
		<defs>
			<path id="SVGID_11_" d="M161.8,677.9h11.9c0.1,0,0.2,0.1,0.2,0.3v4.9c0,0.1-0.1,0.3-0.2,0.3h-11.9c-0.1,0-0.2-0.1-0.2-0.3v-4.9
				C161.6,678,161.7,677.9,161.8,677.9z"/>
		</defs>
		<clipPath id="SVGID_12_">
			<use xlink:href="#SVGID_11_"  style="overflow:visible;"/>
		</clipPath>
		<path id="path4460" inkscape:connector-curvature="0" class="st17" d="M167.7,666.8c-2.7,0-4.9,3-5.2,7c0.8-2.3,2.9-3.8,5.2-3.8
			c2.3,0,4.3,1.4,5.1,3.5C172.5,669.7,170.3,666.8,167.7,666.8z M163.5,679.2c1,2,2.5,3.1,4.2,3.1c1.6,0,3.1-1.1,4.1-2.9
			c-1,1.1-2.5,1.8-4,1.8C166.1,681.2,164.6,680.4,163.5,679.2z"/>
	</g>
	<ellipse id="circle4464" class="st13" cx="167.8" cy="676.3" rx="4.3" ry="4.3"/>
	<path id="path4462" inkscape:connector-curvature="0" class="st14" d="M172,676.2c-1.3-1.8-2.6-4.1-4.2-4.1c-1.7,0-3.5,1.8-4.5,4.1
		c0.3,2.2,2.2,3.8,4.4,3.8C169.8,680.1,171.7,678.4,172,676.2z"/>
	<g id="g4723" transform="translate(3.4137363,0)">
		<g id="g4703" transform="translate(0,-1.8291048)">
			<path id="rect4570" class="st18" d="M201.6,633.3h32.9c2.7,0,4.9,2.2,4.9,4.9V655c0,2.7-2.2,4.9-4.9,4.9h-32.9
				c-2.7,0-4.9-2.2-4.9-4.9v-16.8C196.7,635.5,198.9,633.3,201.6,633.3z"/>
			<path id="rect4668" inkscape:connector-curvature="0" class="st0" d="M197.7,659.1v0.7c0,2.9,2.3,5.3,5.2,5.3h30.2
				c2.9,0,5.2-2.3,5.2-5.3v-0.7c-0.9,1.2-2.3,1.9-3.9,1.9h-32.9C200,661,198.6,660.3,197.7,659.1z"/>
		</g>
		<g id="g4707" transform="translate(0,5.8102951)">
			<path id="rect4677" class="st18" d="M201,669.4h32.9c2.7,0,4.9,2.2,4.9,4.9v16.8c0,2.7-2.2,4.9-4.9,4.9H201
				c-2.7,0-4.9-2.2-4.9-4.9v-16.8C196.1,671.6,198.3,669.4,201,669.4z"/>
			<path id="path4679" inkscape:connector-curvature="0" class="st0" d="M197.1,695.1v0.7c0,2.9,2.3,5.3,5.2,5.3h30.2
				c2.9,0,5.2-2.3,5.2-5.3v-0.7c-0.9,1.2-2.3,1.9-3.9,1.9H201C199.4,697,198,696.3,197.1,695.1L197.1,695.1z"/>
		</g>
		<g id="g4711" transform="translate(0,8.4793647)">
			<path id="rect4681" class="st18" d="M199.3,710.3h32.9c2.7,0,4.9,2.2,4.9,4.9V732c0,2.7-2.2,4.9-4.9,4.9h-32.9
				c-2.7,0-4.9-2.2-4.9-4.9v-16.8C194.4,712.6,196.6,710.3,199.3,710.3z"/>
			<path id="path4683" inkscape:connector-curvature="0" class="st0" d="M195.4,736.1v0.7c0,2.9,2.3,5.3,5.2,5.3h30.2
				c2.9,0,5.2-2.3,5.2-5.3v-0.7c-0.9,1.2-2.3,1.9-3.9,1.9h-32.9C197.7,738,196.3,737.3,195.4,736.1z"/>
		</g>
		<g id="g4715" transform="translate(0,7.7722724)">
			<path id="rect4685" class="st18" d="M259.9,711.1h32.9c2.7,0,4.9,2.2,4.9,4.9v16.8c0,2.7-2.2,4.9-4.9,4.9h-32.9
				c-2.7,0-4.9-2.2-4.9-4.9V716C255,713.3,257.1,711.1,259.9,711.1z"/>
			<path id="path4687" inkscape:connector-curvature="0" class="st0" d="M256,736.8v0.7c0,2.9,2.3,5.3,5.2,5.3h30.2
				c2.9,0,5.2-2.3,5.2-5.3v-0.7c-0.9,1.2-2.3,1.9-3.9,1.9h-32.9C258.3,738.7,256.9,738,256,736.8z"/>
		</g>
		<g id="g4719" transform="translate(0,3.6890182)">
			<path id="rect4689" class="st18" d="M257.6,671.5h32.9c2.7,0,4.9,2.2,4.9,4.9v16.8c0,2.7-2.2,4.9-4.9,4.9h-32.9
				c-2.7,0-4.9-2.2-4.9-4.9v-16.8C252.7,673.7,254.9,671.5,257.6,671.5z"/>
			<path id="path4691" inkscape:connector-curvature="0" class="st0" d="M253.7,697.2v0.7c0,2.9,2.3,5.3,5.2,5.3h30.2
				c2.9,0,5.2-2.3,5.2-5.3v-0.7c-0.9,1.2-2.3,1.9-3.9,1.9h-32.9C256,699.2,254.6,698.4,253.7,697.2z"/>
		</g>
		<g id="g4699" transform="translate(0,-2.1826204)">
			<path id="rect4695" class="st18" d="M257.9,633.7h32.9c2.7,0,4.9,2.2,4.9,4.9v16.8c0,2.7-2.2,4.9-4.9,4.9h-32.9
				c-2.7,0-4.9-2.2-4.9-4.9v-16.8C253,635.9,255.2,633.7,257.9,633.7z"/>
			<path id="path4697" inkscape:connector-curvature="0" class="st0" d="M254,659.4v0.7c0,2.9,2.3,5.3,5.2,5.3h30.2
				c2.9,0,5.2-2.3,5.2-5.3v-0.7c-0.9,1.2-2.3,1.9-3.9,1.9h-32.9C256.3,661.4,254.9,660.6,254,659.4z"/>
		</g>
	</g>
</g>
</svg>
