<svg xmlns="http://www.w3.org/2000/svg" width="600" height="600" viewBox="0 0 600 600">
  <title>appicons</title>
  <path d="M289,107.5V416.83c0,14.3245-.429,28.7235,0,43.0434.0062.2085,0,.418,0,.6267,0,9.4154,8.2792,18.4354,18,18,9.7524-.4368,18-7.9089,18-18V151.17c0-14.3245.429-28.7235,0-43.0434-.0062-.2085,0-.418,0-.6267,0-9.4154-8.2792-18.4354-18-18-9.7524.4368-18,7.9089-18,18Z" fill="#1e75e8"/>
  <path d="M69.5,503c0-23.196,103.87-42,232-42s232,18.804,232,42" fill="#1e75e8"/>
  <line x1="170" y1="141" x2="442" y2="111" fill="none" stroke="#1e75e8" stroke-linecap="round" stroke-miterlimit="10" stroke-width="20"/>
  <circle cx="170.4395" cy="323.8716" r="78" fill="none" stroke="#1e75e8" stroke-miterlimit="10" stroke-width="6"/>
  <circle cx="442" cy="298" r="78" fill="none" stroke="#1e75e8" stroke-miterlimit="10" stroke-width="6"/>
  <path d="M448.17,261.1992v34.0762h32.7715v8.7012H448.17v34.3652h-9.28V303.9766h-32.77v-8.7012h32.77V261.1992Z" fill="#1e75e8"/>
  <path d="M202.9844,322.6221v9.4258H137.0205v-9.4258Z" fill="#1e75e8"/>
  <line x1="170" y1="141" x2="170" y2="246" fill="none" stroke="#1e75e8" stroke-miterlimit="10" stroke-width="6"/>
  <line x1="442" y1="115" x2="442" y2="220" fill="none" stroke="#1e75e8" stroke-miterlimit="10" stroke-width="6"/>
</svg>
