<svg xmlns="http://www.w3.org/2000/svg" width="600" height="600" viewBox="0 0 600 600">
  <title>appicons</title>
  <path d="M282,58.566V436.3784c0,17.4509-.5169,34.9907,0,52.4362.0072.2432,0,.4876,0,.7309,0,9.4154,8.2792,18.4354,18,18,9.7524-.4368,18-7.9089,18-18V111.7331c0-17.4508.5169-34.9907,0-52.4362-.0072-.2431,0-.4876,0-.7309,0-9.4154-8.2792-18.4354-18-18-9.7524.4368-18,7.9089-18,18Z" fill="#1e75e8"/>
  <path d="M16.75,541.434c0-28.32,126.8153-51.278,283.25-51.278s283.25,22.9579,283.25,51.278" fill="#1e75e8"/>
  <line x1="133.9569" y1="99.4663" x2="466.0431" y2="62.8392" fill="none" stroke="#1e75e8" stroke-linecap="round" stroke-miterlimit="10" stroke-width="20"/>
  <g>
    <circle cx="134.2252" cy="322.7352" r="95.2306" fill="none" stroke="#1e75e8" stroke-miterlimit="10" stroke-width="6"/>
    <circle cx="465.7748" cy="291.1484" r="95.2306" fill="none" stroke="#1e75e8" stroke-miterlimit="10" stroke-width="6"/>
    <path d="M473.3066,246.22v41.6026h40.01v10.622h-40.01v41.9571h-11.33V298.4443h-40.01v-10.622h40.01V246.22Z" fill="#1e75e8"/>
    <path d="M173.9585,321.2109v11.5069H93.4243V321.2109Z" fill="#1e75e8"/>
    <line x1="133.6886" y1="99.4663" x2="133.6886" y2="227.6614" fill="none" stroke="#1e75e8" stroke-miterlimit="10" stroke-width="6"/>
    <line x1="465.7748" y1="67.7228" x2="465.7748" y2="195.9178" fill="none" stroke="#1e75e8" stroke-miterlimit="10" stroke-width="6"/>
  </g>
</svg>
