<svg xmlns="http://www.w3.org/2000/svg" viewBox="0 0 347 324.59"><defs><style>.cls-1{fill:#215186;}.cls-2,.cls-3,.cls-5{fill:#fff;}.cls-2,.cls-4,.cls-5,.cls-6{stroke:#fff;stroke-miterlimit:10;}.cls-2{stroke-width:5px;}.cls-4{fill:none;stroke-width:18.4px;}.cls-6{fill:#ceacec;}</style></defs><title>icons</title><g id="Artboard_8" data-name="Artboard 8"><path class="cls-1" d="M347,181.93A173.5,173.5,0,1,0,77.44,326.42H269.56A173.31,173.31,0,0,0,347,181.93Z"/><path class="cls-2" d="M65.38,195A42.41,42.41,0,0,0,76.8,224.17V210.62h5.76A28.83,28.83,0,0,1,78,195Zm75.8-11.53c-4.69-17.11-19.56-29.64-37.13-29.64v13.44c10.77,0,20,7,24,16.95"/><rect class="cls-3" x="76.7" y="213.04" width="12.52" height="12.52"/><path class="cls-4" d="M102.3,160.53c-14.64,0-26.51-12.19-26.51-27.24s11.87-27.23,26.51-27.23,26.52,12.19,26.52,27.23"/><rect class="cls-3" x="119.4" y="125.14" width="18.63" height="16.31" rx="7.38" ry="7.38"/><rect class="cls-3" x="62.83" y="185.18" width="17.72" height="16.31" rx="5.3" ry="5.3"/><rect class="cls-3" x="90.11" y="88.23" width="24.39" height="18.88" rx="5.91" ry="5.91"/><path class="cls-5" d="M306.28,138.58l-14.7,23.23a1.82,1.82,0,0,1-3.31-.54l-9-37.1a1.83,1.83,0,0,1,2.69-2L305.66,136A1.82,1.82,0,0,1,306.28,138.58Z"/><path class="cls-3" d="M285.33,254.76H76.7v14.71H49a6.11,6.11,0,0,0,1.88.29H285.33a6.13,6.13,0,0,0,6.22-6v-3A6.13,6.13,0,0,0,285.33,254.76Z"/><path class="cls-3" d="M48,267.44l-2.26-2.06a5.49,5.49,0,0,1-1.1-1.41,6.05,6.05,0,0,0,4.33,5.5v-1.33A6.43,6.43,0,0,1,48,267.44Z"/><polygon class="cls-3" points="76.7 254.76 68.2 254.76 48.96 254.76 48.96 268.14 48.96 269.47 48.96 269.47 48.97 269.47 76.7 269.47 76.7 254.76"/><rect class="cls-5" x="168.34" y="138.36" width="57.84" height="13.6" rx="6" ry="6" transform="translate(160.42 -96.97) rotate(45)"/><path class="cls-3" d="M44.47,265.87c2.26,4.13,6.93,4.81,10.4,1.53l19.55-18.49L186,143.4a11.32,11.32,0,0,0,3.24-6.4,11,11,0,0,0-1-7l-2.24-4.08a6.58,6.58,0,0,0-4.52-3.49l-.23,0a6.77,6.77,0,0,0-5.65,2L46.84,246.07l-2,1.88-.44.41a11.36,11.36,0,0,0-3.24,6.4,11.88,11.88,0,0,0,.11,4.34,9.64,9.64,0,0,0,.94,2.69Z"/><rect class="cls-5" x="206.65" y="144.27" width="97.23" height="13.33" rx="6" ry="6" transform="translate(-28.45 64.63) rotate(-13.68)"/><path class="cls-6" d="M85.86,250.92h23.47a6.1,6.1,0,0,0,6.17-6V216.72L80.87,248.44A6.22,6.22,0,0,0,85.86,250.92Z"/><path class="cls-6" d="M120.13,244.87a6.13,6.13,0,0,0,6.17,6h23.47a6.13,6.13,0,0,0,6.17-6v-67l-35.81,33.22Z"/><path class="cls-6" d="M161.45,172.46v72.39a6.14,6.14,0,0,0,6.18,6.07h23.46a6.14,6.14,0,0,0,6.18-6.07v-84l-11.33-11.15Z"/><path class="cls-6" d="M214.78,173.86a6.06,6.06,0,0,1-6.11-1.4l-5.15-5v77.45a6.13,6.13,0,0,0,6.18,6h23.46a6.12,6.12,0,0,0,6.17-6V168.05l-23.9,5.7A4.9,4.9,0,0,1,214.78,173.86Z"/><path class="cls-6" d="M244.94,244.84a6.14,6.14,0,0,0,6.17,6.08h23.46a6.14,6.14,0,0,0,6.18-6.08V157.57l-35.81,8.59Z"/></g></svg>