<svg xmlns="http://www.w3.org/2000/svg" viewBox="0 0 400 400"><defs><style>.cls-1{fill:#215186;}.cls-2,.cls-3,.cls-5{fill:#fff;}.cls-3,.cls-4,.cls-5,.cls-6{stroke:#fff;stroke-miterlimit:10;}.cls-3{stroke-width:5px;}.cls-4{fill:none;stroke-width:18.5px;}.cls-6{fill:#ceacec;}</style></defs><title>icons</title><g id="Artboard_8" data-name="Artboard 8"><path class="cls-1" d="M376,207.93A173.5,173.5,0,1,0,106.44,352.42H298.56A173.31,173.31,0,0,0,376,207.93Z"/><path class="cls-2" d="M316.71,269.19H99.58L87.44,281.63a5.87,5.87,0,0,1-8.07.24l-2.26-2.06A5.32,5.32,0,0,1,76,278.4a6.14,6.14,0,0,0,6.21,5.79H316.71a6.13,6.13,0,0,0,6.22-6v-3A6.13,6.13,0,0,0,316.71,269.19Z"/><path class="cls-3" d="M101.76,217a42.42,42.42,0,0,0,11.42,29.19V232.64h5.75A28.91,28.91,0,0,1,114.38,217Zm75.8-11.53c-4.69-17.11-19.56-29.65-37.13-29.65v13.45c10.77,0,20,7,24,16.94"/><rect class="cls-2" x="108.08" y="232.6" width="13.59" height="13.59"/><path class="cls-4" d="M139.16,182.55c-14.64,0-26.51-12.2-26.51-27.24s11.87-27.24,26.51-27.24,26.51,12.2,26.51,27.24"/><rect class="cls-2" x="156.26" y="146.57" width="18.63" height="16.31" rx="7.38" ry="7.38"/><rect class="cls-2" x="98.29" y="203.41" width="17.59" height="16.31" rx="5.3" ry="5.3"/><rect class="cls-2" x="126.96" y="108.04" width="24.39" height="18.88" rx="5.91" ry="5.91"/><rect class="cls-5" x="200.41" y="181.93" width="57.51" height="15" rx="6" ry="6" transform="translate(201.07 -106.56) rotate(45)"/><path class="cls-2" d="M76.33,280.94a7.82,7.82,0,0,0,11,1.71L107.14,268l113-83.58a8.08,8.08,0,0,0,1.74-11.15l-2.53-3.51a7.74,7.74,0,0,0-4.9-3.11l-.24,0a7.74,7.74,0,0,0-5.87,1.44L78,264.47,76,266l-.44.32a8,8,0,0,0-3.14,5.22,8.11,8.11,0,0,0,.29,3.64,7.71,7.71,0,0,0,1.11,2.29Z"/><rect class="cls-5" x="230.42" y="175.35" width="89.89" height="15" rx="6" ry="6" transform="translate(-54.73 200.1) rotate(-36.58)"/><path class="cls-5" d="M325.57,147.77l-5.95,30.13a1.82,1.82,0,0,1-3.25.74l-24.61-33.17a1.82,1.82,0,0,1,1.64-2.9l30.57,3A1.81,1.81,0,0,1,325.57,147.77Z"/><path class="cls-6" d="M152.25,255.83a7.88,7.88,0,0,0,7.86,7.86h20.28a7.89,7.89,0,0,0,7.86-7.86V215.5l-36,26.63Z"/><path class="cls-6" d="M192.88,212.08v43.63a7.89,7.89,0,0,0,7.86,7.86H221a7.89,7.89,0,0,0,7.86-7.86V207.17l-12.49-12.48Z"/><path class="cls-6" d="M273.47,201.09v54.62a7.88,7.88,0,0,0,7.86,7.86H301.6a7.89,7.89,0,0,0,7.87-7.86v-79l-1.13-1.52Z"/><path class="cls-6" d="M240.65,218.82a6.51,6.51,0,0,1-.66-.54l-6.77-6.77v44.2a7.89,7.89,0,0,0,7.86,7.86h20.28a7.89,7.89,0,0,0,7.86-7.86V204.24l-20.62,15.3A6,6,0,0,1,240.65,218.82Z"/><path class="cls-6" d="M140.47,263.69a7.88,7.88,0,0,0,7.86-7.86V245L123.1,263.69Z"/></g></svg>