<svg xmlns="http://www.w3.org/2000/svg" width="170" height="165" viewBox="0 0 170 165">
  <title>home_menu_icons</title>
  <g>
    <rect width="170" height="165" fill="none"/>
    <path d="M21.6374,144.0857l-7.84,11h148.94a3.698,3.698,0,0,1,3.69,3.68v1.78a3.6916,3.6916,0,0,1-3.69,3.68H5.6474a.41.41,0,0,1-.11-.01h-.12a3.4979,3.4979,0,0,1-2.25-.84l-.99-.85a4.3453,4.3453,0,0,1-.65-5.72l23-32.28a27.7079,27.7079,0,0,1-4.85-4.08q-7.89-8.28-9.04-21.8a1.5483,1.5483,0,0,1,1.58-1.64h7.3a1.5723,1.5723,0,0,1,1.56,1.34,21.1758,21.1758,0,0,0,6.5,12.77,18.6606,18.6606,0,0,0,4.36,3.01l1.8-2.53,4.79-6.73,4.42-6.2,9.09-12.75,1.39-1.96a28.8348,28.8348,0,0,0-10.26-5.6l-10.01-3.55q-10.59-3.69-15.41-10.52-4.8-6.825-4.81-18.2,0-13.59,7.6-21.97a24.55,24.55,0,0,1,11.8-7.32v-4.48a3.0662,3.0662,0,0,1,3.06-3.06h9.71a3.0728,3.0728,0,0,1,3.06,3.06v4.49a24.8,24.8,0,0,1,11.27,7.2q7.155,7.755,8.12,19.6a1.4892,1.4892,0,0,1-1.5,1.59h-6.89a1.5123,1.5123,0,0,1-1.48-1.28,20.4049,20.4049,0,0,0-5.52-11.53,16.3619,16.3619,0,0,0-11.98-4.61q-7.7848,0-12.51,4.87-4.74,4.875-4.74,13a14.7773,14.7773,0,0,0,3.49,10.19c2.33,2.61,6.17,4.84,11.55,6.72l8.16,2.95c6.27,2.13,11.14,4.84,14.66,8.1l1.12-1.57,1.25-1.74,1.15-1.63,2.21-3.09,3.13-4.39,5.88-8.26a3.5346,3.5346,0,0,1,5.24-.71l.76.64.03.03,30.32,21.95,43.27-6.31-1.12-9.18a.7834.7834,0,0,1,1.28-.69l14.4,12.01a.7889.7889,0,0,1,.14,1.05l-11.02,15.72a.7876.7876,0,0,1-1.42-.36l-1.11-9.1-44.87,6.53-.04.01a2.997,2.997,0,0,1-2.6-.48l-29.26-21.2-5.11,7.16-2.96,4.16-3.13,4.38-.75,1.06-1.49,2.08-6.55,9.21-1.07,1.49-7.95,11.17-1.91,2.67-3.83,5.38-3.18,4.47-1,1.39-1.14,1.6-4.03,5.66-.32.45-1.38,1.94-3.55,4.97Z" fill="#fff"/>
    <path d="M81.5653,53.98l.0311.0152Z" fill="#fff"/>
    <path d="M82.0529,54.229c.03.0173.0591.0372.0889.055C82.112,54.2661,82.0832,54.2463,82.0529,54.229Z" fill="#fff"/>
    <path d="M111.2355,90.2342l-.2917.0425c.07-.0114.1394-.007.2092-.0211C111.1808,90.25,111.2077,90.24,111.2355,90.2342Z" fill="#fff"/>
    <g>
      <path d="M97.3434,149.3454a3.75,3.75,0,0,1-2.6094-1.0473,3.3787,3.3787,0,0,1-1.0595-2.4531l.1816-63.8038,12.8233,8.9126a7.2892,7.2892,0,0,0,4.1787,1.3155,7.44,7.44,0,0,0,1.4218-.1377l.1026-.0244,6.3789-.8892-.1563,54.6919a3.5962,3.5962,0,0,1-3.68,3.4819Z" fill="#de4c4a"/>
      <path d="M94.851,83.95l11.2568,7.824a8.2826,8.2826,0,0,0,4.75,1.4949,8.4369,8.4369,0,0,0,1.6125-.156c.0252-.0049.05-.01.075-.0159l5.2124-.7287-.1528,53.5387a2.5973,2.5973,0,0,1-2.6866,2.4846l-17.572-.0462a2.754,2.754,0,0,1-1.9175-.7671,2.3873,2.3873,0,0,1-.7544-1.7307L94.851,83.95m-1.989-3.8182-.1878,65.71a4.6,4.6,0,0,0,4.6665,4.5035l17.5721.0461h.0129a4.6023,4.6023,0,0,0,4.679-4.4789l.1594-55.8443-7.5989,1.0622c-.0259.0054-.0508.014-.0769.0191a6.4221,6.4221,0,0,1-1.2307.1192,6.2927,6.2927,0,0,1-3.6079-1.1368l-14.3877-10Z" fill="#fff"/>
    </g>
    <g>
      <path d="M130.8083,149.3445a3.6,3.6,0,0,1-2.5049-1.0049,3.2376,3.2376,0,0,1-1.0166-2.3521l.1592-55.9834,24.9414-3.4858-.17,59.5342a3.449,3.449,0,0,1-3.53,3.3393Z" fill="#de4c4a"/>
      <path d="M151.3839,87.6681l-.1662,58.3812a2.4518,2.4518,0,0,1-2.5381,2.3424l-17.8689-.047a2.6039,2.6039,0,0,1-1.8127-.7249,2.2487,2.2487,0,0,1-.711-1.63l.1573-55.1153,22.94-3.2067m2.0066-2.3-26.9414,3.766-.1621,56.85a4.4543,4.4543,0,0,0,4.5183,4.36l17.8692.047h.0124a4.4564,4.4564,0,0,0,4.5308-4.3365l.1728-60.687Z" fill="#fff"/>
    </g>
    <path d="M82.4655,53.7906c.0422.0242.083.0518.1247.0771C82.5485,53.8424,82.5077,53.8148,82.4655,53.7906Z" fill="#fff"/>
    <path d="M81.923,53.515c.0342.0154.0676.033.1016.0491C81.99,53.5482,81.9574,53.53,81.923,53.515Z" fill="#fff"/>
    <path d="M80.8222,62.1506c-.075-.0362-.15-.0652-.2268-.0943C80.6713,62.0869,80.7477,62.1139,80.8222,62.1506Z" fill="#fff"/>
    <g>
      <path d="M29.3356,149.34a2.7916,2.7916,0,0,1-2.6543-1.8867L51.5768,112.51l-.0986,34.2456a2.7252,2.7252,0,0,1-2.793,2.6348Z" fill="#de4c4a"/>
      <path d="M50.5675,115.65l-.0888,31.1034a1.7278,1.7278,0,0,1-1.7993,1.6373l-19.3418-.0508a1.8268,1.8268,0,0,1-1.5047-.78l7.9561-11.1671,3.5437-4.974,1.3821-1.94.3178-.4461,4.0367-5.6656,1.14-1.6.9925-1.3924,3.1838-4.4689.1821-.2558m2.0181-6.2793-3.8291,5.3747-3.1838,4.4688-.9922,1.3922-1.14,1.6007-4.0366,5.6653-.3178.4462-1.3821,1.94L34.16,135.232,25.6051,147.24a3.7511,3.7511,0,0,0,3.7271,3.1l19.3418.0508h.01a3.7319,3.7319,0,0,0,3.7945-3.6318l.1069-37.3883Z" fill="#fff"/>
    </g>
    <g>
      <path d="M63.901,149.3469a3.9521,3.9521,0,0,1-2.7519-1.105,3.5669,3.5669,0,0,1-1.1192-2.5908l.129-45.1572L80.6637,72.8713l4.4952,3.125-.1983,69.72a3.7959,3.7959,0,0,1-3.8828,3.6763Z" fill="#de4c4a"/>
      <path d="M80.8883,74.2455l3.2691,2.2723L83.96,145.7132a2.7969,2.7969,0,0,1-2.8906,2.6789l-17.1658-.0451a2.96,2.96,0,0,1-2.06-.8247,2.577,2.577,0,0,1-.8135-1.8685l.1279-44.8284,19.7307-26.58m-.45-2.7487L59.16,100.1616l-.13,45.4865a4.8,4.8,0,0,0,4.8687,4.6989l17.1657.0451h.0135a4.8021,4.8021,0,0,0,4.8825-4.6733l.2-70.2445-5.7224-3.9776Z" fill="#fff"/>
    </g>
  </g>
</svg>
