<svg xmlns="http://www.w3.org/2000/svg" viewBox="0 0 347 324.59"><defs><style>.cls-1{fill:#215186;}.cls-2,.cls-3,.cls-5{fill:#fff;}.cls-2,.cls-4,.cls-5,.cls-6{stroke:#fff;stroke-miterlimit:10;}.cls-2{stroke-width:5px;}.cls-4{fill:none;stroke-width:18.5px;}.cls-6{fill:#ceacec;}</style></defs><g id="Artboard_8" data-name="Artboard 8"><path class="cls-1" d="M347,174.88A173.5,173.5,0,1,0,91.16,327.63H255.84A173.47,173.47,0,0,0,347,174.88Z"/><path class="cls-2" d="M71.44,181.29a42.4,42.4,0,0,0,11.42,29.18V196.92h5.76a28.79,28.79,0,0,1-4.55-15.63Zm75.81-11.53c-4.7-17.11-19.57-29.65-37.14-29.65v13.45c10.78,0,20,7,24,16.94"/><rect class="cls-3" x="81.24" y="199.35" width="12.52" height="12.52"/><path class="cls-4" d="M108.84,146.83c-14.64,0-26.51-12.19-26.51-27.23S94.2,92.36,108.84,92.36s26.51,12.2,26.51,27.24"/><rect class="cls-3" x="125.94" y="111.44" width="18.63" height="16.31" rx="7.38" ry="7.38"/><rect class="cls-3" x="68.9" y="170.18" width="17.59" height="16.31" rx="5.3" ry="5.3"/><rect class="cls-3" x="96.65" y="74.53" width="24.39" height="18.88" rx="5.91" ry="5.91"/><rect class="cls-5" x="156.18" y="148.13" width="57.84" height="13.6" rx="6" ry="6" transform="translate(81.85 -63.25) rotate(24.75)"/><path class="cls-3" d="M49.55,252.75a5.54,5.54,0,0,0,8.84,1.32l16.44-14.73,93.82-84.08a8.72,8.72,0,0,0,2.69-5.13,8.52,8.52,0,0,0-1-5.68l-1.93-3.3a5.7,5.7,0,0,0-3.86-2.86l-.2,0a5.85,5.85,0,0,0-4.78,1.57l-108.22,97-1.67,1.5-.36.32a8.74,8.74,0,0,0-2.7,5.13,9.3,9.3,0,0,0,.12,3.5,7.87,7.87,0,0,0,.83,2.18Z"/><rect class="cls-5" x="200.32" y="156.03" width="97.23" height="13.33" rx="6" ry="6" transform="translate(-7.48 12.07) rotate(-2.74)"/><path class="cls-5" d="M312.77,159.37l-17.72,21a1.83,1.83,0,0,1-3.21-1l-3.91-38a1.82,1.82,0,0,1,2.94-1.62l21.63,17A1.83,1.83,0,0,1,312.77,159.37Z"/><path class="cls-3" d="M292,242.77H83.41v14.72H55.68a6.41,6.41,0,0,0,1.87.28H292a6.13,6.13,0,0,0,6.22-6v-3A6.13,6.13,0,0,0,292,242.77Z"/><path class="cls-3" d="M54.7,255.45l-2.27-2.06A5.5,5.5,0,0,1,51.34,252a6.05,6.05,0,0,0,4.33,5.5v-1.33A6,6,0,0,1,54.7,255.45Z"/><polygon class="cls-3" points="83.41 242.77 74.91 242.77 55.67 242.77 55.67 256.15 55.67 257.49 55.67 257.49 55.68 257.49 83.41 257.49 83.41 242.77"/><path class="cls-6" d="M91.51,236h25.27a5.43,5.43,0,0,0,5.42-5.42V204.83L88.63,235.15A5.3,5.3,0,0,0,91.51,236Z"/><path class="cls-6" d="M126.87,230.59a5.43,5.43,0,0,0,5.42,5.42h25.27a5.44,5.44,0,0,0,5.42-5.42V168l-36.11,32.61Z"/><path class="cls-6" d="M167.64,163.79v66.8a5.44,5.44,0,0,0,5.42,5.42h25.27a5.44,5.44,0,0,0,5.42-5.42V178.13l-34.9-15.44Z"/><path class="cls-6" d="M208.62,230.06a6.19,6.19,0,0,0,6.17,6.17h23.46a6.19,6.19,0,0,0,6.18-6.17v-53l-35.81,1.71Z"/><path class="cls-6" d="M248.94,230.06a6.19,6.19,0,0,0,6.17,6.17h23.47a6.19,6.19,0,0,0,6.17-6.17V175.15l-35.81,1.71Z"/></g></svg>