<svg xmlns="http://www.w3.org/2000/svg" width="170" height="165" viewBox="0 0 170 165"><defs><style>.cls-1{fill:#de4c4a;stroke:#fff;stroke-miterlimit:10;}.cls-2{fill:#fff;}.cls-3{fill:none;}</style></defs><title>expend</title><g id="final_results" data-name="final results"><path class="cls-1" d="M30.4742,142.8808H45.5365c1.7767,0,3.23-2.0935,3.23-4.6522V116.1208l-20.009,26.0229A2.5205,2.5205,0,0,0,30.4742,142.8808Z"/><path class="cls-1" d="M53.4428,138.0254c0,2.6705,1.4363,4.8554,3.1919,4.8554H71.5176c1.7556,0,3.1919-2.1849,3.1919-4.8554V81.9679l-21.2667,29.214Z"/><path class="cls-1" d="M79.3854,78.0874v59.93c0,2.675,1.4363,4.8636,3.1919,4.8636H97.46c1.7558,0,3.1921-2.1886,3.1921-4.8636v-47.06L80.1,77.1039Z"/><path class="cls-1" d="M105.3279,137.3889c0,3.0206,1.6248,5.4919,3.6107,5.4919h13.7227c1.9859,0,3.6107-2.4713,3.6107-5.4919V90.265l-20.9441,1.522Z"/><path class="cls-1" d="M130.9478,137.384c0,3.0233,1.6248,5.4968,3.6107,5.4968h13.7227c1.9859,0,3.6107-2.4735,3.6107-5.4968V88.5031l-20.9441,1.5233Z"/><path class="cls-2" d="M18.4293,147.2613l-2.426,3.2131H156.0209c2.1676,0,3.9413,2.5215,3.9413,5.6032v2.81c0,3.0818-1.7737,5.6033-3.9413,5.6033H7.6587l.0068.0087c-.0273,0-.0545-.0087-.0815-.0087H7.482a2.7864,2.7864,0,0,1-1.0329-.21,6.3433,6.3433,0,0,1-3.88-4.1323c-.0544-.1139-.1087-.2277-.1563-.35L1.19,156.7168a9.952,9.952,0,0,1-.5231-2.04,12.1389,12.1389,0,0,1-.0748-3.2656,9.87,9.87,0,0,1,1.7056-4.7978l.231-.3064,1.0533-1.3921L21.65,121.0311c-4.5665-7.2054-7.0671-16.5471-7.0671-26.4491V92.4983h.027V89.863c0-2.5214,1.6785-4.5877,3.7375-4.5877h3.8258c2.0522,0,3.7374,2.0663,3.7374,4.5877v2.6353h.0681V94.582a31.1116,31.1116,0,0,0,2.6637,12.905l1.1007,2.4076.1223.2714.2039-.2714,22.2479-29.417c-2.7656-5.2881-6.9788-8.5012-11.5385-8.5012H39.08v-.0087c-12.218-.2277-22.105-13.9556-22.105-30.8091,0-13.3428,6.1972-24.7331,14.8408-29.0144V5.8406C31.816,2.9076,33.6779.5,35.9612.5h7.1623C45.4.5,47.2686,2.9076,47.2686,5.8406v6.47C55.24,16.4517,61.0631,26.6689,61.7222,38.8385a7.9572,7.9572,0,0,1,.0749.998v1.6722c0,3.5371-2.3582,6.4263-5.2326,6.4263H54.9609c-2.8812,0-5.2323-2.8892-5.2323-6.4263v-.35c0-8.0372-4.6413-14.5685-10.3425-14.5685-5.7082,0-10.3492,6.5313-10.3492,14.5685,0,8.0284,4.641,14.5684,10.3492,14.5684v.1051H40.779c7.7874,0,15.0109,5.2005,19.8967,13.5966L72.14,54.2736A3.0248,3.0248,0,0,1,75.17,52.8028a.6485.6485,0,0,1,.1223.035,2.58,2.58,0,0,1,.9648.5078,3.1037,3.1037,0,0,1,.7544.3765l25.7474,17.51,51.4881-3.6333-.8154-11.6618c-.1019-1.4883,1.264-2.3726,2.127-1.3745L169.061,70.19a1.9985,1.9985,0,0,1,.1767,2.1975L158.1749,91.7454c-.7,1.2169-2.1949.6741-2.2967-.8318l-.768-10.9088-53.0237,3.7385a2.6423,2.6423,0,0,1-1.2232-.2014,2.86,2.86,0,0,1-1.3184-.5078L78.031,68.4131c-.0612.0875-.1087.1926-.1767.28Z"/><rect class="cls-3" width="170" height="165"/></g></svg>