<?xml version="1.0" encoding="UTF-8" standalone="no"?>
<!-- Created with Inkscape (http://www.inkscape.org/) -->

<svg
   xmlns:dc="http://purl.org/dc/elements/1.1/"
   xmlns:cc="http://creativecommons.org/ns#"
   xmlns:rdf="http://www.w3.org/1999/02/22-rdf-syntax-ns#"
   xmlns:svg="http://www.w3.org/2000/svg"
   xmlns="http://www.w3.org/2000/svg"
   xmlns:sodipodi="http://sodipodi.sourceforge.net/DTD/sodipodi-0.dtd"
   xmlns:inkscape="http://www.inkscape.org/namespaces/inkscape"
   width="300"
   height="300"
   viewBox="0 0 300 300"
   id="svg2"
   version="1.1"
   inkscape:version="0.91 r13725"
   sodipodi:docname="expendVer2.svg"
   inkscape:export-filename="/Users/tm-tbs/Desktop/Graphics/expend.png"
   inkscape:export-xdpi="90"
   inkscape:export-ydpi="90">
  <defs
     id="defs4">
    <clipPath
       clipPathUnits="userSpaceOnUse"
       id="clipPath4168">
      <rect
         style="opacity:1;fill:#ffffff;fill-opacity:0;fill-rule:nonzero;stroke:#000000;stroke-width:0.35176194;stroke-linecap:round;stroke-linejoin:round;stroke-miterlimit:4;stroke-dasharray:none;stroke-dashoffset:0;stroke-opacity:1"
         id="rect4170"
         width="37.743011"
         height="39.594975"
         x="-1.0092064"
         y="79.021202" />
    </clipPath>
    <clipPath
       clipPathUnits="userSpaceOnUse"
       id="clipPath4467">
      <path
         style="fill:none;fill-rule:evenodd;stroke:#000000;stroke-width:1px;stroke-linecap:butt;stroke-linejoin:miter;stroke-opacity:1"
         d="m 353.37572,911.67672 53.83566,2.11727 25.55572,-39.02633 26.39035,9.95865 21.99195,22.0513 37.82616,-17.07196 26.56455,-4.91141 33.92418,-0.46779 54.10714,111.25 -249.64285,0.71428 z"
         id="path4469"
         inkscape:connector-curvature="0"
         sodipodi:nodetypes="cccccccc" />
    </clipPath>
    <clipPath
       clipPathUnits="userSpaceOnUse"
       id="clipPath4949">
      <rect
         y="791.29956"
         x="120.71441"
         height="128.44868"
         width="128.95378"
         id="rect4951"
         style="opacity:0.88999999;fill:#ffffff;fill-opacity:0;fill-rule:nonzero;stroke:#000000;stroke-width:1.12273991;stroke-linecap:round;stroke-linejoin:round;stroke-miterlimit:4;stroke-dasharray:none;stroke-dashoffset:0;stroke-opacity:1" />
    </clipPath>
    <clipPath
       clipPathUnits="userSpaceOnUse"
       id="clipPath4252">
      <rect
         ry="0"
         y="853.43353"
         x="537.85718"
         height="162.5"
         width="162.5"
         id="rect4254"
         style="opacity:1;fill:none;fill-opacity:1;fill-rule:nonzero;stroke:#f80000;stroke-width:1;stroke-linecap:round;stroke-linejoin:miter;stroke-miterlimit:4;stroke-dasharray:none;stroke-dashoffset:0;stroke-opacity:1" />
    </clipPath>
    <clipPath
       clipPathUnits="userSpaceOnUse"
       id="clipPath4256">
      <rect
         style="opacity:1;fill:none;fill-opacity:1;fill-rule:nonzero;stroke:#f80000;stroke-width:1;stroke-linecap:round;stroke-linejoin:miter;stroke-miterlimit:4;stroke-dasharray:none;stroke-dashoffset:0;stroke-opacity:1"
         id="rect4258"
         width="162.5"
         height="162.5"
         x="535.83685"
         y="1026.6747"
         ry="0" />
    </clipPath>
  </defs>
  <sodipodi:namedview
     id="base"
     pagecolor="#ffffff"
     bordercolor="#666666"
     borderopacity="1.0"
     inkscape:pageopacity="0.0"
     inkscape:pageshadow="2"
     inkscape:zoom="2.8"
     inkscape:cx="148.98257"
     inkscape:cy="87.070745"
     inkscape:document-units="px"
     inkscape:current-layer="layer1"
     showgrid="false"
     units="px"
     inkscape:window-width="1436"
     inkscape:window-height="855"
     inkscape:window-x="38"
     inkscape:window-y="93"
     inkscape:window-maximized="0" />
  <metadata
     id="metadata7">
    <rdf:RDF>
      <cc:Work
         rdf:about="">
        <dc:format>image/svg+xml</dc:format>
        <dc:type
           rdf:resource="http://purl.org/dc/dcmitype/StillImage" />
        <dc:title></dc:title>
      </cc:Work>
    </rdf:RDF>
  </metadata>
  <g
     inkscape:label="Layer 1"
     inkscape:groupmode="layer"
     id="layer1"
     transform="translate(0,-752.36216)"
     style="opacity:0.98">
    <g
       transform="matrix(3.553651,0,0,3.5731848,-35.256634,571.0509)"
       style="font-style:normal;font-weight:normal;font-size:40px;line-height:125%;font-family:sans-serif;letter-spacing:0px;word-spacing:0px;opacity:1;fill:#000000;fill-opacity:1;stroke:none;stroke-width:1px;stroke-linecap:butt;stroke-linejoin:miter;stroke-opacity:1"
       id="flowRoot4136"
       clip-path="url(#clipPath4168)">
      <path
         d="m 25.684435,104.3759 -3.455284,0 q 0.325203,4.26829 2.723577,6.70731 2.398374,2.39838 6.463415,2.80488 l 0,3.33333 2.235772,0 0,-3.33333 q 1.95122,-0.1626 3.577236,-0.81301 1.626016,-0.6504 2.804878,-1.74796 1.178862,-1.13822 1.829268,-2.68293 0.691057,-1.54472 0.691057,-3.53659 0,-1.86992 -0.731707,-3.21138 -0.691057,-1.34146 -1.707317,-2.235771 -1.016261,-0.894309 -2.113821,-1.382114 -1.097561,-0.528455 -1.91057,-0.731707 l -2.439024,-0.650407 0,-10 q 3.739837,0.691057 4.552846,4.715447 l 3.455284,0 q -0.813008,-3.577235 -2.764228,-5.609756 -1.951219,-2.03252 -5.243902,-2.439024 l 0,-2.723577 -2.235772,0 0,2.682927 q -1.747968,0.121951 -3.292683,0.772357 -1.504065,0.650407 -2.642277,1.788618 -1.097561,1.097561 -1.747967,2.642277 -0.650407,1.504065 -0.650407,3.333333 0,1.788618 0.487805,3.04878 0.487805,1.260163 1.504065,2.154472 1.056911,0.853658 2.601626,1.504065 1.585366,0.609756 3.739838,1.138211 l 0,10.772359 q -2.439025,-0.4065 -4.065041,-1.99187 -1.585366,-1.58537 -1.666667,-4.30894 z m 7.96748,6.30081 0,-10.20325 q 1.097561,0.3252 2.073171,0.7317 0.97561,0.36586 1.666666,0.93496 0.691057,0.56911 1.097561,1.38212 0.406504,0.77236 0.406504,1.95122 0,1.30081 -0.406504,2.27642 -0.365853,0.93496 -1.097561,1.58537 -0.691056,0.60975 -1.666666,0.93496 -0.93496,0.3252 -2.073171,0.4065 z m -2.235772,-23.90244 0,9.512195 q -1.016261,-0.284553 -1.869919,-0.650406 -0.853659,-0.365854 -1.504065,-0.853659 -0.609756,-0.528455 -0.97561,-1.260162 -0.325203,-0.772358 -0.325203,-1.829269 0,-2.317073 1.341463,-3.495935 1.382114,-1.219512 3.333334,-1.422764 z"
         style="font-style:normal;font-variant:normal;font-weight:normal;font-stretch:normal;font-family:'.Helvetica Neue DeskInterface';-inkscape-font-specification:'.Helvetica Neue DeskInterface'"
         id="path4145"
         inkscape:connector-curvature="0" />
    </g>
    <path
       style="fill:none;fill-rule:evenodd;stroke:#000000;stroke-width:8;stroke-linecap:butt;stroke-linejoin:miter;stroke-miterlimit:4;stroke-dasharray:none;stroke-opacity:1"
       d="m 102.85247,814.81961 0,169.83809 169.83809,0"
       id="path4178"
       inkscape:connector-curvature="0" />
    <g
       id="g4176"
       transform="matrix(1.012931,0,0,1,-3.5261709,0)">
      <path
         inkscape:connector-curvature="0"
         id="rect4211"
         d="m 135.34091,923.77443 -28.36464,12.31964 0,46.56692 165.71428,0 0,-44.82535 -32.02348,-8.05366 -35.49711,-3.21696 -31.64705,10.1607 -38.182,-12.95129 z"
         style="opacity:1;fill:#000000;fill-opacity:0.39215686;fill-rule:nonzero;stroke:none;stroke-width:1;stroke-linecap:round;stroke-linejoin:miter;stroke-miterlimit:4;stroke-dasharray:none;stroke-dashoffset:0;stroke-opacity:1" />
      <path
         transform="matrix(1.0197802,0,0,1.0289424,-441.51983,-64.272967)"
         clip-path="url(#clipPath4252)"
         inkscape:connector-curvature="0"
         id="path4217"
         d="m 531.32404,951.95945 31.31105,-48.0187 32.39074,12.2229 26.99227,27.0651 46.42671,-20.9536 38.95673,17.122"
         style="fill:none;fill-rule:evenodd;stroke:#000000;stroke-width:7.80982256;stroke-linecap:butt;stroke-linejoin:miter;stroke-miterlimit:4;stroke-dasharray:none;stroke-opacity:1"
         sodipodi:nodetypes="cccccc" />
      <path
         transform="matrix(1.0197802,0,0,1.0289424,-439.45954,-237.72325)"
         clip-path="url(#clipPath4256)"
         inkscape:connector-curvature="0"
         id="path4235"
         d="m 528.50895,1139.6833 34.34151,-13.1684 37.4415,11.2127 31.03288,-8.7953 34.80996,2.785 38.45165,8.5357"
         style="fill:none;fill-rule:evenodd;stroke:#000000;stroke-width:7.80982256;stroke-linecap:butt;stroke-linejoin:miter;stroke-miterlimit:4;stroke-dasharray:none;stroke-opacity:1"
         sodipodi:nodetypes="cccccc" />
    </g>
  </g>
</svg>
