<svg id="Layer_1" data-name="Layer 1" xmlns="http://www.w3.org/2000/svg" width="257" height="240.4" viewBox="0 0 257 240.4"><defs><style>.cls-1{fill:#ff5e59;stroke:#fff;stroke-miterlimit:10;}.cls-2{fill:#fff;}.cls-3{fill:none;}</style></defs><title>expend</title><path class="cls-1" d="M49.9241,197.5749h23c2.72,0,5-2.6824,5-5.9538V163.3145l-30.63,33.3137A4.2823,4.2823,0,0,0,49.9241,197.5749Z"/><path class="cls-1" d="M82.1741,191.6211c0,3.2714,2.22,5.9538,4.94,5.9538h23.06c2.72,0,4.94-2.6824,4.94-5.9538V122.8584l-32.94,35.8277Z"/><path class="cls-1" d="M119.3741,118.22v73.4016c0,3.2714,2.22,5.9538,4.94,5.9538h23.06c2.72,0,4.94-2.6824,4.94-5.9538V133.9769l-31.84-16.9671Z"/><path class="cls-1" d="M156.7541,191.032c0,3.7343,2.53,6.7848,5.63,6.7848h21.41c3.09,0,5.63-3.05,5.63-6.7848V132.82l-32.67,1.9354Z"/><path class="cls-1" d="M193.5341,191.032c0,3.7343,2.54,6.7848,5.64,6.7848h21.4c3.1,0,5.64-3.05,5.64-6.7848V130.7055l-32.68,1.8829Z"/><path class="cls-2" d="M30.5341,201.2986l-3.53,3.8605h206c3.19,0,5.8,3.03,5.8,6.7321v3.3766c0,3.7027-2.61,6.7322-5.8,6.7322H14.4241a4.9105,4.9105,0,0,1-1.52-.2525,8.5531,8.5531,0,0,1-5.71-4.9439c-.08-.1367-.16-.2735-.23-.4207l-1.8-3.7027a10.2307,10.2307,0,0,1-.77-2.451,11.9409,11.9409,0,0,1-.11-3.9235,10.6,10.6,0,0,1,2.51-5.7645l.34-.3681,1.55-1.6725,26.59-28.7169a51.77,51.77,0,0,1-10.4-31.778v-2.5035h0v-3.1557a5.5189,5.5189,0,0,1,5.5-5.512h5.63a5.5291,5.5291,0,0,1,5.5,5.512v3.1557h.1v2.5035a31.6373,31.6373,0,0,0,3.92,15.505l1.62,2.8928.18.3261.3-.3261,32.78-35.3229c-4.07-6.3114-10.27-10.2139-17-10.2139h-2.5c-18-.2735-32.53-16.7673-32.53-37.0164,0-16.031,9.12-29.7162,21.84-34.86V31.4166A6.2849,6.2849,0,0,1,56.3141,25h10.54a6.2848,6.2848,0,0,1,6.1,6.4166V39.19c11.73,4.9755,20.3,17.2512,21.27,31.8726a7.8449,7.8449,0,0,1,.11,1.1992V74.271a7.7308,7.7308,0,0,1-7.7,7.721h-2.36a7.7206,7.7206,0,0,1-7.7-7.721V73.85c0-9.6565-6.83-17.5036-15.22-17.5036s-15.23,7.8471-15.23,17.5036,6.83,17.5036,15.23,17.5036V91.48h2c11.46,0,22.09,6.2483,29.28,16.336l16.87-18.2084a4.87,4.87,0,0,1,4.46-1.7671h.18a4.1433,4.1433,0,0,1,1.42.61,5.0411,5.0411,0,0,1,1.11.4523l37.89,21.038,75.77-4.3654-1.13-13.9482a1.9525,1.9525,0,0,1,1.6992-2.1511,1.822,1.822,0,0,1,1.4308.5l19.87,18.7765a2.0515,2.0515,0,0,1,.26,2.64l-16.28,23.2576a1.82,1.82,0,0,1-2.6307.4052,2.0043,2.0043,0,0,1-.7494-1.4046l-1.13-13.1066-78,4.4916a4.6742,4.6742,0,0,1-1.8-.242,4.8183,4.8183,0,0,1-1.94-.61l-31.66-17.5667c-.09.1052-.16.2314-.26.3366Z"/><rect class="cls-3" width="257" height="240.4"/></svg>