<svg xmlns="http://www.w3.org/2000/svg" viewBox="0 0 347 324.59">
  <title>lol</title>
  <g>
    <path d="M94.92,232.72h23c2.72,0,5-2.55,5-5.66V200.15L92.29,231.82A4.42,4.42,0,0,0,94.92,232.72Z" fill="#ff5e59" stroke="#fff" stroke-miterlimit="10"/>
    <path d="M127.17,227.06c0,3.11,2.22,5.66,4.94,5.66h23.06c2.72,0,4.94-2.55,4.94-5.66V161.69l-32.94,34.06Z" fill="#ff5e59" stroke="#fff" stroke-miterlimit="10"/>
    <path d="M164.37,157.28v69.78c0,3.11,2.22,5.66,4.94,5.66h23.06c2.72,0,4.94-2.55,4.94-5.66v-54.8l-31.84-16.13Z" fill="#ff5e59" stroke="#fff" stroke-miterlimit="10"/>
    <path d="M201.75,226.5c0,3.55,2.53,6.45,5.63,6.45h21.41c3.09,0,5.63-2.9,5.63-6.45V171.16L201.75,173Z" fill="#ff5e59" stroke="#fff" stroke-miterlimit="10"/>
    <path d="M238.53,226.5c0,3.55,2.54,6.45,5.64,6.45h21.4c3.1,0,5.64-2.9,5.64-6.45V169.15l-32.68,1.79Z" fill="#ff5e59" stroke="#fff" stroke-miterlimit="10"/>
    <g>
      <polygon points="92.67 193.58 92.18 193.58 92.37 193.89 92.67 193.58" fill="#fff"/>
      <g>
        <polygon points="85.52 194.39 85.52 200.91 91.88 194.39 85.52 194.39" fill="#fff"/>
        <path d="M163,146.52c.09-.1.17-.22.26-.32l31.66,16.71a5.1,5.1,0,0,0,1.93.57,5.16,5.16,0,0,0,1.8.24l78-4.27,1.12,12.46a1.88,1.88,0,0,0,3.38.94l16.28-22.11a1.88,1.88,0,0,0-.26-2.51l-19.87-17.84A1.88,1.88,0,0,0,274.2,132l1.2,13.33-75.77,4.14-37.88-20a5.54,5.54,0,0,0-1.12-.44,4.62,4.62,0,0,0-1.42-.58l-.18,0a5,5,0,0,0-4.46,1.68L137.7,147.37c-7.18-9.6-17.81-15.53-29.28-15.53h-2v-.13c-8.39,0-15.22-7.46-15.22-16.64S98,98.43,106.37,98.43s15.22,7.47,15.22,16.64v.41a7.55,7.55,0,0,0,7.7,7.33h2.36a7.54,7.54,0,0,0,7.7-7.33v-1.92a7,7,0,0,0-.1-1.13c-1-13.91-9.54-25.58-21.28-30.3v-7.4a6.12,6.12,0,0,0-6.1-6.1H101.33a6.12,6.12,0,0,0-6.1,6.1v7.21c-12.72,4.89-21.84,17.89-21.84,33.13,0,19.25,14.56,34.94,32.53,35.19v0h2.5c6.71,0,12.91,3.66,17,9.7l-32.74,33.6-.3.31-.19-.31-1.62-2.74a29.06,29.06,0,0,1-3.92-14.74v-2.38h-.1v-3a5.39,5.39,0,0,0-5.5-5.25H75.41a5.4,5.4,0,0,0-5.5,5.25v3h0v2.38a47.67,47.67,0,0,0,10.4,30.2L53.69,233.58l-1.56,1.6-.34.35A9.81,9.81,0,0,0,49.28,241a11,11,0,0,0,.12,3.73,8.51,8.51,0,0,0,.77,2.33l1.8,3.53c.07.14.15.26.22.39a8.46,8.46,0,0,0,5.72,4.72,5.09,5.09,0,0,0,1.52.24H278c3.19,0,5.81-2.88,5.81-6.4v-3.2c0-3.53-2.62-6.41-5.81-6.41H72l3.57-3.66ZM85.52,194.39h6.36l-6.36,6.52Z" fill="#fff"/>
      </g>
    </g>
  </g>
</svg>
