<svg id="Layer_1" data-name="Layer 1" xmlns="http://www.w3.org/2000/svg" viewBox="0 0 347 326.2"><defs><style>.cls-1{fill:#215186;}.cls-2{fill:#fff;}.cls-3{fill:#ceacec;stroke:#fff;stroke-miterlimit:10;}</style></defs><title>expend</title><g id="Artboard_8" data-name="Artboard 8"><path class="cls-1" d="M347,174.9A173.5,173.5,0,1,0,91.2,327.6H255.9A173.42,173.42,0,0,0,347,174.9Z" transform="translate(0 -1.4)"/><path class="cls-2" d="M312.5,156.7l-21.6-17a2,2,0,0,0-1.3-.4,1.81,1.81,0,0,0-1.6,2l1.3,12.7L208,157.9l-40.8-18.8a5.64,5.64,0,0,0-1.2-.4,5.78,5.78,0,0,0-1.4-.5h-.2a6.14,6.14,0,0,0-4.8,1.6l-16.7,15c-7.7-10.6-19.7-17.2-32.7-17.2h-1.3c-9.5,0-17.3-8.1-17.3-18s7.7-18,17.3-18c8.9,0,16.3,7.1,17.2,16.2,0,.3-.1.7-.1,1v1.6a7.38,7.38,0,0,0,7.4,7.4h3.9a7.38,7.38,0,0,0,7.4-7.4v-.8h0a36.4,36.4,0,0,0-23.6-34.3V80.4a5.85,5.85,0,0,0-5.9-5.9H102.6a5.85,5.85,0,0,0-5.9,5.9v4.9a36.64,36.64,0,0,0-23.6,34.3c0,19.7,15.4,35.8,34.5,36.4h2.6a23.12,23.12,0,0,1,19.3,10.8L93.3,199.3l-2.4-3.8a26.82,26.82,0,0,1-4.2-14.3v-2.5h-.1v-3.3a5.34,5.34,0,0,0-5.3-5.3h-7a5.34,5.34,0,0,0-5.3,5.3v6.2a45,45,0,0,0,11.1,29.5L51.4,236.9l-1.7,1.5-.4.3a8.82,8.82,0,0,0-2.7,5.1,10.22,10.22,0,0,0,.1,3.5,8.26,8.26,0,0,0,.8,2.2l2,3.3a7.1,7.1,0,0,0,1,1.4,13,13,0,0,0,5.1,3.4h0a5.82,5.82,0,0,0,1.9.3H292a6.06,6.06,0,0,0,6.2-6v-3a6.06,6.06,0,0,0-6.2-6H71l3.8-3.4,93.8-84.1.3-.3L203,170.8a5.37,5.37,0,0,0,2.1.5,7.57,7.57,0,0,0,1.5.1l83.9-4,1.2,12a1.74,1.74,0,0,0,.6,1.2,1.79,1.79,0,0,0,2.6-.2l17.7-21v-.1A1.71,1.71,0,0,0,312.5,156.7Z" transform="translate(0 -1.4)"/><path class="cls-3" d="M91.5,236h25.3a5.38,5.38,0,0,0,5.4-5.4V204.8L88.6,235.1A5.21,5.21,0,0,0,91.5,236Z" transform="translate(0 -1.4)"/><path class="cls-3" d="M126.9,230.6a5.38,5.38,0,0,0,5.4,5.4h25.3a5.38,5.38,0,0,0,5.4-5.4V168l-36.1,32.6Z" transform="translate(0 -1.4)"/><path class="cls-3" d="M167.6,163.8v66.8A5.38,5.38,0,0,0,173,236h25.3a5.38,5.38,0,0,0,5.4-5.4V178.1l-34.9-15.4Z" transform="translate(0 -1.4)"/><path class="cls-3" d="M208.6,230.1a6.23,6.23,0,0,0,6.2,6.2h23.5a6.23,6.23,0,0,0,6.2-6.2v-53l-35.8,1.7v51.3Z" transform="translate(0 -1.4)"/><path class="cls-3" d="M248.9,230.1a6.23,6.23,0,0,0,6.2,6.2h23.5a6.23,6.23,0,0,0,6.2-6.2V175.2L249,176.9v53.2Z" transform="translate(0 -1.4)"/></g></svg>