<svg xmlns="http://www.w3.org/2000/svg" width="170" height="165" viewBox="0 0 170 165">
  <title>home_menu_icons</title>
  <g>
    <g>
      <path d="M30.4742,142.8808H45.5365c1.7767,0,3.23-2.0935,3.23-4.6522V116.1208l-20.009,26.0229A2.5205,2.5205,0,0,0,30.4742,142.8808Z" fill="#de4c4a" stroke="#fff" stroke-miterlimit="10"/>
      <path d="M53.4428,138.0254c0,2.6705,1.4363,4.8554,3.1919,4.8554H71.5176c1.7556,0,3.1919-2.1849,3.1919-4.8554V81.9679l-21.2667,29.214Z" fill="#de4c4a" stroke="#fff" stroke-miterlimit="10"/>
      <path d="M79.3854,78.0874v59.93c0,2.675,1.4363,4.8636,3.1919,4.8636H97.46c1.7558,0,3.1921-2.1886,3.1921-4.8636v-47.06L80.1,77.1039Z" fill="#de4c4a" stroke="#fff" stroke-miterlimit="10"/>
      <path d="M105.3279,137.3889c0,3.0206,1.6248,5.4919,3.6107,5.4919h13.7227c1.9859,0,3.6107-2.4713,3.6107-5.4919V90.265l-20.9441,1.522Z" fill="#de4c4a" stroke="#fff" stroke-miterlimit="10"/>
      <path d="M130.9478,137.384c0,3.0233,1.6248,5.4968,3.6107,5.4968h13.7227c1.9859,0,3.6107-2.4735,3.6107-5.4968V88.5031l-20.9441,1.5233Z" fill="#de4c4a" stroke="#fff" stroke-miterlimit="10"/>
    </g>
    <path d="M18.4264,147.2739l59.4248-78.568c.0682-.0875.1155-.1926.1768-.28l21.5139,14.621a2.8585,2.8585,0,0,0,1.3184.5078,2.6417,2.6417,0,0,0,1.2234.2014l52.6181-3.71a.4067.4067,0,0,1,.4341.3769l.9551,9.0918c.102,1.506,1.5969,2.0488,2.2968.8318L168.7429,73.492a1.9987,1.9987,0,0,0-.1768-2.1976l-12.6985-14.93c-.8631-.9981-2.229-.1138-2.127,1.3746l.4754,9.4679a.4066.4066,0,0,1-.377.4338l-50.9424,3.5947a.4063.4063,0,0,1-.257-.0693L77.0087,53.7347a3.1091,3.1091,0,0,0-.7544-.3765A2.579,2.579,0,0,0,75.29,52.85a.65.65,0,0,0-.1223-.035,3.0252,3.0252,0,0,0-3.0308,1.4709L60.37,70.4955a.4052.4052,0,0,1-.6348.02c-5.3225-6.1872-10.7234-9.6711-18.3511-9.6711h-1.393l-.1546-.0077c-5.7082,0-10.1945-6.6374-10.1945-14.6658,0-8.0372,4.88-13.9025,10.5883-13.9025,5.7012,0,11.2134,5.5619,12.3692,13.5306l.1035.7c.04.2253.0466.4391.07.6591l.1094,2.0256c.0268,2.5212,1.7341,4.5693,3.7864,4.5473l3.8254-.0411a3.6846,3.6846,0,0,0,3.1973-2.3428,10.7455,10.7455,0,0,0,.5468-4.8913l-.0366-.7321-.1548-1.379h0l-.0488-.5366c-1.6189-11.6335-8.0213-19.0868-15.9063-23.2463a.3988.3988,0,0,1-.2136-.3443L47.8315,18.05c0-2.933-1.8689-5.3406-4.1453-5.3406H36.5238c-2.2832,0-4.145,2.4076-4.145,5.3406l.0354,2.06a.4561.4561,0,0,1-.2514.4184c-8.5083,4.3152-14.5823,12.4334-14.5823,25.6427,0,16.8535,9.2788,25.5817,21.4968,25.8094v.0088l1.6751.0977A15.1528,15.1528,0,0,1,52.1867,80.25a.4209.4209,0,0,1-.0366.4532l-20.4956,26.46-.2041.2715-.1221-.2715-1.1008-2.4075c-1.7464-3.8-2.5386-5.7412-2.5386-10.3814V92.2907l-.0681-2.6353c0-2.5214-1.6851-4.5876-3.7373-4.5876h-3.826c-2.059,0-3.7375,2.0662-3.7375,4.5876l-.0269,2.6353v2.0837c0,9.7916,3.3938,16.1469,7.8848,23.2544a.4077.4077,0,0,1-.02.465L3.5785,144.9275,2.5251,146.32l-.231.3064a9.8717,9.8717,0,0,0-1.7056,4.7978,12.1436,12.1436,0,0,0,.075,3.2657,9.9672,9.9672,0,0,0,.5229,2.04L2.41,159.8112c.0474.1225.1018.2364.1563.35a6.3435,6.3435,0,0,0,3.88,4.1323,2.7876,2.7876,0,0,0,1.0329.21H7.581c.0271,0,.0544.0087.0815.0087l-.0068-.0087h148.362c2.1678,0,3.9414-2.5215,3.9414-5.6033v-2.81c0-3.0817-1.7736-5.6032-3.9414-5.6032H16.8166a.4065.4065,0,0,1-.3245-.6513Z" fill="#fff"/>
    <rect width="170" height="165" fill="none"/>
  </g>
</svg>
