<svg xmlns="http://www.w3.org/2000/svg" width="171.5427" height="150" viewBox="0 0 171.5427 150"><title>home_menu_icons</title><path d="M30.4152,130.9181H45.7069c1.8038,0,3.28-1.8478,3.28-4.1063V107.2986L28.6728,130.2674A2.76,2.76,0,0,0,30.4152,130.9181Z" fill="#de4c4a" stroke="#fff" stroke-miterlimit="10"/><path d="M53.7336,126.6325c0,2.3571,1.4582,4.2856,3.24,4.2856h15.11c1.7824,0,3.2406-1.9285,3.2406-4.2856V77.1539L53.7336,102.9394Z" fill="#de4c4a" stroke="#fff" stroke-miterlimit="10"/><path d="M80.0712,73.7289v52.8963c0,2.3611,1.4582,4.2929,3.24,4.2929H98.4211c1.7825,0,3.2407-1.9318,3.2407-4.2929V85.0883L80.7969,72.8608Z" fill="#de4c4a" stroke="#fff" stroke-miterlimit="10"/><path d="M106.4088,126.0707c0,2.666,1.65,4.8474,3.6657,4.8474h13.9316c2.0161,0,3.6657-2.1814,3.6657-4.8474V84.4773l-21.263,1.3433Z" fill="#de4c4a" stroke="#fff" stroke-miterlimit="10"/><path d="M132.4188,126.0664c0,2.6684,1.65,4.8517,3.6657,4.8517h13.9316c2.0162,0,3.6657-2.1833,3.6657-4.8517V82.9222l-21.263,1.3445Z" fill="#de4c4a" stroke="#fff" stroke-miterlimit="10"/><path d="M18.1869,134.7845l-2.4629,2.836h142.15c2.2006,0,4.0013,2.2255,4.0013,4.9456v2.4805c0,2.72-1.8007,4.9457-4.0013,4.9457H7.2523L7.2592,150c-.0276,0-.0553-.0077-.0827-.0077H7.0729a3.2017,3.2017,0,0,1-1.0486-.1855,6.0306,6.0306,0,0,1-3.9392-3.6474c-.0553-.1-.11-.2009-.1587-.3091L.6846,143.13a7.8707,7.8707,0,0,1-.531-1.8,9.33,9.33,0,0,1-.076-2.8824,8.0327,8.0327,0,0,1,1.7316-4.2347l.2345-.27,1.0693-1.2287,18.344-21.0808a39.6846,39.6846,0,0,1-7.1747-23.345V86.4485H14.31v-2.326a3.9384,3.9384,0,0,1,3.7944-4.0493h3.8841a3.9429,3.9429,0,0,1,3.7943,4.0493v2.326h.0691v1.8391a24.4368,24.4368,0,0,0,2.7042,11.3905l1.1176,2.1251.1241.2395.207-.2395L52.5911,75.8385c-2.8077-4.6674-7.085-7.5034-11.7141-7.5034H39.1523v-.0077C26.7483,68.1264,16.7107,56.01,16.7107,41.134c0-11.7768,6.2916-21.83,15.0668-25.6091V9.961a4.4961,4.4961,0,0,1,4.2084-4.7138h7.2713A4.5007,4.5007,0,0,1,47.4654,9.961v5.7107C55.5576,19.3268,61.47,28.3449,62.1391,39.0862a6.1288,6.1288,0,0,1,.076.881v1.4759a5.5181,5.5181,0,0,1-5.3122,5.6721H55.2748a5.5134,5.5134,0,0,1-5.312-5.6721V41.134c0-7.0939-4.7119-12.8586-10.5-12.8586-5.7951,0-10.5069,5.7647-10.5069,12.8586,0,7.0862,4.7118,12.8587,10.5069,12.8587v.0928H40.877c7.906,0,15.24,4.59,20.2,12.0008L72.715,52.71a3.2548,3.2548,0,0,1,3.0768-1.2982.732.732,0,0,1,.1242.0309,2.7746,2.7746,0,0,1,.98.4482,3.3668,3.3668,0,0,1,.7658.3323l26.1394,15.4551,52.2722-3.2069-.8278-10.2931a1.3021,1.3021,0,0,1,2.1594-1.2133l13.7078,13.7937a1.5793,1.5793,0,0,1,.1794,1.94L160.0605,85.7839a1.2685,1.2685,0,0,1-2.3317-.7341l-.78-9.6285-53.8312,3.3a3.0456,3.0456,0,0,1-1.2418-.1778,3.1752,3.1752,0,0,1-1.3385-.4482L78.6962,65.19c-.0621.0772-.11.17-.1794.2473Z" fill="#fff"/><rect width="171.5427" height="150" fill="none"/></svg>