<?xml version="1.0" encoding="utf-8"?>
<!-- Generator: Adobe Illustrator 22.1.0, SVG Export Plug-In . SVG Version: 6.00 Build 0)  -->
<svg version="1.1" id="Layer_1" xmlns="http://www.w3.org/2000/svg" xmlns:xlink="http://www.w3.org/1999/xlink" x="0px" y="0px"
	 viewBox="0 0 347 324.6" style="enable-background:new 0 0 347 324.6;" xml:space="preserve">
<style type="text/css">
	.st0{fill:#215186;}
	.st1{fill:#FFFFFF;}
	.st2{fill:#CEACEC;stroke:#FFFFFF;stroke-miterlimit:10;}
</style>
<g id="Artboard_8">
	<path class="st0" d="M347,174.9C347,79.1,269.3,1.4,173.5,1.4C77.6,1.4,0,79.1,0,174.9c0,63.8,35,122.4,91.2,152.7h164.7
		C312,297.4,347,238.7,347,174.9z"/>
	<path class="st1" d="M312.5,156.7l-21.6-17c-0.4-0.3-0.8-0.4-1.3-0.4c-1,0.1-1.7,1-1.6,2l1.3,12.7l-81.3,3.9l-40.8-18.8
		c-0.4-0.2-0.8-0.3-1.2-0.4c-0.4-0.2-0.9-0.4-1.4-0.5h-0.2c-1.7-0.2-3.5,0.4-4.8,1.6l-16.7,15c-7.7-10.6-19.7-17.2-32.7-17.2h-1.3v0
		c-9.5,0-17.3-8.1-17.3-18c0-9.9,7.7-18,17.3-18c8.9,0,16.3,7.1,17.2,16.2c0,0.3-0.1,0.7-0.1,1v1.6c0,4.1,3.3,7.4,7.4,7.4h3.9
		c4.1,0,7.4-3.3,7.4-7.4v-0.8h0c0-15.8-9.8-29.2-23.6-34.3v-4.9c0-3.3-2.6-5.9-5.9-5.9h-12.6c-3.3,0-5.9,2.6-5.9,5.9v4.9
		c-13.7,5.1-23.6,18.6-23.6,34.3c0,19.7,15.4,35.8,34.5,36.4v0h0.5c0.3,0,0.5,0,0.8,0v0h1.3c7.8,0,14.9,4.1,19.3,10.8l-36.2,32.5
		l-2.4-3.8c-2.7-4.3-4.2-9.2-4.2-14.3l0-2.5h-0.1v-3.3c0-2.9-2.4-5.3-5.3-5.3h-7c-2.9,0-5.3,2.4-5.3,5.3v5.7c0,0.2,0,0.3,0,0.5
		c0,10.9,4,21.3,11.1,29.5l-28.7,25.8l-1.7,1.5l-0.4,0.3c-1.5,1.4-2.4,3.2-2.7,5.1c-0.2,1.2-0.1,2.4,0.1,3.5
		c0.2,0.8,0.4,1.5,0.8,2.2l2,3.3c0.3,0.5,0.6,1,1,1.4c1.4,1.6,3.6,2.9,5.1,3.4l0,0c0.6,0.2,1.2,0.3,1.9,0.3H292
		c3.4,0.1,6.1-2.6,6.2-6v-3c-0.1-3.4-2.8-6.1-6.2-6H83.4h-8.5H71l3.8-3.4l93.8-84.1c0.1-0.1,0.2-0.2,0.3-0.3l34.1,15.7
		c0.7,0.3,1.4,0.5,2.1,0.5c0.5,0.1,1,0.1,1.5,0.1l83.9-4l1.2,12c0,0.5,0.3,0.9,0.6,1.2c0.8,0.7,1.9,0.6,2.6-0.2l17.7-21
		c0,0,0,0,0-0.1C313.4,158.5,313.3,157.4,312.5,156.7z"/>
	<path class="st2" d="M91.5,236h25.3c3,0,5.4-2.4,5.4-5.4v-25.8l-33.6,30.3C89.5,235.7,90.5,236,91.5,236z"/>
	<path class="st2" d="M126.9,230.6c0,3,2.4,5.4,5.4,5.4h25.3c3,0,5.4-2.4,5.4-5.4V168l-36.1,32.6L126.9,230.6z"/>
	<path class="st2" d="M167.6,163.8v66.8c0,3,2.4,5.4,5.4,5.4h25.3c3,0,5.4-2.4,5.4-5.4v-52.5l-34.9-15.4L167.6,163.8z"/>
	<path class="st2" d="M208.6,230.1c0,3.4,2.8,6.2,6.2,6.2h23.5c3.4,0,6.2-2.8,6.2-6.2v-53l-35.8,1.7V230.1z"/>
	<path class="st2" d="M248.9,230.1c0,3.4,2.8,6.2,6.2,6.2h23.5c3.4,0,6.2-2.8,6.2-6.2v-54.9l-35.8,1.7V230.1z"/>
</g>
</svg>
