<svg xmlns="http://www.w3.org/2000/svg" width="170" height="165" viewBox="0 0 170 165">
  <title>home_menu_icons</title>
  <g>
    <g>
      <g>
        <path d="M32.6429,143.1334h14.53c1.7138,0,3.1161-2.0195,3.1161-4.4877V117.32L30.9873,142.4223A2.4314,2.4314,0,0,0,32.6429,143.1334Z" fill="#de4c4a" stroke="#fff" stroke-miterlimit="10"/>
        <path d="M54.7991,138.45c0,2.5761,1.3855,4.6837,3.079,4.6837H72.2346c1.6935,0,3.079-2.1076,3.079-4.6837V84.375L54.7991,112.5557Z" fill="#de4c4a" stroke="#fff" stroke-miterlimit="10"/>
        <path d="M79.824,80.6317v57.81c0,2.5805,1.3856,4.6917,3.079,4.6917H97.2594c1.6936,0,3.0791-2.1112,3.0791-4.6917V93.0464L80.5135,79.683Z" fill="#de4c4a" stroke="#fff" stroke-miterlimit="10"/>
        <path d="M104.849,137.8357c0,2.9137,1.5673,5.2977,3.483,5.2977h13.2372c1.9157,0,3.483-2.384,3.483-5.2977V92.3786L104.849,93.8467Z" fill="#de4c4a" stroke="#fff" stroke-miterlimit="10"/>
        <path d="M129.5627,137.831c0,2.9163,1.5673,5.3024,3.483,5.3024H146.283c1.9156,0,3.4829-2.3861,3.4829-5.3024V90.679l-20.2032,1.4694Z" fill="#de4c4a" stroke="#fff" stroke-miterlimit="10"/>
      </g>
      <path d="M21.0213,147.3711l57.3229-75.789c.0657-.0845.1114-.1858.1705-.27L99.2676,85.4156a2.7579,2.7579,0,0,0,1.2718.49,2.548,2.548,0,0,0,1.18.1942l50.757-3.5786a.3922.3922,0,0,1,.4187.3636l.9213,8.77c.0984,1.4527,1.54,1.9762,2.2156.8024l9.9888-16.2584a1.928,1.928,0,0,0-.1705-2.12L153.601,59.6766c-.8325-.9628-2.15-.11-2.0517,1.326l.4585,9.133a.392.392,0,0,1-.3636.4184l-49.1405,3.4677a.3921.3921,0,0,1-.248-.0669L77.5315,57.14a2.9978,2.9978,0,0,0-.7277-.3631,2.4867,2.4867,0,0,0-.9308-.49.6167.6167,0,0,0-.118-.0337,2.9179,2.9179,0,0,0-2.9235,1.4188l-11.35,15.6359a.3909.3909,0,0,1-.6124.0192c-5.1342-5.9682-10.3441-9.3289-17.7019-9.3289H41.8235l-.1491-.0074c-5.5064,0-9.834-6.4027-9.834-14.1471,0-7.7529,4.7078-13.4108,10.2139-13.4108,5.5,0,10.8167,5.3652,11.9316,13.052l.1.6748c.0389.2173.045.4235.0673.6358l.1056,1.9539c.0259,2.4321,1.6728,4.4077,3.6525,4.3865l3.69-.04a3.5542,3.5542,0,0,0,3.0842-2.26,10.3651,10.3651,0,0,0,.5275-4.7182l-.0353-.7063-.1493-1.33h0l-.0471-.5177C63.42,36.3424,57.2436,29.1528,49.6375,25.1405a.3849.3849,0,0,1-.2061-.3322l-.0451-2.09c0-2.8292-1.8028-5.1517-3.9987-5.1517h-6.909c-2.2024,0-3.9984,2.3225-3.9984,5.1517l.0341,1.9868a.44.44,0,0,1-.2425.4037C26.0644,29.271,20.2053,37.1021,20.2053,49.8442c0,16.2574,8.9506,24.6769,20.7364,24.8965v.0084l1.6158.0943a14.6167,14.6167,0,0,1,11.03,7.8743.406.406,0,0,1-.0353.4372L33.7814,108.6793l-.1968.2618-.1178-.2618-1.0619-2.3225c-1.6846-3.6653-2.4488-5.5381-2.4488-10.0141v-2.01L29.89,91.7906c0-2.4322-1.6254-4.4254-3.6051-4.4254H22.5947c-1.9862,0-3.6053,1.9932-3.6053,4.4254l-.0259,2.5421v2.01c0,9.4452,3.2737,15.5757,7.6058,22.4318a.3932.3932,0,0,1-.0193.4486L6.6986,145.1077l-1.0162,1.3428-.2228.2956a9.5212,9.5212,0,0,0-1.6452,4.6281,11.7078,11.7078,0,0,0,.0723,3.15,9.605,9.605,0,0,0,.5044,1.9678l1.18,2.9728c.0457.1182.0982.228.1507.3378a6.12,6.12,0,0,0,3.7427,3.9862,2.69,2.69,0,0,0,.9964.2027H10.56c.0261,0,.0525.0084.0786.0084l-.0066-.0084H153.7459c2.091,0,3.802-2.4323,3.802-5.405v-2.7111c0-2.9727-1.711-5.405-3.802-5.405H19.4684a.3921.3921,0,0,1-.313-.6282Z" fill="#fff"/>
    </g>
    <rect width="170" height="165" fill="none"/>
  </g>
</svg>
