<svg xmlns="http://www.w3.org/2000/svg" viewBox="0 0 347 324.59">
  <title>home_menu_icons</title>
  <g>
    <path d="M94.92,232.72h23c2.72,0,5-2.55,5-5.66V200.15L92.29,231.82A4.42,4.42,0,0,0,94.92,232.72Z" fill="#ff5e59" stroke="#fff" stroke-miterlimit="10"/>
    <path d="M127.17,227.06c0,3.11,2.22,5.66,4.94,5.66h23.06c2.72,0,4.94-2.55,4.94-5.66V161.69l-32.94,34.06Z" fill="#ff5e59" stroke="#fff" stroke-miterlimit="10"/>
    <path d="M164.37,157.28v69.78c0,3.11,2.22,5.66,4.94,5.66h23.06c2.72,0,4.94-2.55,4.94-5.66v-54.8l-31.84-16.13Z" fill="#ff5e59" stroke="#fff" stroke-miterlimit="10"/>
    <path d="M201.75,226.5c0,3.55,2.53,6.45,5.63,6.45h21.41c3.09,0,5.63-2.9,5.63-6.45V171.16L201.75,173Z" fill="#ff5e59" stroke="#fff" stroke-miterlimit="10"/>
    <path d="M238.53,226.5c0,3.55,2.54,6.45,5.64,6.45h21.4c3.1,0,5.64-2.9,5.64-6.45V169.15l-32.68,1.79Z" fill="#ff5e59" stroke="#fff" stroke-miterlimit="10"/>
    <path d="M75.53,236.26,72,239.93H278c3.19,0,5.8,2.88,5.8,6.4v3.21c0,3.52-2.61,6.4-5.8,6.4H59.42a5.14,5.14,0,0,1-1.52-.24A8.44,8.44,0,0,1,52.19,251c-.08-.13-.16-.26-.23-.4l-1.8-3.52a9.38,9.38,0,0,1-.77-2.33,10.8,10.8,0,0,1-.11-3.73,9.84,9.84,0,0,1,2.51-5.48l.34-.35,1.55-1.59L80.27,206.3a47.62,47.62,0,0,1-10.4-30.21v-2.38h0v-3a5.39,5.39,0,0,1,5.5-5.24H81a5.4,5.4,0,0,1,5.5,5.24v3h.1v2.38a28.91,28.91,0,0,0,3.92,14.74l1.62,2.75.18.31.3-.31L125.4,160c-4.07-6-10.27-9.71-17-9.71h-2.5c-18-.26-32.53-15.94-32.53-35.19,0-15.24,9.12-28.25,21.84-33.14v-7.2a6.12,6.12,0,0,1,6.1-6.1h10.54a6.12,6.12,0,0,1,6.1,6.1v7.39c11.73,4.73,20.3,16.4,21.27,30.3a7.1,7.1,0,0,1,.11,1.14v1.91a7.55,7.55,0,0,1-7.7,7.34h-2.36a7.54,7.54,0,0,1-7.7-7.34v-.4c0-9.18-6.83-16.64-15.22-16.64s-15.23,7.46-15.23,16.64,6.83,16.64,15.23,16.64v.12h2c11.46,0,22.09,5.94,29.28,15.53l16.87-17.31a5,5,0,0,1,4.46-1.68l.18,0a4.26,4.26,0,0,1,1.42.58,5.2,5.2,0,0,1,1.11.43l37.89,20,75.77-4.15L274.2,132a1.88,1.88,0,0,1,3.13-1.57l19.87,17.85a1.88,1.88,0,0,1,.26,2.51l-16.28,22.11a1.88,1.88,0,0,1-3.38-.95l-1.13-12.46-78,4.27a4.9,4.9,0,0,1-1.8-.23,5,5,0,0,1-1.94-.58l-31.66-16.7c-.09.1-.16.22-.26.32Z" fill="#fff"/>
  </g>
</svg>
