<svg xmlns="http://www.w3.org/2000/svg" width="171.54" height="150" viewBox="0 0 171.54 150">
  <title>home_menu_icons</title>
  <g>
    <path d="M30.42,130.92H45.71c1.8,0,3.28-1.85,3.28-4.11V107.3l-20.32,23A2.76,2.76,0,0,0,30.42,130.92Z" fill="#df2c26" stroke="#fff" stroke-miterlimit="10"/>
    <path d="M53.73,126.63c0,2.36,1.46,4.29,3.24,4.29H72.08c1.79,0,3.24-1.93,3.24-4.29V77.15L53.73,102.94Z" fill="#df2c26" stroke="#fff" stroke-miterlimit="10"/>
    <path d="M80.07,73.73v52.9c0,2.36,1.46,4.29,3.24,4.29H98.42c1.78,0,3.24-1.93,3.24-4.29V85.09L80.8,72.86Z" fill="#df2c26" stroke="#fff" stroke-miterlimit="10"/>
    <path d="M106.41,126.07c0,2.67,1.65,4.85,3.66,4.85H124c2,0,3.66-2.18,3.66-4.85V84.48l-21.26,1.34Z" fill="#df2c26" stroke="#fff" stroke-miterlimit="10"/>
    <path d="M132.42,126.07c0,2.66,1.65,4.85,3.66,4.85H150c2,0,3.66-2.19,3.66-4.85V82.92l-21.26,1.35Z" fill="#df2c26" stroke="#fff" stroke-miterlimit="10"/>
    <path d="M18.19,134.78l-2.47,2.84H157.87c2.2,0,4,2.23,4,4.95v2.48c0,2.72-1.8,4.94-4,4.94H7.07A3.4,3.4,0,0,1,6,149.81a6,6,0,0,1-3.93-3.65,1.82,1.82,0,0,1-.16-.31L.68,143.13a8.55,8.55,0,0,1-.53-1.8,9.53,9.53,0,0,1-.07-2.88,8,8,0,0,1,1.73-4.24l.23-.27,1.07-1.23,18.35-21.08a39.65,39.65,0,0,1-7.18-23.34V86.45h0V84.12a3.94,3.94,0,0,1,3.79-4.05H22a4,4,0,0,1,3.79,4.05v2.33h.07v1.84a24.39,24.39,0,0,0,2.71,11.39l1.11,2.12.13.24.2-.24,22.59-26c-2.81-4.67-7.08-7.5-11.71-7.5H39.15c-12.4-.2-22.44-12.32-22.44-27.2,0-11.77,6.29-21.83,15.07-25.61V10A4.49,4.49,0,0,1,36,5.25h7.27A4.5,4.5,0,0,1,47.47,10v5.71c8.09,3.66,14,12.67,14.67,23.42a6.26,6.26,0,0,1,.08.88v1.47a5.53,5.53,0,0,1-5.32,5.68H55.27A5.52,5.52,0,0,1,50,41.44v-.31c0-7.09-4.71-12.85-10.5-12.85S29,34,29,41.13,33.67,54,39.46,54v.1h1.42c7.9,0,15.24,4.59,20.2,12L72.72,52.71a3.25,3.25,0,0,1,3.07-1.3l.13,0a2.8,2.8,0,0,1,1,.45,3.89,3.89,0,0,1,.76.33L103.8,67.68l52.27-3.21-.82-10.29A1.3,1.3,0,0,1,157.4,53l13.71,13.8a1.57,1.57,0,0,1,.18,1.94L160.06,85.78a1.27,1.27,0,0,1-2.33-.73L157,75.42l-53.83,3.3a3,3,0,0,1-1.24-.18,3.08,3.08,0,0,1-1.34-.44L78.7,65.19c-.07.08-.11.17-.18.25Z" fill="#fff"/>
  </g>
</svg>
