<svg id="svg2" xmlns="http://www.w3.org/2000/svg" viewBox="0 0 529 358"><defs><style>.cls-1,.cls-2,.cls-3{fill:none;}.cls-2,.cls-3,.cls-5{stroke:#000;}.cls-2{stroke-width:4px;}.cls-3{stroke-width:9px;}.cls-4{fill-opacity:0.18;}.cls-5{fill-opacity:0.33;stroke-linecap:round;stroke-linejoin:round;stroke-width:2px;}</style></defs><title>explorer</title><rect class="cls-1" width="528.51" height="358"/><g id="g4883"><path id="path4885" d="M89.44,98.19,68,87.26h-.12L46.49,98.19,48,100.27h39.9Z"/><path id="path4887" d="M48.32,112a2,2,0,0,0-1.88,1.7H89.5a2,2,0,0,0-1.88-1.7Z"/><path id="rect4889" d="M51.1,113.29H91.49V118h-47v-4.71Z"/><path id="rect4891" d="M62.77,98.36h2.12v14.5H60.67V98.36Z"/><path id="rect4893" d="M53.35,98.36h2.1v14.5h-4.2V98.36Z"/><path id="rect4895" d="M72.18,98.36h2.1v14.5h-4.2V98.36Z"/><path id="rect4897" d="M81.61,98.36h2.1v14.5H79.5V98.36Z"/></g><g id="g4963"><path id="path4965" d="M89.44,98.19,68,87.26h-.12L46.49,98.19,48,100.27h39.9Z"/><path id="path4967" d="M48.32,112a2,2,0,0,0-1.88,1.7H89.5a2,2,0,0,0-1.88-1.7Z"/><path id="rect4969" d="M51.1,113.29H91.49V118h-47v-4.71Z"/><path id="rect4971" d="M62.77,98.36h2.12v14.5H60.67V98.36Z"/><path id="rect4973" d="M53.35,98.36h2.1v14.5h-4.2V98.36Z"/><path id="rect4975" d="M72.18,98.36h2.1v14.5h-4.2V98.36Z"/><path id="rect4977" d="M81.61,98.36h2.1v14.5H79.5V98.36Z"/></g><g id="g4847"><path id="path4849" class="cls-2" d="M53.56,125.53h28.9"/><path id="path4851" class="cls-2" d="M68.28,125.13V285.94"/><g id="g4853"><path id="path4855" class="cls-2" d="M67.79,142H222.52"/><path id="path4857" class="cls-2" d="M87.8,142v49.52"/><path id="path4859" class="cls-2" d="M88.24,165.75H243"/><path id="path4861" class="cls-2" d="M87.8,189.52H242.52"/></g><g id="g4863"><path id="path4865" class="cls-2" d="M67.79,207.13H222.52"/><path id="path4867" class="cls-2" d="M87.8,207.13v49.52"/><path id="path4869" class="cls-2" d="M88.24,230.91H243"/><path id="path4871" class="cls-2" d="M87.8,254.69H242.52"/></g><g id="g4873"><path id="path4875" class="cls-2" d="M67.79,272.3H222.52"/><path id="path4877" class="cls-2" d="M87.8,272.3v49.5"/><path id="path4879" class="cls-2" d="M88.24,296.07H243"/><path id="path4881" class="cls-2" d="M87.8,319.85H242.52"/></g></g><g id="layer1"><path d="M326.35,0C304.5,27,290.9,63.62,290.9,98.43c0,84.25,68.57,152.79,152.86,152.79,29.41,0,60.62-9.91,85.24-25.74v9.33c-25.92,16.67-54.29,24.41-85.24,24.41-88.7,0-160.86-72.13-160.86-160.79,0-36.63,10.68-70,33.67-98.43"/><path id="path5650" class="cls-3" d="M297.77,38.5H528.51"/><path id="path5652" class="cls-3" d="M328.62,41.67V172.4"/><path id="path5654" class="cls-3" d="M324.23,103.26H528.51"/><path id="path5656" class="cls-3" d="M324.23,168H529"/><path id="path5658" class="cls-3" d="M338,216H528.51"/><path id="path5664" class="cls-3" d="M328.62,38.5V169.23"/><path id="path5672" class="cls-4" d="M314.38,8.51,133.09,172.14l2.18.57C161.44,175.2,183.94,197.35,186,228c0,15.15-5.54,29.95-16.44,40.47l-1,1.62,249-20.87c-76.88-9-131.3-75-131.35-152.42A152.61,152.61,0,0,1,314.38,8.51Z"/><g id="g5702"><path id="rect5695" d="M334.9,215.28l-56.67,91.93,5.87,3.61L320,333l5.87,3.61,56-90.87a152.68,152.68,0,0,1-47-30.42Z"/><path id="rect5697" d="M215.05,358l39.43-64a10.67,10.67,0,0,1,14.68-3.49l80.06,49.31a10.67,10.67,0,0,1,3.49,14.68L350.58,358"/></g><ellipse id="path4340" class="cls-5" cx="129.72" cy="228.72" rx="55.79" ry="55.76"/></g></svg>