<svg xmlns="http://www.w3.org/2000/svg" viewBox="0 0 600 600">
  <title>appicons</title>
  <path d="M246.19,105A144.49,144.49,0,1,1,144,147.34,143.56,143.56,0,0,1,246.19,105m0-25a169.5,169.5,0,1,0,169.5,169.5A169.5,169.5,0,0,0,246.19,80Z" fill="#1e75e8"/>
  <path d="M371,353.41a6.61,6.61,0,0,0-4.7,1.95L358,363.64a6.64,6.64,0,0,0,0,9.4L497.15,512.16a6.64,6.64,0,0,0,9.4,0l8.28-8.28a6.66,6.66,0,0,0,0-9.4L375.71,355.36a6.63,6.63,0,0,0-4.7-1.95Z" fill="#1e75e8"/>
  <path d="M466.19,453.73,505,492.52l-9.13,9.13-38.78-38.79,9.12-9.13m0-18.33a6.94,6.94,0,0,0-4.92,2l-20.5,20.5a7,7,0,0,0,0,9.84l50.16,50.16a7,7,0,0,0,9.84,0l20.5-20.5a7,7,0,0,0,0-9.84l-50.16-50.16a6.94,6.94,0,0,0-4.92-2Z" fill="#1e75e8"/>
</svg>
