<svg xmlns="http://www.w3.org/2000/svg" viewBox="0 0 600 600">
  <title>explore</title>
  <g>
    <path d="M46.19,358.89,187,527.9c4.25,5.11,11.49,6,16.16,2l234.4-201.18a10.56,10.56,0,0,0,3.45-5.93L205.23,487.09c-5,3.52-12.22,1.94-16-3.53L74.39,318.82,46.93,342.38C42.26,346.39,41.93,353.78,46.19,358.89Z" fill="#1e75e8"/>
    <path d="M213.22,459.12,447,292l17.34-12.39a11.1,11.1,0,0,0,4.18-11.38L478.9,121.42a3,3,0,0,0-2.21-3.09L334.24,80.55a11.07,11.07,0,0,0-11.89.41L71.22,260.44c-5,3.57-5.91,10.86-2,16.28L80.4,292.41,197.16,455.78C201,461.2,208.22,462.69,213.22,459.12Zm231.05-292a21.89,21.89,0,0,1-8.67,13.61,22.59,22.59,0,0,1-21.91,2.15,26.68,26.68,0,0,1-16.19-22.65,22.57,22.57,0,0,1,9.13-20c10.34-7.38,25.19-4.3,33.19,6.89a26.63,26.63,0,0,1,4.23,9.23A25,25,0,0,1,444.27,167.11Z" fill="none" stroke="#1e75e8" stroke-miterlimit="10" stroke-width="15"/>
    <path d="M440.81,113.31c7.42-10.2,18.13-20.2,31.29-28.49,33.25-21,69.58-23.09,81.14-4.75s-6,50.21-39.27,71.17-69.59,23.09-81.15,4.74c-3.32-5.26-4.24-11.64-3.08-18.55" fill="none" stroke="#1e75e8" stroke-miterlimit="10" stroke-width="14"/>
  </g>
</svg>
