<?xml version="1.0" encoding="utf-8"?>
<!-- Generator: Adobe Illustrator 22.1.0, SVG Export Plug-In . SVG Version: 6.00 Build 0)  -->
<svg version="1.1" id="Layer_1" xmlns="http://www.w3.org/2000/svg" xmlns:xlink="http://www.w3.org/1999/xlink" x="0px" y="0px"
	 viewBox="0 0 291 195" style="enable-background:new 0 0 291 195;" xml:space="preserve">
<style type="text/css">
	.st0{fill-opacity:0.7843;}
	.st1{fill-opacity:0.4902;}
	.st2{fill-opacity:0.549;}
	.st3{fill-opacity:0.1961;}
	.st4{stroke:#000000;stroke-miterlimit:10;}
</style>
<g id="svg2" inkscape:version="0.91 r13725" sodipodi:docname="big_blue.svg" xmlns:cc="http://creativecommons.org/ns#" xmlns:dc="http://purl.org/dc/elements/1.1/" xmlns:inkscape="http://www.inkscape.org/namespaces/inkscape" xmlns:rdf="http://www.w3.org/1999/02/22-rdf-syntax-ns#" xmlns:sodipodi="http://sodipodi.sourceforge.net/DTD/sodipodi-0.dtd" xmlns:svg="http://www.w3.org/2000/svg">
	
		<sodipodi:namedview  bordercolor="#666666" borderopacity="1.0" id="base" inkscape:current-layer="layer1" inkscape:cx="285.48418" inkscape:cy="197.29175" inkscape:document-units="px" inkscape:pageopacity="0" inkscape:pageshadow="2" inkscape:showpageshadow="true" inkscape:window-height="856" inkscape:window-maximized="0" inkscape:window-width="1440" inkscape:window-x="3" inkscape:window-y="0" inkscape:zoom="1.4142136" pagecolor="#ffffff" showgrid="false">
		</sodipodi:namedview>
	<path id="rect4379" class="st0" d="M126.5,54.2h65.7c0.5,0,1,0.4,1,1v45.4c0,0.5-0.4,1-1,1h-65.7c-0.5,0-1-0.4-1-1V55.2
		C125.6,54.6,126,54.2,126.5,54.2z"/>
	<path id="rect4405" class="st0" d="M223.2,60.2h65.7c0.5,0,1,0.4,1,1v25.6c0,0.5-0.4,1-1,1h-65.7c-0.5,0-1-0.4-1-1V61.2
		C222.2,60.8,222.6,60.2,223.2,60.2z"/>
	<path id="rect4407" class="st0" d="M223.2,89.9h65.7c0.5,0,1,0.4,1,1v14.7c0,0.5-0.4,1-1,1h-65.7c-0.5,0-1-0.4-1-1V90.8
		C222.2,90.3,222.6,89.9,223.2,89.9z"/>
	<path id="rect4409" class="st0" d="M223.2,108.4h65.7c0.5,0,1,0.4,1,0.9l0,0c0,0.5-0.4,0.9-1,0.9h-65.7c-0.5,0-1-0.4-1-0.9l0,0
		C222.2,108.8,222.6,108.4,223.2,108.4z"/>
	<path id="rect4411" class="st0" d="M223.2,112.8h65.7c0.5,0,1,0.4,1,0.9l0,0c0,0.5-0.4,0.9-1,0.9h-65.7c-0.5,0-1-0.4-1-0.9l0,0
		C222.2,113.2,222.6,112.8,223.2,112.8z"/>
	<g id="g4341">
		<g id="g4300">
			<path id="path4481" inkscape:connector-curvature="0" sodipodi:nodetypes="ccccc" class="st1" d="M96.9,48.5v47.2l28.4,5.5v-47
				L96.9,48.5z"/>
			<path id="path4499" inkscape:connector-curvature="0" sodipodi:nodetypes="ccccc" class="st1" d="M193.5,54.4V82l28.4,5.7V60.2
				L193.5,54.4z"/>
			<path id="path4501" inkscape:connector-curvature="0" sodipodi:nodetypes="ccccc" class="st1" d="M193.5,82.2v16.3l28.4,8V89.9
				L193.5,82.2z"/>
			<path id="path4503" inkscape:connector-curvature="0" sodipodi:nodetypes="ccccc" class="st1" d="M193.5,98.5v1.2l28.4,10.3v-1.6
				L193.5,98.5z"/>
			<path id="path4505" inkscape:connector-curvature="0" sodipodi:nodetypes="ccccc" class="st1" d="M193.5,99.8v1.3l28.4,13.3V113
				L193.5,99.8z"/>
		</g>
	</g>
	<path id="rect4387" class="st2" d="M126.5,107.2h65.7c0.5,0,1,0.4,1,1v22.1c0,0.5-0.4,1-1,1h-65.7c-0.5,0-1-0.4-1-1v-22.1
		C125.6,107.7,126,107.2,126.5,107.2z"/>
	<path id="rect4389" class="st2" d="M126.5,133.2h65.7c0.5,0,1,0.4,1,1V148c0,0.5-0.4,1-1,1h-65.7c-0.5,0-1-0.4-1-1v-13.8
		C125.6,133.6,126,133.2,126.5,133.2z"/>
	<path id="rect4431" class="st2" d="M223.4,119.8h65.7c0.5,0,1,0.4,1,1v17.7c0,0.5-0.4,1-1,1h-65.7c-0.5,0-1-0.4-1-1v-17.7
		C222.5,120.2,222.9,119.8,223.4,119.8z"/>
	<path id="rect4433" class="st2" d="M223.4,141.7h65.7c0.5,0,1,0.4,1,1v1.7c0,0.5-0.4,1-1,1h-65.7c-0.5,0-1-0.4-1-1v-1.6
		C222.5,142.1,222.9,141.7,223.4,141.7z"/>
	<path id="rect4435" class="st2" d="M223.4,147.6h65.7c0.5,0,1,0.4,1,1v4.8c0,0.5-0.4,1-1,1h-65.7c-0.5,0-1-0.4-1-1v-4.8
		C222.5,148,222.9,147.6,223.4,147.6z"/>
	<path id="rect4437" class="st2" d="M223.4,156.4h65.7c0.5,0,1,0.4,1,1v0.1c0,0.5-0.4,1-1,1h-65.7c-0.5,0-1-0.4-1-1v-0.1
		C222.5,156.9,222.9,156.4,223.4,156.4z"/>
	<path id="rect4439" class="st2" d="M223.4,160.9h65.7c0.5,0,1,0.4,1,1v4.4c0,0.5-0.4,1-1,1h-65.7c-0.5,0-1-0.4-1-1v-4.4
		C222.5,161.4,222.9,160.9,223.4,160.9z"/>
	<path id="path4491" inkscape:connector-curvature="0" sodipodi:nodetypes="ccccc" class="st3" d="M96.9,99.8v23.5l28.4,7.6v-23.6
		L96.9,99.8z"/>
	<path id="path4493" inkscape:connector-curvature="0" sodipodi:nodetypes="ccccc" class="st3" d="M96.9,123.7v15.2l28.4,9.5v-15.3
		L96.9,123.7z"/>
	<path id="path4525" inkscape:connector-curvature="0" sodipodi:nodetypes="ccccc" class="st3" d="M193.5,107.4V127l28.7,12v-19.3
		L193.5,107.4z"/>
	<path id="path4527" inkscape:connector-curvature="0" sodipodi:nodetypes="ccccc" class="st3" d="M193.5,127.2v3.8l28.7,14.1v-3.7
		L193.5,127.2z"/>
	<path id="path4529" inkscape:connector-curvature="0" sodipodi:nodetypes="ccccc" class="st3" d="M193.5,133.6v6.5l28.7,13.6v-6.3
		L193.5,133.6z"/>
	<path id="path4531" inkscape:connector-curvature="0" sodipodi:nodetypes="ccccc" class="st3" d="M193.5,140.3v1.9l28.7,15.6v-1.9
		L193.5,140.3z"/>
	<path id="path4533" inkscape:connector-curvature="0" sodipodi:nodetypes="ccccc" class="st3" d="M193.5,142.5v5.8l28.7,18.8v-6.4
		L193.5,142.5z"/>
	<path id="rect4387_1_" class="st0" d="M93.6,74c0.6,0,3,2.9,3,1.9V50.1c0-1-0.5-1.8-1.1-1.8H35"/>
</g>
<g id="Layer_3">
	<g>
		<path d="M33.2,133.2v-1.1c0-0.2,0.1-0.3,0.2-0.3l1.5-1c4-2.4,5.9-3.9,5.8-6.5c-0.1-1.8-0.9-3.7-3.5-4.9c-1.5-0.6-2.7-0.4-3.5,0
			l-0.4-1.2c-0.2-0.5-0.1-0.8,0.1-1c1-0.4,2.6-0.3,4.2,0.4c3.5,1.6,5.2,4.8,5.3,7.3c0.1,3.2-2,4.9-5.3,6.9l-1.3,0.7v0.1l6.2,2.8
			c0.6,0.3,1.2,1.3,1.2,1.9l0,0c0,0.4-0.2,0.6-0.5,0.4L33.2,133.2z"/>
		<path d="M56.9,134.7c0.2,5.9-1.7,8.4-5.4,6.7c-3.2-1.4-5.5-5.5-5.8-11.4c-0.2-5.9,2-8.1,5.4-6.6C54.6,125,56.7,129.2,56.9,134.7z
			 M47.9,131.1c0.2,4.6,1.6,7.8,3.6,8.6c2.2,1,3.3-1.3,3.1-5.8c-0.2-4.4-1.3-7.6-3.6-8.6C49.1,124.3,47.7,126.3,47.9,131.1z"/>
		<path d="M63.6,131.4L63.6,131.4l-2.9,0.4l-0.3-1.3c-0.1-0.4,0-0.6,0.2-0.8l3.1-0.4c0.1,0,0.2,0.1,0.3,0.1l0.6,0.3
			c0.6,0.3,1.2,1.3,1.2,1.9l0.6,15.6c0,0.4-0.2,0.6-0.5,0.4l-0.5-0.2c-0.6-0.3-1.2-1.3-1.2-1.9L63.6,131.4z"/>
		<path d="M71.9,145.7c-0.1-2.2,1.1-3.2,3.1-3.2v-0.1c-1.9-1.8-2.7-3.6-2.8-5.2c-0.1-2.8,2.1-3.7,4.9-2.5c3.2,1.4,4.9,4.3,4.9,6.5
			c0.1,1.5-0.6,2.8-2.6,2.9v0.1c2.1,1.7,3.4,3.9,3.5,6c0.1,3-2.2,4.1-5.4,2.8C74.2,151.5,72,148.3,71.9,145.7z M80.8,149.5
			c-0.1-2.1-1.4-3.6-3.6-5.2c-0.2-0.2-0.3-0.2-0.4-0.1c-1.7-0.1-2.7,0.8-2.6,2.4c0,1.7,1.3,3.9,3.4,4.8
			C79.6,152.1,80.8,151.4,80.8,149.5z M74.4,138.1c0.1,1.7,1.3,3.1,3,4.5c0.2,0.2,0.3,0.2,0.4,0.1c1.3,0.1,2.3-0.5,2.2-2.1
			c-0.1-1.5-0.9-3.2-2.9-4.1C75.2,135.7,74.3,136.6,74.4,138.1z"/>
	</g>
	<g>
		<path d="M26,84C26,84,26,84,26,84c0.9,0.1,2.1,0.6,3.4,1.1c1.9,0.8,3,1.7,4,2.9c0.8,0.9,1.2,2,1.3,3.2c0.1,1.5-0.8,2.4-2.3,2.3
			l0,0c1.4,1,3.1,2.9,3.2,5.2c0.1,1.4-0.4,2.2-1.2,2.5c-0.9,0.6-2.6,0.3-4.9-0.7c-1.3-0.5-2.2-1.1-2.9-1.5c0,0,0,0,0,0
			C26.5,98.9,26,85.3,26,84z M28.1,91l1.7,0.7c1.9,0.8,3.1,0.3,3-1.2c-0.1-1.8-1.4-3.1-3.3-3.9c-0.9-0.4-1.4-0.5-1.7-0.5L28.1,91
			L28.1,91z M28.3,98.4C28.3,98.4,28.3,98.5,28.3,98.4c0.4,0.3,0.9,0.5,1.6,0.8c2,0.9,3.7,0.9,3.6-1.4c-0.1-2.1-1.8-3.7-3.8-4.6
			l-1.6-0.7L28.3,98.4z"/>
		<path d="M46.7,105c0,1.1,0.1,2.2,0.2,3.1l-1.7-0.7c0,0,0,0,0-0.1l-0.2-1.9l0,0c-0.5,0.7-1.5,1.4-3.3,0.6c-1.7-0.7-3.6-2.6-3.8-6.5
			l-0.2-6.4c0-0.1,0-0.1,0.1-0.1l1.8,0.7c0,0,0,0,0,0.1l0.2,6c0.1,2.1,0.7,3.8,2.5,4.6c1.3,0.5,2.1,0,2.5-0.7c0.1-0.2,0.2-0.6,0.2-1
			l-0.3-6.7c0-0.1,0-0.1,0.1-0.1l1.8,0.7c0,0,0,0,0,0.1L46.7,105L46.7,105z"/>
		<path d="M58.3,97.1C58.3,97.1,58.3,97.2,58.3,97.1l0.5,13.4c0,0.9,0.1,2.1,0.2,2.9l-1.7-0.7c0,0,0,0,0-0.1l-0.2-2l0,0
			c-0.5,0.9-1.8,1.4-3.4,0.6c-2.5-1.1-4.6-4.2-4.7-7.7c-0.1-3.6,1.9-5,4.5-3.8c1.6,0.7,2.7,1.9,3.2,3.1l0,0l-0.3-6.6
			c0-0.1,0.1-0.1,0.1-0.1L58.3,97.1z M56.7,105.9c0-0.2,0-0.6-0.1-0.9c-0.3-1.4-1.4-2.9-2.8-3.6c-2-0.9-3.1,0.4-3,2.9
			c0.1,2.3,1.2,4.6,3.2,5.4c1.3,0.5,2.4,0.2,2.6-1.2c0.1-0.2,0.1-0.5,0.1-0.9V105.9L56.7,105.9z"/>
		<path d="M70.6,107.6C70.6,107.6,70.6,107.7,70.6,107.6l0,3l0.2,6.5c0.1,2.5-0.3,3.8-1.3,4.4c-0.9,0.6-2.4,0.3-3.8-0.4
			c-1.3-0.6-2.6-1.5-3.5-2.4c0,0,0,0,0-0.1l0.4-1.3c0.7,0.7,1.8,1.7,3.1,2.2c2,0.9,3.3,0.4,3.2-2.5v-1.3l0,0
			c-0.5,0.7-1.6,1.1-3.2,0.4c-2.5-1.1-4.5-4.2-4.6-7.4c-0.1-3.8,2.1-4.9,4.5-3.8c1.8,0.7,2.9,2.3,3.3,3.3l0,0v-1.6L70.6,107.6z
			 M68.8,111c0-0.3,0-0.6-0.1-0.9c-0.4-1.4-1.4-2.7-2.7-3.3c-1.8-0.7-3.1,0.2-3,2.8c0.1,2.2,1.2,4.5,3.2,5.3
			c1.2,0.5,2.2,0.2,2.6-0.9c0.1-0.3,0.2-0.7,0.2-1C68.9,113.2,68.8,111,68.8,111z"/>
		<path d="M75,115.4c0,0-0.1,0-0.1,0.1c0.1,2.6,1.8,4.5,3.8,5.3c1.4,0.6,2.1,0.7,2.7,0.6c0,0,0.1,0,0.1,0.1l0.3,1.4
			c-0.7,0-1.7-0.1-3.4-0.8c-3.2-1.4-5.2-4.4-5.3-7.8s1.6-5.1,4.6-3.9c3.4,1.5,4.4,5.1,4.5,7.1c0,0.4,0,0.7-0.1,0.9L75,115.4z
			 M80.2,116.2C80.2,116.2,80.3,116.2,80.2,116.2c0.1-1.4-0.6-3.5-2.7-4.4c-2-0.9-2.7,0.7-2.8,1.9c0,0,0,0.1,0,0.1L80.2,116.2z"/>
		<path d="M86.5,111.4l0.1,3.1c0,0,0,0.1,0,0.1l2.6,1.2c0,0,0,0,0,0.1l0.1,1.6l-2.6-1.2c0,0-0.1,0-0.1,0.1l0.2,5.8
			c0.1,1.4,0.5,2.3,1.5,2.9c0.5,0.2,0.8,0.4,1,0.3c0,0,0.1,0,0.1,0l0.2,1.4c-0.4,0-1-0.1-1.6-0.4c-0.9-0.4-1.6-1-2.1-1.7
			c-0.6-0.8-0.7-1.9-0.8-3.2l-0.2-6c0,0,0-0.1,0-0.1l-1.6-0.7c0,0,0,0,0-0.1l-0.1-1.6l1.7,0.7l-0.1-2.6c0,0,0-0.1,0.1-0.1
			L86.5,111.4C86.5,111.3,86.5,111.4,86.5,111.4z"/>
	</g>
</g>
<path d="M119.1,100l-6.2-1.2c0,1.7,0,3.4,0,5.2l6.2,1.6V100z"/>
<path d="M105.6,1L82.7,1.1H34.4C14.1,1.1,0.9,17.4,0.9,38.9v108.5c0,2.3,1.9,4.9,6,6.9l92.6,39.6v-45.1h19.4v-2.4l-11.6-3.9h-7.7
	V77.4c0-2.3-1.3-4.3-3.5-5.2l-63-27.6h79.6c0,0,0,2.7,0,7.1L119,53V33.4V1H105.6z M19.4,154.3l-0.3-96.5l74.8,32.5l0.3,95.9
	L19.4,154.3z M112.8,25.9v6.3v3.1v3.1H25.3c-1-1.8-1.6-3.9-1.6-6.2c0-0.1,0-0.1,0-0.1c-0.1-2.1,0.5-4.2,1.7-6.4
	c2.3-3.7,6.3-6.2,10.9-6.3h44.9h1.4l22.9,0.1h7.2 M112.8,13.4h-7.2l-22.8-0.1H35.5c-10.4,0-18.7,8.4-18.7,18.7
	c0,7.6,4.5,14.3,11.4,17.2c2.6,1.1,67.3,29.5,67.3,29.5v6.8C95,85.2,28.4,55.9,25.9,54.9C16.6,51.1,10.6,42,10.6,32
	c0-13.7,11.1-24.8,24.8-24.8l47.4-0.1l22.8,0.1h7.2V13.4z"/>
<polygon points="112.8,129 112.8,127.7 119.1,129.2 119.1,131.1 "/>
<line class="st4" x1="29.4" y1="35.2" x2="114.4" y2="35.3"/>
<line class="st4" x1="28.4" y1="31.2" x2="114.4" y2="31.3"/>
<line class="st4" x1="33" y1="22.8" x2="114.4" y2="22.9"/>
<line class="st4" x1="29.9" y1="27" x2="114.4" y2="27.1"/>
</svg>
