<?xml version="1.0" encoding="utf-8"?>
<!-- Generator: Adobe Illustrator 22.1.0, SVG Export Plug-In . SVG Version: 6.00 Build 0)  -->
<svg version="1.1" xmlns="http://www.w3.org/2000/svg" xmlns:xlink="http://www.w3.org/1999/xlink" x="0px" y="0px"
	 viewBox="0 0 287 197" style="enable-background:new 0 0 287 197;" xml:space="preserve">
<style type="text/css">
	.st0{fill-opacity:0.7843;}
	.st1{fill-opacity:0.4902;}
	.st2{fill-opacity:0.549;}
	.st3{fill-opacity:0.1961;}
</style>
<g id="svg2" inkscape:version="0.91 r13725" sodipodi:docname="big_blue.svg" xmlns:cc="http://creativecommons.org/ns#" xmlns:dc="http://purl.org/dc/elements/1.1/" xmlns:inkscape="http://www.inkscape.org/namespaces/inkscape" xmlns:rdf="http://www.w3.org/1999/02/22-rdf-syntax-ns#" xmlns:sodipodi="http://sodipodi.sourceforge.net/DTD/sodipodi-0.dtd" xmlns:svg="http://www.w3.org/2000/svg">
	
		<sodipodi:namedview  bordercolor="#666666" borderopacity="1.0" id="base" inkscape:current-layer="layer1" inkscape:cx="285.48418" inkscape:cy="197.29175" inkscape:document-units="px" inkscape:pageopacity="0" inkscape:pageshadow="2" inkscape:showpageshadow="true" inkscape:window-height="856" inkscape:window-maximized="0" inkscape:window-width="1440" inkscape:window-x="3" inkscape:window-y="0" inkscape:zoom="1.4142136" pagecolor="#ffffff" showgrid="false">
		</sodipodi:namedview>
	<path id="rect4379" class="st0" d="M122,54.9h65.7c0.5,0,1,0.4,1,1v44.4c0,0.5-0.4,1-1,1H122c-0.5,0-1-0.4-1-1V55.9
		C121.1,55.3,121.5,54.9,122,54.9z"/>
	<path id="rect4405" class="st0" d="M218.7,60.7h65.7c0.5,0,1,0.4,1,1v25c0,0.5-0.4,1-1,1h-65.7c-0.5,0-1-0.4-1-1v-25
		C217.7,61.2,218.1,60.7,218.7,60.7z"/>
	<path id="rect4407" class="st0" d="M218.7,89.8h65.7c0.5,0,1,0.4,1,1v14.4c0,0.5-0.4,1-1,1h-65.7c-0.5,0-1-0.4-1-1V90.7
		C217.7,90.2,218.1,89.8,218.7,89.8z"/>
	<path id="rect4409" class="st0" d="M218.7,107.9h65.7c0.5,0,1,0.4,1,0.9l0,0c0,0.5-0.4,0.9-1,0.9h-65.7c-0.5,0-1-0.4-1-0.9l0,0
		C217.7,108.3,218.1,107.9,218.7,107.9z"/>
	<path id="rect4411" class="st0" d="M218.7,112.1h65.7c0.5,0,1,0.4,1,0.9l0,0c0,0.5-0.4,0.9-1,0.9h-65.7c-0.5,0-1-0.4-1-0.9l0,0
		C217.7,112.5,218.1,112.1,218.7,112.1z"/>
	<g id="g4341">
		<g id="g4300">
			<path id="path4481" inkscape:connector-curvature="0" sodipodi:nodetypes="ccccc" class="st1" d="M92.4,49.3v46.2l28.4,5.4v-46
				L92.4,49.3z"/>
			<path id="path4499" inkscape:connector-curvature="0" sodipodi:nodetypes="ccccc" class="st1" d="M189,55.1v27l28.4,5.6V60.7
				L189,55.1z"/>
			<path id="path4501" inkscape:connector-curvature="0" sodipodi:nodetypes="ccccc" class="st1" d="M189,82.2v15.9l28.4,7.8V89.8
				L189,82.2z"/>
			<path id="path4503" inkscape:connector-curvature="0" sodipodi:nodetypes="ccccc" class="st1" d="M189,98.2v1.2l28.4,10.1v-1.6
				L189,98.2z"/>
			<path id="path4505" inkscape:connector-curvature="0" sodipodi:nodetypes="ccccc" class="st1" d="M189,99.5v1.3l28.4,13v-1.5
				L189,99.5z"/>
		</g>
	</g>
	<path id="rect4387" class="st2" d="M122,106.7h65.7c0.5,0,1,0.4,1,1v21.6c0,0.5-0.4,1-1,1H122c-0.5,0-1-0.4-1-1v-21.6
		C121.1,107.1,121.5,106.7,122,106.7z"/>
	<path id="rect4389" class="st2" d="M122,132.1h65.7c0.5,0,1,0.4,1,1v13.5c0,0.5-0.4,1-1,1H122c-0.5,0-1-0.4-1-1v-13.5
		C121.1,132.5,121.5,132.1,122,132.1z"/>
	<path id="rect4431" class="st2" d="M218.9,119h65.7c0.5,0,1,0.4,1,1v17.3c0,0.5-0.4,1-1,1h-65.7c-0.5,0-1-0.4-1-1V120
		C218,119.4,218.4,119,218.9,119z"/>
	<path id="rect4433" class="st2" d="M218.9,140.5h65.7c0.5,0,1,0.4,1,1v1.7c0,0.5-0.4,1-1,1h-65.7c-0.5,0-1-0.4-1-1v-1.7
		C218,140.9,218.4,140.5,218.9,140.5z"/>
	<path id="rect4435" class="st2" d="M218.9,146.2h65.7c0.5,0,1,0.4,1,1v4.7c0,0.5-0.4,1-1,1h-65.7c-0.5,0-1-0.4-1-1v-4.7
		C218,146.6,218.4,146.2,218.9,146.2z"/>
	<path id="rect4437" class="st2" d="M218.9,154.8h65.7c0.5,0,1,0.4,1,1v0.1c0,0.5-0.4,1-1,1h-65.7c-0.5,0-1-0.4-1-1v-0.1
		C218,155.3,218.4,154.8,218.9,154.8z"/>
	<path id="rect4439" class="st2" d="M218.9,159.2h65.7c0.5,0,1,0.4,1,1v4.3c0,0.5-0.4,1-1,1h-65.7c-0.5,0-1-0.4-1-1v-4.3
		C218,159.7,218.4,159.2,218.9,159.2z"/>
	<path id="path4491" inkscape:connector-curvature="0" sodipodi:nodetypes="ccccc" class="st3" d="M92.4,99.5v23l28.4,7.4v-23.1
		L92.4,99.5z"/>
	<path id="path4493" inkscape:connector-curvature="0" sodipodi:nodetypes="ccccc" class="st3" d="M92.4,122.9v14.9l28.4,9.3v-15
		L92.4,122.9z"/>
	<path id="path4525" inkscape:connector-curvature="0" sodipodi:nodetypes="ccccc" class="st3" d="M189,106.9V126l28.7,11.7v-18.9
		L189,106.9z"/>
	<path id="path4527" inkscape:connector-curvature="0" sodipodi:nodetypes="ccccc" class="st3" d="M189,126.3v3.7l28.7,13.8v-3.6
		L189,126.3z"/>
	<path id="path4529" inkscape:connector-curvature="0" sodipodi:nodetypes="ccccc" class="st3" d="M189,132.5v6.4l28.7,13.3V146
		L189,132.5z"/>
	<path id="path4531" inkscape:connector-curvature="0" sodipodi:nodetypes="ccccc" class="st3" d="M189,139.1v1.9l28.7,15.3v-1.9
		L189,139.1z"/>
	<path id="path4533" inkscape:connector-curvature="0" sodipodi:nodetypes="ccccc" class="st3" d="M189,141.2v5.7l28.7,18.4V159
		L189,141.2z"/>
	<path id="rect4387_1_" class="st2" d="M89.7,114.8c0.5,0,2.7-2.6,2.7-1.7v23.1c0,0.9-0.4,1.6-1,1.6H37.7"/>
</g>
<g id="Layer_3">
	<path d="M111.4,150.7l0-106.9h-18V2L7.6,38.7C3.8,40.6,2,43,2,45.1c0,0,0,100.5,0,100.5c0,19.9,12.2,35,31,35h44.7V196l10.8-12.5
		L98.9,196v-15.3h12.5L111.4,150.7z M19.1,38.7L88.4,9.2l-0.3,88.8l-69.3,30.1L19.1,38.7z M33.9,175c-12.7,0-23-10.3-23-23
		c0-9.3,5.6-17.7,14.2-21.2c2.3-1,64-28,64.5-28.3l0,6.3c0,0-59.9,26.3-62.3,27.3c-6.4,2.7-10.6,8.9-10.6,15.9
		c0,9.5,7.7,17.3,17.3,17.3h43.8v5.8L33.9,175L33.9,175z M24.7,157.7h53v5.8h-1.3H34.8C30.5,163.4,26.8,161.1,24.7,157.7z
		 M105.6,175h-6.7v-5.8h6.7V175z M105.6,163.4h-6.7v-5.8h6.7V163.4z M105.6,151.8l-82.5,0c0,0,0,0,0-0.1c0-2.1,0.6-4,1.5-5.7h81
		V151.8z M105.6,140.3H31.9l58.4-25.6c2-0.8,3.2-2.7,3.2-4.8V49.6h12.2C105.6,49.6,105.6,140.3,105.6,140.3z"/>
	<g>
		<path d="M26.9,99.6v-1.1c0-0.2,0.1-0.4,0.2-0.5l1.6-2.3c4.3-5.9,6.3-9,6.3-11.5c0-1.7-0.8-2.9-3.4-1.9c-1.5,0.7-2.8,2-3.6,3
			l-0.4-0.8c-0.2-0.3-0.1-0.7,0.1-1c1.1-1.3,2.7-2.5,4.4-3.3c3.6-1.5,5.2,0.3,5.2,2.7c0,3.1-2.3,6.6-5.8,11.5l-1.4,1.8v0.1l6.4-2.7
			c0.6-0.2,1.2,0.2,1.2,0.8l0,0c0,0.4-0.2,0.7-0.5,0.8L26.9,99.6z"/>
		<path d="M51.5,80.5c0,5.7-2.1,9.8-5.9,11.4c-3.3,1.4-5.5-0.7-5.6-6.3c0-5.7,2.4-9.8,5.9-11.3C49.5,72.8,51.5,75.2,51.5,80.5z
			 M42.3,84.7c0,4.4,1.4,6.3,3.4,5.4c2.3-1,3.5-4.2,3.5-8.5c0-4.2-1.1-6.4-3.4-5.4C43.8,77,42.3,80.1,42.3,84.7z"/>
		<path d="M58.6,71.4L58.6,71.4l-3,2.9l-0.3-1c-0.1-0.3,0-0.6,0.2-0.9l3.2-3.1c0.1-0.1,0.2-0.1,0.3-0.2l0.6-0.2
			c0.6-0.2,1.2,0.2,1.2,0.8v15c0,0.4-0.2,0.7-0.5,0.8l-0.5,0.2c-0.6,0.2-1.2-0.2-1.2-0.8V71.4z"/>
		<path d="M66.7,78.4c0-2.1,1.3-4.2,3.4-5.9l0-0.1c-1.9-0.1-2.7-1.2-2.7-2.7c0-2.7,2.3-5.5,5.2-6.7c3.3-1.4,4.9,0,4.9,2.1
			c0,1.4-0.7,3.3-2.8,5.1v0.1c2.1-0.1,3.4,0.9,3.4,2.9c0,2.9-2.5,6-5.7,7.4C68.9,82.1,66.7,80.9,66.7,78.4z M75.8,74.4
			c0-2-1.3-2.4-3.5-2.1c-0.2,0-0.3,0.1-0.4,0.2c-1.8,1.4-2.8,3.1-2.8,4.6c-0.1,1.7,1.2,2.7,3.4,1.8C74.5,78,75.8,76.2,75.8,74.4z
			 M69.6,68.7c0,1.6,1.2,2,3,1.8c0.2,0,0.3-0.1,0.4-0.2c1.4-1.1,2.4-2.5,2.4-4c0-1.4-0.8-2.4-2.9-1.5C70.6,65.5,69.6,67.2,69.6,68.7
			z"/>
	</g>
	<g>
		<path d="M21.3,57c0.8-0.5,2.2-1.2,3.5-1.8c1.9-0.8,3.1-1,4.1-0.6c0.8,0.2,1.2,0.9,1.2,2.1c0,1.4-0.9,3.1-2.5,4.3v0
			c1.4-0.2,3.1,0.2,3.1,2.4c0,1.3-0.5,2.5-1.3,3.5c-1,1.4-2.7,2.5-5.1,3.6c-1.3,0.6-2.3,0.9-3,1.1V57z M23.2,62.2l1.7-0.7
			c2-0.9,3.2-2.4,3.2-3.8c0-1.7-1.3-1.9-3.3-1c-0.9,0.4-1.4,0.7-1.7,0.9V62.2z M23.2,69.3c0.4-0.1,0.9-0.3,1.6-0.6
			c2-0.8,3.8-2.3,3.8-4.5c0-2-1.7-2.1-3.8-1.2l-1.6,0.7V69.3z"/>
		<path d="M42.1,59.9c0,1.1,0,2.1,0.1,2.9l-1.7,0.7l-0.1-1.7l0,0c-0.5,1.1-1.6,2.7-3.5,3.5c-1.7,0.7-3.7,0.6-3.7-3.1v-6.2l1.9-0.8
			V61c0,2,0.6,3.1,2.4,2.4c1.3-0.6,2.2-1.8,2.6-2.8c0.1-0.3,0.2-0.7,0.2-1.1v-6.5l1.9-0.8V59.9z"/>
		<path d="M54.5,41.9v12.9c0,0.9,0,2,0.1,2.7l-1.7,0.7l-0.1-1.8l0,0c-0.6,1.4-1.9,2.9-3.6,3.6c-2.6,1.1-4.6-0.2-4.6-3.5
			c0-3.5,2.2-6.6,4.8-7.7c1.6-0.7,2.7-0.4,3.2,0.3l0,0v-6.4L54.5,41.9z M52.5,52c0-0.2,0-0.6-0.1-0.8c-0.3-1.1-1.3-1.7-2.8-1.1
			c-2,0.8-3.2,3.1-3.2,5.5c0,2.2,1.1,3.5,3.1,2.6c1.3-0.6,2.5-1.9,2.8-3.5c0.1-0.3,0.1-0.6,0.1-0.9V52z"/>
		<path d="M66.9,41.6c0,0.8-0.1,1.7-0.1,3v6.2c0,2.4-0.5,4.1-1.5,5.5c-1,1.4-2.5,2.4-3.9,2.9c-1.3,0.5-2.7,0.8-3.5,0.6l0.5-1.7
			c0.7,0.1,1.8,0.1,3.1-0.5c2-0.8,3.4-2.5,3.4-5.2v-1.2l0,0c-0.6,1.2-1.7,2.5-3.4,3.2c-2.6,1.1-4.5-0.3-4.5-3.3
			c0-3.6,2.4-6.7,4.8-7.7c1.8-0.8,2.9-0.2,3.3,0.4l0,0l0.1-1.6L66.9,41.6z M64.9,46.6c0-0.3,0-0.6-0.1-0.8c-0.4-1-1.3-1.5-2.7-0.9
			c-1.8,0.8-3.2,2.9-3.2,5.4c0,2.1,1.1,3.4,3.1,2.5c1.2-0.5,2.3-1.7,2.7-3.1c0.1-0.4,0.2-0.8,0.2-1.1V46.6z"/>
		<path d="M71.1,45.5c0,2.6,1.7,3,3.7,2.1c1.4-0.6,2.2-1.2,2.9-1.8l0.3,1.2c-0.7,0.6-1.8,1.4-3.5,2.2c-3.3,1.4-5.2,0.1-5.2-3.1
			c0-3.2,1.9-6.5,5-7.9c3.5-1.5,4.4,1.2,4.4,3.1c0,0.4,0,0.7-0.1,0.9L71.1,45.5z M76.7,41.7c0-1.2-0.5-2.9-2.7-2c-2,0.8-2.8,3-3,4.4
			L76.7,41.7z"/>
		<path d="M83.3,31.5v3.1l2.8-1.2v1.5l-2.8,1.2v5.7c0,1.3,0.4,1.9,1.5,1.5c0.5-0.2,0.9-0.4,1.1-0.6l0.1,1.4c-0.4,0.3-1,0.7-1.7,1
			c-0.9,0.4-1.6,0.4-2.1,0.1c-0.6-0.3-0.7-1.2-0.7-2.5v-5.8l-1.7,0.7v-1.5l1.7-0.7v-2.6L83.3,31.5z"/>
	</g>
</g>
</svg>
