<svg xmlns="http://www.w3.org/2000/svg" viewBox="0 0 496.07 408.73">
  <title>lolodofld</title>
  <g>
    <path d="M358.49,309.9c-5.3,0-9.16,8.39-9.16,24.18,0,15.08,3.58,23.65,9.09,23.65,6.21,0,9.17-9.37,9.17-24.19C367.59,319.27,364.76,309.9,358.49,309.9Z" fill="#fff"/>
    <path d="M430,329.44a11.07,11.07,0,0,0,6.82-10.53c0-4.64-2.13-9.46-7.58-9.46-5,0-7.78,4.29-7.78,9.28C421.48,324.53,424.85,327.66,430,329.44Z" fill="#fff"/>
    <path d="M428.3,335.06c-5.24,2-8.06,6.43-8.06,12-.21,5.89,3.23,11.06,8.95,11.06,5.45,0,9-4.37,9-10.35C438.15,340.68,434.36,337.29,428.3,335.06Z" fill="#fff"/>
    <path d="M76,318c0-7-4.14-9.82-10.2-9.82a19.93,19.93,0,0,0-5.31.54V328.1h5.45C72.25,328.1,76,323.82,76,318Z" fill="#fff"/>
    <path d="M149.43,308.08a26.8,26.8,0,0,0-7,.8v47.47a29.07,29.07,0,0,0,6.06.45c12.82,0,19.78-9.28,19.78-25.52C168.31,317.09,162.1,308.08,149.43,308.08Z" fill="#fff"/>
    <path d="M65.43,334h-5v22.93a24.73,24.73,0,0,0,5,.36c6.21,0,11.93-2.94,11.93-11.69C77.42,337.38,72,334,65.43,334Z" fill="#fff"/>
    <path d="M245.86,103.21a26.94,26.94,0,0,1-13.32-3.54l-2.23,5.52c3.24,2.06,8.79,3.54,14.16,3.63v8.32h5.83v-8.57c9.53-1.4,14.62-7.5,14.62-14,0-7.33-4.82-11.62-14.34-15.08-8.05-3-11.48-5.11-11.48-9.4,0-3.3,2.69-7.09,9.81-7.09a24.45,24.45,0,0,1,11.66,2.8l2.31-5.44a27,27,0,0,0-12-2.88v-8h-5.73v8.33c-8.51,1.23-14,6.43-14,13.27,0,7.17,5.83,11,15.26,14.26,6.85,2.47,10.46,5.28,10.46,9.81C256.87,99.83,252.43,103.21,245.86,103.21Z" fill="#fff"/>
    <path d="M466.81,269.68h-59V143.27h42.54l16-22.07L248.49,5.13h-1.21L29.44,121.2l15.39,22.07H78V269.68H29.27c-10.33.76-18.74,9.68-20.66,21.31v112.6H487.46V291C485.53,279.36,476.81,270.44,466.81,269.68Zm-250.3,0V168.55l.07-25.28H269.2l.11,31.08v95.33Zm95.64-126.41h53.11V269.68H312.15ZM195.06,79.4a53,53,0,1,1,54.71,54.7A53.2,53.2,0,0,1,195.06,79.4Zm-74.2,63.87h52.8V269.68h-52.8ZM80,357.19c-3.24,3.84-8.48,5.62-16.06,5.62a54.17,54.17,0,0,1-9.3-.71V302.94a45,45,0,0,1,10.95-1.25c6,0,9.86,1.34,12.75,4.37,2.41,2.32,3.86,5.89,3.86,10.62,0,5.8-3,10.89-7.86,13.21v.17c4.42,1.43,9.58,6.16,9.58,15.09A18.76,18.76,0,0,1,80,357.19Zm46.16-20c0,18.47-7.51,26.06-17.57,26.06-9.51,0-16.67-7.05-16.67-25.7V302.13H98v35.61c0,13.47,4.62,19.18,10.82,19.18,6.89,0,11.3-5.89,11.3-19.18V302.13h6.06Zm41.83,17c-4.34,5.62-11.51,8.65-20.53,8.65a74.43,74.43,0,0,1-10.89-.71V302.94a66.24,66.24,0,0,1,12.75-1.25c8.61,0,14.74,2.59,18.81,7.49s6.55,11.87,6.55,21.6S172.31,348.63,168,354.16Zm49.82,5.44a34.67,34.67,0,0,1-14.26,3.3c-7,0-12.82-2.32-17.37-7.94-4-5-6.47-13-6.47-22.4.07-17.93,9.57-31.05,25.15-31.05a23.12,23.12,0,0,1,11.57,2.77L215,310.61A19.47,19.47,0,0,0,204.7,308c-11.3,0-18.67,9.11-18.67,24.19,0,15.26,7.09,24.27,17.91,24.27,3.93,0,6.62-.72,8-1.61V336.94H202.5v-6.25h15.29Zm35.28,2.68H227V302.13H252v6.52H233v19H251v6.42H233v21.68h20.12Zm38-53.54H276.85v53.54h-6.07V308.74H256.66v-6.61H291Zm46.24,53.54h-28.6v-4.82l4.76-6c11.44-14.1,16.61-21.59,16.67-30.34,0-5.89-2.2-11.33-8.89-11.33-4.06,0-7.44,2.68-9.5,4.91l-1.93-5.54a17.24,17.24,0,0,1,12.68-5.89c9.64,0,13.71,8.57,13.71,16.87,0,10.71-6,19.36-15.44,31.14l-3.58,4.29v.17h20.12Zm21,1c-8.75,0-14.68-10.62-14.82-29.8,0-19.46,6.48-30.17,15.58-30.17,9.44,0,14.81,10.89,14.81,29.36C373.8,352.37,368.15,363.26,358.23,363.26Zm40.17-1h-5.86V311.59h-.13L384.62,317l-1.17-6,9.78-6.78h5.17Zm30.8,1c-9.37,0-15-7.23-15-15.71,0-7.31,3.38-12.49,8.89-15.52l-.07-.27a14.83,14.83,0,0,1-7.1-13c0-9.19,6-15.44,13.86-15.44,8.68,0,13,7,13,14.28a15.28,15.28,0,0,1-7.37,13.57v.26a16,16,0,0,1,9,15C444.43,356.48,437.75,363.26,429.2,363.26Z" fill="#fff"/>
  </g>
</svg>
