<svg xmlns="http://www.w3.org/2000/svg" viewBox="0 0 522 500">
  <title>Budget</title>
  <path d="M371.46,333.23c-5.31,0-9.16,8.39-9.16,24.18,0,15.08,3.58,23.65,9.09,23.65,6.2,0,9.17-9.37,9.17-24.18C380.56,342.6,377.73,333.23,371.46,333.23Z" fill="#fff"/>
  <path d="M443,352.77a11.06,11.06,0,0,0,6.82-10.53c0-4.64-2.14-9.46-7.58-9.46-5,0-7.79,4.29-7.79,9.28C434.44,347.86,437.82,351,443,352.77Z" fill="#fff"/>
  <path d="M441.27,358.39c-5.24,2-8.07,6.43-8.07,12-.2,5.89,3.24,11.07,9,11.07,5.44,0,9-4.38,9-10.35C451.12,364,447.33,360.63,441.27,358.39Z" fill="#fff"/>
  <path d="M88.94,341.35c0-7.05-4.14-9.81-10.2-9.81a20.06,20.06,0,0,0-5.31.53v19.36h5.45C85.21,351.43,88.94,347.15,88.94,341.35Z" fill="#fff"/>
  <path d="M162.39,331.41a26.42,26.42,0,0,0-7,.81v47.47a30,30,0,0,0,6.07.44c12.82,0,19.77-9.28,19.77-25.52C181.27,340.42,175.07,331.41,162.39,331.41Z" fill="#fff"/>
  <path d="M78.39,357.32h-5v22.94a25.55,25.55,0,0,0,5,.35c6.2,0,11.92-2.94,11.92-11.69C90.38,360.71,84.94,357.32,78.39,357.32Z" fill="#fff"/>
  <path d="M258.82,126.54A26.83,26.83,0,0,1,245.5,123l-2.22,5.52c3.24,2.06,8.79,3.55,14.16,3.63v8.33h5.83V131.9c9.52-1.4,14.61-7.5,14.61-14,0-7.34-4.81-11.63-14.34-15.09-8.05-3-11.47-5.11-11.47-9.4,0-3.3,2.68-7.09,9.81-7.09a24.49,24.49,0,0,1,11.65,2.8l2.32-5.44a27,27,0,0,0-12-2.88v-8h-5.74v8.33c-8.51,1.23-14,6.43-14,13.27,0,7.17,5.83,11,15.27,14.26,6.85,2.48,10.45,5.28,10.45,9.81C269.83,123.16,265.39,126.54,258.82,126.54Z" fill="#fff"/>
  <polyline points="229.54 168.14 229.54 162.5 229.47 162.5 229.47 170.32 229.47 176.75 229.47 189 229.47 294.55 282.27 294.55 282.27 189.28 282.27 177.94 282.27 165.74 282.27 163.69 282.16 163.69 282.16 168.14" fill="none"/>
  <polygon points="186.63 172.11 186.63 170.32 186.63 168.14 133.82 168.14 133.82 294.55 186.63 294.55 186.63 189 186.63 176.75 186.63 172.11" fill="none"/>
  <circle cx="261" cy="106" r="53" fill="none"/>
  <polygon points="325.08 168.14 325.08 168.97 325.12 168.97 325.12 294.55 378.22 294.55 378.22 168.14 325.12 168.14 325.08 168.14" fill="none"/>
  <polygon points="186.63 172.11 186.63 170.32 186.63 168.14 133.82 168.14 133.82 294.55 186.63 294.55 186.63 189 186.63 176.75 186.63 172.11" fill="none"/>
  <circle cx="261" cy="106" r="53" fill="none"/>
  <polygon points="325.08 168.14 325.08 168.97 325.12 168.97 325.12 294.55 378.22 294.55 378.22 168.14 325.12 168.14 325.08 168.14" fill="none"/>
  <polygon points="282.27 164.21 282.27 162.15 282.16 162.15 282.16 166.61 229.54 166.61 229.54 160.97 229.47 160.97 229.47 168.79 229.47 175.22 229.47 187.46 229.47 293.01 282.27 293.01 282.27 187.75 282.27 176.41 282.27 164.21" fill="none"/>
  <polygon points="186.63 170.57 186.63 168.79 186.63 166.61 133.82 166.61 133.82 293.01 186.63 293.01 186.63 187.46 186.63 175.22 186.63 170.57" fill="none"/>
  <circle cx="261" cy="104.47" r="53" fill="none"/>
  <polygon points="325.08 166.61 325.08 167.43 325.12 167.43 325.12 293.01 378.22 293.01 378.22 166.61 325.12 166.61 325.08 166.61" fill="none"/>
  <g>
    <path d="M87.29,353.4v-.18c4.89-2.32,7.85-7.4,7.85-13.2,0-4.73-1.44-8.3-3.85-10.62-2.9-3-6.76-4.37-12.75-4.37a45.55,45.55,0,0,0-11,1.24v59.17a55.22,55.22,0,0,0,9.3.71c7.58,0,12.82-1.78,16.06-5.62a18.79,18.79,0,0,0,3.93-12C96.87,359.56,91.7,354.83,87.29,353.4Z" fill="none"/>
    <polygon points="186.63 191.24 186.63 187.46 186.63 166.61 133.82 166.61 133.82 293.01 186.63 293.01 186.63 191.24" fill="none"/>
    <path d="M133,361.08c0,13.29-4.41,19.18-11.3,19.18-6.2,0-10.82-5.71-10.82-19.18V325.47h-6.06V360.9c0,18.65,7.17,25.7,16.68,25.7,10.06,0,17.57-7.59,17.57-26.06V325.47H133Z" fill="none"/>
    <ellipse cx="261" cy="104.47" rx="52.98" ry="53.02" transform="translate(2.57 215.15) rotate(-45)" fill="none"/>
    <path d="M162.26,325a67.26,67.26,0,0,0-12.75,1.24v59.17a76.06,76.06,0,0,0,10.89.71c9,0,16.19-3,20.54-8.66s6.68-13.56,6.68-23.37-2.41-16.69-6.55-21.6S170.88,325,162.26,325Z" fill="none"/>
    <polygon points="229.54 166.61 229.47 191.89 229.47 293.01 282.27 293.01 282.27 197.69 282.16 166.61 229.54 166.61" fill="none"/>
    <polygon points="325.12 167.43 325.12 293.01 378.22 293.01 378.22 166.61 325.12 166.61 325.12 167.43 325.12 167.43" fill="none"/>
    <polygon points="245.92 357.42 263.97 357.42 263.97 350.99 245.92 350.99 245.92 331.99 265 331.99 265 325.47 239.92 325.47 239.92 385.62 266.04 385.62 266.04 379.1 245.92 379.1 245.92 357.42" fill="none"/>
    <polygon points="396.41 334.39 397.58 340.37 405.37 334.93 405.51 334.93 405.51 385.62 411.37 385.62 411.37 327.61 406.2 327.61 396.41 334.39" fill="none"/>
    <path d="M448.37,354.74v-.27a15.26,15.26,0,0,0,7.37-13.56c0-7.23-4.34-14.28-13-14.28-7.86,0-13.85,6.25-13.85,15.44a14.82,14.82,0,0,0,7.1,13l.06.26c-5.51,3-8.88,8.21-8.88,15.53,0,8.48,5.65,15.71,15,15.71,8.54,0,15.23-6.79,15.23-16.87A16,16,0,0,0,448.37,354.74Z" fill="none"/>
    <path d="M215.46,360.27h9.44v17.94c-1.38.89-4.07,1.6-8,1.6-10.82,0-17.92-9-17.92-24.27,0-15.08,7.37-24.18,18.67-24.18A19.47,19.47,0,0,1,227.93,334l1.45-6.34a23.18,23.18,0,0,0-11.58-2.76c-15.57,0-25.08,13.11-25.15,31,0,9.37,2.48,17.4,6.48,22.4,4.55,5.62,10.33,7.94,17.36,7.94a34.77,34.77,0,0,0,14.27-3.3V354h-15.3Z" fill="none"/>
    <path d="M372,326.63c-9.1,0-15.57,10.71-15.57,30.16.13,19.19,6.06,29.81,14.81,29.81,9.92,0,15.58-10.89,15.58-30.61C386.77,337.52,381.39,326.63,372,326.63Z" fill="none"/>
    <path d="M330.12,378.92l3.59-4.28c9.44-11.78,15.43-20.44,15.43-31.14,0-8.3-4.06-16.87-13.71-16.87a17.24,17.24,0,0,0-12.68,5.89l1.93,5.53c2.07-2.23,5.44-4.9,9.51-4.9,6.68,0,8.89,5.44,8.89,11.33-.07,8.74-5.24,16.24-16.68,30.34l-4.75,6v4.81h28.59V379.1H330.12Z" fill="none"/>
    <polygon points="269.62 332.07 283.75 332.07 283.75 385.62 289.81 385.62 289.81 332.07 304.01 332.07 304.01 325.47 269.62 325.47 269.62 332.07" fill="none"/>
    <path d="M500.28,314.33H21.57v.82h0V426.92H500.43V315.15h0v-.82ZM92.94,380.53c-3.24,3.84-8.48,5.62-16.06,5.62a55.22,55.22,0,0,1-9.3-.71V326.27a45.55,45.55,0,0,1,11-1.24c6,0,9.85,1.33,12.75,4.37,2.41,2.32,3.85,5.89,3.85,10.62,0,5.8-3,10.88-7.85,13.2v.18c4.41,1.43,9.58,6.16,9.58,15.08A18.79,18.79,0,0,1,92.94,380.53Zm46.17-20c0,18.47-7.51,26.06-17.57,26.06-9.51,0-16.68-7.05-16.68-25.7V325.47h6.06v35.61c0,13.47,4.62,19.18,10.82,19.18,6.89,0,11.3-5.89,11.3-19.18V325.47h6.07Zm41.83,16.95c-4.35,5.63-11.51,8.66-20.54,8.66a76.06,76.06,0,0,1-10.89-.71V326.27A67.26,67.26,0,0,1,162.26,325c8.62,0,14.75,2.58,18.81,7.49s6.55,11.87,6.55,21.6S185.28,372,180.94,377.49Zm49.82,5.45a34.77,34.77,0,0,1-14.27,3.3c-7,0-12.81-2.32-17.36-7.94-4-5-6.48-13-6.48-22.4.07-17.94,9.58-31,25.15-31a23.18,23.18,0,0,1,11.58,2.76L227.93,334a19.47,19.47,0,0,0-10.27-2.59c-11.3,0-18.67,9.1-18.67,24.18,0,15.26,7.1,24.27,17.92,24.27,3.92,0,6.61-.71,8-1.6V360.27h-9.44V354h15.3ZM266,385.61H239.92V325.47H265V332H245.92v19H264v6.43H245.92V379.1H266Zm38-53.54h-14.2v53.54h-6.06V332.07H269.62v-6.6H304Zm46.23,53.54H321.65V380.8l4.75-6c11.44-14.1,16.61-21.6,16.68-30.34,0-5.89-2.21-11.33-8.89-11.33-4.07,0-7.44,2.67-9.51,4.9l-1.93-5.53a17.24,17.24,0,0,1,12.68-5.89c9.65,0,13.71,8.57,13.71,16.87,0,10.7-6,19.36-15.43,31.14l-3.59,4.28v.18h20.12Zm20.95,1c-8.75,0-14.68-10.62-14.81-29.81,0-19.45,6.47-30.16,15.57-30.16,9.44,0,14.82,10.89,14.82,29.36C386.77,375.71,381.11,386.6,371.19,386.6Zm40.18-1h-5.86V334.93h-.14l-7.79,5.44-1.17-6,9.79-6.78h5.17Zm30.8,1c-9.37,0-15-7.23-15-15.71,0-7.32,3.37-12.49,8.88-15.53l-.06-.26a14.82,14.82,0,0,1-7.1-13c0-9.19,6-15.44,13.85-15.44,8.68,0,13,7.05,13,14.28a15.26,15.26,0,0,1-7.37,13.56v.27a16,16,0,0,1,9,15C457.4,379.81,450.71,386.6,442.17,386.6Z" fill="#fff"/>
    <path d="M32.12,314.33H500.43c-1.94-11.64-10.66-20.56-20.66-21.32h-59V166.61h42.55l16-22.08L261.45,28.47h-1.2L42.4,144.53l15.39,22.08H91V293H42.23c-10.32.76-18.73,9.68-20.66,21.32H32.12ZM282.27,293h-52.8V191.89l.07-25.28h52.62l.11,31.08Zm96-126.4V293h-53.1V167.43h0v-.82ZM208,102.73a53,53,0,1,1,54.71,54.71A53.18,53.18,0,0,1,208,102.73Zm-74.21,63.88h52.81V293H133.82Z" fill="#fff"/>
  </g>
</svg>
