<svg xmlns="http://www.w3.org/2000/svg" viewBox="0 0 467.65 425.88">
  <title>Budgeticon</title>
  <g>
    <path d="M235.44,83.15c-7.53-3-10.73-5.11-10.73-9.4,0-3.3,2.51-7.09,9.17-7.09a21.72,21.72,0,0,1,10.91,2.8L247,64a24,24,0,0,0-11.26-2.88v-8h-5.36v8.33c-8,1.23-13.08,6.43-13.08,13.27,0,7.17,5.46,11,14.29,14.26,6.4,2.47,9.78,5.28,9.78,9.81,0,4.7-4.16,8.08-10.3,8.08a23.91,23.91,0,0,1-12.47-3.54l-2.08,5.52c3,2.06,8.23,3.55,13.25,3.63v8.32h5.45v-8.57c8.92-1.4,13.68-7.5,13.68-14C248.86,90.9,244.36,86.61,235.44,83.15Z" fill="#fff"/>
    <path d="M437.74,273.07H382.53V148.49h40l15-22.08L233.62,10.35H232.5L28.68,126.41l14.4,22.08H74V273.07H28.38a21.23,21.23,0,0,0-19.47,18V406.14h448.3V291.05A21.52,21.52,0,0,0,437.74,273.07ZM293.05,148.49h49.68V273.07H293.05Zm-179,0h49.4V273.07h-49.4ZM75.68,367.82c-3,3.84-7.93,5.62-15,5.62a47.51,47.51,0,0,1-8.7-.71V313.57a40,40,0,0,1,10.25-1.25c5.61,0,9.22,1.34,11.93,4.37,2.25,2.32,3.61,5.89,3.61,10.62,0,5.8-2.77,10.89-7.35,13.21v.18c4.12,1.42,9,6.15,9,15.08A19.55,19.55,0,0,1,75.68,367.82Zm43.2-20c0,18.48-7,26.06-16.44,26.06-8.9,0-15.6-7.05-15.6-25.7V312.77h5.67v35.6c0,13.47,4.32,19.19,10.12,19.19,6.45,0,10.58-5.89,10.58-19.19v-35.6h5.67Zm39.13,17c-4.06,5.62-10.76,8.65-19.21,8.65a65.19,65.19,0,0,1-10.18-.71V313.57a58.8,58.8,0,0,1,11.92-1.25c8.06,0,13.8,2.59,17.6,7.5s6.13,11.86,6.13,21.59S162.08,359.26,158,364.79Zm46.62,5.44a30.84,30.84,0,0,1-13.35,3.3c-6.57,0-12-2.32-16.24-7.94-3.74-5-6.06-13-6.06-22.4.06-17.93,9-31.05,23.53-31.05a20.58,20.58,0,0,1,10.83,2.77L202,321.24a17.39,17.39,0,0,0-9.6-2.58c-10.57,0-17.47,9.1-17.47,24.18,0,15.26,6.64,24.27,16.76,24.27,3.67,0,6.19-.71,7.48-1.61V347.57h-8.84v-6.25h14.32Zm-1.07-97.16V148.49H253V273.07Zm34.08,99.84H213.2V312.77h23.47v6.51H218.81v19H235.7v6.42H218.81V366.4h18.83Zm35.52-53.54H259.88v53.54h-5.67V319.37H241v-6.6h32.17Zm-40.27-188c-27.56,0-49.9-20.27-49.9-45.28s22.34-45.27,49.9-45.27S282.8,61.07,282.8,86.07,260.46,131.35,232.89,131.35Zm83.53,241.56H289.67v-4.82l4.44-6c10.71-14.1,15.54-21.59,15.61-30.34,0-5.89-2.07-11.33-8.32-11.33-3.8,0-7,2.68-8.9,4.91l-1.8-5.53a15.69,15.69,0,0,1,11.86-5.89c9,0,12.83,8.56,12.83,16.86,0,10.71-5.61,19.37-14.44,31.14l-3.35,4.29v.18h18.82Zm19.6,1c-8.19,0-13.73-10.62-13.86-29.8,0-19.46,6.06-30.16,14.57-30.16,8.83,0,13.86,10.88,13.86,29.35C350.59,363,345.3,373.89,336,373.89Zm37.59-1h-5.48V322.23H368l-7.29,5.44-1.09-6,9.15-6.78h4.84Zm28.82,1c-8.77,0-14.06-7.23-14.06-15.7,0-7.32,3.16-12.5,8.32-15.53l-.07-.27a15.12,15.12,0,0,1-6.64-13c0-9.19,5.61-15.43,13-15.43,8.12,0,12.19,7.05,12.19,14.27,0,4.91-1.75,10.18-6.9,13.57V342c5.22,2.86,8.44,8,8.44,15C416.67,367.11,410.42,373.89,402.43,373.89Z" fill="#fff"/>
    <path d="M140.8,318.47a23.11,23.11,0,0,0-6.57.81v47.47a25.52,25.52,0,0,0,5.67.45c12,0,18.5-9.28,18.5-25.52C158.47,327.49,152.66,318.47,140.8,318.47Z" fill="#fff"/>
    <path d="M401.72,345.16c-4.9,2-7.55,6.42-7.55,11.95-.19,5.89,3,11.07,8.39,11.07,5.09,0,8.38-4.37,8.38-10.35C410.94,350.78,407.39,347.39,401.72,345.16Z" fill="#fff"/>
    <path d="M336.41,320c-5,0-8.58,8.39-8.58,24.18,0,15.08,3.36,23.65,8.51,23.65,5.81,0,8.58-9.37,8.58-24.18C344.92,329.36,342.27,320,336.41,320Z" fill="#fff"/>
    <path d="M403.33,339.53A11.1,11.1,0,0,0,409.71,329c0-4.64-2-9.45-7.09-9.45-4.71,0-7.28,4.28-7.28,9.28C395.34,334.63,398.49,337.75,403.33,339.53Z" fill="#fff"/>
    <path d="M72.08,328.11c0-7.05-3.87-9.81-9.55-9.81a17.58,17.58,0,0,0-5,.53V338.2h5.09C68.59,338.2,72.08,333.91,72.08,328.11Z" fill="#fff"/>
    <path d="M62.21,344.09H57.57V367a21.66,21.66,0,0,0,4.71.36c5.8,0,11.15-2.95,11.15-11.69C73.43,347.48,68.34,344.09,62.21,344.09Z" fill="#fff"/>
  </g>
</svg>
