<svg id="Layer_1" data-name="Layer 1" xmlns="http://www.w3.org/2000/svg" viewBox="0 0 528.51 358"><defs><style>.cls-1{fill-opacity:0.78;}.cls-2{fill-opacity:0.49;}.cls-3{fill-opacity:0.55;}.cls-4{fill-opacity:0.2;}.cls-5,.cls-6{fill:none;}.cls-5{stroke:#000;stroke-miterlimit:10;}</style></defs><title>partition-budget</title><g id="svg2"><path id="rect4379" class="cls-1" d="M236.67,117.26h95.41a1.45,1.45,0,0,1,1.45,1.45h0v65.94a1.46,1.46,0,0,1-1.45,1.45H236.67a1.47,1.47,0,0,1-1.46-1.45V118.71A1.56,1.56,0,0,1,236.67,117.26Z"/><path id="rect4405" class="cls-1" d="M377.1,126h95.42a1.46,1.46,0,0,1,1.45,1.45v37.18a1.46,1.46,0,0,1-1.45,1.45H377.1a1.46,1.46,0,0,1-1.45-1.45v-37.2A1.56,1.56,0,0,1,377.1,126Z"/><path id="rect4407" class="cls-1" d="M377.1,169.11h95.42a1.46,1.46,0,0,1,1.45,1.45v21.35a1.46,1.46,0,0,1-1.45,1.45H377.1a1.46,1.46,0,0,1-1.45-1.45v-21.5a1.34,1.34,0,0,1,1.37-1.3Z"/><path id="rect4409" class="cls-1" d="M377.1,196h95.42a1.43,1.43,0,0,1,1.45,1.3h0a1.33,1.33,0,0,1-1.37,1.31H377.1a1.43,1.43,0,0,1-1.45-1.31h0A1.34,1.34,0,0,1,377,196Z"/><path id="rect4411" class="cls-1" d="M377.1,202.37h95.42a1.43,1.43,0,0,1,1.45,1.3h0A1.33,1.33,0,0,1,472.6,205H377.1a1.43,1.43,0,0,1-1.45-1.31h0a1.34,1.34,0,0,1,1.37-1.3Z"/><g id="g4341"><g id="g4300"><path id="path4481" class="cls-2" d="M193.68,109v68.55l41.24,8V117.26Z"/><path id="path4499" class="cls-2" d="M334,117.55v40.08l41.24,8.28V126Z"/><path id="path4501" class="cls-2" d="M334,157.93V181.6l41.24,11.62V169.11Z"/><path id="path4503" class="cls-2" d="M334,181.6v1.74l41.24,15V196Z"/><path id="path4505" class="cls-2" d="M334,183.49v1.88l41.24,19.32v-2Z"/></g></g><path id="rect4387" class="cls-3" d="M236.67,194.23h95.41a1.45,1.45,0,0,1,1.45,1.45h0v32.1a1.45,1.45,0,0,1-1.45,1.45H236.67a1.47,1.47,0,0,1-1.46-1.45v-32.1A1.71,1.71,0,0,1,236.67,194.23Z"/><path id="rect4389" class="cls-3" d="M236.67,232h95.41a1.45,1.45,0,0,1,1.45,1.45h0V253.5a1.46,1.46,0,0,1-1.45,1.45H236.67a1.47,1.47,0,0,1-1.46-1.45V233.44A1.56,1.56,0,0,1,236.67,232Z"/><path id="rect4431" class="cls-3" d="M377.39,212.53h95.42a1.46,1.46,0,0,1,1.45,1.47h0v25.71a1.46,1.46,0,0,1-1.45,1.45H377.39a1.46,1.46,0,0,1-1.45-1.45V214A1.55,1.55,0,0,1,377.39,212.53Z"/><path id="rect4433" class="cls-3" d="M377.39,244.34h95.42a1.46,1.46,0,0,1,1.45,1.45v2.47a1.46,1.46,0,0,1-1.45,1.45H377.39a1.46,1.46,0,0,1-1.45-1.45v-2.33C376.09,244.92,376.67,244.34,377.39,244.34Z"/><path id="rect4435" class="cls-3" d="M377.39,252.9h95.42a1.47,1.47,0,0,1,1.45,1.46v7a1.46,1.46,0,0,1-1.45,1.45H377.39a1.46,1.46,0,0,1-1.45-1.45v-7A1.57,1.57,0,0,1,377.39,252.9Z"/><path id="rect4437" class="cls-3" d="M377.39,265.68h95.42a1.47,1.47,0,0,1,1.45,1.46v.14a1.45,1.45,0,0,1-1.45,1.45H377.39a1.46,1.46,0,0,1-1.45-1.45v-.14A1.71,1.71,0,0,1,377.39,265.68Z"/><path id="rect4439" class="cls-3" d="M377.39,272.22h95.42a1.46,1.46,0,0,1,1.45,1.45v6.39a1.45,1.45,0,0,1-1.45,1.45H377.39a1.46,1.46,0,0,1-1.45-1.45v-6.39A1.72,1.72,0,0,1,377.39,272.22Z"/><path id="path4491" class="cls-4" d="M193.68,183.49v34.12l41.24,11V194.38Z"/><path id="path4493" class="cls-4" d="M193.68,218.2v22.07l41.24,13.8V231.85Z"/><path id="path4525" class="cls-4" d="M334,194.52V223l41.68,17.42v-28Z"/><path id="path4527" class="cls-4" d="M334,223.28v5.52l41.68,20.47V243.9Z"/><path id="path4529" class="cls-4" d="M334,232.57V242l41.68,19.75V252.6Z"/><path id="path4531" class="cls-4" d="M334,242.3v2.76l41.68,22.66V265Z"/><path id="path4533" class="cls-4" d="M334,245.5v8.42l41.68,27.3v-9.29Z"/><path id="rect4387-2" class="cls-1" d="M188.89,146c.87,0,4.35,4.21,4.35,2.76V111.31c0-1.46-.72-2.62-1.59-2.62H103.76"/></g><g id="Layer_3" data-name="Layer 3"><path d="M101.17,232v-1.6c0-.29.14-.43.29-.43l2.18-1.45c5.81-3.49,8.57-5.67,8.42-9.44-.14-2.62-1.31-5.38-5.08-7.12a6.11,6.11,0,0,0-5.09,0l-.58-1.74a1.21,1.21,0,0,1,.15-1.45,8.43,8.43,0,0,1,6.1.58,12.8,12.8,0,0,1,7.7,10.6c.14,4.65-2.91,7.11-7.7,10l-1.89,1v.14l9,4.07a3.8,3.8,0,0,1,1.75,2.76h0c0,.58-.29.87-.73.58Z"/><path d="M135.59,234.17c.29,8.57-2.47,12.2-7.84,9.73-4.65-2-8-8-8.43-16.56s2.91-11.76,7.84-9.58C132.25,220.08,135.3,226.18,135.59,234.17Zm-13.07-5.23c.29,6.68,2.32,11.33,5.23,12.49,3.19,1.45,4.79-1.89,4.5-8.42s-1.89-11-5.23-12.49C124.26,219.07,122.23,222,122.52,228.94Z"/><path d="M145.32,229.38h0l-4.21.58-.44-1.89a1.06,1.06,0,0,1,.29-1.16l4.5-.58c.15,0,.29.14.44.14l.87.44a3.86,3.86,0,0,1,1.74,2.76l.87,22.65c0,.58-.29.88-.72.58l-.73-.29a3.84,3.84,0,0,1-1.74-2.76Z"/><path d="M157.37,250.15c-.14-3.2,1.6-4.65,4.5-4.65v-.15c-2.76-2.61-3.92-5.23-4.06-7.55-.15-4.07,3-5.37,7.11-3.63,4.65,2,7.12,6.24,7.12,9.44.15,2.18-.87,4.07-3.78,4.21V248c3.05,2.47,4.94,5.66,5.09,8.71.14,4.36-3.2,6-7.85,4.07C160.76,258.57,157.52,253.92,157.37,250.15Zm12.93,5.51c-.15-3-2-5.22-5.23-7.55-.29-.29-.44-.29-.58-.14-2.47-.15-3.92,1.16-3.78,3.48a8.26,8.26,0,0,0,4.94,7c2.9,1,4.65,0,4.65-2.79ZM161,239.11c.15,2.47,1.89,4.5,4.36,6.53.29.29.44.29.58.15,1.89.14,3.34-.73,3.2-3a6.92,6.92,0,0,0-4.22-6c-2.76-1.17-4.06.14-3.92,2.32Z"/><path d="M90.76,160.54h0a23.18,23.18,0,0,1,4.94,1.6,14,14,0,0,1,5.81,4.21A7.82,7.82,0,0,1,103.4,171a2.89,2.89,0,0,1-2.36,3.34,2.69,2.69,0,0,1-1,0h0c2,1.45,4.5,4.21,4.64,7.55.15,2-.58,3.19-1.74,3.63-1.31.87-3.77.43-7.11-1a26.74,26.74,0,0,1-4.22-2.18h0C91.44,182.18,90.76,162.43,90.76,160.54Zm3,10.17,2.47,1c2.76,1.16,4.5.44,4.36-1.74-.15-2.61-2-4.5-4.79-5.66a6.36,6.36,0,0,0-2.47-.73l.43,7.12Zm.29,10.74h0a10.78,10.78,0,0,0,2.33,1.16c2.9,1.31,5.37,1.31,5.22-2-.14-3.05-2.61-5.37-5.51-6.68l-2.33-1Z"/><path d="M120.76,191a42.31,42.31,0,0,0,.29,4.5l-2.46-1v-.14l-.29-2.76h0c-.73,1-2.18,2-4.8.87-2.47-1-5.23-3.78-5.52-9.44l-.29-9.29c0-.15,0-.15.15-.15l2.61,1v.14l.29,8.72c.15,3,1,5.51,3.63,6.68a2.72,2.72,0,0,0,3.64-1,3.79,3.79,0,0,0,.29-1.45l-.44-9.73c0-.15,0-.15.15-.15l2.61,1v.2Z"/><path d="M137.62,179.56h0l.73,19.46a37.23,37.23,0,0,0,.29,4.22l-2.47-1v-.15l-.29-2.9h0c-.73,1.31-2.62,2-4.94.87-3.63-1.6-6.68-6.1-6.83-11.18s2.76-7.26,6.54-5.52a8.89,8.89,0,0,1,4.65,4.5h0l-.44-9.58a.15.15,0,0,1,.15-.15Zm-2.32,12.78a4.06,4.06,0,0,0-.15-1.3,8.09,8.09,0,0,0-4.06-5.23c-2.91-1.31-4.51.58-4.36,4.21.14,3.34,1.74,6.68,4.65,7.84,1.88.73,3.48.29,3.77-1.74a3.23,3.23,0,0,0,.15-1.31Z"/><path d="M155.48,194.81h0v4.36l.29,9.44c.15,3.63-.43,5.52-1.88,6.39s-3.49.44-5.52-.58a18.51,18.51,0,0,1-5.09-3.49v-.14l.59-1.89a13.76,13.76,0,0,0,4.5,3.2c2.9,1.3,4.79.58,4.65-3.64v-1.88h0c-.73,1-2.33,1.59-4.65.58-3.63-1.6-6.54-6.1-6.68-10.75-.15-5.52,3-7.12,6.53-5.52a9,9,0,0,1,4.8,4.79h0v-2.32Zm-2.61,4.94a4.16,4.16,0,0,0-.15-1.31,7.63,7.63,0,0,0-3.92-4.79c-2.61-1-4.5.29-4.35,4.07.14,3.19,1.74,6.53,4.64,7.69,1.75.73,3.2.3,3.78-1.3a4.79,4.79,0,0,0,.29-1.45A16.69,16.69,0,0,1,152.87,199.75Z"/><path d="M161.87,206.14a.14.14,0,0,0-.14.14h0a8.61,8.61,0,0,0,5.52,7.69c2,.87,3,1,3.92.87a.14.14,0,0,1,.14.14h0l.44,2a12.42,12.42,0,0,1-4.94-1.16,12.68,12.68,0,0,1-7.7-11.33c-.14-4.93,2.33-7.4,6.69-5.66,4.93,2.18,6.39,7.41,6.53,10.31a3.41,3.41,0,0,1-.14,1.31Zm7.56,1.16h0a6.59,6.59,0,0,0-3.93-6.39c-2.9-1.3-3.92,1-4.06,2.76v.15Z"/><path d="M178.58,200.33l.14,4.5V205l3.78,1.74v.15l.14,2.32-3.77-1.74s-.15,0-.15.14L179,216c.15,2,.73,3.34,2.18,4.21.73.29,1.16.58,1.45.43h.12l.29,2a5.57,5.57,0,0,1-2.33-.58,7.5,7.5,0,0,1-3.05-2.47c-.87-1.16-1-2.76-1.16-4.65l-.29-8.71v-.15l-2.32-1V205l-.15-2.32,2.47,1-.14-3.77s0-.15.14-.15l2.33.58Z"/></g><path d="M225.92,183.78l-9-1.75v7.56l9,2.32Z"/><path d="M206.31,40l-33.25.15H102.91C73.43,40.15,54.26,63.82,54.26,95V252.61c0,3.34,2.76,7.12,8.71,10l134.49,57.54v-65.5h28.17v-3.49l-16.87-5.66H197.6V151a8,8,0,0,0-5.08-7.55L101,103.37H216.63v10.31l9.14,1.89V40ZM81.13,262.63l-.44-140.14,108.63,47.2L189.76,309ZM216.76,76.16V94.32H89.7a18.41,18.41,0,0,1-2.33-9v-.14a17.67,17.67,0,0,1,2.47-9.3,19.16,19.16,0,0,1,15.83-9.15h67.24l33.26.15h10.46m.13-8.88H206.31l-33.11-.15H104.51A27.14,27.14,0,0,0,93.91,110c3.77,1.6,97.74,42.84,97.74,42.84v9.88c-.73-.44-97.45-43-101.08-44.44A36,36,0,0,1,104.36,49l68.84-.14,33.11.14h10.45Z"/><polygon points="216.76 225.89 216.76 224 225.91 226.18 225.91 228.94 216.76 225.89"/><line class="cls-5" x1="95.65" y1="89.67" x2="219.09" y2="89.81"/><line class="cls-5" x1="94.19" y1="83.86" x2="219.09" y2="84"/><line class="cls-5" x1="100.87" y1="71.66" x2="219.09" y2="71.8"/><line class="cls-5" x1="96.37" y1="77.76" x2="219.09" y2="77.9"/><rect class="cls-6" width="528.51" height="358"/></svg>