<svg xmlns="http://www.w3.org/2000/svg" viewBox="0 0 1366 374">
  <title>lol</title>
  <g opacity="0.6">
    <path d="M961.16,29h-256c-2,0-3.79,1.18-3.79,2.52v115c0,1.34,1.77,2.52,3.79,2.52h256c2,0,3.79-1.18,3.79-2.52v-115C965,30.22,963.18,29,961.16,29Z" fill="#c1d9ff" fill-opacity="0.78"/>
    <path d="M961.16,153.67h-256c-2,0-3.79,1-3.79,2.22V196.6c0,1.18,1.77,2.22,3.79,2.22h256c2,0,3.79-1,3.79-2.22V155.89C965,154.71,963.18,153.67,961.16,153.67Z" fill="#c1d9ff" fill-opacity="0.78"/>
    <path d="M961.16,205.85h-256c-2,0-3.79,1-3.79,2.1v11.33c0,1.12,1.77,2.1,3.79,2.1h256c2,0,3.79-1,3.79-2.1V208C965,206.83,963.18,205.85,961.16,205.85Z" fill="#c1d9ff" fill-opacity="0.78"/>
    <path d="M961.16,226.41h-256c-2,0-3.79.84-3.79,2s1.77,2,3.79,2h256c2,0,3.79-.84,3.79-2S963.18,226.41,961.16,226.41Z" fill="#c1d9ff" fill-opacity="0.78"/>
    <path d="M961,241H705.2c-2,0-3.79,1-3.79,2.09v46.43c0,1.12,1.77,2.1,3.79,2.1H961c2,0,3.79-1,3.79-2.1V243.05C964.83,241.93,963.06,241,961,241Z" fill="#c1d9ff" fill-opacity="0.55"/>
    <g>
      <path d="M49.81.11,42.07.24V247.39h7.74c1.45-.14,2.66-1,2.42-1.81V1.92C52.47,1.08,51.26.24,49.81.11Z" fill="#c1d9ff" fill-opacity="0.25"/>
      <path d="M597.66,14.77H93c-4,0-7.48,1.15-7.48,2.47v176.5c0,1.31,3.49,2.46,7.48,2.46H597.66c4,0,7.48-1.15,7.48-2.46V17.24C605.14,15.92,601.65,14.77,597.66,14.77Z" fill="#c1d9ff" fill-opacity="0.78"/>
      <path d="M1322,44.15H1134.82a2.72,2.72,0,0,0-2.77,2.52v64.64a2.72,2.72,0,0,0,2.77,2.52H1322a2.73,2.73,0,0,0,2.78-2.52V46.67A2.73,2.73,0,0,0,1322,44.15Z" fill="#c1d9ff" fill-opacity="0.78"/>
      <path d="M1322,119.2H1134.82a2.72,2.72,0,0,0-2.77,2.52V159a2.72,2.72,0,0,0,2.77,2.52H1322a2.72,2.72,0,0,0,2.78-2.52V121.72A2.73,2.73,0,0,0,1322,119.2Z" fill="#c1d9ff" fill-opacity="0.78"/>
      <path d="M1322,166.21H1134.82a2.38,2.38,0,1,0,0,4.7H1322a2.38,2.38,0,1,0,0-4.7Z" fill="#c1d9ff" fill-opacity="0.78"/>
      <path d="M1322,177H1134.82a2.38,2.38,0,1,0,0,4.7H1322a2.38,2.38,0,1,0,0-4.7Z" fill="#c1d9ff" fill-opacity="0.78"/>
      <path d="M1322,183.72H1134.82a2.61,2.61,0,0,0-2.77,2.22v21.32a2.61,2.61,0,0,0,2.77,2.22H1322a2.62,2.62,0,0,0,2.78-2.22V185.94A2.62,2.62,0,0,0,1322,183.72Z" fill="#c1d9ff" fill-opacity="0.78"/>
      <path d="M1322,219.42H1134.82a2.56,2.56,0,0,0-2.77,1.68,2.43,2.43,0,0,0,2.77,1.68H1322a1.9,1.9,0,1,0,0-3.36Z" fill="#c1d9ff" fill-opacity="0.78"/>
      <path d="M1322,233.4H1134.82c-1.48,0-2.77,1-2.77,2.1v10.63c0,1.12,1.29,2.1,2.77,2.1H1322c1.48,0,2.78-1,2.78-2.1V235.5C1324.76,234.38,1323.46,233.4,1322,233.4Z" fill="#c1d9ff" fill-opacity="0.78"/>
      <path d="M1322,252.7H1134.82c-1.48,0-2.77,1-2.77,2.1v1.4c0,1.12,1.29,2.1,2.77,2.1H1322c1.48,0,2.78-1,2.78-2.1v-1.4C1324.76,253.68,1323.46,252.7,1322,252.7Z" fill="#c1d9ff" fill-opacity="0.78"/>
      <path d="M1322,261.37H1134.82c-1.48,0-2.77,1-2.77,2.1v2c0,1.12,1.29,2.1,2.77,2.1H1322c1.48,0,2.78-1,2.78-2.1v-2C1324.76,262.35,1323.46,261.37,1322,261.37Z" fill="#c1d9ff" fill-opacity="0.78"/>
      <path d="M1322,276.2H1134.82c-1.48,0-2.59.56-2.77,1.12,0,.56,1.29,1.12,2.77,1.12H1322c1.48,0,2.78-.56,2.78-1.12S1323.46,276.2,1322,276.2Z" fill="#c1d9ff" fill-opacity="0.78"/>
      <path d="M1322,289.62H1134.82c-1.48,0-2.77,1-2.77,2.1V292c0,1.12,1.29,2.1,2.77,2.1H1322c1.48,0,2.78-1,2.78-2.1v-.28C1324.76,290.6,1323.46,289.62,1322,289.62Z" fill="#c1d9ff" fill-opacity="0.78"/>
      <path d="M1322,300.81H1134.82c-1.48,0-2.59.7-2.77,1.4,0,.84,1.29,1.4,2.77,1.4H1322c1.48,0,2.78-.56,2.78-1.4S1323.46,300.81,1322,300.81Z" fill="#c1d9ff" fill-opacity="0.78"/>
      <path d="M1322,312.56H1134.82a2.71,2.71,0,0,0-2.77,1.4c0,.84,1.29,1.4,2.77,1.4H1322c1.48,0,2.78-.56,2.78-1.4S1323.46,312.56,1322,312.56Z" fill="#c1d9ff" fill-opacity="0.78"/>
      <polygon points="49.26 0.1 49.26 178.23 85.53 191.74 85.53 187.51 85.53 14.11 49.26 0.1" fill="#c1d9ff" fill-opacity="0.49"/>
      <polygon points="606.35 134.31 701.41 148.25 701.41 29.21 606.35 14.77 606.35 134.31" fill="#c1d9ff" fill-opacity="0.49"/>
      <polygon points="606.35 180.02 701.41 198.52 701.41 154.26 606.35 136.5 606.35 180.02" fill="#c1d9ff" fill-opacity="0.49"/>
      <polygon points="606.35 190.82 701.41 219.1 701.41 203.7 606.35 180.61 606.35 190.82" fill="#c1d9ff" fill-opacity="0.49"/>
      <polygon points="606.35 196.9 701.41 229.63 701.41 226.13 606.35 194.38 606.35 196.9" fill="#c1d9ff" fill-opacity="0.49"/>
      <polygon points="965.92 99.39 1132.05 113.83 1132.05 44.15 965.92 29.71 965.92 99.39" fill="#c1d9ff" fill-opacity="0.49"/>
      <polygon points="965.92 141.03 1132.05 161.18 1132.05 119.54 965.92 99.72 965.92 141.03" fill="#c1d9ff" fill-opacity="0.49"/>
      <polygon points="965.92 144.39 1132.05 170.58 1132.05 166.38 965.92 141.2 965.92 144.39" fill="#c1d9ff" fill-opacity="0.49"/>
      <polygon points="965.92 148.08 1132.05 181.66 1132.05 177.63 965.92 144.55 965.92 148.08" fill="#c1d9ff" fill-opacity="0.49"/>
      <polygon points="965.92 179.28 1132.05 208.44 1132.05 184.46 965.92 154.11 965.92 179.28" fill="#c1d9ff" fill-opacity="0.49"/>
      <polygon points="965.92 182.83 1132.05 220.73 1132.05 217.32 965.92 179.72 965.92 182.83" fill="#c1d9ff" fill-opacity="0.49"/>
      <polygon points="965.92 197.93 1132.05 247.67 1132.05 232.42 965.92 183.28 965.92 197.93" fill="#c1d9ff" fill-opacity="0.49"/>
      <polygon points="965.92 211.73 1132.05 257.88 1132.05 252.7 965.92 205.99 965.92 211.73" fill="#c1d9ff" fill-opacity="0.49"/>
      <polygon points="965.92 216.48 1132.05 266.83 1132.05 261.51 965.92 212.29 965.92 216.48" fill="#c1d9ff" fill-opacity="0.49"/>
      <polygon points="965.92 218.44 1132.05 278.16 1132.05 275.92 965.92 216.62 965.92 218.44" fill="#c1d9ff" fill-opacity="0.49"/>
      <polygon points="1132.05 292.7 1132.05 289.62 965.92 218.44 965.92 221.24 1132.05 292.7" fill="#c1d9ff" fill-opacity="0.49"/>
      <polygon points="965.92 228.79 1132.05 303.75 1132.05 300.81 965.92 226.97 965.92 228.79" fill="#c1d9ff" fill-opacity="0.49"/>
      <polygon points="965.92 231.03 1132.05 314.8 1132.05 312.84 965.92 229.07 965.92 231.03" fill="#c1d9ff" fill-opacity="0.49"/>
      <path d="M597.66,200.54H93c-4,0-7.48.59-7.48,1.27V256.6c0,.68,3.49,1.28,7.48,1.28H597.66c4,0,7.48-.6,7.48-1.28V201.81C605.14,201.13,601.65,200.54,597.66,200.54Z" fill="#c1d9ff" fill-opacity="0.55"/>
      <path d="M1322,322.91H1134.82c-1.48,0-2.77.84-2.77,2.1v37.34c0,1.12,1.29,2.1,2.77,2.1H1322c1.48,0,2.78-1,2.78-2.1V325C1324.76,323.89,1323.46,322.91,1322,322.91Z" fill="#c1d9ff" fill-opacity="0.55"/>
      <path d="M1322,332.29H1134.82c-1.48,0-2.77.84-2.77,2.1v3.78c0,1.12,1.29,2.09,2.77,2.09H1322c1.48,0,2.78-1,2.78-2.09v-3.78C1324.76,333.27,1323.46,332.29,1322,332.29Z" fill="#c1d9ff" fill-opacity="0.55"/>
      <polygon points="49.26 180.55 49.26 246.94 85.53 258.3 85.53 255.63 85.53 192.9 49.26 180.55" fill="#c1d9ff" fill-opacity="0.2"/>
      <polygon points="606.23 254.38 701.41 291.16 701.41 241.51 606.23 204.87 606.23 254.38" fill="#c1d9ff" fill-opacity="0.2"/>
      <polygon points="965.92 279.42 1132.05 363.19 1132.05 322.35 965.92 238.3 965.92 279.42" fill="#c1d9ff" fill-opacity="0.2"/>
    </g>
  </g>
</svg>
