<svg id="svg2" xmlns="http://www.w3.org/2000/svg" viewBox="0 0 528.51 358"><defs><style>.cls-1{fill-opacity:0.25;}.cls-2{fill-opacity:0.78;}.cls-3{fill-opacity:0.49;}.cls-4{fill-opacity:0.55;}.cls-5{fill-opacity:0.2;}.cls-6{fill:none;}</style></defs><title>partition</title><g id="layer1"><path id="rect4356" class="cls-1" d="M48.55,33.46V210.67h3.24a1.17,1.17,0,0,0,1-1.28V34.74a1.17,1.17,0,0,0-1-1.28Z" transform="translate(-0.24)"/><rect id="rect4363" class="cls-2" x="68.1" y="41.99" width="104.2" height="110.33" rx="1.5" ry="1.5"/><rect id="rect4379" class="cls-2" x="216.9" y="51.02" width="104.2" height="71.44" rx="1.5" ry="1.5"/><rect id="rect4381" class="cls-2" x="216.9" y="125.58" width="104.2" height="30.49" rx="1.5" ry="1.5"/><rect id="rect4383" class="cls-2" x="216.9" y="159.18" width="104.2" height="11.11" rx="1.5" ry="1.5"/><path id="rect4385" class="cls-2" d="M218.65,173.92H319.84a1.45,1.45,0,0,1,1.51,1.38h0a1.45,1.45,0,0,1-1.51,1.39H218.65a1.45,1.45,0,0,1-1.5-1.39h0A1.44,1.44,0,0,1,218.65,173.92Z" transform="translate(-0.24)"/><rect id="rect4405" class="cls-2" x="365.7" y="60.01" width="104.2" height="41.46" rx="1.5" ry="1.5"/><rect id="rect4407" class="cls-2" x="365.7" y="104.72" width="104.2" height="25.2" rx="1.5" ry="1.5"/><path id="rect4409" class="cls-2" d="M367.45,132.72H468.64a1.46,1.46,0,0,1,1.51,1.4h0a1.45,1.45,0,0,1-1.51,1.39H367.45a1.45,1.45,0,0,1-1.5-1.39h0A1.45,1.45,0,0,1,367.45,132.72Z" transform="translate(-0.24)"/><path id="rect4411" class="cls-2" d="M367.45,139.12H468.64a1.46,1.46,0,0,1,1.51,1.4h0a1.45,1.45,0,0,1-1.51,1.39H367.45a1.45,1.45,0,0,1-1.5-1.39h0A1.45,1.45,0,0,1,367.45,139.12Z" transform="translate(-0.24)"/><rect id="rect4413" class="cls-2" x="365.7" y="145.92" width="104.2" height="17.4" rx="1.5" ry="1.5"/><path id="rect4415" class="cls-2" d="M367.45,168.92H468.64a1.38,1.38,0,0,1,1.51,1.2h0a1.38,1.38,0,0,1-1.51,1.19H367.45a1.37,1.37,0,0,1-1.5-1.19h0A1.37,1.37,0,0,1,367.45,168.92Z" transform="translate(-0.24)"/><rect id="rect4417" class="cls-2" x="365.7" y="178.92" width="104.2" height="10.6" rx="1.5" ry="1.5"/><rect id="rect4419" class="cls-2" x="365.7" y="192.72" width="104.2" height="4.01" rx="1.5" ry="1.5"/><rect id="rect4421" class="cls-2" x="365.7" y="198.92" width="104.2" height="4.4" rx="1.5" ry="1.5"/><path id="rect4423" class="cls-2" d="M367.45,209.52H468.64c.83,0,1.51.35,1.51.8h0c0,.44-.68.79-1.51.79H367.45c-.83,0-1.5-.35-1.5-.79h0C366,209.87,366.62,209.52,367.45,209.52Z" transform="translate(-0.24)"/><rect id="rect4425" class="cls-2" x="365.7" y="219.12" width="104.2" height="3.2" rx="1.5" ry="1.5"/><path id="rect4427" class="cls-2" d="M367.45,227.12H468.64c.83,0,1.51.44,1.51,1h0c0,.55-.68,1-1.51,1H367.45c-.83,0-1.5-.44-1.5-1h0C366,227.56,366.62,227.12,367.45,227.12Z" transform="translate(-0.24)"/><path id="rect4429" class="cls-2" d="M367.45,235.52H468.64c.83,0,1.51.44,1.51,1h0c0,.55-.68,1-1.51,1H367.45c-.83,0-1.5-.44-1.5-1h0C366,236,366.62,235.52,367.45,235.52Z" transform="translate(-0.24)"/><g id="g4341"><path id="path4371" class="cls-3" d="M53.28,33.92v109.4l15,8.3V42.49Z" transform="translate(-0.24)"/><g id="g4300"><path id="path4481" class="cls-3" d="M173,42.46v71.22l43.75,8.3V51.08Z" transform="translate(-0.24)"/><path id="path4483" class="cls-3" d="M173,114v29.42l43.75,12.48V126Z" transform="translate(-0.24)"/><path id="path4487" class="cls-3" d="M173,143.75v6.92l43.75,19.14V159.36Z" transform="translate(-0.24)"/><path id="path4489" class="cls-3" d="M173,151v1.83l43.75,23.38v-2.53Z" transform="translate(-0.24)"/><path id="path4499" class="cls-3" d="M321.78,51.37V92.89l43.75,8.58V60Z" transform="translate(-0.24)"/><path id="path4501" class="cls-3" d="M321.78,93.06v24.55l43.75,12V104.79Z" transform="translate(-0.24)"/><path id="path4503" class="cls-3" d="M321.78,117.78v1.86l43.75,15.58v-2.53Z" transform="translate(-0.24)"/><path id="path4505" class="cls-3" d="M321.78,119.8v2.07l43.75,20v-2.38Z" transform="translate(-0.24)"/><path id="path4507" class="cls-3" d="M321.78,125.86v17l43.75,19.67V146.29Z" transform="translate(-0.24)"/><path id="path4509" class="cls-3" d="M321.78,143.16v2.05l43.75,25.57v-2.29Z" transform="translate(-0.24)"/><path id="path4511" class="cls-3" d="M321.78,145.56v9.95l43.75,33.57V178.79Z" transform="translate(-0.24)"/><path id="path4513" class="cls-3" d="M321.78,159.26v4.1l43.75,33v-3.71Z" transform="translate(-0.24)"/><path id="path4515" class="cls-3" d="M321.78,163.75v3l43.75,36v-3.71Z" transform="translate(-0.24)"/><path id="path4517" class="cls-3" d="M321.78,166.85v1.27l43.75,42.66v-1.59Z" transform="translate(-0.24)"/><path id="path4519" class="cls-3" d="M321.78,168.24v2l43.75,51.14V219.2Z" transform="translate(-0.24)"/><path id="path4521" class="cls-3" d="M321.78,174.29v1.27l43.75,53.61v-2.08Z" transform="translate(-0.24)"/><path id="path4523" class="cls-3" d="M321.78,175.76v1.42l43.75,59.9v-1.37Z" transform="translate(-0.24)"/></g></g><rect id="rect4365" class="cls-4" x="68.1" y="155.41" width="104.2" height="67.5" rx="1.5" ry="1.5"/><rect id="rect4387" class="cls-4" x="216.9" y="181.65" width="104.2" height="36.24" rx="1.5" ry="1.5"/><rect id="rect4389" class="cls-4" x="216.9" y="220.75" width="104.2" height="23.74" rx="1.5" ry="1.5"/><rect id="rect4391" class="cls-4" x="216.9" y="247.65" width="104.2" height="8.5" rx="1.5" ry="1.5"/><rect id="rect4431" class="cls-4" x="365.7" y="242.87" width="104.2" height="29.71" rx="1.5" ry="1.5"/><rect id="rect4433" class="cls-4" x="365.7" y="275.96" width="104.2" height="5.67" rx="1.5" ry="1.5"/><rect id="rect4435" class="cls-4" x="365.7" y="284.73" width="104.2" height="10.2" rx="1.5" ry="1.5"/><rect id="rect4437" class="cls-4" x="365.7" y="298.03" width="104.2" height="3.13" rx="1.5" ry="1.5"/><rect id="rect4439" class="cls-4" x="365.7" y="304.81" width="104.2" height="9.55" rx="1.5" ry="1.5"/><rect id="rect4537" class="cls-4" x="365.7" y="317.61" width="104.2" height="3.95" rx="1.5" ry="1.5"/><path id="rect4539" class="cls-4" d="M367.45,325.61H468.64a1.45,1.45,0,0,1,1.51,1.38h0a1.45,1.45,0,0,1-1.51,1.38H367.45A1.44,1.44,0,0,1,366,327h0A1.44,1.44,0,0,1,367.45,325.61Z" transform="translate(-0.24)"/><g id="g4362"><path id="path4373" class="cls-5" d="M53.28,143.52v67.24l15,11.47V156Z" transform="translate(-0.24)"/><path id="path4491" class="cls-5" d="M173,155.81v35.42l43.75,26.28V182Z" transform="translate(-0.24)"/><path id="path4493" class="cls-5" d="M173,191.81v23L216.73,244V220.85Z" transform="translate(-0.24)"/><path id="path4495" class="cls-5" d="M173,215.21v7.3l43.75,33.29v-8.25Z" transform="translate(-0.24)"/><path id="path4525" class="cls-5" d="M321.78,182.42v29.36l43.75,59.91V242.51Z" transform="translate(-0.24)"/><path id="path4527" class="cls-5" d="M321.78,212.2V218l43.75,63v-5.56Z" transform="translate(-0.24)"/><path id="path4529" class="cls-5" d="M321.78,221.8v9.85L365.53,294v-9.56Z" transform="translate(-0.24)"/><path id="path4531" class="cls-5" d="M321.78,232v2.91l43.75,65.44V297.4Z" transform="translate(-0.24)"/><path id="path4533" class="cls-5" d="M321.78,235.22v8.86l43.75,70.09v-9.66Z" transform="translate(-0.24)"/><path id="path4535" class="cls-5" d="M321.78,248v4l43.75,69v-3.66Z" transform="translate(-0.24)"/><path id="path4541" class="cls-5" d="M321.78,252.37v3.35l43.75,72.57v-2.82Z" transform="translate(-0.24)"/></g></g><rect class="cls-6" width="528.51" height="358"/></svg>