<svg xmlns="http://www.w3.org/2000/svg" viewBox="0 0 420 280.1">
  <title>partition-budget</title>
  <g>
    <path d="M236.7,117.3h95.4a1.45,1.45,0,0,1,1.5,1.4h0v65.9a1.45,1.45,0,0,1-1.5,1.4H236.7a1.52,1.52,0,0,1-1.5-1.4V118.7A1.52,1.52,0,0,1,236.7,117.3Z" transform="translate(-54.3 -40)" fill="#fff" fill-opacity="0.78"/>
    <path d="M377.1,126h95.4a1.6,1.6,0,0,1,1.5,1.4v37.2a1.45,1.45,0,0,1-1.5,1.4H377.1a1.6,1.6,0,0,1-1.5-1.4V127.4A1.7,1.7,0,0,1,377.1,126Z" transform="translate(-54.3 -40)" fill="#fff" fill-opacity="0.78"/>
    <path d="M377.1,169.1h95.4a1.6,1.6,0,0,1,1.5,1.4v21.4a1.45,1.45,0,0,1-1.5,1.4H377.1a1.6,1.6,0,0,1-1.5-1.4V170.4a1.51,1.51,0,0,1,1.5-1.3Z" transform="translate(-54.3 -40)" fill="#fff" fill-opacity="0.78"/>
    <path d="M377.1,196h95.4a1.6,1.6,0,0,1,1.5,1.3h0a1.32,1.32,0,0,1-1.3,1.3H377.2a1.51,1.51,0,0,1-1.5-1.3h0a1.35,1.35,0,0,1,1.4-1.3Z" transform="translate(-54.3 -40)" fill="#fff" fill-opacity="0.78"/>
    <path d="M377.1,202.4h95.4a1.6,1.6,0,0,1,1.5,1.3h0a1.32,1.32,0,0,1-1.3,1.3H377.2a1.51,1.51,0,0,1-1.5-1.3h0a1.35,1.35,0,0,1,1.4-1.3Z" transform="translate(-54.3 -40)" fill="#fff" fill-opacity="0.78"/>
    <g>
      <polygon points="139.4 69 139.4 137.6 180.6 145.6 180.6 77.3 139.4 69" fill="#fff" opacity="0.49" style="isolation: isolate"/>
      <polygon points="279.7 77.6 279.7 117.7 320.9 126 320.9 86 279.7 77.6" fill="#fff" opacity="0.49" style="isolation: isolate"/>
      <polygon points="279.7 117.9 279.7 141.6 320.9 153.2 320.9 129.1 279.7 117.9" fill="#fff" opacity="0.49" style="isolation: isolate"/>
      <polygon points="279.7 141.6 279.7 143.3 320.9 158.3 320.9 156 279.7 141.6" fill="#fff" opacity="0.49" style="isolation: isolate"/>
      <polygon points="279.7 143.5 279.7 145.4 320.9 164.7 320.9 162.7 279.7 143.5" fill="#fff" opacity="0.49" style="isolation: isolate"/>
    </g>
    <path d="M236.7,194.2h95.4a1.45,1.45,0,0,1,1.5,1.4h0v32.1a1.39,1.39,0,0,1-1.5,1.4H236.7a1.52,1.52,0,0,1-1.5-1.4V195.6A1.7,1.7,0,0,1,236.7,194.2Z" transform="translate(-54.3 -40)" fill="#fff" fill-opacity="0.55"/>
    <path d="M236.7,232h95.4a1.45,1.45,0,0,1,1.5,1.4h0v20.1a1.45,1.45,0,0,1-1.5,1.4H236.7a1.52,1.52,0,0,1-1.5-1.4V233.4A1.6,1.6,0,0,1,236.7,232Z" transform="translate(-54.3 -40)" fill="#fff" fill-opacity="0.55"/>
    <path d="M377.4,212.5h95.4a1.54,1.54,0,0,1,1.5,1.5h0v25.7a1.45,1.45,0,0,1-1.5,1.4H377.4a1.6,1.6,0,0,1-1.5-1.4V214A1.7,1.7,0,0,1,377.4,212.5Z" transform="translate(-54.3 -40)" fill="#fff" fill-opacity="0.55"/>
    <path d="M377.4,244.3h95.4a1.6,1.6,0,0,1,1.5,1.4v2.5a1.45,1.45,0,0,1-1.5,1.4H377.4a1.6,1.6,0,0,1-1.5-1.4v-2.3C376.1,244.9,376.7,244.3,377.4,244.3Z" transform="translate(-54.3 -40)" fill="#fff" fill-opacity="0.55"/>
    <path d="M377.4,252.9h95.4a1.61,1.61,0,0,1,1.5,1.5v7a1.61,1.61,0,0,1-1.5,1.5H377.4a1.61,1.61,0,0,1-1.5-1.5v-7A1.7,1.7,0,0,1,377.4,252.9Z" transform="translate(-54.3 -40)" fill="#fff" fill-opacity="0.55"/>
    <path d="M377.4,265.7h95.4a1.61,1.61,0,0,1,1.5,1.5v.1a1.45,1.45,0,0,1-1.4,1.5H377.5a1.61,1.61,0,0,1-1.5-1.5v-.1A1.52,1.52,0,0,1,377.4,265.7Z" transform="translate(-54.3 -40)" fill="#fff" fill-opacity="0.55"/>
    <path d="M377.4,272.2h95.4a1.61,1.61,0,0,1,1.5,1.5v6.4a1.45,1.45,0,0,1-1.4,1.5H377.5a1.61,1.61,0,0,1-1.5-1.5v-6.4A1.6,1.6,0,0,1,377.4,272.2Z" transform="translate(-54.3 -40)" fill="#fff" fill-opacity="0.55"/>
    <path d="M193.7,183.5v34.1l41.2,11V194.4Z" transform="translate(-54.3 -40)" fill="#fff" fill-opacity="0.2"/>
    <path d="M193.7,218.2v22.1l41.2,13.8V231.9Z" transform="translate(-54.3 -40)" fill="#fff" fill-opacity="0.2"/>
    <path d="M334,194.5V223l41.7,17.4v-28Z" transform="translate(-54.3 -40)" fill="#fff" fill-opacity="0.2"/>
    <path d="M334,223.3v5.5l41.7,20.5v-5.4Z" transform="translate(-54.3 -40)" fill="#fff" fill-opacity="0.2"/>
    <path d="M334,232.6V242l41.7,19.8v-9.1Z" transform="translate(-54.3 -40)" fill="#fff" fill-opacity="0.2"/>
    <path d="M334,242.3v2.8l41.7,22.7V265Z" transform="translate(-54.3 -40)" fill="#fff" fill-opacity="0.2"/>
    <path d="M334,245.5v8.4l41.7,27.3v-9.3Z" transform="translate(-54.3 -40)" fill="#fff" fill-opacity="0.2"/>
    <path d="M188.9,146c.9,0,4.4,4.2,4.4,2.8V111.4c0-1.5-.7-2.6-1.6-2.6H103.8" transform="translate(-54.3 -40)" fill="#fff" fill-opacity="0.78"/>
    <g>
      <path d="M101.2,232v-1.6c0-.3.1-.4.3-.4l2.2-1.4c5.8-3.5,8.6-5.7,8.4-9.4-.1-2.6-1.3-5.4-5.1-7.1a6.46,6.46,0,0,0-5.1,0l-.6-1.7a1.06,1.06,0,0,1,.2-1.4,8.12,8.12,0,0,1,6.1.6,12.82,12.82,0,0,1,7.7,10.6c.1,4.6-2.9,7.1-7.7,10l-1.9,1v.1l9,4.1a3.89,3.89,0,0,1,1.8,2.8h0c0,.6-.3.9-.7.6Z" transform="translate(-54.3 -40)" fill="#fff"/>
      <path d="M135.6,234.2c.3,8.6-2.5,12.2-7.8,9.7-4.7-2-8-8-8.4-16.6s2.9-11.8,7.8-9.6C132.2,220.1,135.3,226.2,135.6,234.2Zm-13.1-5.3c.3,6.7,2.3,11.3,5.2,12.5,3.2,1.4,4.8-1.9,4.5-8.4s-1.9-11-5.2-12.5C124.3,219.1,122.2,222,122.5,228.9Z" transform="translate(-54.3 -40)" fill="#fff"/>
      <path d="M145.3,229.4h0l-4.2.6-.4-1.9a1.1,1.1,0,0,1,.3-1.2l4.5-.6c.1,0,.3.1.4.1l.9.4a3.51,3.51,0,0,1,1.7,2.8l.9,22.6c0,.6-.3.9-.7.6l-.7-.3a3.51,3.51,0,0,1-1.7-2.8Z" transform="translate(-54.3 -40)" fill="#fff"/>
      <path d="M157.4,250.1c-.1-3.2,1.6-4.6,4.5-4.6v-.1a11.59,11.59,0,0,1-4.1-7.6c-.1-4.1,3-5.4,7.1-3.6,4.6,2,7.1,6.2,7.1,9.4.1,2.2-.9,4.1-3.8,4.2v.2c3.1,2.5,4.9,5.7,5.1,8.7.1,4.4-3.2,6-7.9,4.1C160.8,258.6,157.5,253.9,157.4,250.1Zm12.9,5.6c-.1-3-2-5.2-5.2-7.6-.3-.3-.4-.3-.6-.1-2.5-.1-3.9,1.2-3.8,3.5a8.16,8.16,0,0,0,4.9,7C168.5,259.4,170.3,258.4,170.3,255.7ZM161,239.1c.1,2.5,1.9,4.5,4.4,6.5.3.3.4.3.6.1,1.9.1,3.3-.7,3.2-3a6.91,6.91,0,0,0-4.2-6C162.2,235.6,160.9,236.9,161,239.1Z" transform="translate(-54.3 -40)" fill="#fff"/>
      <path d="M90.8,160.5h0a20.1,20.1,0,0,1,4.9,1.6,13.6,13.6,0,0,1,5.8,4.2,7.87,7.87,0,0,1,1.9,4.6,2.79,2.79,0,0,1-2.4,3.3h0a1.7,1.7,0,0,1-1,0h0c2,1.4,4.5,4.2,4.6,7.6.2,2-.6,3.2-1.7,3.6-1.3.9-3.8.4-7.1-1a21,21,0,0,1-4.2-2.2h0C91.4,182.2,90.8,162.4,90.8,160.5Zm3,10.2,2.5,1c2.8,1.2,4.5.4,4.4-1.7-.2-2.6-2-4.5-4.8-5.7a5.53,5.53,0,0,0-2.5-.7l.4,7.1Zm.3,10.7h0a10.08,10.08,0,0,0,2.3,1.2c2.9,1.3,5.4,1.3,5.2-2-.1-3.1-2.6-5.4-5.5-6.7l-2.3-1Z" transform="translate(-54.3 -40)" fill="#fff"/>
      <path d="M120.8,191a34,34,0,0,0,.3,4.5l-2.5-1v-.1l-.3-2.8h0c-.7,1-2.2,2-4.8.9s-5.2-3.8-5.5-9.4l-.3-9.3c0-.1,0-.1.2-.1l2.6,1v.1l.3,8.7c.2,3,1,5.5,3.6,6.7a2.62,2.62,0,0,0,3.6-1,3.93,3.93,0,0,0,.3-1.4l-.4-9.7c0-.1,0-.1.2-.1l2.6,1v.2Z" transform="translate(-54.3 -40)" fill="#fff"/>
      <path d="M137.6,179.6h0l.7,19.5a29.66,29.66,0,0,0,.3,4.2l-2.5-1v-.1l-.3-2.9h0c-.7,1.3-2.6,2-4.9.9-3.6-1.6-6.7-6.1-6.8-11.2s2.8-7.3,6.5-5.5a8.8,8.8,0,0,1,4.6,4.5h0l-.4-9.6a.1.1,0,0,1,.1-.1Zm-2.3,12.7a5.7,5.7,0,0,0-.1-1.3,7.91,7.91,0,0,0-4.1-5.2c-2.9-1.3-4.5.6-4.4,4.2.1,3.3,1.7,6.7,4.6,7.8,1.9.7,3.5.3,3.8-1.7a2.88,2.88,0,0,0,.1-1.3v-2.5Z" transform="translate(-54.3 -40)" fill="#fff"/>
      <path d="M155.5,194.8h0v4.4l.3,9.4c.1,3.6-.4,5.5-1.9,6.4s-3.5.4-5.5-.6a20.09,20.09,0,0,1-5.1-3.5v-.1l.6-1.9a14.24,14.24,0,0,0,4.5,3.2c2.9,1.3,4.8.6,4.6-3.6v-1.9h0c-.7,1-2.3,1.6-4.6.6-3.6-1.6-6.5-6.1-6.7-10.8-.1-5.5,3-7.1,6.5-5.5a8.7,8.7,0,0,1,4.8,4.8h0v-2.3Zm-2.6,5a5.7,5.7,0,0,0-.1-1.3,7.81,7.81,0,0,0-3.9-4.8c-2.6-1-4.5.3-4.4,4.1.1,3.2,1.7,6.5,4.6,7.7,1.8.7,3.2.3,3.8-1.3a3.93,3.93,0,0,0,.3-1.4A16.9,16.9,0,0,1,152.9,199.8Z" transform="translate(-54.3 -40)" fill="#fff"/>
      <path d="M161.9,206.1a.1.1,0,0,0-.1.1h0a8.56,8.56,0,0,0,5.5,7.7,7.06,7.06,0,0,0,3.9.9.1.1,0,0,1,.1.1h0l.4,2a10.44,10.44,0,0,1-4.9-1.2,12.54,12.54,0,0,1-7.7-11.3c-.1-4.9,2.3-7.4,6.7-5.7,4.9,2.2,6.4,7.4,6.5,10.3a5.7,5.7,0,0,1-.1,1.3Zm7.5,1.2h0a6.71,6.71,0,0,0-3.9-6.4c-2.9-1.3-3.9,1-4.1,2.8v.1Z" transform="translate(-54.3 -40)" fill="#fff"/>
      <path d="M178.6,200.3l.1,4.5v.2l3.8,1.7v.1l.1,2.3-3.8-1.7a.1.1,0,0,0-.1.1l.3,8.4c.1,2,.7,3.3,2.2,4.2.7.3,1.2.6,1.4.4h.1l.3,2a4.65,4.65,0,0,1-2.3-.6,7.5,7.5,0,0,1-3.1-2.5c-.9-1.2-1-2.8-1.2-4.6l-.3-8.7V206l-2.3-1h0l-.1-2.3,2.5,1-.1-3.8a.1.1,0,0,1,.1-.1l2.4.5Z" transform="translate(-54.3 -40)" fill="#fff"/>
    </g>
    <path d="M225.9,183.8l-9-1.8v7.6l9,2.3Z" transform="translate(-54.3 -40)" fill="#fff"/>
    <path d="M206.3,40l-33.2.2H103C73.5,40.2,54.3,63.9,54.3,95V252.6c0,3.3,2.8,7.1,8.7,10l134.5,57.5V254.6h28.2v-3.5l-16.9-5.7H197.6V151a8.26,8.26,0,0,0-5.1-7.6l-91.5-40H216.6v10.3l9.1,1.9V40ZM81.1,262.6l-.4-140.1,108.6,47.2.4,139.3ZM216.8,76.2V94.4H89.7a19.12,19.12,0,0,1-2.3-9v-.1A16.9,16.9,0,0,1,89.9,76a19.3,19.3,0,0,1,15.8-9.2h67.2l33.3.2h10.5m.1-9H206.3l-33.1-.2H104.5A27.17,27.17,0,0,0,93.9,110c3.8,1.6,97.7,42.8,97.7,42.8v9.9c-.7-.4-97.4-43-101.1-44.4A36,36,0,0,1,104.4,49l68.8-.1,33.1.1h10.4Z" transform="translate(-54.3 -40)" fill="#fff"/>
    <polygon points="162.5 185.9 162.5 184 171.6 186.2 171.6 188.9 162.5 185.9" fill="#fff"/>
    <line x1="41.4" y1="49.7" x2="164.8" y2="49.8" fill="#fff" stroke="#000" stroke-miterlimit="10"/>
    <line x1="39.9" y1="43.9" x2="164.8" y2="44" fill="#fff" stroke="#000" stroke-miterlimit="10"/>
    <line x1="46.6" y1="31.7" x2="164.8" y2="31.8" fill="#fff" stroke="#000" stroke-miterlimit="10"/>
    <line x1="42.1" y1="37.8" x2="164.8" y2="37.9" fill="#fff" stroke="#000" stroke-miterlimit="10"/>
  </g>
</svg>
