<svg id="Layer_1" data-name="Layer 1" xmlns="http://www.w3.org/2000/svg" viewBox="0 0 347 326.2"><defs><style>.cls-1{fill:#215186;}.cls-2{fill:#fff;}.cls-3{fill:#81b4e8;stroke:#fff;stroke-miterlimit:10;}</style></defs><title>people</title><g id="Artboard_6" data-name="Artboard 6"><path class="cls-1" d="M347,174.9A173.5,173.5,0,1,0,91.2,327.6H255.9A173.42,173.42,0,0,0,347,174.9Z" transform="translate(0 -1.4)"/><circle class="cls-2" cx="101.2" cy="115.8" r="18.2"/><path class="cls-2" d="M135.2,169c0-12.5-15.2-22.6-34-22.6s-34,10.1-34,22.6a7.57,7.57,0,0,0,.1,1.5c0,.4-.1.9-.1,1.3v71.5a12,12,0,0,0,12,12h44a12,12,0,0,0,12-12V171.8a5.7,5.7,0,0,0-.1-1.3A7.57,7.57,0,0,0,135.2,169Z" transform="translate(0 -1.4)"/><path class="cls-3" d="M263,105v18.5a5.91,5.91,0,0,1-5.9,5.9H176a5.91,5.91,0,0,1-5.9-5.9V105a5.91,5.91,0,0,1,5.9-5.9h81.1A5.85,5.85,0,0,1,263,105Z" transform="translate(0 -1.4)"/><path class="cls-3" d="M243.2,189v18.5a5.85,5.85,0,0,1-5.9,5.9H176.1a5.85,5.85,0,0,1-5.9-5.9V189a5.85,5.85,0,0,1,5.9-5.9h61.2A5.85,5.85,0,0,1,243.2,189Z" transform="translate(0 -1.4)"/><path class="cls-3" d="M284.5,230.9v18.5a5.85,5.85,0,0,1-5.9,5.9H176.1a5.85,5.85,0,0,1-5.9-5.9V230.9a5.85,5.85,0,0,1,5.9-5.9H278.6A6,6,0,0,1,284.5,230.9Z" transform="translate(0 -1.4)"/><path class="cls-3" d="M296,147v18.5a5.91,5.91,0,0,1-5.9,5.9h-114a5.91,5.91,0,0,1-5.9-5.9V147a5.91,5.91,0,0,1,5.9-5.9H290.2A5.83,5.83,0,0,1,296,147Z" transform="translate(0 -1.4)"/><path class="cls-2" d="M150.2,87.2h5a3.69,3.69,0,0,1,3.7,3.7V260a3.69,3.69,0,0,1-3.7,3.7h-5a3.69,3.69,0,0,1-3.7-3.7V90.9A3.63,3.63,0,0,1,150.2,87.2Z" transform="translate(0 -1.4)"/></g></svg>