<?xml version="1.0" encoding="utf-8"?>
<!-- Generator: Adobe Illustrator 22.1.0, SVG Export Plug-In . SVG Version: 6.00 Build 0)  -->
<svg version="1.1" id="Layer_1" xmlns="http://www.w3.org/2000/svg" xmlns:xlink="http://www.w3.org/1999/xlink" x="0px" y="0px"
	 viewBox="0 0 347 324.6" style="enable-background:new 0 0 347 324.6;" xml:space="preserve">
<style type="text/css">
	.st0{fill:#215186;}
	.st1{fill:#FFFFFF;}
	.st2{fill:#81B4E8;stroke:#FFFFFF;stroke-miterlimit:10;}
</style>
<g id="Artboard_6">
	<path class="st0" d="M347,174.9C347,79.1,269.3,1.4,173.5,1.4C77.6,1.4,0,79.1,0,174.9c0,63.8,35,122.4,91.2,152.7h164.7
		C312,297.4,347,238.7,347,174.9z"/>
	<circle class="st1" cx="101.2" cy="117.2" r="18.2"/>
	<path class="st1" d="M135.2,169c0-12.5-15.2-22.6-34-22.6c-18.8,0-34,10.1-34,22.6c0,0.5,0,1,0.1,1.5c0,0.4-0.1,0.9-0.1,1.3v71.5
		c0,6.6,5.4,12,12,12h44c6.6,0,12-5.4,12-12v-71.5c0-0.4,0-0.9-0.1-1.3C135.2,170,135.2,169.5,135.2,169z"/>
	<path class="st2" d="M263,105v18.5c0,3.2-2.6,5.9-5.9,5.9h-81.1c-3.2,0-5.9-2.6-5.9-5.9V105c0-3.2,2.6-5.9,5.9-5.9h81.1
		C260.4,99.1,263,101.7,263,105z"/>
	<path class="st2" d="M243.2,189v18.5c0,3.3-2.6,5.9-5.9,5.9h-61.2c-3.3,0-5.9-2.6-5.9-5.9V189c0-3.3,2.6-5.9,5.9-5.9h61.2
		C240.6,183.1,243.2,185.7,243.2,189z"/>
	<path class="st2" d="M284.5,230.9v18.5c0,3.3-2.6,5.9-5.9,5.9H176.1c-3.3,0-5.9-2.6-5.9-5.9v-18.5c0-3.3,2.6-5.9,5.9-5.9h102.5
		C281.9,225.1,284.5,227.7,284.5,230.9z"/>
	<path class="st2" d="M296,147v18.5c0,3.2-2.6,5.9-5.9,5.9H176.1c-3.2,0-5.9-2.6-5.9-5.9V147c0-3.2,2.6-5.9,5.9-5.9h114.1
		C293.4,141.1,296,143.7,296,147z"/>
	<path class="st1" d="M150.2,87.2h5c2.1,0,3.7,1.7,3.7,3.7V260c0,2.1-1.7,3.7-3.7,3.7h-5c-2.1,0-3.7-1.7-3.7-3.7V90.9
		C146.5,88.8,148.1,87.2,150.2,87.2z"/>
</g>
</svg>
