<svg xmlns="http://www.w3.org/2000/svg" width="170" height="165" viewBox="0 0 170 165">
  <title>home_menu_icons</title>
  <g>
    <g>
      <g>
        <ellipse cx="31.9379" cy="34.8467" rx="14.4898" ry="17.1221" fill="#fff"/>
        <path d="M31.9378,62.3506c-14.9755,0-27.1155,9.5258-27.1155,21.2764v71.0961A10.4377,10.4377,0,0,0,15.3551,165H48.5208a10.4379,10.4379,0,0,0,10.5327-10.2769V83.627C59.0535,71.8764,46.9136,62.3506,31.9378,62.3506Z" fill="#fff"/>
      </g>
      <rect x="65.9008" y="17.7246" width="11.4114" height="147.2754" rx="3.3117" ry="3.3117" fill="#fff"/>
      <g>
        <rect x="100.987" y="2.3945" width="26.5024" height="56.4005" rx="3.7354" ry="3.7354" transform="translate(144.8329 -83.6434) rotate(90)" fill="#de4c4a" stroke="#fff" stroke-miterlimit="10"/>
        <rect x="112.3566" y="31.2825" width="26.5024" height="79.1398" rx="4.4248" ry="4.4248" transform="translate(196.4602 -54.7554) rotate(90)" fill="#de4c4a" stroke="#fff" stroke-miterlimit="10"/>
        <rect x="95.0423" y="88.8545" width="26.5024" height="44.5112" rx="3.3184" ry="3.3184" transform="translate(219.4036 2.8166) rotate(90)" fill="#de4c4a" stroke="#fff" stroke-miterlimit="10"/>
        <rect x="106.3777" y="117.7768" width="26.5024" height="67.1819" rx="4.0768" ry="4.0768" transform="translate(270.9966 31.7389) rotate(90)" fill="#de4c4a" stroke="#fff" stroke-miterlimit="10"/>
      </g>
    </g>
    <rect width="170" height="165" fill="none"/>
  </g>
</svg>
