<svg xmlns="http://www.w3.org/2000/svg" viewBox="0 0 400 400"><defs><style>.cls-1{fill:#215186;}.cls-2{fill:#fff;}.cls-3{fill:#81b4e8;stroke:#fff;stroke-miterlimit:10;}</style></defs><title>icons</title><g id="Artboard_6" data-name="Artboard 6"><path class="cls-1" d="M373.5,199.5A173.5,173.5,0,1,0,117.66,352.25H282.34A173.47,173.47,0,0,0,373.5,199.5Z"/><rect class="cls-2" x="100.49" y="187.38" width="67.99" height="95.55" rx="12" ry="12"/><circle class="cls-2" cx="134.49" cy="144.83" r="18.17"/><ellipse class="cls-2" cx="134.49" cy="196.59" rx="34" ry="22.58"/><rect class="cls-3" x="234.78" y="95.37" width="30.29" height="92.87" rx="5.88" ry="5.88" transform="translate(391.72 -108.12) rotate(90)"/><rect class="cls-3" x="224.85" y="189.28" width="30.29" height="73.02" rx="5.89" ry="5.89" transform="translate(465.78 -14.21) rotate(90)"/><rect class="cls-3" x="245.49" y="210.63" width="30.29" height="114.31" rx="5.89" ry="5.89" transform="translate(528.42 7.14) rotate(90)"/><rect class="cls-3" x="251.26" y="120.88" width="30.29" height="125.84" rx="5.87" ry="5.87" transform="translate(450.2 -82.6) rotate(90)"/><rect class="cls-2" x="179.76" y="114.73" width="12.45" height="176.54" rx="3.72" ry="3.72"/></g></svg>