<svg xmlns="http://www.w3.org/2000/svg" viewBox="0 0 347 324.59"><defs><style>.cls-1{fill:#215186;}.cls-2{fill:#fff;}.cls-3{fill:#81b4e8;stroke:#fff;stroke-miterlimit:10;}</style></defs><title>icons</title><g id="Artboard_6" data-name="Artboard 6"><path class="cls-1" d="M347,173.5A173.5,173.5,0,1,0,91.16,326.25H255.84A173.47,173.47,0,0,0,347,173.5Z"/><rect class="cls-2" x="67.19" y="162.8" width="67.99" height="95.55" rx="12" ry="12"/><circle class="cls-2" cx="101.19" cy="120.25" r="18.17"/><ellipse class="cls-2" cx="101.19" cy="172.01" rx="34" ry="22.58"/><rect class="cls-3" x="201.48" y="70.79" width="30.29" height="92.87" rx="5.88" ry="5.88" transform="translate(333.84 -99.39) rotate(90)"/><rect class="cls-3" x="191.55" y="164.7" width="30.29" height="73.02" rx="5.89" ry="5.89" transform="translate(407.9 -5.48) rotate(90)"/><rect class="cls-3" x="212.19" y="186.05" width="30.29" height="114.31" rx="5.89" ry="5.89" transform="translate(470.54 15.87) rotate(90)"/><rect class="cls-3" x="217.96" y="96.3" width="30.29" height="125.84" rx="5.87" ry="5.87" transform="translate(392.32 -73.88) rotate(90)"/><rect class="cls-2" x="146.46" y="90.15" width="12.45" height="176.54" rx="3.72" ry="3.72"/></g></svg>