<svg xmlns="http://www.w3.org/2000/svg" width="155.59" height="159.71" viewBox="0 0 155.59 159.71">
  <title>home_menu_icons</title>
  <g>
    <path d="M132.21,24.46h-7.36v0h-4.69V37.35a2.3,2.3,0,0,1-2.4,2.18H37.83a2.29,2.29,0,0,1-2.39-2.18V24.43h-4.7v0H23.38c-6.47,0-11.74,4.8-11.74,10.71V147.31c0,5.9,5.27,10.71,11.74,10.71H132.21c6.47,0,11.74-4.81,11.74-10.71V35.17C144,29.26,138.68,24.46,132.21,24.46Zm7,122.85c0,3.54-3.16,6.42-7,6.42H23.38c-3.88,0-7-2.88-7-6.42V35.17c0-3.54,3.16-6.43,7-6.43h7.36v8.61c0,3.56,3.18,6.47,7.09,6.47h79.93c3.91,0,7.09-2.91,7.09-6.47V28.74h7.36c3.88,0,7,2.89,7,6.43Z" fill="#fff" stroke="#fff" stroke-miterlimit="10" stroke-width="3"/>
    <g>
      <path d="M104,17.61H99.29C99.29,11.31,90,6,79,6S58.63,11.31,58.63,17.61h-14V29.39H111V17.61Z" fill="none" stroke="#fff" stroke-miterlimit="10"/>
      <path d="M111.5,13.33h-8.41a13.1,13.1,0,0,0-1.39-2.46C97.78,5.41,89.18,1.7,79,1.7S60.13,5.41,56.21,10.87a13.1,13.1,0,0,0-1.39,2.46H44.09a4,4,0,0,0-4.17,3.8V29.87a4,4,0,0,0,4.17,3.8H111.5a4,4,0,0,0,4.17-3.8V17.13A4,4,0,0,0,111.5,13.33ZM111,29.39H44.62V17.61h14C58.63,11.31,67.94,6,79,6s20.33,5.33,20.33,11.63H111Z" fill="#fff" stroke="#fff" stroke-miterlimit="10"/>
    </g>
    <g>
      <rect x="34.19" y="52.86" width="23.82" height="21.91" rx="5" ry="5" fill="#ff5e59"/>
      <path d="M53,54.36a3.51,3.51,0,0,1,3.5,3.5V69.78A3.51,3.51,0,0,1,53,73.27H39.19a3.51,3.51,0,0,1-3.5-3.49V57.86a3.51,3.51,0,0,1,3.5-3.5H53m0-3H39.19a6.51,6.51,0,0,0-6.5,6.5V69.78a6.5,6.5,0,0,0,6.5,6.49H53a6.5,6.5,0,0,0,6.5-6.49V57.86a6.51,6.51,0,0,0-6.5-6.5Z" fill="#fff"/>
    </g>
    <path d="M53,121.34a3.51,3.51,0,0,1,3.5,3.5v11.92a3.51,3.51,0,0,1-3.5,3.49H39.19a3.51,3.51,0,0,1-3.5-3.49V124.84a3.51,3.51,0,0,1,3.5-3.5H53m0-3H39.19a6.51,6.51,0,0,0-6.5,6.5v11.92a6.5,6.5,0,0,0,6.5,6.49H53a6.5,6.5,0,0,0,6.5-6.49V124.84a6.51,6.51,0,0,0-6.5-6.5Z" fill="#fff"/>
    <g>
      <rect x="34.19" y="86.62" width="23.82" height="21.91" rx="5" ry="5" fill="#ff5e59"/>
      <path d="M53,88.12a3.51,3.51,0,0,1,3.5,3.5v11.92A3.51,3.51,0,0,1,53,107H39.19a3.51,3.51,0,0,1-3.5-3.49V91.62a3.51,3.51,0,0,1,3.5-3.5H53m0-3H39.19a6.51,6.51,0,0,0-6.5,6.5v11.92a6.5,6.5,0,0,0,6.5,6.49H53a6.5,6.5,0,0,0,6.5-6.49V91.62a6.51,6.51,0,0,0-6.5-6.5Z" fill="#fff"/>
    </g>
    <line x1="72.29" y1="64.36" x2="123.29" y2="64.36" fill="none" stroke="#fff" stroke-miterlimit="10" stroke-width="4"/>
    <line x1="72.29" y1="97.58" x2="123.29" y2="97.58" fill="none" stroke="#fff" stroke-miterlimit="10" stroke-width="4"/>
    <line x1="72.29" y1="130.8" x2="123.29" y2="130.8" fill="none" stroke="#fff" stroke-miterlimit="10" stroke-width="4"/>
  </g>
</svg>
