<svg xmlns="http://www.w3.org/2000/svg" width="150" height="150" viewBox="0 0 150 150">
  <title>home_menu_icons</title>
  <g>
    <path d="M124.65,23.81h-6.71v0h-4.29V35.71a2.11,2.11,0,0,1-2.19,2H38.54a2.11,2.11,0,0,1-2.19-2V23.78H32.06v0H25.35c-5.9,0-10.71,4.43-10.71,9.89V137.34c0,5.45,4.81,9.89,10.71,9.89h99.3c5.9,0,10.71-4.44,10.71-9.89V33.7C135.36,28.24,130.55,23.81,124.65,23.81Zm6.42,113.53a6.2,6.2,0,0,1-6.42,5.93H25.35a6.2,6.2,0,0,1-6.42-5.93V33.7a6.2,6.2,0,0,1,6.42-5.94h6.71v8a6.25,6.25,0,0,0,6.48,6h72.92a6.25,6.25,0,0,0,6.48-6V27.76h6.71a6.2,6.2,0,0,1,6.42,5.94Z" fill="#fff" stroke="#fff" stroke-miterlimit="10" stroke-width="3"/>
    <g>
      <path d="M98.89,17.48H94.61c0-5.83-8.5-10.75-18.55-10.75S57.51,11.65,57.51,17.48H44.73V28.36h60.54V17.48Z" fill="none" stroke="#fff" stroke-miterlimit="10"/>
      <path d="M105.76,13.52H98.08a11.83,11.83,0,0,0-1.27-2.27c-3.58-5-11.43-8.48-20.75-8.48S58.88,6.2,55.31,11.25A11.31,11.31,0,0,0,54,13.52h-9.8A3.67,3.67,0,0,0,40.44,17V28.8a3.68,3.68,0,0,0,3.8,3.52h61.52a3.68,3.68,0,0,0,3.8-3.52V17A3.67,3.67,0,0,0,105.76,13.52Zm-.49,14.84H44.73V17.48H57.51c0-5.83,8.49-10.75,18.55-10.75s18.55,4.92,18.55,10.75h10.66Z" fill="#fff" stroke="#fff" stroke-miterlimit="10"/>
    </g>
    <g>
      <rect x="35.08" y="49.94" width="22" height="20.48" rx="4.71" ry="4.71" fill="#df2c26"/>
      <path d="M52.37,51.44a3.21,3.21,0,0,1,3.21,3.21V65.71a3.22,3.22,0,0,1-3.21,3.21H39.8a3.23,3.23,0,0,1-3.22-3.21V54.65a3.22,3.22,0,0,1,3.22-3.21H52.37m0-3H39.8a6.22,6.22,0,0,0-6.22,6.21V65.71a6.22,6.22,0,0,0,6.22,6.21H52.37a6.22,6.22,0,0,0,6.21-6.21V54.65a6.21,6.21,0,0,0-6.21-6.21Z" fill="#fff"/>
    </g>
    <path d="M52.37,113.34a3.21,3.21,0,0,1,3.21,3.21v11.06a3.22,3.22,0,0,1-3.21,3.21H39.8a3.23,3.23,0,0,1-3.22-3.21V116.55a3.22,3.22,0,0,1,3.22-3.21H52.37m0-3H39.8a6.22,6.22,0,0,0-6.22,6.21v11.06a6.22,6.22,0,0,0,6.22,6.21H52.37a6.22,6.22,0,0,0,6.21-6.21V116.55a6.22,6.22,0,0,0-6.21-6.21Z" fill="#fff"/>
    <g>
      <rect x="35.08" y="81.14" width="22" height="20.48" rx="4.71" ry="4.71" fill="#df2c26"/>
      <path d="M52.37,82.64a3.21,3.21,0,0,1,3.21,3.21V96.91a3.22,3.22,0,0,1-3.21,3.21H39.8a3.23,3.23,0,0,1-3.22-3.21V85.85a3.22,3.22,0,0,1,3.22-3.21H52.37m0-3H39.8a6.22,6.22,0,0,0-6.22,6.21V96.91a6.22,6.22,0,0,0,6.22,6.21H52.37a6.22,6.22,0,0,0,6.21-6.21V85.85a6.21,6.21,0,0,0-6.21-6.21Z" fill="#fff"/>
    </g>
    <line x1="69.97" y1="60.67" x2="116.51" y2="60.67" fill="none" stroke="#fff" stroke-miterlimit="10" stroke-width="4"/>
    <line x1="69.97" y1="91.38" x2="116.51" y2="91.38" fill="none" stroke="#fff" stroke-miterlimit="10" stroke-width="4"/>
    <line x1="69.97" y1="122.08" x2="116.51" y2="122.08" fill="none" stroke="#fff" stroke-miterlimit="10" stroke-width="4"/>
  </g>
</svg>
