<svg xmlns="http://www.w3.org/2000/svg" width="170" height="165" viewBox="0 0 170 165">
  <title>home_menu_icons</title>
  <g>
    <g>
      <path d="M141.85,26.042l-12.5917-.03-1.4743.03V40.6387c0,.4016-.4818.7539-1.0317.7539H43.248c-.55,0-1.0317-.3523-1.0317-.7539V26.0117l-14.066.03c-7.5757,0-13.7386,5.5534-13.7386,12.38V152.62c0,6.8266,6.1629,12.38,13.7386,12.38H141.85c7.5757,0,13.7386-5.5534,13.7386-12.38V38.422C155.5883,31.5954,149.4254,26.042,141.85,26.042ZM43.248,48.7034h83.504c4.9,0,8.8858-3.618,8.8858-8.0647V33.3528H141.85c3.2451,0,5.8845,2.2742,5.8845,5.0692V152.62c0,2.7949-2.6394,5.0692-5.8845,5.0692H28.15c-3.2451,0-5.8845-2.2743-5.8845-5.0692V38.422c0-2.795,2.6394-5.0692,5.8845-5.0692h6.2109v7.2859C34.3612,45.0854,38.3482,48.7034,43.248,48.7034Z" fill="#fff"/>
      <g>
        <path d="M112.3573,20.5424h-4.9059c0-6.4213-9.7263-11.8461-21.24-11.8461s-21.239,5.4248-21.239,11.8461H60.0668V20.541H50.3356V32.5324h69.3287V20.541h-7.307Z" fill="none" stroke="#fff" stroke-miterlimit="10"/>
        <path d="M120.2168,16.1787h-8.7889a12.93,12.93,0,0,0-1.454-2.5024C105.8772,8.1124,96.89,4.334,86.2117,4.334S66.5469,8.1124,62.45,13.6763a12.9251,12.9251,0,0,0-1.4541,2.5024H49.7831A4.1385,4.1385,0,0,0,45.43,20.05V33.024a4.1382,4.1382,0,0,0,4.3534,3.8707h70.4337A4.1382,4.1382,0,0,0,124.57,33.024V20.05A4.1385,4.1385,0,0,0,120.2168,16.1787Zm-.5525,16.3537H50.3356V20.541h9.7312v.0014h4.9059c0-6.4213,9.7264-11.8461,21.239-11.8461s21.24,5.4248,21.24,11.8461h4.9059V20.541h7.307Z" fill="#fff" stroke="#fff" stroke-miterlimit="10"/>
      </g>
      <path d="M59.1607,126.1779a3.617,3.617,0,0,1,3.6064,3.6065v12.0481a3.617,3.617,0,0,1-3.6064,3.6064H44.6187a3.617,3.617,0,0,1-3.6065-3.6064V129.7844a3.617,3.617,0,0,1,3.6065-3.6065h14.542m0-3H44.6187a6.614,6.614,0,0,0-6.6065,6.6065v12.0481a6.6139,6.6139,0,0,0,6.6065,6.6064h14.542a6.6139,6.6139,0,0,0,6.6064-6.6064V129.7844a6.6139,6.6139,0,0,0-6.6064-6.6065Z" fill="#fff"/>
      <g>
        <g>
          <rect x="39.5122" y="56.4661" width="24.7549" height="22.2607" rx="5.1064" ry="5.1064" fill="#de4c4a"/>
          <path d="M59.1607,57.9659a3.617,3.617,0,0,1,3.6064,3.6065V73.62a3.617,3.617,0,0,1-3.6064,3.6065H44.6187A3.617,3.617,0,0,1,41.0122,73.62V61.5724a3.617,3.617,0,0,1,3.6065-3.6065h14.542m0-3H44.6187a6.614,6.614,0,0,0-6.6065,6.6065V73.62a6.614,6.614,0,0,0,6.6065,6.6065h14.542A6.6139,6.6139,0,0,0,65.7671,73.62V61.5724a6.6139,6.6139,0,0,0-6.6064-6.6065Z" fill="#fff"/>
        </g>
        <g>
          <rect x="39.5122" y="90.846" width="24.7549" height="22.2607" rx="5.1064" ry="5.1064" fill="#de4c4a"/>
          <path d="M59.1607,92.3459a3.617,3.617,0,0,1,3.6064,3.6065v12.0481a3.617,3.617,0,0,1-3.6064,3.6064H44.6187a3.617,3.617,0,0,1-3.6065-3.6064V95.9524a3.617,3.617,0,0,1,3.6065-3.6065h14.542m0-3H44.6187a6.614,6.614,0,0,0-6.6065,6.6065v12.0481a6.6139,6.6139,0,0,0,6.6065,6.6064h14.542a6.6139,6.6139,0,0,0,6.6064-6.6064V95.9524a6.6139,6.6139,0,0,0-6.6064-6.6065Z" fill="#fff"/>
        </g>
      </g>
      <line x1="79.2424" y1="68.1444" x2="132.5258" y2="68.1444" fill="none" stroke="#fff" stroke-miterlimit="10" stroke-width="4"/>
      <line x1="79.2424" y1="101.9764" x2="132.5258" y2="101.9764" fill="none" stroke="#fff" stroke-miterlimit="10" stroke-width="4"/>
      <line x1="79.2424" y1="135.8084" x2="132.5258" y2="135.8084" fill="none" stroke="#fff" stroke-miterlimit="10" stroke-width="4"/>
    </g>
    <rect width="170" height="165" fill="none"/>
  </g>
</svg>
