<svg xmlns="http://www.w3.org/2000/svg" width="157.38" height="165.36" viewBox="0 0 157.38 165.36">
  <title>home_menu_icons</title>
  <g>
    <path d="M136.53,25.28h-7.82v0h-5V38.63a2.42,2.42,0,0,1-2.55,2.27h-85a2.43,2.43,0,0,1-2.55-2.27V25.25h-5v0H20.85c-6.88,0-12.48,5-12.48,11.1V152.57c0,6.12,5.6,11.09,12.48,11.09H136.53c6.89,0,12.48-5,12.48-11.09V36.38C149,30.26,143.42,25.28,136.53,25.28ZM144,152.57c0,3.67-3.36,6.66-7.49,6.66H20.85c-4.13,0-7.49-3-7.49-6.66V36.38c0-3.68,3.36-6.66,7.49-6.66h7.82v8.91c0,3.7,3.38,6.71,7.54,6.71h85c4.16,0,7.54-3,7.54-6.71V29.72h7.82c4.13,0,7.49,3,7.49,6.66Z" fill="#fff" stroke="#fff" stroke-miterlimit="10" stroke-width="3"/>
    <g>
      <path d="M106.53,18.18h-5c0-6.53-9.9-12-21.61-12S58.32,11.65,58.32,18.18H43.42v12.2H114V18.18Z" fill="none" stroke="#fff" stroke-miterlimit="10"/>
      <path d="M114.52,13.74h-8.94a12.82,12.82,0,0,0-1.48-2.54C99.93,5.54,90.79,1.69,79.93,1.69s-20,3.85-24.18,9.51a12.82,12.82,0,0,0-1.48,2.54H42.86a4.21,4.21,0,0,0-4.43,3.94v13.2a4.21,4.21,0,0,0,4.43,3.94h71.66A4.21,4.21,0,0,0,119,30.88V17.68A4.21,4.21,0,0,0,114.52,13.74ZM114,30.38H43.42V18.18h14.9c0-6.53,9.89-12,21.61-12s21.61,5.52,21.61,12.05H114Z" fill="#fff" stroke="#fff" stroke-miterlimit="10"/>
    </g>
    <path d="M52.4,125.66a3.68,3.68,0,0,1,3.67,3.67v12.26a3.68,3.68,0,0,1-3.67,3.67H37.61a3.68,3.68,0,0,1-3.67-3.67V129.33a3.68,3.68,0,0,1,3.67-3.67H52.4m0-3H37.61a6.68,6.68,0,0,0-6.67,6.67v12.26a6.67,6.67,0,0,0,6.67,6.67H52.4a6.67,6.67,0,0,0,6.67-6.67V129.33a6.68,6.68,0,0,0-6.67-6.67Z" fill="#fff"/>
    <g>
      <g>
        <rect x="32.44" y="54.76" width="25.13" height="22.6" rx="5.17" ry="5.17" fill="#de4c4a"/>
        <path d="M52.4,56.26a3.68,3.68,0,0,1,3.67,3.67V72.19a3.68,3.68,0,0,1-3.67,3.67H37.61a3.68,3.68,0,0,1-3.67-3.67V59.93a3.68,3.68,0,0,1,3.67-3.67H52.4m0-3H37.61a6.67,6.67,0,0,0-6.67,6.67V72.19a6.67,6.67,0,0,0,6.67,6.67H52.4a6.67,6.67,0,0,0,6.67-6.67V59.93a6.67,6.67,0,0,0-6.67-6.67Z" fill="#fff"/>
      </g>
      <g>
        <rect x="32.44" y="89.74" width="25.13" height="22.6" rx="5.17" ry="5.17" fill="#de4c4a"/>
        <path d="M52.4,91.24a3.68,3.68,0,0,1,3.67,3.67v12.26a3.68,3.68,0,0,1-3.67,3.67H37.61a3.68,3.68,0,0,1-3.67-3.67V94.91a3.68,3.68,0,0,1,3.67-3.67H52.4m0-3H37.61a6.67,6.67,0,0,0-6.67,6.67v12.26a6.67,6.67,0,0,0,6.67,6.67H52.4a6.67,6.67,0,0,0,6.67-6.67V94.91a6.67,6.67,0,0,0-6.67-6.67Z" fill="#fff"/>
      </g>
    </g>
    <line x1="72.83" y1="66.62" x2="127.05" y2="66.62" fill="none" stroke="#fff" stroke-miterlimit="10" stroke-width="4"/>
    <line x1="72.83" y1="101.04" x2="127.05" y2="101.04" fill="none" stroke="#fff" stroke-miterlimit="10" stroke-width="4"/>
    <line x1="72.83" y1="135.46" x2="127.05" y2="135.46" fill="none" stroke="#fff" stroke-miterlimit="10" stroke-width="4"/>
  </g>
</svg>
