<svg id="Layer_1" data-name="Layer 1" xmlns="http://www.w3.org/2000/svg" viewBox="0 0 347 326.2"><defs><style>.cls-1,.cls-3{fill:#215186;}.cls-2{fill:#a4ded3;}.cls-3{stroke:#fff;stroke-miterlimit:10;stroke-width:6px;}.cls-4{fill:#fff;}</style></defs><title>results</title><g id="Artboard_6" data-name="Artboard 6"><path class="cls-1" d="M347.4,173.9A173.5,173.5,0,1,0,91.6,326.6H256.3A173.42,173.42,0,0,0,347.4,173.9Z" transform="translate(-0.4 -0.4)"/></g><g id="Artboard_7" data-name="Artboard 7"><rect class="cls-2" x="130" y="187.6" width="1.8" height="0.4"/></g><g id="final_results" data-name="final results"><path class="cls-3" d="M245,84.2H232.6v15a6.12,6.12,0,0,1-6.1,6.1h-102a6.12,6.12,0,0,1-6.1-6.1v-15H106a12,12,0,0,0-12,12V253.3a12,12,0,0,0,12,12H245a12,12,0,0,0,12-12V96.2A12,12,0,0,0,245,84.2Z" transform="translate(-0.4 -0.4)"/><path class="cls-1" d="M146.8,68.6H132.5a2.26,2.26,0,0,0-2.3,2.3V88.7a2.26,2.26,0,0,0,2.3,2.3h86.2a2.26,2.26,0,0,0,2.3-2.3V71a2.26,2.26,0,0,0-2.3-2.3H204.4" transform="translate(-0.4 -0.4)"/><path class="cls-1" d="M148,71.7c0-10.7,13-19.3,29-19.3s29,8.6,29,19.3" transform="translate(-0.4 -0.4)"/><path class="cls-4" d="M218.6,65.6H207.8C204,56.2,191.6,49.3,177,49.3s-27,6.9-30.8,16.3H132.4a5.34,5.34,0,0,0-5.3,5.3V88.8a5.34,5.34,0,0,0,5.3,5.3h86.1a5.34,5.34,0,0,0,5.3-5.3V71A5.21,5.21,0,0,0,218.6,65.6Zm-.7,22.5H133.1V71.6H151c0-8.8,11.9-16.3,26-16.3s26,7.5,26,16.3h14.9Z" transform="translate(-0.4 -0.4)"/><rect class="cls-4" x="168.1" y="141" width="65.1" height="3"/><rect class="cls-4" x="168.1" y="183.4" width="65.1" height="3"/><path class="cls-4" d="M142.8,243.5h-16a5.79,5.79,0,0,1-5.8-5.9v-16a5.65,5.65,0,0,1,1.57-4.12,5.9,5.9,0,0,1,4.23-1.78h16a5.91,5.91,0,0,1,5.9,5.9v16A5.91,5.91,0,0,1,142.8,243.5Zm-16-24.8a2.83,2.83,0,0,0-2.06.86,2.66,2.66,0,0,0-.74,2V237.6a2.79,2.79,0,0,0,2.8,2.9h16a2.86,2.86,0,0,0,2.9-2.9v-16a2.86,2.86,0,0,0-2.9-2.9Z" transform="translate(-0.4 -0.4)"/><path class="cls-4" d="M142.5,199.2h-16a5.79,5.79,0,0,1-5.8-5.9v-16a5.65,5.65,0,0,1,1.57-4.12,5.9,5.9,0,0,1,4.23-1.78h16a5.91,5.91,0,0,1,5.9,5.9v16A5.91,5.91,0,0,1,142.5,199.2Zm-16-24.8a2.83,2.83,0,0,0-2.06.86,2.66,2.66,0,0,0-.74,2V193.3a2.79,2.79,0,0,0,2.8,2.9h16a2.86,2.86,0,0,0,2.9-2.9v-16a2.86,2.86,0,0,0-2.9-2.9Z" transform="translate(-0.4 -0.4)"/><path class="cls-2" d="M126.9,175.65h15.3a2,2,0,0,1,2,2V193a2,2,0,0,1-2,2H126.9a2,2,0,0,1-2-2v-15.3A2,2,0,0,1,126.9,175.65Z" transform="translate(-0.4 -0.4)"/><path class="cls-4" d="M136.9,229.85l5.75-5.85a.67.67,0,0,0,0-1l-.9-.9a.78.78,0,0,0-1.1,0l-5.7,5.7-5.8-5.7a.78.78,0,0,0-1.1,0l-.9.9a.67.67,0,0,0,0,1l5.8,5.8-.1.1-5.8,5.8a.78.78,0,0,0,0,1.1l.9.9a.78.78,0,0,0,1.1,0l5.8-5.8.05-.05,5.75,5.75a.78.78,0,0,0,1.1,0l.9-.9a.78.78,0,0,0,0-1.1Z" transform="translate(-0.4 -0.4)"/></g><path class="cls-4" d="M142.5,156.8h-16a5.79,5.79,0,0,1-5.8-5.9v-16a5.65,5.65,0,0,1,1.57-4.12A5.9,5.9,0,0,1,126.5,129h16a5.91,5.91,0,0,1,5.9,5.9v16A5.91,5.91,0,0,1,142.5,156.8Zm-16-24.8a2.83,2.83,0,0,0-2.06.86,2.66,2.66,0,0,0-.74,2V150.9a2.79,2.79,0,0,0,2.8,2.9h16a2.86,2.86,0,0,0,2.9-2.9v-16a2.86,2.86,0,0,0-2.9-2.9Z" transform="translate(-0.4 -0.4)"/><path class="cls-2" d="M126.9,133.25h15.3a2,2,0,0,1,2,2v15.3a2,2,0,0,1-2,2H126.9a2,2,0,0,1-2-2v-15.3A2,2,0,0,1,126.9,133.25Z" transform="translate(-0.4 -0.4)"/><rect class="cls-4" x="168.1" y="227.7" width="65.1" height="3"/></svg>