<svg xmlns="http://www.w3.org/2000/svg" viewBox="0 0 347 324.59"><defs><style>.cls-1,.cls-3{fill:#215186;}.cls-2{fill:#a4ded3;}.cls-3,.cls-4{stroke:#fff;stroke-miterlimit:10;}.cls-3{stroke-width:6px;}.cls-4{fill:none;stroke-width:3px;}.cls-5{fill:#fff;}</style></defs><g id="Artboard_6" data-name="Artboard 6"><path class="cls-1" d="M347.4,174.88A173.5,173.5,0,1,0,91.56,327.63H256.24A173.47,173.47,0,0,0,347.4,174.88Z"/></g><g id="Artboard_7" data-name="Artboard 7"><rect class="cls-2" x="130.36" y="188.96" width="1.81" height="0.45"/></g><g id="final_results" data-name="final results"><rect class="cls-3" x="93.99" y="84.24" width="163.06" height="181.07" rx="12" ry="12"/><rect class="cls-3" x="118.39" y="70.6" width="114.26" height="34.75" rx="6.06" ry="6.06"/><rect class="cls-1" x="104.84" y="62.2" width="43.25" height="18.99"/><rect class="cls-1" x="202.93" y="62.2" width="43.25" height="18.99"/><rect class="cls-3" x="130.12" y="68.64" width="90.79" height="22.49" rx="2.32" ry="2.32"/><rect class="cls-1" x="146.78" y="62.36" width="57.51" height="10.03"/><rect class="cls-4" x="122.11" y="128.99" width="24.7" height="24.7" rx="4.35" ry="4.35"/><line class="cls-4" x1="168.48" y1="142.93" x2="233.64" y2="142.93"/><rect class="cls-4" x="122.11" y="171.38" width="24.7" height="24.7" rx="4.35" ry="4.35"/><line class="cls-4" x1="168.48" y1="185.32" x2="233.64" y2="185.32"/><rect class="cls-4" x="122.44" y="213.76" width="24.7" height="24.7" rx="4.35" ry="4.35"/><line class="cls-4" x1="168.81" y1="229.57" x2="233.97" y2="229.57"/><rect class="cls-2" x="124.79" y="131.67" width="19.34" height="19.34" rx="2.01" ry="2.01"/><rect class="cls-2" x="124.73" y="174.06" width="19.34" height="19.34" rx="2.01" ry="2.01"/><path class="cls-5" d="M136.44,226.44l-2,2,5.79,5.8a.75.75,0,0,0,1.06,0l.93-.93a.75.75,0,0,0,0-1.06Z"/><path class="cls-5" d="M128.66,218.66a.75.75,0,0,0-1.06,0l-.93.93a.74.74,0,0,0,0,1l5.8,5.8,2-2Z"/><path class="cls-5" d="M142.24,220.64a.74.74,0,0,0,0-1l-.93-.93a.75.75,0,0,0-1.06,0l-5.79,5.8-2,2-5.8,5.8a.75.75,0,0,0,0,1.06l.93.93a.75.75,0,0,0,1.06,0l5.8-5.8,2-2Z"/><path class="cls-3" d="M148,71.65c0-10.66,13-19.3,29-19.3s29,8.64,29,19.3"/></g></svg>