<svg xmlns="http://www.w3.org/2000/svg" width="170" height="165" viewBox="0 0 170 165"><defs><style>.cls-1,.cls-3{fill:#fff;}.cls-2,.cls-5,.cls-6{fill:none;}.cls-2,.cls-3,.cls-5{stroke:#fff;stroke-miterlimit:10;}.cls-4{fill:#de4c4a;}.cls-5{stroke-width:4px;}</style></defs><title>results</title><g id="final_results" data-name="final results"><path class="cls-1" d="M142.8423,23.6013l-12.8115-.0307-1.5.0307V38.4529c0,.4087-.49.7671-1.05.7671H42.5191c-.56,0-1.05-.3584-1.05-.7671V23.5706l-14.3115.0307c-7.7081,0-13.9786,5.65-13.9786,12.5962V152.3894c0,6.9458,6.2705,12.5962,13.9786,12.5962H142.8423c7.708,0,13.9785-5.65,13.9785-12.5962V36.1975C156.8208,29.2517,150.55,23.6013,142.8423,23.6013ZM42.5191,46.6585H127.481c4.9853,0,9.041-3.6812,9.041-8.2056V31.04h6.32c3.3018,0,5.9873,2.314,5.9873,5.1577V152.3894c0,2.8438-2.6855,5.1577-5.9873,5.1577H27.1578c-3.3018,0-5.9874-2.3139-5.9874-5.1577V36.1975c0-2.8437,2.6856-5.1577,5.9874-5.1577h6.3193v7.4131C33.4771,42.9773,37.5337,46.6585,42.5191,46.6585Z"/><path class="cls-2" d="M112.835,18.0058h-4.9915c0-6.5334-9.8962-12.053-21.6106-12.053s-21.61,5.52-21.61,12.053H59.6315v-.0015H49.73V30.2051H120.27V18.0043H112.835Z"/><path class="cls-3" d="M120.8318,13.5659h-8.9424a13.1505,13.1505,0,0,0-1.48-2.5462c-4.1681-5.661-13.3124-9.5053-24.177-9.5053S66.2248,5.3587,62.0562,11.02a13.1449,13.1449,0,0,0-1.4794,2.5462H49.1682a4.2107,4.2107,0,0,0-4.4293,3.9385V30.7053a4.21,4.21,0,0,0,4.4293,3.9382h71.6636a4.21,4.21,0,0,0,4.4293-3.9382V17.5044A4.2107,4.2107,0,0,0,120.8318,13.5659ZM120.27,30.2051H49.73V18.0043h9.9011v.0015h4.9916c0-6.5334,9.8962-12.053,21.61-12.053s21.6106,5.52,21.6106,12.053h4.9915v-.0015H120.27Z"/><path class="cls-1" d="M58.7094,125.4857a3.68,3.68,0,0,1,3.6695,3.6694v12.2585a3.68,3.68,0,0,1-3.6695,3.6694H43.9135a3.68,3.68,0,0,1-3.6694-3.6694V129.1551a3.68,3.68,0,0,1,3.6694-3.6694H58.7094m0-3H43.9135a6.6769,6.6769,0,0,0-6.6694,6.6694v12.2585a6.6769,6.6769,0,0,0,6.6694,6.6694H58.7094a6.6769,6.6769,0,0,0,6.6695-6.6694V129.1551a6.6769,6.6769,0,0,0-6.6695-6.6694Z"/><path class="cls-4" d="M43.914,54.5827H58.7094a5.1694,5.1694,0,0,1,5.1694,5.1694V72.0109A5.1689,5.1689,0,0,1,58.71,77.18H43.9135A5.1694,5.1694,0,0,1,38.7441,72.01V59.7526A5.17,5.17,0,0,1,43.914,54.5827Z"/><path class="cls-1" d="M58.7094,56.0827a3.68,3.68,0,0,1,3.6695,3.6694V72.0105a3.68,3.68,0,0,1-3.6695,3.67H43.9135a3.68,3.68,0,0,1-3.6694-3.67V59.7521a3.68,3.68,0,0,1,3.6694-3.6694H58.7094m0-3H43.9135a6.6769,6.6769,0,0,0-6.6694,6.6694V72.0105a6.6769,6.6769,0,0,0,6.6694,6.67H58.7094a6.6769,6.6769,0,0,0,6.6695-6.67V59.7521a6.6769,6.6769,0,0,0-6.6695-6.6694Z"/><path class="cls-4" d="M43.914,89.5632H58.7094a5.1694,5.1694,0,0,1,5.1694,5.1694v12.2588A5.1689,5.1689,0,0,1,58.71,112.16H43.9135a5.1694,5.1694,0,0,1-5.1694-5.1694V94.7331A5.17,5.17,0,0,1,43.914,89.5632Z"/><path class="cls-1" d="M58.7094,91.063a3.68,3.68,0,0,1,3.6695,3.6694v12.2584a3.68,3.68,0,0,1-3.6695,3.67H43.9135a3.68,3.68,0,0,1-3.6694-3.67V94.7324a3.68,3.68,0,0,1,3.6694-3.6694H58.7094m0-3H43.9135a6.6769,6.6769,0,0,0-6.6694,6.6694v12.2584a6.6769,6.6769,0,0,0,6.6694,6.67H58.7094a6.6769,6.6769,0,0,0,6.6695-6.67V94.7324a6.6769,6.6769,0,0,0-6.6695-6.6694Z"/><line class="cls-5" x1="79.1419" y1="66.4389" x2="133.3556" y2="66.4389"/><line class="cls-5" x1="79.1419" y1="100.8616" x2="133.3556" y2="100.8616"/><line class="cls-5" x1="79.1419" y1="135.2843" x2="133.3556" y2="135.2843"/><rect class="cls-6" width="170" height="165"/></g></svg>