<svg id="Layer_1" data-name="Layer 1" xmlns="http://www.w3.org/2000/svg" width="257" height="240.4" viewBox="0 0 257 240.4"><defs><style>.cls-1{fill:#fff;}.cls-1,.cls-2,.cls-3,.cls-4{stroke:#fff;stroke-miterlimit:10;}.cls-1,.cls-2{stroke-width:2px;}.cls-2,.cls-4,.cls-5{fill:none;}.cls-3{fill:#ff5e59;}.cls-3,.cls-4{stroke-width:4px;}</style></defs><title>results</title><path class="cls-1" d="M198.47,46.2911H183.2225V63.4378A2.972,2.972,0,0,1,180.19,66.347H79.38a2.972,2.972,0,0,1-3.0326-2.9092V46.2558H61.1c-8.1658,0-14.8153,6.3915-14.8153,14.2552V209.7537C46.285,217.6085,52.9345,224,61.1,224H198.47c8.1658,0,14.8153-6.3915,14.8153-14.2463V60.5462C213.285,52.6825,206.6355,46.2911,198.47,46.2911Zm8.8858,163.4626a8.7347,8.7347,0,0,1-8.8858,8.5513H61.0918a8.7347,8.7347,0,0,1-8.8858-8.5513V60.5462a8.7347,8.7347,0,0,1,8.8858-8.5513H70.41V63.4555a8.7956,8.7956,0,0,0,8.9535,8.613H180.2493a8.7957,8.7957,0,0,0,8.9535-8.6131v-11.46h9.3178a8.7347,8.7347,0,0,1,8.8857,8.5513Z" transform="translate(0 -0.0024)"/><path class="cls-2" d="M162.8335,37.1844H156.904c0-8.3927-11.7489-15.4806-25.6578-15.4806S105.58,28.7565,105.58,37.1844H87.9016V52.85H171.66V37.1755h-8.8265Z" transform="translate(0 -0.0024)"/><path class="cls-1" d="M172.3291,31.4805H161.7069a16.604,16.604,0,0,0-1.7535-3.2706C155.0065,20.9369,144.1471,16,131.2462,16s-23.718,4.9368-28.7072,12.21a17.1012,17.1012,0,0,0-1.7619,3.2706H87.2239a5.17,5.17,0,0,0-5.26,5.06V53.4936a5.169,5.169,0,0,0,5.26,5.0515h85.1052a5.1689,5.1689,0,0,0,5.26-5.0515V36.5408A5.1694,5.1694,0,0,0,172.3291,31.4805ZM171.66,52.85H87.9016V37.1755H105.58c0-8.3926,11.7573-15.48,25.6662-15.48s25.6578,7.0526,25.6578,15.4805H171.66Z" transform="translate(0 -0.0024)"/><path class="cls-3" d="M79.9391,86.9315H98.2274a4.7014,4.7014,0,0,1,4.6843,4.7185v16.3056a4.7015,4.7015,0,0,1-4.6843,4.7185H79.9391a4.7015,4.7015,0,0,1-4.6843-4.7185V91.65A4.7014,4.7014,0,0,1,79.9391,86.9315Z" transform="translate(0 -0.0024)"/><line class="cls-4" x1="122.8263" y1="99.3774" x2="187.2037" y2="99.3774"/><path class="cls-3" d="M79.9391,130.288H98.2274a4.7826,4.7826,0,0,1,4.6843,4.8752V152.01a4.7826,4.7826,0,0,1-4.6843,4.8751H79.9391a4.7826,4.7826,0,0,1-4.6843-4.8751v-16.847A4.7826,4.7826,0,0,1,79.9391,130.288Z" transform="translate(0 -0.0024)"/><line class="cls-4" x1="122.8263" y1="143.5799" x2="187.2037" y2="143.5799"/><path class="cls-4" d="M79.8714,174.4905H98.16a4.7825,4.7825,0,0,1,4.6843,4.8751v16.847a4.7825,4.7825,0,0,1-4.6843,4.8751H79.8714a4.7825,4.7825,0,0,1-4.6843-4.8751v-16.847A4.7825,4.7825,0,0,1,79.8714,174.4905Z" transform="translate(0 -0.0024)"/><line class="cls-4" x1="122.8263" y1="187.7823" x2="187.2037" y2="187.7823"/><rect class="cls-5" width="257" height="240.4"/></svg>