<svg xmlns="http://www.w3.org/2000/svg" viewBox="0 0 400 400"><defs><style>.cls-1{fill:#a4ded3;}.cls-2,.cls-3{fill:#215186;}.cls-3,.cls-4{stroke:#fff;stroke-miterlimit:10;}.cls-3{stroke-width:6px;}.cls-4{fill:none;stroke-width:3px;}.cls-5{fill:#fff;}</style></defs><title>icons</title><g id="Artboard_7" data-name="Artboard 7"><rect class="cls-1" x="155.24" y="223.26" width="1.94" height="0.48"/></g><g id="final_results" data-name="final results"><path class="cls-2" d="M374.52,200.88A173.5,173.5,0,1,0,113.3,350.59H288.74A173.43,173.43,0,0,0,374.52,200.88Z"/><rect class="cls-3" x="116.28" y="111.06" width="174.7" height="194" rx="12" ry="12"/><rect class="cls-3" x="142.42" y="96.45" width="122.42" height="37.23" rx="6.06" ry="6.06"/><rect class="cls-2" x="127.91" y="87.61" width="46.34" height="20.35"/><rect class="cls-2" x="233" y="87.69" width="46.34" height="20.35"/><rect class="cls-3" x="155" y="89.24" width="97.27" height="29.21" rx="2.32" ry="2.32"/><rect class="cls-2" x="172.84" y="85.47" width="61.62" height="10.74"/><path class="cls-3" d="M174.61,92.23c0-10.67,13-19.32,29-19.32s29,8.65,29,19.32"/><rect class="cls-4" x="146.41" y="159.01" width="26.46" height="26.46" rx="4.35" ry="4.35"/><line class="cls-4" x1="196.09" y1="173.95" x2="265.91" y2="173.95"/><rect class="cls-4" x="146.41" y="204.42" width="26.46" height="26.46" rx="4.35" ry="4.35"/><line class="cls-4" x1="196.09" y1="219.36" x2="265.91" y2="219.36"/><rect class="cls-4" x="146.76" y="249.83" width="26.46" height="26.46" rx="4.35" ry="4.35"/><line class="cls-4" x1="196.44" y1="266.77" x2="266.26" y2="266.77"/><rect class="cls-1" x="149.28" y="161.88" width="20.72" height="20.72" rx="2.01" ry="2.01"/><rect class="cls-1" x="149.21" y="207.3" width="20.72" height="20.72" rx="2.01" ry="2.01"/><path class="cls-5" d="M161.77,263.42l-2.13,2.12,6.21,6.22a.8.8,0,0,0,1.13,0l1-1a.8.8,0,0,0,0-1.13Z"/><path class="cls-5" d="M153.43,255.08a.81.81,0,0,0-1.14,0l-1,1a.8.8,0,0,0,0,1.13l6.21,6.22,2.13-2.13Z"/><path class="cls-5" d="M168,257.2a.8.8,0,0,0,0-1.13l-1-1a.8.8,0,0,0-1.13,0l-6.21,6.21-2.13,2.13-6.21,6.21a.8.8,0,0,0,0,1.13l1,1a.81.81,0,0,0,1.14,0l6.21-6.22,2.13-2.12Z"/></g></svg>