<svg xmlns="http://www.w3.org/2000/svg" width="157.3845" height="165" viewBox="0 0 157.3845 165">
  <title>home_menu_icons</title>
  <g>
    <g>
      <path d="M136.5344,25.1013h-7.82v-.0306h-4.9915V38.4528a2.4239,2.4239,0,0,1-2.55,2.2672H36.2116a2.424,2.424,0,0,1-2.55-2.2672V25.0707H28.67v.0306H20.85c-6.8812,0-12.4789,4.9777-12.4789,11.0961V152.39c0,6.1184,5.5977,11.0961,12.4789,11.0961H136.5344c6.8812,0,12.4789-4.9777,12.4789-11.0961V36.1974C149.0133,30.079,143.4156,25.1013,136.5344,25.1013ZM144.0217,152.39c0,3.6709-3.3586,6.6577-7.4873,6.6577H20.85c-4.1287,0-7.4873-2.9868-7.4873-6.6577V36.1974c0-3.6709,3.3586-6.6577,7.4873-6.6577h7.82v8.9131c0,3.6976,3.3829,6.7057,7.5418,6.7057H121.173c4.1588,0,7.5417-3.0081,7.5417-6.7057V29.54h7.82c4.1287,0,7.4873,2.9868,7.4873,6.6577Z" fill="#fff" stroke="#fff" stroke-miterlimit="10" stroke-width="3"/>
      <g>
        <path d="M106.5273,18.0058h-4.9916c0-6.5334-9.8962-12.053-21.6106-12.053s-21.61,5.52-21.61,12.053H53.3237v-.0015h-9.901V30.2051h70.5391V18.0043h-7.4345Z" fill="none" stroke="#fff" stroke-miterlimit="10"/>
        <path d="M114.524,13.5659h-8.9424a13.1449,13.1449,0,0,0-1.4794-2.5462C99.934,5.3587,90.79,1.5144,79.9251,1.5144S59.917,5.3587,55.7484,11.02a13.1551,13.1551,0,0,0-1.4794,2.5462H42.8605a4.2107,4.2107,0,0,0-4.4294,3.9385V30.7053a4.21,4.21,0,0,0,4.4294,3.9382H114.524a4.21,4.21,0,0,0,4.4294-3.9382V17.5044A4.2107,4.2107,0,0,0,114.524,13.5659Zm-.5622,16.6392H43.4227V18.0043h9.901v.0015h4.9916c0-6.5334,9.8962-12.053,21.61-12.053s21.6106,5.52,21.6106,12.053h4.9916v-.0015h7.4345Z" fill="#fff" stroke="#fff" stroke-miterlimit="10"/>
      </g>
      <path d="M52.4017,125.4857a3.68,3.68,0,0,1,3.6694,3.6694v12.2585a3.68,3.68,0,0,1-3.6694,3.6694H37.6058a3.68,3.68,0,0,1-3.6695-3.6694V129.1551a3.68,3.68,0,0,1,3.6695-3.6694H52.4017m0-3H37.6058a6.6769,6.6769,0,0,0-6.67,6.6694v12.2585a6.6769,6.6769,0,0,0,6.67,6.6694H52.4017a6.6769,6.6769,0,0,0,6.6694-6.6694V129.1551a6.6769,6.6769,0,0,0-6.6694-6.6694Z" fill="#fff"/>
      <g>
        <g>
          <path d="M37.6058,54.5827H52.4017a5.1694,5.1694,0,0,1,5.1694,5.1694V72.0109A5.1689,5.1689,0,0,1,52.4022,77.18H37.6053a5.1689,5.1689,0,0,1-5.1689-5.1689V59.7521A5.1694,5.1694,0,0,1,37.6058,54.5827Z" fill="#de4c4a"/>
          <path d="M52.4017,56.0827a3.68,3.68,0,0,1,3.6694,3.6694V72.0105a3.68,3.68,0,0,1-3.6694,3.67H37.6058a3.68,3.68,0,0,1-3.6695-3.67V59.7521a3.68,3.68,0,0,1,3.6695-3.6694H52.4017m0-3H37.6058a6.6769,6.6769,0,0,0-6.67,6.6694V72.0105a6.6769,6.6769,0,0,0,6.67,6.67H52.4017a6.6769,6.6769,0,0,0,6.6694-6.67V59.7521a6.6769,6.6769,0,0,0-6.6694-6.6694Z" fill="#fff"/>
        </g>
        <g>
          <path d="M37.6063,89.5632H52.4017a5.1694,5.1694,0,0,1,5.1694,5.1694v12.2588a5.1689,5.1689,0,0,1-5.1689,5.1689H37.6058a5.1694,5.1694,0,0,1-5.1694-5.1694V94.7331A5.17,5.17,0,0,1,37.6063,89.5632Z" fill="#de4c4a"/>
          <path d="M52.4017,91.063a3.68,3.68,0,0,1,3.6694,3.6694v12.2584a3.68,3.68,0,0,1-3.6694,3.67H37.6058a3.68,3.68,0,0,1-3.6695-3.67V94.7324a3.68,3.68,0,0,1,3.6695-3.6694H52.4017m0-3H37.6058a6.6769,6.6769,0,0,0-6.67,6.6694v12.2584a6.6769,6.6769,0,0,0,6.67,6.67H52.4017a6.6769,6.6769,0,0,0,6.6694-6.67V94.7324a6.6769,6.6769,0,0,0-6.6694-6.6694Z" fill="#fff"/>
        </g>
      </g>
      <line x1="72.8342" y1="66.4389" x2="127.0479" y2="66.4389" fill="none" stroke="#fff" stroke-miterlimit="10" stroke-width="4"/>
      <line x1="72.8342" y1="100.8616" x2="127.0479" y2="100.8616" fill="none" stroke="#fff" stroke-miterlimit="10" stroke-width="4"/>
      <line x1="72.8342" y1="135.2843" x2="127.0479" y2="135.2843" fill="none" stroke="#fff" stroke-miterlimit="10" stroke-width="4"/>
    </g>
    <rect y="-0.178" width="157.3845" height="165.356" fill="none"/>
  </g>
</svg>
