<svg xmlns="http://www.w3.org/2000/svg" viewBox="0 0 347 324.59"><defs><style>.cls-1{fill:#a4ded3;}.cls-2,.cls-3{fill:#215186;}.cls-3,.cls-4{stroke:#fff;stroke-miterlimit:10;}.cls-3{stroke-width:6px;}.cls-4{fill:none;stroke-width:3px;}.cls-5{fill:#fff;}</style></defs><title>icons</title><g id="Artboard_7" data-name="Artboard 7"><rect class="cls-1" x="127.73" y="197.26" width="1.94" height="0.48"/></g><g id="final_results" data-name="final results"><path class="cls-2" d="M347,174.88A173.5,173.5,0,1,0,85.78,324.59H261.22A173.43,173.43,0,0,0,347,174.88Z"/><rect class="cls-3" x="88.76" y="85.06" width="174.7" height="194" rx="12" ry="12"/><rect class="cls-3" x="114.91" y="70.45" width="122.42" height="37.23" rx="6.06" ry="6.06"/><rect class="cls-2" x="100.39" y="61.61" width="46.34" height="20.35"/><rect class="cls-2" x="205.48" y="61.69" width="46.34" height="20.35"/><rect class="cls-3" x="127.48" y="63.24" width="97.27" height="29.21" rx="2.32" ry="2.32"/><rect class="cls-2" x="145.33" y="59.47" width="61.62" height="10.74"/><path class="cls-3" d="M147.09,66.23c0-10.67,13-19.32,29-19.32s29,8.65,29,19.32"/><rect class="cls-4" x="118.89" y="133.01" width="26.46" height="26.46" rx="4.35" ry="4.35"/><line class="cls-4" x1="168.57" y1="147.95" x2="238.39" y2="147.95"/><rect class="cls-4" x="118.89" y="178.42" width="26.46" height="26.46" rx="4.35" ry="4.35"/><line class="cls-4" x1="168.57" y1="193.36" x2="238.39" y2="193.36"/><rect class="cls-4" x="119.24" y="223.83" width="26.46" height="26.46" rx="4.35" ry="4.35"/><line class="cls-4" x1="168.92" y1="240.77" x2="238.74" y2="240.77"/><rect class="cls-1" x="121.76" y="135.88" width="20.72" height="20.72" rx="2.01" ry="2.01"/><rect class="cls-1" x="121.7" y="181.3" width="20.72" height="20.72" rx="2.01" ry="2.01"/><path class="cls-5" d="M134.25,237.42l-2.13,2.12,6.21,6.22a.8.8,0,0,0,1.13,0l1-1a.8.8,0,0,0,0-1.13Z"/><path class="cls-5" d="M125.91,229.08a.81.81,0,0,0-1.14,0l-1,1a.8.8,0,0,0,0,1.13l6.21,6.22,2.13-2.13Z"/><path class="cls-5" d="M140.46,231.2a.8.8,0,0,0,0-1.13l-1-1a.8.8,0,0,0-1.13,0l-6.21,6.21L130,237.42l-6.21,6.21a.8.8,0,0,0,0,1.13l1,1a.81.81,0,0,0,1.14,0l6.21-6.22,2.13-2.12Z"/></g></svg>