<svg xmlns="http://www.w3.org/2000/svg" width="157.3845" height="165.356" viewBox="0 0 157.3845 165.356"><title>home_menu_icons</title><path d="M136.5344,25.2792h-7.82v-.03h-4.9915v13.382a2.4239,2.4239,0,0,1-2.55,2.2673H36.2116a2.424,2.424,0,0,1-2.55-2.2673V25.2487H28.67v.03H20.85c-6.8812,0-12.4789,4.9778-12.4789,11.0962V152.5675c0,6.1184,5.5977,11.0961,12.4789,11.0961H136.5344c6.8812,0,12.4789-4.9777,12.4789-11.0961V36.3754C149.0133,30.257,143.4156,25.2792,136.5344,25.2792Zm7.4873,127.2883c0,3.6709-3.3586,6.6577-7.4873,6.6577H20.85c-4.1287,0-7.4873-2.9868-7.4873-6.6577V36.3754c0-3.6709,3.3586-6.6577,7.4873-6.6577h7.82v8.913c0,3.6977,3.3829,6.7058,7.5418,6.7058H121.173c4.1588,0,7.5417-3.0081,7.5417-6.7058v-8.913h7.82c4.1287,0,7.4873,2.9868,7.4873,6.6577Z" fill="#fff" stroke="#fff" stroke-miterlimit="10" stroke-width="3"/><path d="M106.5273,18.1838h-4.9916c0-6.5335-9.8962-12.053-21.6106-12.053s-21.61,5.52-21.61,12.053H53.3237v-.0015h-9.901V30.383h70.5391V18.1823h-7.4345Z" fill="none" stroke="#fff" stroke-miterlimit="10"/><path d="M114.524,13.7439h-8.9424a13.1449,13.1449,0,0,0-1.4794-2.5462C99.934,5.5367,90.79,1.6923,79.9251,1.6923S59.917,5.5367,55.7484,11.1977a13.1551,13.1551,0,0,0-1.4794,2.5462H42.8605a4.2107,4.2107,0,0,0-4.4294,3.9385V30.8833a4.21,4.21,0,0,0,4.4294,3.9382H114.524a4.21,4.21,0,0,0,4.4294-3.9382V17.6824A4.2107,4.2107,0,0,0,114.524,13.7439Zm-.5622,16.6391H43.4227V18.1823h9.901v.0015h4.9916c0-6.5335,9.8962-12.053,21.61-12.053s21.6106,5.52,21.6106,12.053h4.9916v-.0015h7.4345Z" fill="#fff" stroke="#fff" stroke-miterlimit="10"/><path d="M52.4017,125.6636a3.68,3.68,0,0,1,3.6694,3.6695v12.2584a3.68,3.68,0,0,1-3.6694,3.6695H37.6058a3.68,3.68,0,0,1-3.6695-3.6695V129.3331a3.68,3.68,0,0,1,3.6695-3.6695H52.4017m0-3H37.6058a6.6769,6.6769,0,0,0-6.67,6.6695v12.2584a6.6769,6.6769,0,0,0,6.67,6.6695H52.4017a6.6769,6.6769,0,0,0,6.6694-6.6695V129.3331a6.6769,6.6769,0,0,0-6.6694-6.6695Z" fill="#fff"/><path d="M37.6058,54.7607H52.4017A5.1694,5.1694,0,0,1,57.5711,59.93V72.1889a5.1689,5.1689,0,0,1-5.1689,5.1689H37.6053a5.1689,5.1689,0,0,1-5.1689-5.1689V59.93A5.1694,5.1694,0,0,1,37.6058,54.7607Z" fill="#de4c4a"/><path d="M52.4017,56.2606a3.68,3.68,0,0,1,3.6694,3.67V72.1885a3.68,3.68,0,0,1-3.6694,3.6695H37.6058a3.68,3.68,0,0,1-3.6695-3.6695V59.93a3.68,3.68,0,0,1,3.6695-3.67H52.4017m0-3H37.6058a6.6769,6.6769,0,0,0-6.67,6.67V72.1885a6.6769,6.6769,0,0,0,6.67,6.6695H52.4017a6.6769,6.6769,0,0,0,6.6694-6.6695V59.93a6.6769,6.6769,0,0,0-6.6694-6.67Z" fill="#fff"/><path d="M37.6063,89.7411H52.4017a5.1694,5.1694,0,0,1,5.1694,5.1694v12.2588a5.1689,5.1689,0,0,1-5.1689,5.1689H37.6058a5.1694,5.1694,0,0,1-5.1694-5.1694V94.9111A5.17,5.17,0,0,1,37.6063,89.7411Z" fill="#de4c4a"/><path d="M52.4017,91.2409A3.68,3.68,0,0,1,56.0711,94.91v12.2584a3.68,3.68,0,0,1-3.6694,3.6695H37.6058a3.68,3.68,0,0,1-3.6695-3.6695V94.91a3.68,3.68,0,0,1,3.6695-3.6695H52.4017m0-3H37.6058a6.6769,6.6769,0,0,0-6.67,6.6695v12.2584a6.6769,6.6769,0,0,0,6.67,6.6695H52.4017a6.6769,6.6769,0,0,0,6.6694-6.6695V94.91a6.6769,6.6769,0,0,0-6.6694-6.6695Z" fill="#fff"/><line x1="72.8342" y1="66.6169" x2="127.0479" y2="66.6169" fill="none" stroke="#fff" stroke-miterlimit="10" stroke-width="4"/><line x1="72.8342" y1="101.0396" x2="127.0479" y2="101.0396" fill="none" stroke="#fff" stroke-miterlimit="10" stroke-width="4"/><line x1="72.8342" y1="135.4623" x2="127.0479" y2="135.4623" fill="none" stroke="#fff" stroke-miterlimit="10" stroke-width="4"/><rect width="157.3845" height="165.356" fill="none"/></svg>