<?xml version="1.0" encoding="utf-8"?>
<!-- Generator: Adobe Illustrator 22.1.0, SVG Export Plug-In . SVG Version: 6.00 Build 0)  -->
<svg version="1.1" id="Layer_1" xmlns="http://www.w3.org/2000/svg" xmlns:xlink="http://www.w3.org/1999/xlink" x="0px" y="0px"
	 viewBox="0 0 347 324.6" style="enable-background:new 0 0 347 324.6;" xml:space="preserve">
<style type="text/css">
	.st0{fill:#215186;}
	.st1{fill:#A4DED3;}
	.st2{fill:#215186;stroke:#FFFFFF;stroke-width:6;stroke-miterlimit:10;}
	.st3{fill:#FFFFFF;}
	.st4{fill:none;stroke:#FFFFFF;stroke-width:3;stroke-miterlimit:10;}
</style>
<g id="Artboard_6">
	<path class="st0" d="M347.4,173.9c0-95.8-77.7-173.5-173.5-173.5C78,0.4,0.4,78.1,0.4,173.9c0,63.8,35,122.4,91.2,152.7h164.7
		C312.4,296.4,347.4,237.7,347.4,173.9z"/>
</g>
<g id="Artboard_7">
	<rect x="130.4" y="188" class="st1" width="1.8" height="0.4"/>
</g>
<g id="final_results">
	<g>
		<path class="st2" d="M245,84.2h-12.4v15c0,3.3-2.7,6.1-6.1,6.1H124.5c-3.3,0-6.1-2.7-6.1-6.1v-15H106c-6.6,0-12,5.4-12,12v157.1
			c0,6.6,5.4,12,12,12H245c6.6,0,12-5.4,12-12V96.2C257,89.6,251.7,84.2,245,84.2z"/>
	</g>
	<path class="st0" d="M146.8,68.6h-14.3c-1.3,0-2.3,1-2.3,2.3v17.8c0,1.3,1,2.3,2.3,2.3h86.2c1.3,0,2.3-1,2.3-2.3V71
		c0-1.3-1-2.3-2.3-2.3h-14.3"/>
	<g>
		<path class="st0" d="M148,71.7c0-10.7,13-19.3,29-19.3s29,8.6,29,19.3"/>
		<path class="st3" d="M218.6,65.6h-10.8c-3.8-9.4-16.2-16.3-30.8-16.3c-14.7,0-27,6.9-30.8,16.3h-13.8c-2.9,0-5.3,2.4-5.3,5.3v17.9
			c0,2.9,2.4,5.3,5.3,5.3h86.1c2.9,0,5.3-2.4,5.3-5.3V71C223.9,68,221.5,65.6,218.6,65.6z M217.9,88.1h-84.8V71.6H145c0,0,0,0,0,0h6
			c0-8.8,11.9-16.3,26-16.3c14.1,0,26,7.5,26,16.3h6c0,0,0,0,0,0h8.9V88.1z"/>
	</g>
	<path class="st4" d="M126.5,129h16c2.4,0,4.4,1.9,4.4,4.4v16c0,2.4-1.9,4.4-4.4,4.4h-16c-2.4,0-4.3-1.9-4.3-4.4v-16
		C122.1,130.9,124.1,129,126.5,129z"/>
	<line class="st4" x1="168.5" y1="142.9" x2="233.6" y2="142.9" shape-rendering="crispEdges"/>
	<path class="st4" d="M126.5,171.4h16c2.4,0,4.4,1.9,4.4,4.4v16c0,2.4-1.9,4.4-4.4,4.4h-16c-2.4,0-4.3-1.9-4.3-4.4v-16
		C122.1,173.3,124.1,171.4,126.5,171.4z"/>
	<line class="st4" x1="168.5" y1="185.3" x2="233.6" y2="185.3" shape-rendering="crispEdges"/>
	<path class="st4" d="M126.8,213.8h16c2.4,0,4.4,1.9,4.4,4.4v16c0,2.4-1.9,4.4-4.4,4.4h-16c-2.4,0-4.3-1.9-4.3-4.4v-16
		C122.4,215.7,124.4,213.8,126.8,213.8z"/>
	<line class="st4" x1="168.8" y1="229.6" x2="234" y2="229.6" shape-rendering="crispEdges"/>
	<path class="st1" d="M126.8,131.7h15.3c1.1,0,2,0.9,2,2V149c0,1.1-0.9,2-2,2h-15.3c-1.1,0-2-0.9-2-2v-15.3
		C124.8,132.6,125.7,131.7,126.8,131.7z"/>
	<path class="st1" d="M126.7,174.1h15.3c1.1,0,2,0.9,2,2v15.3c0,1.1-0.9,2-2,2h-15.3c-1.1,0-2-0.9-2-2v-15.3
		C124.7,175,125.6,174.1,126.7,174.1z"/>
	<path class="st3" d="M136.4,226.4l-2,2l5.8,5.8c0.3,0.3,0.8,0.3,1.1,0l0.9-0.9c0.3-0.3,0.3-0.8,0-1.1L136.4,226.4z"/>
	<path class="st3" d="M128.7,218.7c-0.3-0.3-0.8-0.3-1.1,0l-0.9,0.9c-0.3,0.3-0.3,0.7,0,1l5.8,5.8l2-2L128.7,218.7z"/>
	<path class="st3" d="M142.2,220.6c0.3-0.3,0.3-0.7,0-1l-0.9-0.9c-0.3-0.3-0.8-0.3-1.1,0l-5.8,5.8l-2,2l-5.8,5.8
		c-0.3,0.3-0.3,0.8,0,1.1l0.9,0.9c0.3,0.3,0.8,0.3,1.1,0l5.8-5.8l2-2L142.2,220.6z"/>
</g>
</svg>
