<svg xmlns="http://www.w3.org/2000/svg" viewBox="0 0 347 324.59">
  <title>icons</title>
  <g>
    <path d="M254.59,78.68h-11v0h-7V98.13a3.45,3.45,0,0,1-3.58,3.3H114a3.45,3.45,0,0,1-3.58-3.3V78.64h-7v0h-11c-9.64,0-17.49,7.25-17.49,16.17V264.1c0,8.91,7.85,16.16,17.49,16.16H254.59c9.64,0,17.49-7.25,17.49-16.16V94.85C272.08,85.93,264.23,78.68,254.59,78.68ZM265.08,264.1c0,5.35-4.71,9.7-10.49,9.7H92.41c-5.78,0-10.49-4.35-10.49-9.7V94.85c0-5.35,4.71-9.7,10.49-9.7h11v13c0,5.39,4.74,9.77,10.57,9.77h119.1c5.83,0,10.57-4.38,10.57-9.77v-13h11c5.78,0,10.49,4.35,10.49,9.7Z" fill="#fff" stroke="#fff" stroke-miterlimit="10" stroke-width="2"/>
    <g>
      <path d="M212.52,68.35h-7c0-9.52-13.87-17.56-30.29-17.56s-30.3,8-30.3,17.56H124.06V86.12h98.88V68.34H212.52Z" fill="none" stroke="#fff" stroke-miterlimit="10" stroke-width="2"/>
      <path d="M223.73,61.88H211.19a18.61,18.61,0,0,0-2.07-3.71c-5.84-8.25-18.66-13.85-33.89-13.85s-28,5.6-33.89,13.85a19.17,19.17,0,0,0-2.08,3.71h-16a6,6,0,0,0-6.21,5.74V86.85a6,6,0,0,0,6.21,5.73H223.73a6,6,0,0,0,6.21-5.73V67.62A6,6,0,0,0,223.73,61.88Zm-.79,24.24H124.06V68.34h20.87c0-9.52,13.88-17.56,30.3-17.56s30.29,8,30.29,17.56h17.42Z" fill="#fff" stroke="#fff" stroke-miterlimit="10" stroke-width="2"/>
    </g>
    <rect x="109.13" y="123.81" width="32.65" height="30.17" rx="5.53" ry="5.53" fill="#ff5e59" stroke="#fff" stroke-miterlimit="10" stroke-width="4"/>
    <line x1="165.29" y1="138.9" x2="241.29" y2="138.9" fill="none" stroke="#fff" stroke-miterlimit="10" stroke-width="4"/>
    <rect x="109.13" y="173.96" width="32.65" height="30.17" rx="5.53" ry="5.53" fill="#ff5e59" stroke="#fff" stroke-miterlimit="10" stroke-width="4"/>
    <line x1="165.29" y1="189.04" x2="241.29" y2="189.04" fill="none" stroke="#fff" stroke-miterlimit="10" stroke-width="4"/>
    <rect x="109.05" y="224.1" width="32.65" height="30.17" rx="5.53" ry="5.53" fill="none" stroke="#fff" stroke-miterlimit="10" stroke-width="4"/>
    <line x1="165.29" y1="239.18" x2="241.29" y2="239.18" fill="none" stroke="#fff" stroke-miterlimit="10" stroke-width="4"/>
  </g>
</svg>
