<svg xmlns="http://www.w3.org/2000/svg" width="170" height="165" viewBox="0 0 170 165">
  <title>home_menu_icons</title>
  <g>
    <g>
      <path d="M143.2345,22.4468l-12.8984-.0309-1.51.0309V37.3991c0,.4115-.4936.7723-1.057.7723H42.231c-.5634,0-1.057-.3608-1.057-.7723V22.4159l-14.4085.0309c-7.76,0-14.0734,5.6887-14.0734,12.6816v116.98c0,6.9929,6.3131,12.6816,14.0734,12.6816h116.469c7.76,0,14.0734-5.6887,14.0734-12.6816V35.1284C157.3079,28.1355,150.9948,22.4468,143.2345,22.4468ZM42.231,45.66h85.538c5.0192,0,9.1024-3.7061,9.1024-8.2612V29.9358h6.3631c3.3242,0,6.028,2.33,6.028,5.1926v116.98c0,2.863-2.7038,5.1927-6.028,5.1927H26.7655c-3.3242,0-6.028-2.33-6.028-5.1927V35.1284c0-2.863,2.7038-5.1926,6.028-5.1926h6.3621v7.4633C33.1276,41.9542,37.2118,45.66,42.231,45.66Z" fill="#fff"/>
      <g>
        <path d="M113.0238,16.8133h-5.0254c0-6.5777-9.9634-12.1347-21.7572-12.1347s-21.7564,5.557-21.7564,12.1347H59.4594v-.0014H49.4912V29.0953h71.0175V16.8119h-7.4849Z" fill="none" stroke="#fff" stroke-miterlimit="10"/>
        <path d="M121.0747,12.3433h-9.003a13.244,13.244,0,0,0-1.49-2.5634C106.3858,4.0805,97.18.21,86.2412.21s-20.1438,3.87-24.3406,9.57a13.2389,13.2389,0,0,0-1.4895,2.5634H48.9252a4.2393,4.2393,0,0,0-4.4594,3.9653v13.29a4.239,4.239,0,0,0,4.4594,3.9649h72.15a4.2389,4.2389,0,0,0,4.4594-3.9649v-13.29A4.2392,4.2392,0,0,0,121.0747,12.3433Zm-.566,16.752H49.4912V16.8119h9.9682v.0014h5.0254c0-6.5777,9.9633-12.1347,21.7564-12.1347s21.7572,5.557,21.7572,12.1347h5.0254v-.0014h7.4849Z" fill="#fff" stroke="#fff" stroke-miterlimit="10"/>
      </g>
      <path d="M58.5313,125.0221a3.7051,3.7051,0,0,1,3.6943,3.6943V141.058a3.7051,3.7051,0,0,1-3.6943,3.6944H43.635a3.7052,3.7052,0,0,1-3.6943-3.6944V128.7164a3.7052,3.7052,0,0,1,3.6943-3.6943H58.5313m0-3H43.635a6.702,6.702,0,0,0-6.6943,6.6943V141.058a6.702,6.702,0,0,0,6.6943,6.6944H58.5313a6.702,6.702,0,0,0,6.6943-6.6944V128.7164a6.7019,6.7019,0,0,0-6.6943-6.6943Z" fill="#fff"/>
      <g>
        <g>
          <rect x="38.441" y="53.6487" width="25.2842" height="22.73" rx="5.1943" ry="5.1943" fill="#de4c4a"/>
          <path d="M58.5313,55.1484a3.7051,3.7051,0,0,1,3.6943,3.6944V71.1843a3.7051,3.7051,0,0,1-3.6943,3.6944H43.635a3.7052,3.7052,0,0,1-3.6943-3.6944V58.8428a3.7052,3.7052,0,0,1,3.6943-3.6944H58.5313m0-3H43.635a6.702,6.702,0,0,0-6.6943,6.6944V71.1843a6.702,6.702,0,0,0,6.6943,6.6944H58.5313a6.702,6.702,0,0,0,6.6943-6.6944V58.8428a6.702,6.702,0,0,0-6.6943-6.6944Z" fill="#fff"/>
        </g>
        <g>
          <rect x="38.441" y="88.8659" width="25.2842" height="22.7305" rx="5.1943" ry="5.1943" fill="#de4c4a"/>
          <path d="M58.5313,90.366A3.7051,3.7051,0,0,1,62.2256,94.06v12.3416a3.7051,3.7051,0,0,1-3.6943,3.6943H43.635a3.7051,3.7051,0,0,1-3.6943-3.6943V94.06A3.7051,3.7051,0,0,1,43.635,90.366H58.5313m0-3H43.635A6.7019,6.7019,0,0,0,36.9407,94.06v12.3416a6.702,6.702,0,0,0,6.6943,6.6943H58.5313a6.7019,6.7019,0,0,0,6.6943-6.6943V94.06a6.7019,6.7019,0,0,0-6.6943-6.6943Z" fill="#fff"/>
        </g>
      </g>
      <line x1="79.1022" y1="65.5749" x2="133.6835" y2="65.5749" fill="none" stroke="#fff" stroke-miterlimit="10" stroke-width="4"/>
      <line x1="79.1022" y1="100.2311" x2="133.6835" y2="100.2311" fill="none" stroke="#fff" stroke-miterlimit="10" stroke-width="4"/>
      <line x1="79.1022" y1="134.8872" x2="133.6835" y2="134.8872" fill="none" stroke="#fff" stroke-miterlimit="10" stroke-width="4"/>
    </g>
    <rect width="170" height="165" fill="none"/>
  </g>
</svg>
