<svg id="svg2" xmlns="http://www.w3.org/2000/svg" viewBox="0 0 528.51 358"><defs><style>.cls-1{opacity:0.95;}.cls-2,.cls-3,.cls-5,.cls-6,.cls-7{fill:none;}.cls-2,.cls-3,.cls-5,.cls-6{stroke:#000;stroke-width:8.5px;}.cls-2,.cls-3{stroke-linecap:round;}.cls-3,.cls-5,.cls-6{stroke-linejoin:round;}.cls-4{opacity:0.39;isolation:isolate;}.cls-6{stroke-linecap:square;}</style></defs><title>structure</title><g class="cls-1"><g id="g4864"><g id="g4308"><g id="g4397"><path id="path4171" class="cls-2" d="M217.64,190.82l24.9-39.29"/><path id="path4171-2" class="cls-3" d="M310.76,190.68l-25.12-39.63"/><path id="path4888" class="cls-2" d="M216.56,232.56,244.07,278"/><g id="path4886-2"><ellipse class="cls-4" cx="151.33" cy="302.07" rx="22.9" ry="22.93"/><ellipse class="cls-3" cx="151.33" cy="302.07" rx="22.9" ry="22.93"/></g><g id="path4886-2-1"><ellipse class="cls-4" cx="255.2" cy="302.07" rx="22.9" ry="22.93"/><ellipse class="cls-3" cx="255.2" cy="302.07" rx="22.9" ry="22.93"/></g><g id="path4886-2-1-0"><ellipse class="cls-4" cx="378.63" cy="302.07" rx="22.9" ry="22.93"/><ellipse class="cls-3" cx="378.63" cy="302.07" rx="22.9" ry="22.93"/></g><ellipse id="path4941" class="cls-3" cx="204.38" cy="212.86" rx="23.08" ry="23.12"/><ellipse id="path4941-0" class="cls-3" cx="323.49" cy="212.86" rx="23.08" ry="23.12"/><path id="path4354" class="cls-5" d="M369.89,282.9,336.36,230"/><path id="path4356" class="cls-2" d="M160.76,279.43l29.57-46.66"/><path id="path4742" class="cls-6" d="M222.28,148.82h88.94"/></g></g></g></g><g id="g4883"><path id="path4885" d="M337.36,67.83,265.19,31h-.43L192.61,67.83l5.15,7H332.21Z"/><path id="path4887" d="M198.76,114.33a6.82,6.82,0,0,0-6.34,5.7H337.53a6.82,6.82,0,0,0-6.34-5.7Z"/><path id="rect4889" d="M208.13,118.72H344.24V134.6H185.86V118.72Z"/><path id="rect4891" d="M247.47,68.42h7.15v48.85H240.39V68.42Z"/><path id="rect4893" d="M215.76,68.42h7.09v48.85h-14.2V68.42Z"/><path id="rect4895" d="M279.17,68.42h7.09v48.85H272.11V68.42Z"/><path id="rect4897" d="M311,68.42H318v48.85H303.85V68.42Z"/></g><rect class="cls-7" width="528.51" height="358"/></svg>