<svg id="svg2" xmlns="http://www.w3.org/2000/svg" viewBox="0 0 528.51 358"><defs><style>.cls-1{opacity:0.95;}.cls-2,.cls-3,.cls-5,.cls-6,.cls-7{fill:none;}.cls-2,.cls-3,.cls-5,.cls-6{stroke:#000;stroke-width:8.5px;}.cls-2,.cls-3{stroke-linecap:round;}.cls-3,.cls-5,.cls-6{stroke-linejoin:round;}.cls-4{opacity:0.39;isolation:isolate;}.cls-6{stroke-linecap:square;}</style></defs><title>structure</title><g class="cls-1"><g id="g4864"><g id="g4308"><g id="g4397"><path id="path4171" class="cls-2" d="M217.88,190.82l24.9-39.29" transform="translate(-0.24)"/><path id="path4171-2" class="cls-3" d="M311,190.68l-25.12-39.63" transform="translate(-0.24)"/><path id="path4888" class="cls-2" d="M216.8,232.56,244.31,278" transform="translate(-0.24)"/><g id="path4886-2"><ellipse class="cls-4" cx="151.33" cy="302.07" rx="22.9" ry="22.93"/><ellipse class="cls-3" cx="151.33" cy="302.07" rx="22.9" ry="22.93"/></g><g id="path4886-2-1"><ellipse class="cls-4" cx="255.2" cy="302.07" rx="22.9" ry="22.93"/><ellipse class="cls-3" cx="255.2" cy="302.07" rx="22.9" ry="22.93"/></g><g id="path4886-2-1-0"><ellipse class="cls-4" cx="378.63" cy="302.07" rx="22.9" ry="22.93"/><ellipse class="cls-3" cx="378.63" cy="302.07" rx="22.9" ry="22.93"/></g><ellipse id="path4941" class="cls-3" cx="204.38" cy="212.86" rx="23.08" ry="23.12"/><ellipse id="path4941-0" class="cls-3" cx="323.49" cy="212.86" rx="23.08" ry="23.12"/><path id="path4354" class="cls-5" d="M370.13,282.9,336.6,230" transform="translate(-0.24)"/><path id="path4356" class="cls-2" d="M161,279.43l29.57-46.66" transform="translate(-0.24)"/><path id="path4742" class="cls-6" d="M222.52,148.82h88.94" transform="translate(-0.24)"/></g></g></g></g><g id="g4883"><path id="path4885" d="M337.6,67.83,265.43,31H265L192.85,67.83l5.15,7H332.45Z" transform="translate(-0.24)"/><path id="path4887" d="M199,114.33a6.82,6.82,0,0,0-6.34,5.7H337.77a6.82,6.82,0,0,0-6.34-5.7Z" transform="translate(-0.24)"/><path id="rect4889" d="M208.37,118.72H344.48V134.6H186.1V118.72Z" transform="translate(-0.24)"/><path id="rect4891" d="M247.71,68.42h7.15v48.85H240.63V68.42Z" transform="translate(-0.24)"/><path id="rect4893" d="M216,68.42h7.09v48.85H208.89V68.42Z" transform="translate(-0.24)"/><path id="rect4895" d="M279.41,68.42h7.09v48.85H272.35V68.42Z" transform="translate(-0.24)"/><path id="rect4897" d="M311.19,68.42h7.08v48.85H304.09V68.42Z" transform="translate(-0.24)"/></g><rect class="cls-7" width="528.51" height="358"/></svg>