<svg id="svg2" xmlns="http://www.w3.org/2000/svg" viewBox="0 0 230.93 243.75"><defs><style>.cls-1{opacity:0.95;}.cls-2,.cls-3,.cls-5,.cls-6{fill:none;stroke:#000;stroke-width:8.5px;}.cls-2,.cls-3{stroke-linecap:round;}.cls-3,.cls-5,.cls-6{stroke-linejoin:round;}.cls-4{opacity:0.39;}.cls-6{stroke-linecap:square;}</style></defs><title>structure</title><g class="cls-1"><g id="g4864"><g id="g4308"><g id="g4397"><path id="path4171" class="cls-2" d="M210.88,187l20.28-32" transform="translate(-133.98 -56.79)"/><path id="path4171-2" class="cls-3" d="M286.72,186.89l-20.46-32.28" transform="translate(-133.98 -56.79)"/><path id="path4888" class="cls-2" d="M210,221l22.41,37" transform="translate(-133.98 -56.79)"/><g id="path4886-2"><ellipse class="cls-4" cx="22.9" cy="220.82" rx="18.65" ry="18.68"/><ellipse class="cls-3" cx="22.9" cy="220.82" rx="18.65" ry="18.68"/></g><g id="path4886-2-1"><ellipse class="cls-4" cx="107.5" cy="220.82" rx="18.65" ry="18.68"/><ellipse class="cls-3" cx="107.5" cy="220.82" rx="18.65" ry="18.68"/></g><g id="path4886-2-1-0"><ellipse class="cls-4" cx="208.03" cy="220.82" rx="18.65" ry="18.68"/><ellipse class="cls-3" cx="208.03" cy="220.82" rx="18.65" ry="18.68"/></g><ellipse id="path4941" class="cls-3" cx="66.11" cy="148.16" rx="18.8" ry="18.83"/><ellipse id="path4941-0" class="cls-3" cx="163.12" cy="148.16" rx="18.8" ry="18.83"/><path id="path4354" class="cls-5" d="M334.89,262l-27.31-43.1" transform="translate(-133.98 -56.79)"/><path id="path4356" class="cls-2" d="M164.52,259.17l24.09-38" transform="translate(-133.98 -56.79)"/><path id="path4742" class="cls-6" d="M214.66,152.79H287.1" transform="translate(-133.98 -56.79)"/></g></g></g></g><g id="g4883"><path id="path4885" d="M308.39,86.83l-58.78-30h-.32l-58.79,30,4.19,5.71H304.2Z" transform="translate(-133.98 -56.79)"/><path id="path4887" d="M195.53,124.7a5.55,5.55,0,0,0-5.16,4.64H308.53a5.55,5.55,0,0,0-5.16-4.64Z" transform="translate(-133.98 -56.79)"/><path id="rect4889" d="M203.14,128.28H314v12.93H185V128.28Z" transform="translate(-133.98 -56.79)"/><path id="rect4891" d="M235.18,87.31H241V127.1H229.41V87.31Z" transform="translate(-133.98 -56.79)"/><path id="rect4893" d="M209.33,87.31h5.77V127.1H203.56V87.31Z" transform="translate(-133.98 -56.79)"/><path id="rect4895" d="M261,87.31h5.77V127.1H255.25V87.31Z" transform="translate(-133.98 -56.79)"/><path id="rect4897" d="M286.88,87.31h5.77V127.1H281.1V87.31Z" transform="translate(-133.98 -56.79)"/></g><g id="g4963"><path id="path4965" d="M308.39,86.83l-58.78-30h-.32l-58.79,30,4.19,5.71H304.2Z" transform="translate(-133.98 -56.79)"/><path id="path4967" d="M195.53,124.7a5.55,5.55,0,0,0-5.16,4.64H308.53a5.55,5.55,0,0,0-5.16-4.64Z" transform="translate(-133.98 -56.79)"/><path id="rect4969" d="M203.14,128.28H314v12.93H185V128.28Z" transform="translate(-133.98 -56.79)"/><path id="rect4971" d="M235.18,87.31H241V127.1H229.41V87.31Z" transform="translate(-133.98 -56.79)"/><path id="rect4973" d="M209.33,87.31h5.77V127.1H203.56V87.31Z" transform="translate(-133.98 -56.79)"/><path id="rect4975" d="M261,87.31h5.77V127.1H255.25V87.31Z" transform="translate(-133.98 -56.79)"/><path id="rect4977" d="M286.88,87.31h5.77V127.1H281.1V87.31Z" transform="translate(-133.98 -56.79)"/></g></svg>