<?xml version="1.0" encoding="utf-8"?>
<!-- Generator: Adobe Illustrator 22.1.0, SVG Export Plug-In . SVG Version: 6.00 Build 0)  -->
<svg version="1.1" id="Layer_1" xmlns="http://www.w3.org/2000/svg" xmlns:xlink="http://www.w3.org/1999/xlink" x="0px" y="0px"
	 viewBox="0 0 819 76" style="enable-background:new 0 0 819 76;" xml:space="preserve">
<style type="text/css">
	.st0{fill:#FFFFFF;}
	.st1{fill:#FF1606;}
</style>
<title>goc--header-logo</title>
<rect x="36.8" class="st0" width="81.7" height="75"/>
<rect class="st1" width="36.8" height="75"/>
<rect x="118.5" class="st1" width="36.8" height="75"/>
<path class="st1" d="M72.6,15.6l5.3-10.7l5.2,10.3c0.7,1.1,1.2,1,2.2,0.5l4.5-2.2l-2.9,14.4c-0.6,2.8,1,3.7,2.8,1.7l6.4-6.8l1.7,3.9
	c0.6,1.2,1.4,1,2.6,0.8l6.6-1.4l-2.2,8.4v0.2c-0.3,1.1-0.8,2,0.4,2.5l2.3,1.2L93.8,49.8c-1.4,1.4-0.9,1.9-0.4,3.5l1.3,3.9l-12.7-2.3
	c-1.6-0.4-2.7-0.4-2.7,0.9l0.5,14.6h-3.8l0.5-14.5c0-1.4-1.1-1.4-3.7-0.9L61,57.2l1.5-3.9c0.5-1.5,0.7-2.5-0.5-3.5L48.1,38.4
	l2.6-1.6c0.7-0.6,0.8-1.2,0.4-2.4L48.5,26l6.7,1.4c1.9,0.4,2.4,0,2.9-1l1.9-3.8l6.6,7.4c1.2,1.4,2.8,0.5,2.3-1.5l-3.2-15.6l4.9,2.8
	c0.8,0.5,1.6,0.6,2.1-0.3"/>
<path class="st0" d="M247.4,31.7h-3.5l-0.8-3.6c-2.9,3.3-5.5,4.4-9.3,4.4c-9.2,0-14.8-7.4-14.8-16.2s5.5-16.2,14.8-16.2
	c6.8,0,12.4,3.6,13.2,10.5h-5.3c-0.5-4.1-4.1-6.1-8-6.1c-6.6,0-9.4,5.8-9.4,11.8s2.8,11.8,9.4,11.8c5.5,0.1,8.6-3.2,8.6-8.5h-8.2
	v-4.1h13.2V31.7z"/>
<path class="st0" d="M262.8,28.4c-4.4,0-6.4-4-6.4-7.9s2-7.9,6.4-7.9s6.4,4,6.4,7.9S267.2,28.4,262.8,28.4z M262.8,32.3
	c7.2,0,11.3-4.9,11.3-11.8S270,8.8,262.8,8.8s-11.3,4.9-11.3,11.8S255.6,32.3,262.8,32.3L262.8,32.3z"/>
<path class="st0" d="M276,9.4h5.4l5.6,17.2h0.1l5.5-17.2h5.1l-8,22.4h-5.5L276,9.4z"/>
<path class="st0" d="M304.5,18.6c0-3.2,2.5-5.9,5.8-5.9c0,0,0.1,0,0.1,0c3.3,0,5.5,2.8,5.6,5.9H304.5z M320.9,21.8
	c0.8-6.7-3.5-13.1-10.5-13.1c-6.7,0-10.8,5.4-10.8,11.8c0,6.9,3.9,11.8,10.9,11.8c4.9,0,9-2.7,10.1-7.6H316
	c-0.9,2.5-2.6,3.7-5.5,3.7c-4.1,0-6-3.1-6-6.6L320.9,21.8z"/>
<path class="st0" d="M324.7,9.4h4.6v4.3h0.1c0.9-2.8,3.5-4.8,6.5-4.9c0.6,0,1.2,0,1.9,0.1v4.8c-0.7-0.1-1.4-0.2-2.1-0.2
	c-3.4,0-6,2.7-6,7.6v10.6h-4.9V9.4z"/>
<path class="st0" d="M339.9,9.4h4.7v3.3l0.1,0.1c1.4-2.5,4.1-4,7-4c4.8,0,7.9,2.6,7.9,7.6v15.4h-4.9v-14c-0.1-3.5-1.5-5-4.4-5
	c-3.3,0-5.4,2.6-5.4,5.9v13.2H340L339.9,9.4L339.9,9.4z"/>
<path class="st0" d="M364.7,9.4h4.7v3.1h0.1c1.4-2.4,4.1-3.9,6.9-3.7c2.7,0,5.3,1.2,6.3,3.7c1.5-2.4,4.2-3.8,7-3.7
	c4.7,0,7.5,2.1,7.5,7.5v15.4h-4.9V18.6c0-3.6-0.2-6-4.1-6c-3.3,0-4.8,2.2-4.8,6v13.1h-4.9V17.4c0-3.1-1-4.7-3.9-4.7
	c-2.5,0-4.9,2.1-4.9,5.8v13.3h-4.9L364.7,9.4L364.7,9.4z"/>
<path class="st0" d="M406.2,18.6c0-3.2,2.5-5.9,5.8-5.9c0,0,0.1,0,0.1,0c3.3,0,5.5,2.8,5.6,5.9H406.2z M422.6,21.8
	c0.8-6.7-3.5-13.1-10.5-13.1c-6.7,0-10.8,5.4-10.8,11.8c0,6.9,3.9,11.8,10.9,11.8c4.9,0,9-2.7,10.1-7.6h-4.7
	c-0.9,2.5-2.6,3.7-5.5,3.7c-4.1,0-6-3.1-6-6.6L422.6,21.8z"/>
<path class="st0" d="M426.4,9.4h4.7v3.3l0.1,0.1c1.4-2.5,4.1-4,7-4c4.8,0,7.9,2.6,7.9,7.6v15.4h-5v-14c-0.1-3.5-1.5-5-4.4-5
	c-3.3,0-5.4,2.6-5.4,5.9v13.2h-4.9V9.4z"/>
<path class="st0" d="M449,9.4h3.7V2.7h4.9v6.7h4.5V13h-4.5V25c0,2,0.2,3.1,2.4,3.1c0.7,0,1.4,0,2.1-0.2v3.8
	c-1.1,0.1-2.1,0.3-3.2,0.3c-5.1,0-6.1-2-6.2-5.7V13H449V9.4z"/>
<path class="st0" d="M230,71.7c-4.4,0-6.4-4-6.4-7.9s2-7.9,6.4-7.9s6.4,4,6.4,7.9S234.4,71.7,230,71.7z M230,75.6
	c7.2,0,11.3-4.9,11.3-11.8S237.2,52,230,52s-11.3,4.9-11.3,11.8S222.8,75.6,230,75.6z"/>
<path class="st0" d="M243.2,52.6h3.7v-1.9c0-5.7,3-6.7,6.2-6.7c1.2,0,2.3,0.1,3.5,0.3v3.8c-0.7-0.2-1.5-0.3-2.3-0.3
	c-1.3,0-2.4,0.5-2.4,2.3v2.3h4.2v3.7h-4.2V75h-4.9V56.3h-3.7V52.6z"/>
<path class="st0" d="M292.6,53.9c-0.9-3.5-3.2-6.1-7.7-6.1c-6.6,0-9.4,5.8-9.4,11.8s2.8,11.8,9.4,11.8c4.8,0,7.4-3.6,7.9-8.1h5.3
	c-0.4,7.4-5.7,12.5-13.1,12.5c-9.2,0-14.8-7.3-14.8-16.2s5.5-16.2,14.8-16.2c7,0,12.5,3.9,13.1,10.5H292.6L292.6,53.9z"/>
<path class="st0" d="M316.1,67.4c0,3.1-3.4,4.2-5.5,4.2c-1.7,0-4.5-0.7-4.5-2.8c0-2.6,1.9-3.4,4-3.7s4.5-0.3,6-1.3L316.1,67.4z
	 M321,58.4c0-4.7-4.6-6.5-9-6.5c-4.9,0-9.8,1.7-10.2,7.4h4.9c0.2-2.4,2.2-3.5,5-3.5c2,0,4.6,0.5,4.6,3c0,2.9-3.2,2.5-6.7,3.2
	c-4.1,0.5-8.6,1.4-8.6,7c0,4.4,3.6,6.5,7.6,6.5c2.8,0.1,5.6-0.9,7.7-2.7c0.4,2,1.8,2.7,3.8,2.7c1.1-0.1,2.1-0.2,3.1-0.6v-3.4
	c-0.4,0.1-0.8,0.1-1.2,0.1c-0.9,0-1.2-0.5-1.2-1.7L321,58.4z"/>
<path class="st0" d="M326.3,52.6h4.7v3.3l0.1,0.1c1.4-2.5,4.1-4,7-4c4.8,0,7.9,2.6,7.9,7.6V75h-5V60.9c-0.1-3.5-1.5-5-4.4-5
	c-3.3,0-5.4,2.6-5.4,5.9V75h-4.9V52.6z"/>
<path class="st0" d="M364.9,67.4c0,3.1-3.4,4.2-5.5,4.2c-1.7,0-4.5-0.7-4.5-2.8c0-2.6,1.9-3.4,4-3.7s4.5-0.3,6-1.3L364.9,67.4z
	 M369.8,58.4c0-4.7-4.6-6.5-9-6.5c-4.9,0-9.8,1.7-10.2,7.4h4.9c0.2-2.4,2.2-3.5,4.9-3.5c2,0,4.6,0.5,4.6,3c0,2.9-3.2,2.5-6.7,3.2
	c-4.1,0.5-8.6,1.4-8.6,7c0,4.4,3.6,6.5,7.6,6.5c2.8,0.1,5.6-0.9,7.7-2.7c0.4,2,1.8,2.7,3.8,2.7c1.1-0.1,2.1-0.2,3.1-0.6v-3.4
	c-0.4,0.1-0.8,0.1-1.2,0.1c-0.9,0-1.2-0.5-1.2-1.7L369.8,58.4z"/>
<path class="st0" d="M379,64c0-4,1.6-8.1,6.3-8.1c3.8,0,6.2,2.9,6.2,7.9c0,3.9-1.9,7.9-6.3,7.9S379,67.9,379,64z M396.2,44.1h-4.9
	v11.4h-0.1c-1.5-2.5-4.6-3.5-7.4-3.5c-4.9,0-9.7,3.5-9.7,11.6c0,6.7,3.4,11.9,10.5,11.9c2.8,0,5.6-1.1,6.9-3.6h0.1v3h4.7L396.2,44.1
	L396.2,44.1z"/>
<path class="st0" d="M415.4,67.4c0,3.1-3.4,4.2-5.5,4.2c-1.7,0-4.5-0.7-4.5-2.8c0-2.6,1.9-3.4,4-3.7s4.5-0.3,6-1.3L415.4,67.4z
	 M420.3,58.4c0-4.7-4.6-6.5-9-6.5c-4.9,0-9.8,1.7-10.2,7.4h4.9c0.2-2.4,2.2-3.5,4.9-3.5c2,0,4.6,0.5,4.6,3c0,2.9-3.2,2.5-6.7,3.2
	c-4.1,0.5-8.6,1.4-8.6,7c0,4.4,3.6,6.5,7.6,6.5c2.8,0.1,5.6-0.9,7.7-2.7c0.4,2,1.8,2.7,3.8,2.7c1.1-0.1,2.1-0.2,3.1-0.6v-3.4
	c-0.4,0.1-0.8,0.1-1.2,0.1c-0.9,0-1.2-0.5-1.2-1.7L420.3,58.4z"/>
<path class="st0" d="M555.5,32H552l-0.8-3.6c-2.9,3.3-5.5,4.4-9.3,4.4c-9.2,0-14.8-7.4-14.8-16.2s5.5-16.2,14.8-16.2
	c6.8,0,12.4,3.6,13.2,10.6h-5.3c-0.5-4.1-4.1-6.1-8-6.1c-6.6,0-9.4,5.8-9.4,11.8s2.8,11.8,9.4,11.8c5.5,0.1,8.6-3.2,8.7-8.5h-8.2
	v-4.2h13.1L555.5,32L555.5,32z"/>
<path class="st0" d="M570.9,28.7c-4.4,0-6.4-4-6.4-7.9s2-7.9,6.4-7.9s6.4,4,6.4,7.9S575.3,28.7,570.9,28.7z M570.9,32.6
	c7.2,0,11.3-4.9,11.3-11.8S578.1,9,570.9,9s-11.3,5-11.3,11.8S563.7,32.6,570.9,32.6z"/>
<path class="st0" d="M605.9,32h-4.8v-3.1H601c-1.3,2.3-3.7,3.7-6.4,3.7c-5.8,0-8.3-2.9-8.3-8.8V9.6h4.9v13.7c0,3.9,1.6,5.4,4.3,5.4
	c4.1,0,5.5-2.6,5.5-6.1v-13h4.9V32z"/>
<path class="st0" d="M608.9,9.6h5.4l5.7,17.2h0.1l5.5-17.2h5.1l-8,22.4H617L608.9,9.6z"/>
<path class="st0" d="M637.4,18.8c0-3.2,2.5-5.9,5.8-5.9c0,0,0.1,0,0.1,0c3.3,0,5.5,2.8,5.6,5.9H637.4z M653.8,22.1
	c0.8-6.7-3.5-13.1-10.5-13.1c-6.7,0-10.8,5.4-10.8,11.8c0,6.9,3.9,11.8,10.9,11.8c4.9,0,9-2.7,10.1-7.6h-4.7
	c-0.9,2.5-2.6,3.7-5.5,3.7c-4.1,0-6-3.1-6-6.6L653.8,22.1z"/>
<path class="st0" d="M657.6,9.6h4.6V14h0.1c0.9-2.9,3.5-4.9,6.5-5c0.6,0,1.2,0,1.9,0.1v4.8c-0.7-0.1-1.4-0.2-2.1-0.2
	c-3.4,0-6,2.7-6,7.6V32h-4.9V9.6z"/>
<path class="st0" d="M672.8,9.6h4.7v3.3l0.1,0.1c1.4-2.5,4.1-4,7-4c4.8,0,7.9,2.6,7.9,7.6V32h-4.9V18c-0.1-3.5-1.5-5-4.4-5
	c-3.3,0-5.4,2.6-5.4,5.9V32h-4.9L672.8,9.6z"/>
<path class="st0" d="M701.5,18.8c0-3.2,2.5-5.9,5.8-5.9c0,0,0.1,0,0.1,0c3.3,0,5.5,2.8,5.6,5.9H701.5z M717.9,22.1
	c0.8-6.7-3.5-13.1-10.5-13.1c-6.7,0-10.8,5.4-10.8,11.8c0,6.9,3.9,11.8,10.9,11.8c4.9,0,9-2.7,10.1-7.6h-4.7
	c-0.9,2.5-2.6,3.7-5.5,3.7c-4.1,0-6-3.1-6-6.6L717.9,22.1z"/>
<path class="st0" d="M721.7,9.6h4.7v3.1h0.1c1.4-2.4,4.1-3.9,6.9-3.8c2.7,0,5.3,1.2,6.3,3.7c1.5-2.4,4.2-3.8,7-3.7
	c4.7,0,7.5,2.1,7.5,7.5V32h-4.9V19c0-3.6-0.2-6-4.1-6c-3.3,0-4.8,2.2-4.8,6v13h-4.9V17.6c0-3.1-1-4.7-3.9-4.7
	c-2.5,0-4.9,2.1-4.9,5.8V32h-4.9L721.7,9.6L721.7,9.6z"/>
<path class="st0" d="M763.1,18.8c0-3.2,2.5-5.9,5.8-5.9c0,0,0.1,0,0.1,0c3.3,0,5.5,2.8,5.6,5.9H763.1z M779.6,22.1
	C780.4,15.4,776.1,9,769,9c-6.7,0-10.8,5.4-10.8,11.8c0,6.9,3.9,11.8,10.9,11.8c4.9,0,9-2.7,10.1-7.6h-4.7c-0.9,2.5-2.6,3.7-5.5,3.7
	c-4.1,0-6-3.1-6-6.6L779.6,22.1z"/>
<path class="st0" d="M783.3,9.6h4.7v3.3l0.1,0.1c1.4-2.5,4.1-4,7-4c4.8,0,7.9,2.6,7.9,7.6V32h-5V18c-0.1-3.5-1.5-5-4.4-5
	c-3.3,0-5.4,2.6-5.4,5.9V32h-4.9L783.3,9.6z"/>
<path class="st0" d="M805.9,9.6h3.7V3h4.9v6.7h4.5v3.7h-4.5v11.9c0,2,0.2,3.1,2.4,3.1c0.7,0,1.4,0,2.1-0.2V32
	c-1.1,0.1-2.1,0.3-3.2,0.3c-5.1,0-6.1-2-6.2-5.7V13.3h-3.7L805.9,9.6L805.9,9.6z"/>
<path class="st0" d="M531.7,64.3c0-4,1.6-8.1,6.3-8.1c3.8,0,6.2,2.9,6.2,7.9c0,3.9-1.9,7.9-6.3,7.9S531.7,68.1,531.7,64.3z
	 M548.9,44.3H544v11.4h-0.1c-1.5-2.5-4.6-3.5-7.4-3.5c-4.9,0-9.7,3.5-9.7,11.6c0,6.7,3.4,11.9,10.5,11.9c2.8,0,5.6-1.1,6.9-3.6h0.1
	v3h4.7L548.9,44.3L548.9,44.3z"/>
<path class="st0" d="M573.9,75.2H569v-3.1l0,0c-1.3,2.3-3.7,3.7-6.4,3.7c-5.8,0-8.3-2.9-8.3-8.8V52.9h4.9v13.7
	c0,3.9,1.6,5.4,4.3,5.4c4.1,0,5.5-2.6,5.5-6.1v-13h4.9L573.9,75.2L573.9,75.2z"/>
<path class="st0" d="M612.6,54.2c-0.9-3.5-3.2-6.1-7.7-6.1c-6.6,0-9.4,5.8-9.4,11.8s2.8,11.8,9.4,11.8c4.8,0,7.4-3.6,7.9-8.1h5.3
	c-0.4,7.4-5.7,12.5-13.1,12.5c-9.2,0-14.8-7.3-14.8-16.2s5.5-16.2,14.8-16.2c7,0,12.5,3.9,13.1,10.5L612.6,54.2L612.6,54.2z"/>
<path class="st0" d="M636.1,67.7c0,3.1-3.4,4.2-5.5,4.2c-1.7,0-4.5-0.7-4.5-2.8c0-2.6,1.9-3.4,4-3.7s4.5-0.3,6-1.3L636.1,67.7
	L636.1,67.7z M641,58.7c0-4.7-4.6-6.5-9-6.5c-4.9,0-9.8,1.7-10.2,7.4h4.9c0.2-2.4,2.2-3.5,4.9-3.5c2,0,4.6,0.5,4.6,3
	c0,2.9-3.2,2.5-6.7,3.2c-4.2,0.5-8.6,1.4-8.6,7c0,4.4,3.6,6.5,7.7,6.5c2.8,0.1,5.6-0.9,7.7-2.7c0.4,2,1.8,2.7,3.8,2.7
	c1.1-0.1,2.1-0.2,3.1-0.6v-3.4c-0.4,0.1-0.8,0.1-1.2,0.1c-0.9,0-1.2-0.5-1.2-1.7L641,58.7L641,58.7z"/>
<path class="st0" d="M646.3,52.9h4.7v3.3l0.1,0.1c1.4-2.5,4.1-4,7-4c4.8,0,7.9,2.6,7.9,7.6v15.4h-4.9V61.2c-0.1-3.5-1.5-5-4.4-5
	c-3.3,0-5.4,2.6-5.4,5.9v13.2h-4.9L646.3,52.9z"/>
<path class="st0" d="M685,67.7c0,3.1-3.4,4.2-5.5,4.2c-1.7,0-4.5-0.7-4.5-2.8c0-2.6,1.9-3.4,4-3.7s4.5-0.4,6.1-1.4V67.7L685,67.7z
	 M689.9,58.7c0-4.7-4.6-6.5-9-6.5c-4.9,0-9.8,1.7-10.2,7.4h4.9c0.2-2.4,2.2-3.5,4.9-3.5c2,0,4.6,0.5,4.6,3c0,2.9-3.2,2.5-6.7,3.2
	c-4.2,0.5-8.6,1.4-8.6,7c0,4.4,3.6,6.5,7.7,6.5c2.8,0.1,5.6-0.9,7.7-2.7c0.4,2,1.8,2.7,3.8,2.7c1.1-0.1,2.1-0.2,3.1-0.6v-3.4
	c-0.4,0.1-0.8,0.1-1.2,0.1c-0.9,0-1.2-0.5-1.2-1.7L689.9,58.7L689.9,58.7z"/>
<path class="st0" d="M699.1,64.3c0-4,1.6-8.1,6.3-8.1c3.8,0,6.2,2.9,6.2,7.9c0,3.9-1.9,7.9-6.3,7.9S699.1,68.1,699.1,64.3z
	 M716.3,44.4h-4.9v11.4h-0.1c-1.5-2.5-4.6-3.5-7.4-3.5c-4.9,0-9.7,3.5-9.7,11.6c0,6.7,3.4,11.9,10.5,11.9c2.8,0,5.6-1.1,6.9-3.6h0.1
	v3h4.7L716.3,44.4L716.3,44.4z"/>
<path class="st0" d="M735.4,67.7c0,3.1-3.4,4.2-5.5,4.2c-1.7,0-4.5-0.7-4.5-2.8c0-2.6,1.9-3.4,4-3.7s4.5-0.3,6-1.3L735.4,67.7
	L735.4,67.7z M740.3,58.7c0-4.7-4.6-6.5-9-6.5c-4.9,0-9.8,1.7-10.2,7.4h4.9c0.2-2.4,2.2-3.5,4.9-3.5c2,0,4.6,0.5,4.6,3
	c0,2.9-3.2,2.5-6.7,3.2c-4.2,0.5-8.6,1.4-8.6,7c0,4.4,3.6,6.5,7.7,6.5c2.8,0.1,5.6-0.9,7.7-2.7c0.4,2,1.8,2.7,3.8,2.7
	c1.1-0.1,2.1-0.2,3.1-0.6v-3.4c-0.4,0.1-0.8,0.1-1.2,0.1c-0.9,0-1.2-0.5-1.2-1.7L740.3,58.7L740.3,58.7z"/>
</svg>
