<?xml version="1.0" encoding="utf-8"?>
<!-- Generator: Adobe Illustrator 22.1.0, SVG Export Plug-In . SVG Version: 6.00 Build 0)  -->
<svg version="1.1" id="Layer_1" xmlns="http://www.w3.org/2000/svg" xmlns:xlink="http://www.w3.org/1999/xlink" x="0px" y="0px"
	 viewBox="0 0 400.9 37.9" style="enable-background:new 0 0 400.9 37.9;" xml:space="preserve">
<style type="text/css">
	.st0{fill:#FFFFFF;}
	.fip_flag { fill: #ff1606; }
	.fip_text { fill: #ffffff; }
</style>
<rect x="18.6" y="0.5" class="st0" width="37" height="36.8"/>
<g id="sig" transform="translate(-2,-2)">
	<path class="fip_flag" d="M76.2,39.3H57.6V2.5h18.6V39.3C76.2,39.3,76.2,39.3,76.2,39.3z M39.2,5.3c0,0-2.3,4.5-2.6,4.9c-0.4,0.6-0.6,0.6-1.1,0.4
		C34.9,10.2,33,9.3,33,9.3s1.7,7.3,1.7,7.9c0.2,0.6-0.4,1.1-1.1,0.6c-0.2-0.2-3.4-3.8-3.4-3.8s-0.8,1.7-0.9,2.1
		c-0.2,0.4-0.4,0.6-0.8,0.4c-0.6-0.2-3.6-0.8-3.6-0.8s1.1,3.6,1.3,4.1c0.2,0.4,0.4,0.8-0.4,1.1l-1.1,0.4c0,0,6.2,5.4,6.4,5.6
		c0.4,0.4,0.6,0.4,0.4,1.3c-0.4,0.9-0.6,2.1-0.6,2.1s5.8-1.3,6.4-1.3c0.6,0,1.1,0.2,1.1,0.8c0,0.6-0.4,6.9-0.4,6.9h1.9
		c0,0-0.4-6.2-0.4-6.9c0-0.6,0.6-0.8,1.1-0.8c0.6,0.2,6.4,1.3,6.4,1.3s-0.4-1.3-0.6-2.1c-0.4-0.9,0-1.1,0.4-1.3
		c0.2-0.2,6.4-5.6,6.4-5.6l-1.1-0.4c-0.6-0.4-0.4-0.8-0.4-1.1c0.2-0.4,1.3-4.1,1.3-4.1s-3,0.6-3.6,0.8c-0.4,0.2-0.6-0.2-0.8-0.4
		c-0.2-0.4-0.9-2.1-0.9-2.1s-3.2,3.8-3.4,3.8c-0.6,0.4-1.3,0-1.1-0.6c0-0.6,1.7-7.9,1.7-7.9s-1.9,1.1-2.4,1.3
		c-0.4,0.4-0.8,0.4-1.1-0.4C41.4,9.6,39.2,5.3,39.2,5.3L39.2,5.3z M20.6,39.3V2.5H2v36.8L20.6,39.3C20.6,39.3,20.6,39.3,20.6,39.3z"
		/>
	<path class="fip_text" d="M122.2,17.5h-1.7l-0.4-1.7c-1.5,1.7-2.6,2.1-4.5,2.1c-4.5,0-7.1-3.6-7.1-7.9c-0.2-4.3,2.4-7.9,6.9-7.9c3.4,0,6,1.7,6.4,5.1
		h-2.6c-0.2-2.1-2.1-3-3.9-3c-3.2,0-4.5,2.8-4.5,5.8c0,2.8,1.3,5.8,4.5,5.8c2.6,0,4.1-1.5,4.3-4.1h-3.9V9.6h6.6V17.5z M124.3,12.1
		c0-3.4,2.1-5.8,5.4-5.8c3.4,0,5.4,2.4,5.4,5.8s-2.1,5.8-5.4,5.8C126.3,17.9,124.3,15.5,124.3,12.1z M132.7,12.1
		c0-1.9-0.9-3.8-3.2-3.8c-2.3,0-3.2,1.9-3.2,3.8s0.9,3.9,3.2,3.9C131.8,16,132.7,14,132.7,12.1z M136.1,6.6h2.6l2.8,8.5l0,0l2.6-8.5
		h2.4l-3.8,10.9h-2.6C140.2,17.5,136.1,6.6,136.1,6.6z M150,12.6c0,1.7,0.9,3.2,3,3.2c1.3,0,2.3-0.6,2.6-1.9h2.3
		c-0.6,2.4-2.6,3.8-4.9,3.8c-3.4,0-5.3-2.4-5.3-5.8c0-3.2,2.1-5.8,5.3-5.8c3.4,0,5.6,3.2,5.1,6.4H150L150,12.6L150,12.6z
		 M155.6,11.1c0-1.5-1.1-2.8-2.8-2.8c-1.7,0-2.8,1.3-2.8,2.8C150,11.1,155.6,11.1,155.6,11.1z M159.9,6.6h2.3v2.1l0,0
		c0.2-1.1,1.7-2.4,3.2-2.4c0.6,0,0.8,0,0.9,0v2.3c-0.4,0-0.8-0.2-1.1-0.2c-1.7,0-3,1.3-3,3.8v5.3h-2.4V6.6L159.9,6.6L159.9,6.6z
		 M167.8,6.6h2.3v1.7l0,0c0.8-1.1,1.9-1.9,3.4-1.9c2.4,0,3.9,1.3,3.9,3.8v7.5H175v-6.9c0-1.7-0.8-2.4-2.1-2.4
		c-1.7,0-2.6,1.3-2.6,2.8v6.4h-2.4C167.8,17.5,167.8,6.6,167.8,6.6z M179.8,6.6h2.3v1.5l0,0c0.8-1.1,1.7-1.9,3.4-1.9
		c1.3,0,2.6,0.6,3,1.9c0.8-1.1,1.9-1.9,3.4-1.9c2.3,0,3.6,0.9,3.6,3.8v7.5H193v-6.4c0-1.7-0.2-3-2.1-3c-1.7,0-2.3,1.1-2.3,3v6.4
		h-2.4v-6.9c0-1.5-0.4-2.3-1.9-2.3c-1.3,0-2.4,0.9-2.4,2.8v6.6h-2.4V6.6L179.8,6.6L179.8,6.6z M200.1,12.6c0,1.7,0.9,3.2,3,3.2
		c1.3,0,2.3-0.6,2.6-1.9h2.3c-0.6,2.4-2.6,3.8-4.9,3.8c-3.4,0-5.3-2.4-5.3-5.8c0-3.2,2.1-5.8,5.3-5.8c3.4,0,5.6,3.2,5.1,6.4h-8.1
		L200.1,12.6L200.1,12.6z M205.8,11.1c0-1.5-1.1-2.8-2.8-2.8c-1.7,0-2.8,1.3-2.8,2.8H205.8z M210.1,6.6h2.3v1.7l0,0
		c0.8-1.1,1.9-1.9,3.4-1.9c2.4,0,3.9,1.3,3.9,3.8v7.5h-2.4v-6.9c0-1.7-0.8-2.4-2.1-2.4c-1.7,0-2.6,1.3-2.6,2.8v6.4h-2.4L210.1,6.6
		L210.1,6.6z M221.2,6.6h1.9V3.4h2.4v3.2h2.3v1.9h-2.3v5.8c0,0.9,0,1.5,1.1,1.5c0.4,0,0.8,0,0.9,0v1.9c-0.6,0-1.1,0.2-1.5,0.2
		c-2.4,0-3-0.9-3-2.8V8.5h-1.9L221.2,6.6L221.2,6.6z M108.1,33.9c0-3.4,2.1-5.8,5.4-5.8c3.6,0,5.4,2.4,5.4,5.8
		c0,3.4-2.1,5.8-5.4,5.8C110.2,39.7,108.1,37.2,108.1,33.9z M116.7,33.9c0-1.9-0.9-3.8-3.2-3.8c-2.1,0-3.2,1.9-3.2,3.8
		s0.9,3.9,3.2,3.9C115.8,37.8,116.7,35.7,116.7,33.9z M120.1,28.4h1.9v-0.9c0-2.8,1.5-3.2,3-3.2c0.8,0,1.3,0,1.7,0.2v1.9
		c-0.4,0-0.6-0.2-1.1-0.2c-0.6,0-1.1,0.2-1.1,1.1v1.1h2.1v1.9h-2.1v9.2H122v-9.2h-1.9V28.4z M144.2,29c-0.4-1.7-1.5-3-3.8-3
		c-3.2,0-4.5,2.8-4.5,5.8c0,2.8,1.3,5.8,4.5,5.8c2.3,0,3.6-1.7,3.8-3.9h2.6c-0.2,3.6-2.6,6-6.4,6c-4.5,0-7.1-3.6-7.1-7.9
		s2.6-7.9,7.1-7.9c3.4,0,6,1.9,6.4,5.1H144.2L144.2,29z M158.1,36.9c0,0.6,0.2,0.8,0.6,0.8c0.2,0,0.4,0,0.6,0v1.7
		c-0.4,0.2-1.1,0.2-1.5,0.2c-0.9,0-1.7-0.4-1.9-1.3c-0.9,0.9-2.4,1.3-3.8,1.3c-1.9,0-3.8-1.1-3.8-3.2c0-2.8,2.3-3.2,4.1-3.4
		c1.7-0.4,3.2-0.2,3.2-1.5s-1.3-1.5-2.3-1.5c-1.3,0-2.3,0.6-2.4,1.7h-2.4c0.2-2.8,2.6-3.6,4.9-3.6c2.1,0,4.3,0.9,4.3,3.2v5.6
		L158.1,36.9L158.1,36.9z M155.8,33.9c-0.8,0.6-1.9,0.4-3,0.6s-1.9,0.6-1.9,1.9c0,1.1,1.3,1.3,2.3,1.3c1.1,0,2.6-0.6,2.6-2.1V33.9z
		 M160.7,28.4h2.3v1.7l0,0c0.8-1.1,1.9-1.9,3.4-1.9c2.4,0,3.9,1.3,3.9,3.8v7.5h-2.4v-6.9c0-1.7-0.8-2.4-2.1-2.4
		c-1.7,0-2.6,1.3-2.6,2.8v6.4h-2.4V28.4z M181.7,36.9c0,0.6,0.2,0.8,0.6,0.8c0.2,0,0.4,0,0.6,0v1.7c-0.4,0.2-1.1,0.2-1.5,0.2
		c-0.9,0-1.7-0.4-1.9-1.3c-0.9,0.9-2.4,1.3-3.8,1.3c-1.9,0-3.8-1.1-3.8-3.2c0-2.8,2.3-3.2,4.1-3.4c1.7-0.4,3.2-0.2,3.2-1.5
		s-1.3-1.5-2.3-1.5c-1.3,0-2.3,0.6-2.4,1.7h-2.4c0.2-2.8,2.6-3.6,4.9-3.6c2.1,0,4.3,0.9,4.3,3.2v5.6L181.7,36.9L181.7,36.9z
		 M179.3,33.9c-0.8,0.6-1.9,0.4-3,0.6c-1.1,0.2-1.9,0.6-1.9,1.9c0,1.1,1.3,1.3,2.3,1.3c1.1,0,2.6-0.6,2.6-2.1V33.9z M194.5,39.3
		h-2.3v-1.5l0,0c-0.6,1.3-2.1,1.7-3.4,1.7c-3.4,0-5.1-2.6-5.1-5.8c0-3.9,2.4-5.6,4.7-5.6c1.3,0,2.8,0.6,3.6,1.7l0,0v-5.6h2.4
		L194.5,39.3L194.5,39.3z M189.2,37.8c2.1,0,3-1.9,3-3.9c0-2.4-1.1-3.8-3-3.8c-2.3,0-3,2.1-3,3.9C186.2,35.9,187.2,37.8,189.2,37.8z
		 M206.3,36.9c0,0.6,0.2,0.8,0.6,0.8c0.2,0,0.4,0,0.6,0v1.7c-0.4,0.2-1.1,0.2-1.5,0.2c-0.9,0-1.7-0.4-1.9-1.3
		c-0.9,0.9-2.4,1.3-3.8,1.3c-1.9,0-3.8-1.1-3.8-3.2c0-2.8,2.3-3.2,4.1-3.4c1.7-0.4,3.2-0.2,3.2-1.5s-1.3-1.5-2.3-1.5
		c-1.3,0-2.3,0.6-2.4,1.7h-2.4c0.2-2.8,2.6-3.6,4.9-3.6c2.1,0,4.3,0.9,4.3,3.2v5.6L206.3,36.9L206.3,36.9z M203.9,33.9
		c-0.8,0.6-1.9,0.4-3,0.6c-1.1,0.2-1.9,0.6-1.9,1.9c0,1.1,1.3,1.3,2.3,1.3c1.1,0,2.6-0.6,2.6-2.1V33.9z M274.1,17.5h-1.7l-0.4-1.7
		c-1.5,1.7-2.6,2.1-4.5,2.1c-4.5,0-7.1-3.6-7.1-7.9s2.6-7.9,7.1-7.9c3.4,0,6,1.7,6.4,5.1h-2.6c-0.2-2.1-2.1-3-3.9-3
		c-3.2,0-4.5,2.8-4.5,5.8c0,2.8,1.3,5.8,4.5,5.8c2.6,0,4.1-1.5,4.3-4.1h-3.9V9.6h6.4V17.5z M276.4,12.1c0-3.4,2.1-5.8,5.4-5.8
		c3.4,0,5.4,2.4,5.4,5.8s-2.1,5.8-5.4,5.8C278.4,17.9,276.4,15.5,276.4,12.1z M284.8,12.1c0-1.9-0.9-3.8-3.2-3.8
		c-2.1,0-3.2,1.9-3.2,3.8s0.9,3.9,3.2,3.9S284.8,14,284.8,12.1z M298.9,17.5h-2.4V16l0,0c-0.6,1.1-1.9,1.9-3.2,1.9
		c-2.8,0-4.1-1.5-4.1-4.3V6.6h2.4v6.8c0,1.9,0.8,2.6,2.1,2.6c2.1,0,2.6-1.3,2.6-3V6.6h2.4L298.9,17.5L298.9,17.5L298.9,17.5z
		 M300.4,6.6h2.6l2.8,8.5l0,0l2.6-8.5h2.4L307,17.5h-2.6L300.4,6.6z M313.9,12.6c0,1.7,0.9,3.2,3,3.2c1.3,0,2.3-0.6,2.6-1.9h2.3
		c-0.6,2.4-2.6,3.8-4.9,3.8c-3.4,0-5.3-2.4-5.3-5.8c0-3.2,2.1-5.8,5.3-5.8c3.4,0,5.6,3.2,5.1,6.4h-8.1L313.9,12.6L313.9,12.6z
		 M319.6,11.1c0-1.5-1.1-2.8-2.8-2.8s-2.8,1.3-2.8,2.8H319.6z M323.9,6.6h2.3v2.1l0,0c0.2-1.1,1.7-2.4,3.2-2.4c0.6,0,0.8,0,0.9,0
		v2.3c-0.4,0-0.8-0.2-1.1-0.2c-1.7,0-3,1.3-3,3.8v5.3h-2.4L323.9,6.6L323.9,6.6L323.9,6.6z M331.4,6.6h2.3v1.7l0,0
		c0.8-1.1,1.9-1.9,3.4-1.9c2.4,0,3.9,1.3,3.9,3.8v7.5h-2.4v-6.9c0-1.7-0.8-2.4-2.1-2.4c-1.7,0-2.6,1.3-2.6,2.8v6.4h-2.4
		C331.4,17.5,331.4,6.6,331.4,6.6z M345.5,12.6c0,1.7,0.9,3.2,3,3.2c1.3,0,2.3-0.6,2.6-1.9h2.3c-0.6,2.4-2.6,3.8-4.9,3.8
		c-3.4,0-5.3-2.4-5.3-5.8c0-3.2,2.1-5.8,5.3-5.8c3.4,0,5.6,3.2,5.1,6.4h-8.1L345.5,12.6L345.5,12.6z M351.1,11.1
		c0-1.5-1.1-2.8-2.8-2.8c-1.7,0-2.8,1.3-2.8,2.8H351.1z M355.2,6.6h2.3v1.5l0,0c0.8-1.1,1.7-1.9,3.4-1.9c1.3,0,2.6,0.6,3,1.9
		c0.8-1.1,1.9-1.9,3.4-1.9c2.3,0,3.6,0.9,3.6,3.8v7.5h-2.4v-6.4c0-1.7-0.2-3-2.1-3c-1.7,0-2.3,1.1-2.3,3v6.4h-2.4v-6.9
		c0-1.5-0.4-2.3-1.9-2.3c-1.3,0-2.4,0.9-2.4,2.8v6.6h-2.4V6.6L355.2,6.6L355.2,6.6z M375.5,12.6c0,1.7,0.9,3.2,3,3.2
		c1.3,0,2.3-0.6,2.6-1.9h2.3c-0.6,2.4-2.6,3.8-4.9,3.8c-3.4,0-5.3-2.4-5.3-5.8c0-3.2,2.1-5.8,5.3-5.8c3.4,0,5.6,3.2,5.1,6.4h-8.1
		L375.5,12.6L375.5,12.6z M381.2,11.1c0-1.5-1.1-2.8-2.8-2.8s-2.8,1.3-2.8,2.8H381.2z M385.5,6.6h2.3v1.7l0,0
		c0.8-1.1,1.9-1.9,3.4-1.9c2.4,0,3.9,1.3,3.9,3.8v7.5h-2.4v-6.9c0-1.7-0.8-2.4-2.1-2.4c-1.7,0-2.6,1.3-2.6,2.8v6.4h-2.4
		C385.5,17.5,385.5,6.6,385.5,6.6z M396.4,6.6h1.9V3.4h2.4v3.2h2.3v1.9h-2.3v5.8c0,0.9,0,1.5,1.1,1.5c0.4,0,0.8,0,0.9,0v1.9
		c-0.6,0-1.1,0.2-1.5,0.2c-2.4,0-3-0.9-3-2.8V8.5h-1.9C396.4,8.5,396.4,6.6,396.4,6.6z M270.9,39.3h-2.3v-1.5l0,0
		c-0.6,1.3-2.1,1.7-3.4,1.7c-3.4,0-5.1-2.6-5.1-5.8c0-3.9,2.3-5.6,4.7-5.6c1.3,0,2.8,0.6,3.6,1.7l0,0v-5.6h2.4V39.3z M265.5,37.8
		c2.1,0,3-1.9,3-3.9c0-2.4-1.1-3.8-3-3.8c-2.3,0-3,2.1-3,3.9C262.5,35.9,263.4,37.8,265.5,37.8z M283.1,39.3h-2.4v-1.5l0,0
		c-0.6,1.1-1.9,1.9-3.2,1.9c-2.8,0-4.1-1.5-4.1-4.3v-6.9h2.4v6.8c0,1.9,0.8,2.6,2.1,2.6c2.1,0,2.6-1.3,2.6-3v-6.4h2.4v10.9H283.1
		L283.1,39.3z M302.1,29c-0.4-1.7-1.5-3-3.8-3c-3.2,0-4.5,2.8-4.5,5.8c0,2.8,1.3,5.8,4.5,5.8c2.4,0,3.6-1.7,3.8-3.9h2.6
		c-0.2,3.6-2.8,6.2-6.4,6.2c-4.5,0-7.1-3.6-7.1-7.9s2.6-7.9,7.1-7.9c3.4,0,6,1.9,6.4,5.1h-2.6C302.1,29.2,302.1,29,302.1,29z
		 M315.8,36.9c0,0.6,0.2,0.8,0.6,0.8c0.2,0,0.4,0,0.6,0v1.7c-0.4,0.2-1.1,0.2-1.5,0.2c-0.9,0-1.7-0.4-1.9-1.3
		c-0.9,0.9-2.4,1.3-3.8,1.3c-1.9,0-3.8-1.1-3.8-3.2c0-2.8,2.3-3.2,4.1-3.4c1.7-0.4,3.2-0.2,3.2-1.5s-1.3-1.5-2.3-1.5
		c-1.3,0-2.3,0.6-2.4,1.7h-2.4c0.2-2.8,2.6-3.6,4.9-3.6c2.1,0,4.3,0.9,4.3,3.2v5.6C315.4,36.9,315.8,36.9,315.8,36.9z M313.4,33.9
		c-0.8,0.6-1.9,0.4-3,0.6s-1.9,0.6-1.9,1.9c0,1.1,1.3,1.3,2.3,1.3c1.1,0,2.6-0.6,2.6-2.1L313.4,33.9L313.4,33.9L313.4,33.9z
		 M318.6,28.4h2.3v1.7l0,0c0.8-1.1,1.9-1.9,3.4-1.9c2.4,0,3.9,1.3,3.9,3.8v7.5h-2.4v-6.9c0-1.7-0.8-2.4-2.1-2.4
		c-1.7,0-2.6,1.3-2.6,2.8v6.4h-2.4V28.4z M339.5,36.9c0,0.6,0.2,0.8,0.6,0.8c0.2,0,0.4,0,0.6,0v1.7c-0.4,0.2-1.1,0.2-1.5,0.2
		c-0.9,0-1.7-0.4-1.9-1.3c-0.9,0.9-2.4,1.3-3.8,1.3c-1.9,0-3.8-1.1-3.8-3.2c0-2.8,2.3-3.2,4.1-3.4c1.7-0.4,3.2-0.2,3.2-1.5
		s-1.3-1.5-2.3-1.5c-1.3,0-2.3,0.6-2.4,1.7h-2.4c0.2-2.8,2.6-3.6,4.9-3.6c2.1,0,4.3,0.9,4.3,3.2v5.6
		C339.1,36.9,339.5,36.9,339.5,36.9z M337,33.9c-0.8,0.6-1.9,0.4-3,0.6s-1.9,0.6-1.9,1.9c0,1.1,1.3,1.3,2.3,1.3
		c1.1,0,2.6-0.6,2.6-2.1V33.9L337,33.9L337,33.9z M352.4,39.3h-2.3v-1.5l0,0c-0.6,1.3-2.1,1.7-3.4,1.7c-3.4,0-5.1-2.6-5.1-5.8
		c0-3.9,2.4-5.6,4.7-5.6c1.3,0,2.8,0.6,3.6,1.7l0,0v-5.6h2.4V39.3z M347,37.8c2.1,0,3-1.9,3-3.9c0-2.4-1.1-3.8-3-3.8
		c-2.3,0-3,2.1-3,3.9C344,35.9,344.9,37.8,347,37.8z M364.1,36.9c0,0.6,0.2,0.8,0.6,0.8c0.2,0,0.4,0,0.6,0v1.7
		c-0.4,0.2-1.1,0.2-1.5,0.2c-0.9,0-1.7-0.4-1.9-1.3c-0.9,0.9-2.4,1.3-3.8,1.3c-1.9,0-3.8-1.1-3.8-3.2c0-2.8,2.3-3.2,4.1-3.4
		c1.7-0.4,3.2-0.2,3.2-1.5s-1.3-1.5-2.3-1.5c-1.3,0-2.3,0.6-2.4,1.7h-2.4c0.2-2.8,2.6-3.6,4.9-3.6c2.1,0,4.3,0.9,4.3,3.2v5.6
		C363.7,36.9,364.1,36.9,364.1,36.9z M361.6,33.9c-0.8,0.6-1.9,0.4-3,0.6s-1.9,0.6-1.9,1.9c0,1.1,1.3,1.3,2.3,1.3
		c1.1,0,2.6-0.6,2.6-2.1L361.6,33.9L361.6,33.9L361.6,33.9z"/>
</g>
</svg>
