<?xml version="1.0" encoding="utf-8"?>
<!-- Generator: Adobe Illustrator 22.1.0, SVG Export Plug-In . SVG Version: 6.00 Build 0)  -->
<svg version="1.1" id="Layer_1" xmlns="http://www.w3.org/2000/svg" xmlns:xlink="http://www.w3.org/1999/xlink" x="0px" y="0px"
	 viewBox="0 0 400 37.7" style="enable-background:new 0 0 400 37.7;" xml:space="preserve">
<style type="text/css">
	.st0{fill:#FFFFFF;}
	.fip_flag { fill: #ff1606; }
	.fip_text { fill: #ffffff; }
</style>
<rect x="18.6" y="0.4" class="st0" width="37" height="36.8"/>
<g id="sig" transform="translate(-2,-2)">
	<path class="fip_flag" d="M76.2,39.2H57.6V2.4h18.6V39.2C76.2,39.2,76.2,39.2,76.2,39.2z M39.2,5.2c0,0-2.3,4.5-2.6,4.9c-0.4,0.6-0.6,0.6-1.1,0.4
		C34.9,10.1,33,9.1,33,9.1s1.7,7.3,1.7,7.9c0.2,0.6-0.4,1.1-1.1,0.6c-0.2-0.2-3.4-3.8-3.4-3.8s-0.8,1.7-0.9,2.1
		c-0.2,0.4-0.4,0.6-0.8,0.4c-0.6-0.2-3.6-0.8-3.6-0.8s1.1,3.6,1.3,4.1c0.2,0.4,0.4,0.8-0.4,1.1l-1.1,0.4c0,0,6.2,5.4,6.4,5.6
		c0.4,0.4,0.6,0.4,0.4,1.3c-0.4,0.9-0.6,2.1-0.6,2.1s5.8-1.3,6.4-1.3c0.6,0,1.1,0.2,1.1,0.8s-0.4,6.9-0.4,6.9h1.9
		c0,0-0.4-6.2-0.4-6.9c0-0.6,0.6-0.8,1.1-0.8c0.6,0.2,6.4,1.3,6.4,1.3s-0.4-1.3-0.6-2.1c-0.4-0.9,0-1.1,0.4-1.3
		c0.2-0.2,6.4-5.6,6.4-5.6l-1.1-0.4c-0.6-0.4-0.4-0.8-0.4-1.1c0.2-0.4,1.3-4.1,1.3-4.1s-3,0.6-3.6,0.8c-0.4,0.2-0.6-0.2-0.8-0.4
		c-0.2-0.4-0.9-2.1-0.9-2.1s-3.2,3.8-3.4,3.8c-0.6,0.4-1.3,0-1.1-0.6c0-0.6,1.7-7.9,1.7-7.9s-1.9,1.1-2.4,1.3
		c-0.4,0.4-0.8,0.4-1.1-0.4C41.4,9.5,39.2,5.2,39.2,5.2L39.2,5.2z M20.6,39.2V2.4H2v36.8L20.6,39.2C20.6,39.2,20.6,39.2,20.6,39.2z"
		/>
	<path class="fip_text" d="M296.5,17.4h-1.7l-0.4-1.7c-1.5,1.7-2.6,2.1-4.5,2.1c-4.5,0-7.1-3.6-7.1-7.9s2.6-7.9,7.1-7.9c3.4,0,6,1.7,6.4,5.1h-2.6
		c-0.2-2.1-2.1-3-3.9-3c-3.2,0-4.5,2.8-4.5,5.8s1.3,5.8,4.5,5.8c2.6,0,4.1-1.5,4.3-4.1h-3.9V9.5h6.4V17.4z M298.5,12
		c0-3.4,2.1-5.8,5.4-5.8c3.4,0,5.4,2.4,5.4,5.8s-2.1,5.8-5.4,5.8C300.6,17.8,298.5,15.3,298.5,12z M307.2,12c0-1.9-0.9-3.8-3.2-3.8
		c-2.1,0-3.2,1.9-3.2,3.8s0.9,3.9,3.2,3.9S307.2,13.8,307.2,12z M310.5,6.5h2.6L316,15l0,0l2.6-8.5h2.4l-3.9,10.9h-2.6L310.5,6.5
		L310.5,6.5z M324.4,12.5c0,1.7,0.9,3.2,3,3.2c1.3,0,2.3-0.6,2.6-1.9h2.3c-0.6,2.4-2.6,3.8-4.9,3.8c-3.4,0-5.3-2.4-5.3-5.8
		c0-3.2,2.1-5.8,5.3-5.8c3.4,0,5.6,3.2,5.1,6.4h-8.1L324.4,12.5L324.4,12.5z M330.1,11c0-1.5-1.1-2.8-2.8-2.8s-2.8,1.3-2.8,2.8
		H330.1z M334.4,6.5h2.3v2.1l0,0c0.2-1.1,1.7-2.4,3.2-2.4c0.6,0,0.8,0,0.9,0v2.3c-0.4,0-0.8-0.2-1.1-0.2c-1.7,0-3,1.3-3,3.8v5.3
		h-2.3V6.5z M342.1,6.5h2.3v1.7l0,0c0.8-1.1,1.9-1.9,3.4-1.9c2.4,0,3.9,1.3,3.9,3.8v7.5h-2.3v-6.9c0-1.7-0.8-2.4-2.1-2.4
		c-1.7,0-2.6,1.3-2.6,2.8v6.4h-2.4V6.5H342.1L342.1,6.5z M354.3,6.5h2.3V8l0,0c0.8-1.1,1.7-1.9,3.4-1.9c1.3,0,2.6,0.6,3,1.9
		c0.8-1.1,1.9-1.9,3.4-1.9c2.3,0,3.6,0.9,3.6,3.8v7.5h-2.4V11c0-1.7-0.2-3-2.1-3c-1.7,0-2.3,1.1-2.3,3v6.4h-2.4v-6.9
		c0-1.5-0.4-2.3-1.9-2.3c-1.3,0-2.4,0.9-2.4,2.8v6.6h-2.4V6.5H354.3L354.3,6.5z M374.6,12.5c0,1.7,0.9,3.2,3,3.2
		c1.3,0,2.3-0.6,2.6-1.9h2.3c-0.6,2.4-2.6,3.8-4.9,3.8c-3.4,0-5.3-2.4-5.3-5.8c0-3.2,2.1-5.8,5.3-5.8c3.4,0,5.6,3.2,5.1,6.4h-8.1
		L374.6,12.5L374.6,12.5z M380.2,11c0-1.5-1.1-2.8-2.8-2.8c-1.7,0-2.8,1.3-2.8,2.8H380.2z M384.3,6.5h2.3v1.7l0,0
		c0.8-1.1,1.9-1.9,3.4-1.9c2.4,0,3.9,1.3,3.9,3.8v7.5h-2.4v-6.9c0-1.7-0.8-2.4-2.1-2.4c-1.7,0-2.6,1.3-2.6,2.8v6.4h-2.4V6.5z
		 M395.4,6.5h1.9V3.3h2.4v3.2h2.3v1.9h-2.3v5.8c0,0.9,0,1.5,1.1,1.5c0.4,0,0.8,0,0.9,0v1.9c-0.6,0-1.1,0.2-1.5,0.2
		c-2.4,0-3-0.9-3-2.8V8.4h-1.9V6.5z M282.6,33.7c0-3.4,2.1-5.8,5.4-5.8s5.4,2.4,5.4,5.8c0,3.4-2.1,5.8-5.4,5.8
		C284.6,39.6,282.6,37.1,282.6,33.7z M291.2,33.7c0-1.9-0.9-3.8-3.2-3.8c-2.1,0-3.2,1.9-3.2,3.8c0,1.9,0.9,3.9,3.2,3.9
		C290.3,37.7,291.2,35.6,291.2,33.7z M294.4,28.3h1.9v-0.9c0-2.8,1.5-3.2,3-3.2c0.8,0,1.3,0,1.7,0.2v1.9c-0.4,0-0.6-0.2-1.1-0.2
		s-1.1,0.2-1.1,1.1v1.1h2.1v1.9h-2.1v9.2h-2.4v-9.2h-1.9V28.3z M318.6,28.9c-0.4-1.7-1.5-3-3.8-3c-3.2,0-4.5,2.8-4.5,5.8
		s1.3,5.8,4.5,5.8c2.3,0,3.6-1.7,3.8-3.9h2.6c-0.2,3.6-2.8,6.2-6.4,6.2c-4.5,0-7.1-3.6-7.1-7.9s2.6-7.9,7.1-7.9c3.4,0,6,1.9,6.4,5.1
		h-2.6C318.6,29,318.6,28.9,318.6,28.9z M332.5,36.7c0,0.6,0.2,0.8,0.6,0.8c0.2,0,0.4,0,0.6,0v1.7c-0.4,0.2-1.1,0.2-1.5,0.2
		c-0.9,0-1.7-0.4-1.9-1.3c-0.9,0.9-2.4,1.3-3.8,1.3c-1.9,0-3.8-1.1-3.8-3.2c0-2.8,2.3-3.2,4.1-3.4c1.7-0.4,3.2-0.2,3.2-1.5
		c0-1.3-1.3-1.5-2.3-1.5c-1.3,0-2.3,0.6-2.4,1.7h-2.3c0.2-2.8,2.6-3.6,4.9-3.6c2.1,0,4.3,0.9,4.3,3.2L332.5,36.7L332.5,36.7
		L332.5,36.7z M330.1,33.7c-0.8,0.6-1.9,0.4-3,0.6c-1.1,0.2-1.9,0.6-1.9,1.9c0,1.1,1.3,1.3,2.3,1.3c1.1,0,2.6-0.6,2.6-2.1
		L330.1,33.7L330.1,33.7L330.1,33.7z M335.1,28.3h2.3V30l0,0c0.8-1.1,1.9-1.9,3.4-1.9c2.4,0,3.9,1.3,3.9,3.8v7.5h-2.4v-6.9
		c0-1.7-0.8-2.4-2.1-2.4c-1.7,0-2.6,1.3-2.6,2.8v6.4h-2.4V28.3z M356,36.7c0,0.6,0.2,0.8,0.6,0.8c0.2,0,0.4,0,0.6,0v1.7
		c-0.4,0.2-1.1,0.2-1.5,0.2c-0.9,0-1.7-0.4-1.9-1.3c-0.9,0.9-2.4,1.3-3.8,1.3c-1.9,0-3.8-1.1-3.8-3.2c0-2.8,2.3-3.2,4.1-3.4
		c1.7-0.4,3.2-0.2,3.2-1.5c0-1.3-1.3-1.5-2.3-1.5c-1.3,0-2.3,0.6-2.4,1.7h-2.4c0.2-2.8,2.6-3.6,4.9-3.6c2.1,0,4.3,0.9,4.3,3.2v5.6
		C355.6,36.7,356,36.7,356,36.7z M353.7,33.7c-0.8,0.6-1.9,0.4-3,0.6c-1.1,0.2-1.9,0.6-1.9,1.9c0,1.1,1.3,1.3,2.3,1.3
		c1.1,0,2.6-0.6,2.6-2.1L353.7,33.7L353.7,33.7L353.7,33.7z M368.9,39.2h-2.3v-1.5l0,0c-0.6,1.3-2.1,1.7-3.4,1.7
		c-3.4,0-5.1-2.6-5.1-5.8c0-3.9,2.4-5.6,4.7-5.6c1.3,0,2.8,0.6,3.6,1.7l0,0V24h2.4V39.2z M363.5,37.7c2.3,0,3-1.9,3-3.9
		c0-2.4-1.1-3.8-3-3.8c-2.3,0-3,2.1-3,3.9S361.4,37.7,363.5,37.7z M380.8,36.7c0,0.6,0.2,0.8,0.6,0.8c0.2,0,0.4,0,0.6,0v1.7
		c-0.4,0.2-1.1,0.2-1.5,0.2c-0.9,0-1.7-0.4-1.9-1.3c-0.9,0.9-2.4,1.3-3.8,1.3c-1.9,0-3.8-1.1-3.8-3.2c0-2.8,2.3-3.2,4.1-3.4
		c1.7-0.4,3.2-0.2,3.2-1.5c0-1.3-1.3-1.5-2.3-1.5c-1.3,0-2.3,0.6-2.4,1.7h-2.4c0.2-2.8,2.6-3.6,4.9-3.6c2.1,0,4.3,0.9,4.3,3.2v5.6
		C380.4,36.7,380.8,36.7,380.8,36.7z M378.3,33.7c-0.8,0.6-1.9,0.4-3,0.6c-1.1,0.2-1.9,0.6-1.9,1.9c0,1.1,1.3,1.3,2.3,1.3
		c1.1,0,2.6-0.6,2.6-2.1L378.3,33.7L378.3,33.7L378.3,33.7z M122.2,17.4h-1.7l-0.4-1.7c-1.5,1.7-2.6,2.1-4.5,2.1
		c-4.5,0-7.1-3.6-7.1-7.9s2.6-7.9,7.1-7.9c3.4,0,6,1.7,6.4,5.1h-2.6c-0.2-2.1-2.1-3-3.9-3c-3.2,0-4.5,2.8-4.5,5.8
		c0,2.8,1.3,5.8,4.5,5.8c2.6,0,4.1-1.5,4.3-4.1h-3.9V9.5h6.4V17.4z M124.3,12c0-3.4,2.1-5.8,5.4-5.8c3.4,0,5.6,2.4,5.6,5.8
		s-2.1,5.8-5.4,5.8C126.5,17.8,124.3,15.3,124.3,12z M132.9,12c0-1.9-0.9-3.8-3.2-3.8c-2.1,0-3.2,1.9-3.2,3.8s0.9,3.9,3.2,3.9
		C132,15.9,132.9,13.8,132.9,12z M147,17.4h-2.4v-1.5l0,0c-0.6,1.1-1.9,1.9-3.2,1.9c-2.8,0-4.1-1.5-4.1-4.3V6.5h2.4v6.8
		c0,1.9,0.8,2.6,2.1,2.6c2.1,0,2.6-1.3,2.6-3V6.5h2.4v10.9H147L147,17.4z M148.3,6.5h2.6l2.8,8.5l0,0l2.6-8.5h2.4l-3.9,10.9h-2.6
		L148.3,6.5L148.3,6.5z M161.8,12.5c0,1.7,0.9,3.2,3,3.2c1.3,0,2.3-0.6,2.6-1.9h2.3c-0.6,2.4-2.6,3.8-4.9,3.8
		c-3.4,0-5.3-2.4-5.3-5.8c0-3.2,2.1-5.8,5.3-5.8c3.4,0,5.6,3.2,5.1,6.4h-8.1L161.8,12.5L161.8,12.5z M167.4,11
		c0-1.5-1.1-2.8-2.8-2.8c-1.7,0-2.8,1.3-2.8,2.8L167.4,11L167.4,11z M171.8,6.5h2.3v2.1l0,0c0.2-1.1,1.7-2.4,3.2-2.4
		c0.6,0,0.8,0,0.9,0v2.3c-0.4,0-0.8-0.2-1.1-0.2c-1.7,0-3,1.3-3,3.8v5.3h-2.4V6.5L171.8,6.5L171.8,6.5z M179.5,6.5h2.3v1.7l0,0
		c0.8-1.1,1.9-1.9,3.4-1.9c2.4,0,3.9,1.3,3.9,3.8v7.5h-2.4v-6.9c0-1.7-0.8-2.4-2.1-2.4c-1.7,0-2.6,1.3-2.6,2.8v6.4h-2.4L179.5,6.5
		L179.5,6.5z M193.4,12.5c0,1.7,0.9,3.2,3,3.2c1.3,0,2.3-0.6,2.6-1.9h2.3c-0.6,2.4-2.6,3.8-4.9,3.8c-3.4,0-5.3-2.4-5.3-5.8
		c0-3.2,2.1-5.8,5.3-5.8c3.4,0,5.6,3.2,5.1,6.4h-8.1L193.4,12.5L193.4,12.5z M199,11c0-1.5-1.1-2.8-2.8-2.8c-1.7,0-2.8,1.3-2.8,2.8
		H199z M203.3,6.5h2.3V8l0,0c0.8-1.1,1.7-1.9,3.4-1.9c1.3,0,2.6,0.6,3,1.9c0.8-1.1,1.9-1.9,3.4-1.9c2.3,0,3.6,0.9,3.6,3.8v7.5h-2.4
		V11c0-1.7-0.2-3-2.1-3c-1.7,0-2.3,1.1-2.3,3v6.4h-2.4v-6.9c0-1.5-0.4-2.3-1.9-2.3c-1.3,0-2.4,0.9-2.4,2.8v6.6h-2.4V6.5
		C202.9,6.5,203.3,6.5,203.3,6.5z M223.6,12.5c0,1.7,0.9,3.2,3,3.2c1.3,0,2.3-0.6,2.6-1.9h2.3c-0.6,2.4-2.6,3.8-4.9,3.8
		c-3.4,0-5.3-2.4-5.3-5.8c0-3.2,2.1-5.8,5.3-5.8c3.4,0,5.6,3.2,5.1,6.4h-8.1C223.6,12.3,223.6,12.5,223.6,12.5z M229.2,11
		c0-1.5-1.1-2.8-2.8-2.8c-1.7,0-2.8,1.3-2.8,2.8C223.6,11,229.2,11,229.2,11z M233.5,6.5h2.3v1.7l0,0c0.8-1.1,1.9-1.9,3.4-1.9
		c2.4,0,3.9,1.3,3.9,3.8v7.5h-2.4v-6.9c0-1.7-0.8-2.4-2.1-2.4c-1.7,0-2.6,1.3-2.6,2.8v6.4h-2.4L233.5,6.5L233.5,6.5z M244.4,6.5h1.9
		V3.3h2.4v3.2h2.3v1.9h-2.3v5.8c0,0.9,0,1.5,1.1,1.5c0.4,0,0.8,0,0.9,0v1.9c-0.6,0-1.1,0.2-1.5,0.2c-2.4,0-3-0.9-3-2.8V8.4h-1.9
		C244.4,8.4,244.4,6.5,244.4,6.5z M119,39.2h-2.3v-1.5l0,0c-0.8,1.3-2.1,1.9-3.6,1.9c-3.4,0-5.1-2.6-5.1-5.8c0-3.9,2.3-5.6,4.7-5.6
		c1.3,0,2.8,0.6,3.6,1.7l0,0v-5.6h2.4L119,39.2L119,39.2L119,39.2z M113.5,37.7c2.1,0,3-1.9,3-3.9c0-2.4-1.1-3.8-3-3.8
		c-2.3,0-3,2.1-3,3.9S111.5,37.7,113.5,37.7z M131.2,39.2h-2.4v-1.5l0,0c-0.6,1.1-1.9,1.9-3.2,1.9c-2.8,0-4.1-1.5-4.1-4.3v-6.9h2.4
		v6.8c0,1.9,0.8,2.6,2.1,2.6c2.1,0,2.6-1.3,2.6-3v-6.4h2.4L131.2,39.2L131.2,39.2L131.2,39.2z M150,28.9c-0.4-1.7-1.5-3-3.8-3
		c-3.2,0-4.5,2.8-4.5,5.8c0,2.8,1.3,5.8,4.5,5.8c2.3,0,3.6-1.7,3.8-3.9h2.6c-0.2,3.6-2.8,6.2-6.4,6.2c-4.5,0-7.1-3.6-7.1-7.9
		s2.6-7.9,7.1-7.9c3.4,0,6,1.9,6.4,5.1H150C150,29,150,28.9,150,28.9z M163.9,36.7c0,0.6,0.2,0.8,0.6,0.8c0.2,0,0.4,0,0.6,0v1.7
		c-0.4,0.2-1.1,0.4-1.5,0.4c-0.9,0-1.7-0.4-1.9-1.3c-0.9,0.9-2.4,1.3-3.8,1.3c-1.9,0-3.8-1.1-3.8-3.2c0-2.8,2.3-3.2,4.1-3.4
		c1.7-0.4,3.2-0.2,3.2-1.5c0-1.3-1.3-1.5-2.3-1.5c-1.3,0-2.3,0.6-2.4,1.7h-2.4c0.2-2.8,2.6-3.6,4.9-3.6c2.1,0,4.3,0.9,4.3,3.2v5.4
		L163.9,36.7L163.9,36.7z M161.4,33.7c-0.8,0.6-1.9,0.4-3,0.6c-1.1,0.2-1.9,0.6-1.9,1.9c0,1.1,1.3,1.3,2.3,1.3
		c1.1,0,2.6-0.6,2.6-2.1V33.7z M166.5,28.3h2.3V30l0,0c0.8-1.1,1.9-1.9,3.4-1.9c2.4,0,3.9,1.3,3.9,3.8v7.5h-2.4v-6.9
		c0-1.7-0.8-2.4-2.1-2.4c-1.7,0-2.6,1.3-2.6,2.8v6.4h-2.4V28.3z M187.5,36.7c0,0.6,0.2,0.8,0.6,0.8c0.2,0,0.4,0,0.6,0v1.7
		c-0.4,0.2-1.1,0.2-1.5,0.2c-0.9,0-1.7-0.4-1.9-1.3c-0.9,0.9-2.4,1.3-3.8,1.3c-1.9,0-3.8-1.1-3.8-3.2c0-2.8,2.3-3.2,4.1-3.4
		c1.7-0.4,3.2-0.2,3.2-1.5c0-1.3-1.3-1.5-2.3-1.5c-1.3,0-2.3,0.6-2.4,1.7H178c0.2-2.8,2.6-3.6,4.9-3.6c2.1,0,4.3,0.9,4.3,3.2v5.6
		L187.5,36.7L187.5,36.7z M185.1,33.7c-0.8,0.6-1.9,0.4-3,0.6c-1.1,0.2-1.9,0.6-1.9,1.9c0,1.1,1.3,1.3,2.3,1.3
		c1.1,0,2.6-0.6,2.6-2.1V33.7z M200.3,39.2h-2.3v-1.5l0,0c-0.6,1.3-2.1,1.7-3.4,1.7c-3.4,0-5.1-2.6-5.1-5.8c0-3.9,2.3-5.6,4.7-5.6
		c1.3,0,2.8,0.6,3.6,1.7l0,0V24h2.4L200.3,39.2L200.3,39.2z M195.1,37.7c2.1,0,3-1.9,3-3.9c0-2.4-1.1-3.8-3-3.8c-2.3,0-3,2.1-3,3.9
		S193,37.7,195.1,37.7z M212.1,36.7c0,0.6,0.2,0.8,0.6,0.8c0.2,0,0.4,0,0.6,0v1.7c-0.4,0.2-1.1,0.2-1.5,0.2c-0.9,0-1.7-0.4-1.9-1.3
		c-0.9,0.9-2.4,1.3-3.8,1.3c-1.9,0-3.8-1.1-3.8-3.2c0-2.8,2.3-3.2,4.1-3.4c1.7-0.4,3.2-0.2,3.2-1.5c0-1.3-1.3-1.5-2.3-1.5
		c-1.3,0-2.3,0.6-2.4,1.7h-2.4c0.2-2.8,2.6-3.6,4.9-3.6c2.1,0,4.3,0.9,4.3,3.2v5.6L212.1,36.7L212.1,36.7z M209.7,33.7
		c-0.8,0.6-1.9,0.4-3,0.6c-1.1,0.2-1.9,0.6-1.9,1.9c0,1.1,1.3,1.3,2.3,1.3c1.1,0,2.6-0.6,2.6-2.1V33.7z"/>
</g>
</svg>
