<?xml version="1.0" encoding="UTF-8" standalone="no"?><!DOCTYPE svg PUBLIC "-//W3C//DTD SVG 1.1//EN" "http://www.w3.org/Graphics/SVG/1.1/DTD/svg11.dtd"><svg width="100%" height="100%" viewBox="0 0 100 100" version="1.1" xmlns="http://www.w3.org/2000/svg" xmlns:xlink="http://www.w3.org/1999/xlink" xml:space="preserve" style="fill-rule:evenodd;clip-rule:evenodd;stroke-linecap:round;stroke-linejoin:round;stroke-miterlimit:1.5;"><path d="M98.827,25.489c0,-13.492 -10.954,-24.446 -24.446,-24.446l-48.892,0c-13.492,0 -24.446,10.954 -24.446,24.446l0,49.022c0,13.492 10.954,24.446 24.446,24.446l48.892,0c13.492,0 24.446,-10.954 24.446,-24.446l0,-49.022Z" style="fill:#ebebeb;stroke:#000;stroke-width:2px;"/><path d="M12.326,52.989l0,5.551l-8.54,-8.54l8.54,-8.54l0,5.551l26.402,0l0,5.978l-26.402,0Z" style="fill:#ebebeb;stroke:#000;stroke-width:2px;"/><path d="M87.666,52.989l0,5.551l8.54,-8.54l-8.54,-8.54l0,5.551l-26.401,0l0,5.978l26.401,0Z" style="fill:#ebebeb;stroke:#000;stroke-width:2px;"/></svg>