<?xml version="1.0" encoding="UTF-8" standalone="no"?><!DOCTYPE svg PUBLIC "-//W3C//DTD SVG 1.1//EN" "http://www.w3.org/Graphics/SVG/1.1/DTD/svg11.dtd"><svg width="100%" height="100%" viewBox="0 0 100 100" version="1.1" xmlns="http://www.w3.org/2000/svg" xmlns:xlink="http://www.w3.org/1999/xlink" xml:space="preserve" style="fill-rule:evenodd;clip-rule:evenodd;stroke-linecap:round;stroke-linejoin:round;stroke-miterlimit:1.5;"><path d="M51.043,6.173c0,-2.759 -2.24,-5 -5,-5l-40,0c-2.76,0 -5,2.241 -5,5l0,69.27c0,2.76 2.24,5 5,5l40,0c2.76,0 5,-2.24 5,-5l0,-69.27Z" style="fill:#ebebeb;stroke:#000;stroke-width:2px;"/><path d="M98.696,53.957c0,-2.76 -2.24,-5 -5,-5l-87.653,0c-2.76,0 -5,2.24 -5,5l0,40c0,2.76 2.24,5 5,5l87.653,0c2.76,0 5,-2.24 5,-5l0,-40Z" style="fill:#ebebeb;stroke:#000;stroke-width:2px;"/><path d="M36.053,2.169c0,-0.549 -0.446,-0.996 -0.995,-0.996l-18.03,0c-0.549,0 -0.995,0.447 -0.995,0.996l0,1.992c0,0.549 0.446,0.995 0.995,0.995l18.03,0c0.549,0 0.995,-0.446 0.995,-0.995l0,-1.992Z" style="stroke:#000;stroke-width:2px;"/><path d="M97.7,83.801c0.55,0 0.996,-0.447 0.996,-0.996l0,-17.696c0,-0.549 -0.446,-0.996 -0.996,-0.996l-1.991,0c-0.55,0 -0.996,0.447 -0.996,0.996l0,17.696c0,0.549 0.446,0.996 0.996,0.996l1.991,0Z" style="stroke:#000;stroke-width:2px;"/><path id="Reply--small-" serif:id="Reply (small)" d="M84.245,29.308l6.5,0l-11,11.5l-11,-11.5l6.5,0c0,-5.5 -4.5,-10 -10,-10c-2.8,0 -5.3,1.1 -7.1,2.9c2.4,-4.1 6.9,-6.9 12.1,-6.9c7.8,0 14,6.3 14,14Z" style="fill-rule:nonzero;"/></svg>
