<svg xmlns="http://www.w3.org/2000/svg" width="500" height="500" viewBox="0 0 500 500">
  <title>search</title>
  <path d="M205.1577,85.1623a117.4507,117.4507,0,1,1-83.05,34.4,116.6819,116.6819,0,0,1,83.05-34.4m0-31A148.4508,148.4508,0,1,0,353.6084,202.6131,148.4508,148.4508,0,0,0,205.1577,54.1623Z" fill="#0059b3"/>
  <path d="M303.6253,283.3075a9.3806,9.3806,0,0,0-6.654,2.7562l-22.3,22.3a9.41,9.41,0,0,0,0,13.308L397.2672,444.2673a9.41,9.41,0,0,0,13.3081,0l22.3-22.3a9.41,9.41,0,0,0,0-13.308L310.2793,286.0637a9.3806,9.3806,0,0,0-6.654-2.7562Z" fill="#0059b3"/>
</svg>
