<?xml version="1.0" encoding="utf-8"?>
<!-- Generator: Adobe Illustrator 23.0.4, SVG Export Plug-In . SVG Version: 6.00 Build 0)  -->
<svg version="1.1" id="Layer_1" xmlns="http://www.w3.org/2000/svg" xmlns:xlink="http://www.w3.org/1999/xlink" x="0px" y="0px"
	 viewBox="0 0 600 600" style="enable-background:new 0 0 600 600;" xml:space="preserve">
<style type="text/css">
	.st0{fill:none;stroke:#000000;stroke-width:50;stroke-miterlimit:10;}
</style>
<title>appicons</title>
<path class="st0" d="M300,46C159.7,46,46,159.7,46,300s113.7,254,254,254s254-113.7,254-254S440.3,46,300,46z"/>
<path d="M365.9,417c-23,46.4-53.9,69.5-72.4,73.1c-17.4,3.5-26.2-12.3-24.3-53.9c1.9-50.1,3.4-82,4.6-126.9
	c0.3-18.1-0.9-24.1-7.4-22.8c-7.6,1.5-18.6,14.4-26.3,26.7l-6.4-6.6c19.1-34.3,53.7-67.7,74.3-71.8c19-3.8,23,13.5,22.1,62.8
	c-1.4,41-2.9,81.9-4.4,122.3c-0.8,16,2.9,20.3,7.8,19.3c3.8-0.8,13.1-7.7,26-28.3L365.9,417z M323.9,144.2
	c3.7,18.5-4.8,38.2-23.3,41.9c-15.2,3-27-5.3-30.5-22.7c-3.1-15.8,3.8-37.5,25-41.7C310.9,118.5,321.1,130,323.9,144.2z"/>
</svg>
