<?xml version="1.0" encoding="utf-8"?>
<svg version="1.1" xmlns="http://www.w3.org/2000/svg" xmlns:xlink="http://www.w3.org/1999/xlink" x="0px" y="0px"
	 viewBox="0 0 500 500" style="enable-background:new 0 0 500 500;" xml:space="preserve">
<style type="text/css">
	.st0{fill:#da3a38;}
</style>
<path class="st0" d="M482.6,444.2l-222-404.5c-4.7-4.7-12.3-4.7-17,0L19.5,444.2c-4.7,4.7-4.7,12.3,0,17h463.1
	C487.3,456.5,487.3,448.9,482.6,444.2z M252.2,435.5c-18.5,0.1-33.6-14.7-33.8-33.2s14.7-33.6,33.2-33.8c18.5,0,33.6,15,33.8,33.5
	C285.4,420.4,270.6,435.4,252.2,435.5z M288.1,185.1l-11.5,147.7c-0.7,8.5-4.8,14.9-9.6,14.9h-32.2c-4.9,0-9-6.6-9.6-15.3
	l-9.5-147.7c-0.7-10.2,3.8-19.2,9.6-19.2h53.1C284.2,165.5,288.7,174.7,288.1,185.1z"/>
</svg>
