<svg xmlns="http://www.w3.org/2000/svg" viewBox="0 0 600 600">
  <title>appicons</title>
  <g>
    <polygon points="454.37 138.13 414.7 95.13 414.91 138.36 454.37 138.13" fill="none"/>
    <path d="M403.7,161.1h-.07a11.35,11.35,0,0,1-11.34-11.28L392,89.1H141.17a1.61,1.61,0,0,0-1.61,1.62V509.28a1.61,1.61,0,0,0,1.61,1.62H458.83a1.61,1.61,0,0,0,1.61-1.62V160.78Z" fill="none"/>
    <path d="M421.55,60.75H141.17a30,30,0,0,0-30,30V509.28a30,30,0,0,0,30,30H458.83a30,30,0,0,0,30-30V133.63Zm32.82,77.38-39.46.23-.21-43.23Zm4.46,372.77H141.17a1.61,1.61,0,0,1-1.61-1.62V90.72a1.61,1.61,0,0,1,1.61-1.62H392l.3,60.72a11.35,11.35,0,0,0,11.34,11.28h.07l56.74-.32v348.5A1.61,1.61,0,0,1,458.83,510.9Z" fill="#2C70C9"/>
  </g>
  <rect x="180.5" y="239.5" width="230" height="44" rx="12.51" ry="12.51" fill="#2C70C9" stroke="#2C70C9" stroke-linecap="round" stroke-miterlimit="50" stroke-width="5"/>
  <rect x="180.5" y="302.5" width="182" height="44" rx="11.13" ry="11.13" fill="#2C70C9" stroke="#2C70C9" stroke-linecap="round" stroke-miterlimit="50" stroke-width="5"/>
  <rect x="180.5" y="365.5" width="141" height="44" rx="9.8" ry="9.8" fill="#2C70C9" stroke="#2C70C9" stroke-linecap="round" stroke-miterlimit="50" stroke-width="5"/>
  <rect x="180.5" y="428.5" width="201" height="44" rx="11.7" ry="11.7" fill="#2C70C9" stroke="#2C70C9" stroke-linecap="round" stroke-miterlimit="50" stroke-width="5"/>
</svg>
