<svg xmlns="http://www.w3.org/2000/svg" width="600" height="600" viewBox="0 0 600 600">
  <title>appicons</title>
  <g>
    <path d="M75.9462,510.5352H524.0538A37.1365,37.1365,0,0,1,561.19,547.6718V561.19a0,0,0,0,1,0,0H38.81a0,0,0,0,1,0,0V547.6718A37.1365,37.1365,0,0,1,75.9462,510.5352Z" fill="#2C70C9"/>
    <rect x="286.8086" y="38.8097" width="26.3829" height="468.5596" rx="7.4442" ry="7.4442" fill="#2C70C9"/>
    <path d="M268.5881,81.4007c-18.9979-1.527-31.9656,4.2623-40.4607,10.1152-9.3347,6.4313-11.647,11.8217-30.86,33.5638-15.86,17.9473-23.7893,26.9209-32.2314,33.5638-10.5857,8.33-27.6369,17.8848-53.4905,18.3911" fill="none" stroke="#2C70C9" stroke-linecap="round" stroke-miterlimit="10" stroke-width="20"/>
    <g>
      <line x1="112.0983" y1="202.6913" x2="46.2155" y2="328.3843" fill="none" stroke="#2C70C9" stroke-linecap="round" stroke-miterlimit="10" stroke-width="18"/>
      <line x1="177.5793" y1="328.3843" x2="112.0983" y2="202.6913" fill="none" stroke="#2C70C9" stroke-linecap="round" stroke-miterlimit="10" stroke-width="18"/>
    </g>
    <path d="M331.4119,81.4007c18.9979-1.527,31.9656,4.2623,40.4607,10.1152,9.3347,6.4313,11.647,11.8217,30.86,33.5638,15.8595,17.9473,23.7893,26.9209,32.2314,33.5638,10.5857,8.33,27.6369,17.8848,53.4905,18.3911" fill="none" stroke="#2C70C9" stroke-linecap="round" stroke-miterlimit="10" stroke-width="20"/>
    <g>
      <line x1="487.9017" y1="202.6913" x2="553.7845" y2="328.3843" fill="none" stroke="#2C70C9" stroke-linecap="round" stroke-miterlimit="10" stroke-width="18"/>
      <line x1="422.4207" y1="328.3843" x2="487.9017" y2="202.6913" fill="none" stroke="#2C70C9" stroke-linecap="round" stroke-miterlimit="10" stroke-width="18"/>
    </g>
    <path d="M25.6255,344.83c0,53.6208,38.6252,97.089,86.272,97.089s86.2719-43.4682,86.2719-97.089Zm123.8662,52.9349H73.6v-8.7809h75.8921Z" fill="#2C70C9"/>
    <path d="M401.8306,344.83c0,53.6208,38.6253,97.089,86.2719,97.089s86.272-43.4682,86.272-97.089Zm124.6325,52.8166H493.1687v34.9151H483.74V397.6462H450.4456v-8.8393H483.74v-34.62h9.4285v34.62h33.2944Z" fill="#2C70C9"/>
  </g>
</svg>
