<?xml version="1.0" encoding="utf-8"?>
<!-- Generator: Adobe Illustrator 23.0.1, SVG Export Plug-In . SVG Version: 6.00 Build 0)  -->
<svg version="1.1" id="Layer_1" xmlns="http://www.w3.org/2000/svg" xmlns:xlink="http://www.w3.org/1999/xlink" x="0px" y="0px"
	 viewBox="0 0 170 165" style="enable-background:new 0 0 170 165;" xml:space="preserve">
<style type="text/css">
	.st0{fill:#a5aeb8;}
</style>
<g>
	<path class="st0" d="M52.3,62.6H22.1h-8.6h-2.1c-4.8,0-8.7,3.9-8.7,8.7v84.9c0,4.8,3.9,8.7,8.7,8.7l9.3,0l56.7,0
		c3.9,0,7.2-2.5,8.3-6c0.3-0.8,0.4-1.7,0.4-2.7l-0.2-56.1L52.3,62.6z M72.5,102H49V76L72.5,102z M72.5,150.1c0,2.2-1.8,3.9-3.9,3.9
		H19.4c-2.2,0-3.9-1.8-3.9-3.9V79.9c0-2.2,1.8-3.9,3.9-3.9h17.3c2.2,0,3.9,1.8,3.9,3.9l0.2,26.1c0,2.2,1.8,3.9,3.9,3.9l23.7,0.1
		c2.2,0,3.9,1.8,3.9,3.9V150.1z"/>
	<path class="st0" d="M141.4,22.4l-18.2,0l0-5c-0.1-2.4-2.1-4.2-4.5-4h-4c-0.4-0.9-0.9-1.8-1.5-2.6C109.1,4.9,94.1,2,83.1,2
		c-10.9,0-26,2.9-30.2,8.8c-0.6,0.8-1.1,1.7-1.5,2.6h-3.8c-2.3-0.1-4.3,1.7-4.5,4l-0.1,5l-18.2,0c-7.8,0-14.1,5.7-14.1,12.7v36.5
		l12.8,0l0-27c0-2.9,2.7-5.2,6-5.2h3.9c0,0,4.1,8.6,9.1,8.6l81-0.2c5,0,9.1-8.6,9.1-8.6l3.9,0c3.3,0,6,2.3,6,5.2l-0.3,103
		c0,2.9-2.7,5.2-6,5.2l-57.4-0.1l-0.5,1.8c-1.8,4.5-5.7,10.2-5.7,10.2l2.9,0.4l65.9-0.2c7.8,0,14.1-5.7,14.1-12.7v-117
		C155.5,28.1,149.1,22.4,141.4,22.4z M108.5,33.9l-51,0v-8.7c0.3-0.6,0.7-1.1,1.2-1.7c3.4-3.7,15.7-5.5,24.5-5.5
		c8.8,0,20.8,1.9,24.1,5.5c0.5,0.5,0.9,1.1,1.2,1.7V33.9z"/>
</g>
</svg>
