<?xml version="1.0" encoding="utf-8"?>
<!-- Generator: Adobe Illustrator 23.0.1, SVG Export Plug-In . SVG Version: 6.00 Build 0)  -->
<svg version="1.1" id="Layer_1" xmlns="http://www.w3.org/2000/svg" xmlns:xlink="http://www.w3.org/1999/xlink" x="0px" y="0px"
	 viewBox="0 0 170 165" style="enable-background:new 0 0 170 165;" xml:space="preserve">
<style type="text/css">
	.st0{fill:#FFFFFF;}
</style>
<g>
	<path class="st0" d="M142.4,22.4l-18.2,0l0-5c-0.1-2.4-2.1-4.2-4.5-4h-4c-0.4-0.9-0.9-1.8-1.5-2.6C110.1,4.9,95.1,2,84.1,2
		c-10.9,0-26,2.9-30.2,8.8c-0.6,0.8-1.1,1.7-1.5,2.6h-3.8c-2.3-0.1-4.3,1.7-4.5,4l-0.1,5l-18.2,0c-7.8,0-14.1,5.7-14.1,12.7v55.7
		l12.8,0l0-46.1c0-2.9,2.7-5.2,6-5.2h3.9c0,0,4.1,8.6,9.1,8.6l81-0.2c5,0,9.1-8.6,9.1-8.6l3.9,0c3.3,0,6,2.3,6,5.2l-0.3,103
		c0,2.9-2.7,5.2-6,5.2l-57.4-0.1l-0.5,1.8c-1.8,4.5-5.7,10.2-5.7,10.2l2.9,0.4l65.9-0.2c7.8,0,14.1-5.7,14.1-12.7v-117
		C156.5,28.1,150.1,22.4,142.4,22.4z M109.5,33.9l-51,0v-8.7c0.3-0.6,0.7-1.1,1.2-1.7c3.4-3.7,15.7-5.5,24.5-5.5
		c8.8,0,20.8,1.9,24.1,5.5c0.5,0.5,0.9,1.1,1.2,1.7V33.9z"/>
</g>
<g>
	<path class="st0" d="M90.5,51.8c-15.5,0-26.6,14-37.7,24.4c1.5,0,3.7-0.7,5.9-0.7c3.7,0,7.4,0.7,11.1,2.2
		c5.9-5.9,11.8-12.5,20.7-12.5c4.4,0,9.6,2.2,13.3,5.2c7.4,7.4,7.4,19.2,0,26.6L84.6,116c-3,3-8.9,5.2-13.3,5.2
		c-10.3,0-15.5-6.7-19.2-14.8l-9.6,9.6c5.9,11.1,14.8,19.2,28.1,19.2c8.9,0,17-3.7,22.1-9.6l19.2-19.2C118.6,99.8,123,91.6,123,82
		C121.5,65.8,106.8,51.8,90.5,51.8L90.5,51.8z"/>
	<path class="st0" d="M58.8,141.1l-6.6,6.6c-2.9,3-8.9,5.2-13.3,5.2c-4.4,0-9.6-2.2-13.3-5.2c-7.4-7.4-7.4-19.9,0-26.6L44.7,102
		c3-3,8.9-5.2,13.3-5.2c10.3,0,15.5,7.4,19.2,14.8l9.6-9.6c-5.9-11.1-14.8-19.2-28.1-19.2c-8.9,0-17,3.7-22.1,9.6l-19.2,19.2
		c-12.6,12.6-12.6,32.5,0,44.3c11.8,11.8,32.5,12.6,43.6,0l14-14c-2.2,0.7-4.4,0.7-6.6,0.7C64.7,142.6,61.7,142.6,58.8,141.1
		L58.8,141.1z"/>
</g>
</svg>
