
<svg xmlns="http://www.w3.org/2000/svg" viewBox="0 0 180 180">
<style type="text/css">
	.st0{fill:#DA3A38;stroke:#DA3A38;stroke-width:4;stroke-miterlimit:10;}
	.st1{fill:#FFFFFF;}
</style>
<path class="st0" d="M161.9,59.5l-8.4,11.7c-0.1,0.2-0.3,0.5-0.5,0.8l-0.5,0.9c-0.1,0.2-0.3,0.6-0.4,0.8l-5.6,15.6
	c-0.4,1.2-1.8,1.8-3,1.4c-2.7-0.9-5.6-1.4-8.6-1.3h-0.5l-44.1,0.3h-1.2c-3.3,0-6,2.7-6,6v20.2c0,0.1,0,0.3,0,0.4
	c-1,7.2-4,8.8-9.1,11.4c-0.1,0.1-0.3,0.1-0.4,0.2c-1,0.4-1.7,0.7-1.9,0.7c-1.5,0.5-4.5-0.8-4.5-2.4V89.4
	c-1.2-25.2,8.3-32.5,15.8-37.9c2.1-1.5,8.1-3.2,16.7-7c6.8-3,15.2-8.3,24.2-16.3c0.9-0.8,2.2-0.8,3.1-0.1l34.4,28.2
	C162.4,57.1,162.6,58.5,161.9,59.5z"/>
<path class="st1" d="M176.7,54.9l-2.9-2.5l-47.7-39.1c-0.9-0.8-2.2-0.7-3,0.2l-2.9,2.9c-9.9,10.5-18.3,14.9-25.2,18
	c-6.8,3.1-12.6,4-18.2,8.1C71,46.7,62.6,54.8,58.7,69.1c-0.2,0.8-0.9,1.4-1.7,1.6c-7.2,1.7-12.6,4.4-16.9,8
	c-4.5,3.7-7.9,8-12.1,12.6c0,0,0,0.1,0,0.2c-6,6.6-11.2,13.7-21.4,17.4l-0.4,0.2c-2.3,0.9-3.8,3.1-3.8,5.5v63c0,1.2,1,2.2,2.2,2.2
	h126.9c7.4-0.4,12.5-5.3,15.7-10.1c3.1-4.8,4.8-10.1,5.7-14.4c2.2-10.7,6-39.5,6.2-41.1c0,0,0-0.1,0-0.1l0.2-2.9v-0.3
	c-0.2-3.9-1.6-6.9-3.6-9.9c-0.4-0.6-0.5-1.3-0.2-2c1.4-4,6.4-18.2,7.1-20.4c0.1-0.2,0.2-0.4,0.3-0.5l11.9-17.2l2.2-3
	C177.8,56.9,177.6,55.6,176.7,54.9z M146.4,115.5c-0.4,0.7-1.8,1.2-2.6,1.2h-23.2c-1.3,0-2.3,1.1-2.3,2.4l0,5.8c0,1.3,1,2.4,2.3,2.4
	l22.4-0.1c1.4,0,2.5,1.2,2.3,2.6c-0.5,4.3-1,6.3-1.6,10.4c-0.2,1.2-1.1,2-2.3,2c-4.5,0-16.2,0.1-21,0.1c-1.3,0-2.3,1.1-2.3,2.4
	l0,5.2c0,1.3,1,2.3,2.3,2.3l18.1-0.3c1.5,0,2.6,1.4,2.3,2.9c-0.7,3.3-2.4,7.9-3.7,10c-1.9,3-3.5,4.2-5,4.3l-116.9,1.2
	c-1.3,0-2.3-1.1-2.3-2.4v-47.2c0-0.9,0.5-1.7,1.2-2.1c10.6-5.8,18.4-15,22.8-19.9c4.7-5.3,7.9-9.3,11.1-12c1.3-1,2.9-1.8,4.7-2.5
	c1.6-0.6,4.1,0.8,4.1,2.5c0,0.2,0,0.4,0,0.6v52.2c0,1.3,1,2.3,2.3,2.3H64c0,0,6.5-0.2,14.5-3.3c7.9-3.1,14.7-10.1,16.5-22.7
	c0-0.3,0-0.6,0.1-0.9l0-11.7c0-1.3,1-2.4,2.3-2.4l35.9-0.1c0.2,0,0.5,0,0.7,0c7,1,10.9,3.6,12.8,10.2
	C147.6,113.9,147.2,114.3,146.4,115.5z M161.9,59.5l-8.4,11.7c-0.1,0.2-0.3,0.5-0.5,0.8l-0.5,0.9c-0.1,0.2-0.3,0.6-0.4,0.8
	l-5.6,15.6c-0.4,1.2-1.8,1.8-3,1.4c-2.7-0.9-5.6-1.4-8.6-1.3h-0.5l-44.1,0.3h-1.2c-3.3,0-6,2.7-6,6v20.2c0,0.1,0,0.3,0,0.4
	c-1,7.2-4,8.8-9.1,11.4c-0.1,0.1-0.3,0.1-0.4,0.2c-1,0.4-1.7,0.7-1.9,0.7c-1.5,0.5-4.5-0.8-4.5-2.4V89.4
	c-1.2-25.2,8.3-32.5,15.8-37.9c2.1-1.5,8.1-3.2,16.7-7c6.8-3,15.2-8.3,24.2-16.3c0.9-0.8,2.2-0.8,3.1-0.1l34.4,28.2
	C162.4,57.1,162.6,58.5,161.9,59.5z"/>
</svg>
