<?xml version="1.0" encoding="utf-8"?>
<!-- Generator: Adobe Illustrator 23.0.3, SVG Export Plug-In . SVG Version: 6.00 Build 0)  -->
<svg version="1.1" id="Layer_1" xmlns="http://www.w3.org/2000/svg" xmlns:xlink="http://www.w3.org/1999/xlink" x="0px" y="0px"
	 viewBox="0 0 600 600" style="enable-background:new 0 0 600 600;" xml:space="preserve">
<style type="text/css">
	.st0{fill:#FFFFFF;}
	.st1{fill:none;stroke:#FFFFFF;stroke-width:15;stroke-miterlimit:10;}
	.st2{fill:none;stroke:#FFFFFF;stroke-width:20;stroke-miterlimit:10;}
	.st3{fill:none;stroke:#FFFFFF;stroke-width:27;stroke-linecap:round;stroke-linejoin:round;stroke-miterlimit:10;}
</style>
<title>appicons</title>
<g>
	<path class="st0" d="M526.5,76.5V532H69.1V76.5H526.5 M526.5,52.5H69.1c-13.3,0-24,10.7-24,24V532c0,13.3,10.7,24,24,24h457.5
		c13.3,0,24-10.7,24-24V76.5C550.5,63.2,539.8,52.5,526.5,52.5L526.5,52.5z"/>
</g>
<rect x="98.9" y="107" class="st1" width="336.3" height="47.3"/>
<rect x="99.7" y="181" class="st1" width="228.3" height="47.3"/>
<rect x="99.7" y="255" class="st1" width="167.3" height="47.3"/>
<polyline class="st1" points="282.2,376.3 99.7,376.3 99.7,329 304.2,329 "/>
<circle class="st2" cx="392.7" cy="395.6" r="111.3"/>
<path class="st3" d="M345.4,395c22.9,37.2,22.9,37.2,22.9,37.2l84.3-62.2"/>
</svg>
