<svg xmlns="http://www.w3.org/2000/svg" viewBox="0 0 600 600">
  <title>lolol</title>
  <g>
    <polygon points="81.14 269.12 93.11 286.18 293.87 119.9 81.14 269.12" fill="none"/>
    <path d="M434.47,167h0a12.38,12.38,0,0,0-.08-5.38,13.83,13.83,0,0,0-2.2-4.91,13.37,13.37,0,0,0-8-5.51,11.09,11.09,0,0,0-2.33-.26,9.22,9.22,0,0,0-5.34,1.64,10.15,10.15,0,0,0-4,9,14.14,14.14,0,0,0,8.38,12,10.16,10.16,0,0,0,9.86-.69A9.43,9.43,0,0,0,434.47,167Z" fill="none"/>
    <path d="M205,491a23.67,23.67,0,0,1-5-.54,25,25,0,0,1-15.15-10.14l-113-161.12-25.7,21.28a17.81,17.81,0,0,0-2.35,25L176.38,525.59a17.8,17.8,0,0,0,25,2.35L432.12,336.81l-213.86,150A23.15,23.15,0,0,1,205,491Z" fill="#2C70C9"/>
    <path d="M482.86,109.1,342,70.4a23.33,23.33,0,0,0-23.64,1.78L65.66,249.44a23.33,23.33,0,0,0-9.62,16,24.94,24.94,0,0,0,4.38,17.7l13.37,19.07,113,161.12A25,25,0,0,0,202,473.44a23.67,23.67,0,0,0,5,.54,23.15,23.15,0,0,0,13.28-4.15l213.86-150L473,292.57a23.55,23.55,0,0,0,9.67-22l11.56-145.34A15.5,15.5,0,0,0,482.86,109.1ZM207,448.58,93.11,286.18l-12-17.06L293.87,119.9l33-23.14,4.94-3.47.81.46,136,37.37-9.06,114-2.11,26.62.2,1.05Z" fill="#2C70C9"/>
    <path d="M442.89,121.59c8.28-9.5,19.83-18.53,33.66-25.64,35-18,71.35-16.9,81.26,2.39s-10.41,49.48-45.37,67.45-71.35,16.9-81.26-2.39c-2.84-5.53-3.19-12-1.43-18.75" fill="none" stroke="#2C70C9" stroke-miterlimit="10" stroke-width="14"/>
    <path d="M420.8,149.47A21.79,21.79,0,1,1,399,171.26a21.81,21.81,0,0,1,21.78-21.79m0-10a31.79,31.79,0,1,0,31.78,31.79,31.78,31.78,0,0,0-31.78-31.79Z" fill="#2C70C9"/>
  </g>
</svg>
