<?xml version="1.0" encoding="utf-8"?>
<!-- Generator: Adobe Illustrator 22.1.0, SVG Export Plug-In . SVG Version: 6.00 Build 0)  -->
<svg version="1.1" xmlns="http://www.w3.org/2000/svg" xmlns:xlink="http://www.w3.org/1999/xlink" x="0px" y="0px"
	 viewBox="0 0 500 500" style="enable-background:new 0 0 500 500;" xml:space="preserve">
<style type="text/css">
	.st0{fill:#26374A;}
</style>
<path class="st0" d="M250,125.4 M247.3,125.4c-95.5,1.9-169.7,101.1-172.9,105.4l-6.2,8.4l5.5,8.9c3.2,5.2,79.5,126.4,177,126.4
	c97.6,0,172.5-121.4,175.6-126.5l5.4-8.9l-6.2-8.4c-3.1-4.3-77.4-103.6-173-105.4 M182.1,233.3l70,49.8c-6.8,9.6-28,6.2-47.3-7.5
	C185.5,261.8,175.3,242.9,182.1,233.3z M354.6,288.7c-24.7,25.1-62.8,54.9-103.9,54.9c-41,0-79.3-29.7-104.2-54.6
	c-18.6-18.6-32.8-37.5-40.4-48.2c7.5-8.9,20.9-23.7,38.5-38.5c7.1-6,14-11.2,20.7-15.8c-2.9,8.8-4.5,18.2-4.5,28
	c0,49.2,39.9,89.1,89.1,89.1s89.1-39.9,89.1-89.1c0-9.8-1.6-19.2-4.5-28c27.8,19,49.1,42.3,59.4,54.4
	C386.6,251.5,372.9,270.1,354.6,288.7z"/>
</svg>
