<?xml version="1.0" encoding="utf-8"?>
<!-- Generator: Adobe Illustrator 23.0.4, SVG Export Plug-In . SVG Version: 6.00 Build 0)  -->
<svg version="1.1" id="Layer_1" xmlns="http://www.w3.org/2000/svg" xmlns:xlink="http://www.w3.org/1999/xlink" x="0px" y="0px"
	 viewBox="0 0 600 600" style="enable-background:new 0 0 600 600;" xml:space="preserve">
<style type="text/css">
	.st0{fill:none;stroke:#000000;stroke-width:50;stroke-linecap:round;stroke-miterlimit:50;}
	.st1{fill:none;stroke:#000000;stroke-width:25;stroke-linecap:round;stroke-miterlimit:50;}
	.st2{stroke:#000000;stroke-width:4;stroke-linecap:round;stroke-linejoin:round;}
</style>
<title>appicons</title>
<g>
	<path class="st0" d="M138.5,57h322.9c18.7,0,33.8,15.1,33.8,33.8v418.4c0,18.7-15.1,33.8-33.8,33.8H138.5
		c-18.7,0-33.8-15.1-33.8-33.8V90.8C104.8,72.1,119.9,57,138.5,57z"/>
	<line class="st1" x1="178" y1="63.5" x2="178" y2="542.5"/>
</g>
<path class="st2" d="M303.1,466c0-1.9,0.7-3.8,2-5.3l105.8-125.9v-0.7h-89.5c-5.1,0-9.2-3.8-9.2-8.6l0,0c0-4.7,4.1-8.6,9.2-8.6
	h112.9c5.1,0,9.2,3.8,9.2,8.6v0.9c0,1.9-0.7,3.8-2,5.3L336.2,457.2v0.7h99.5c5.1,0,9.2,3.8,9.2,8.6l0,0c0,4.7-4.1,8.6-9.2,8.6H312.2
	c-5.1,0-9.2-3.8-9.2-8.6L303.1,466z"/>
<path class="st2" d="M257.4,253.4l-15.3,40.3c-1.5,3.9-5.2,6.5-9.4,6.5h-4.4c-5.5,0-10-4.5-10-10c0-1.2,0.2-2.5,0.7-3.7l58.2-149.3
	c1.5-3.8,5.2-6.4,9.3-6.4h16.6c4.1,0,7.8,2.5,9.3,6.4L371,286.6c2,5.1-0.5,10.9-5.7,13c-1.2,0.5-2.4,0.7-3.6,0.7h-5.3
	c-4.1,0-7.8-2.5-9.3-6.4l-15.8-40.5c-1.5-3.8-5.2-6.4-9.3-6.4h-55.2C262.6,247,258.9,249.5,257.4,253.4z M308.9,229.9
	c5.5,0,10-4.5,10-10c0-1.2-0.2-2.5-0.7-3.6l-13.7-35.1c-4.3-11-7.2-21.1-10.1-30.9h-0.6c-2.9,10.1-6.1,20.3-9.8,30.6l-13.7,35.4
	c-2,5.1,0.6,10.9,5.7,12.9c1.2,0.4,2.4,0.7,3.6,0.7H308.9z"/>
</svg>
