<svg xmlns="http://www.w3.org/2000/svg" viewBox="0 0 600 600">
  <title>appicons</title>
  <g>
    <rect x="104.75" y="57" width="390.5" height="486" rx="33.79" ry="33.79" fill="none" stroke="#2C70C9" stroke-linecap="round" stroke-miterlimit="50" stroke-width="25"/>
    <line x1="166.75" y1="63.5" x2="166.75" y2="542.5" fill="none" stroke="#2C70C9" stroke-linecap="round" stroke-miterlimit="50" stroke-width="25"/>
  </g>
  <path d="M303.07,466a8.21,8.21,0,0,1,2-5.29L410.91,334.77v-.71H321.46c-5.06,0-9.16-3.83-9.16-8.56h0c0-4.72,4.1-8.56,9.16-8.56H434.32c5.06,0,9.17,3.84,9.17,8.56v.92a8.24,8.24,0,0,1-1.95,5.28L336.23,457.18v.7h99.53c5.06,0,9.17,3.83,9.17,8.56h0c0,4.73-4.11,8.56-9.17,8.56H312.24c-5.06,0-9.17-3.83-9.17-8.56Z" fill="#2C70C9" stroke="#2C70C9" stroke-linecap="round" stroke-linejoin="round" stroke-width="4"/>
  <path d="M257.39,253.43,242.1,293.76a10,10,0,0,1-9.35,6.45h-4.41A10,10,0,0,1,219,286.58l58.23-149.27a10,10,0,0,1,9.31-6.37h16.62a10,10,0,0,1,9.31,6.36L371,286.57a10,10,0,0,1-9.31,13.64h-5.32a10,10,0,0,1-9.32-6.36l-15.79-40.51a10,10,0,0,0-9.32-6.37H266.74A10,10,0,0,0,257.39,253.43Zm51.53-23.54a10,10,0,0,0,9.31-13.63l-13.7-35.09c-4.33-11-7.21-21.09-10.1-30.89h-.57c-2.89,10.05-6.06,20.34-9.81,30.64l-13.73,35.35a10,10,0,0,0,9.32,13.62Z" fill="#2C70C9" stroke="#2C70C9" stroke-linecap="round" stroke-linejoin="round" stroke-width="4"/>
</svg>
