<svg xmlns="http://www.w3.org/2000/svg" width="600" height="600" viewBox="0 0 600 600">
  <title>appicons</title>
  <g>
    <path d="M251.436,84.5h97.1279a17.7486,17.7486,0,0,1,17.7486,17.7486v80.5029A17.7486,17.7486,0,0,1,348.5639,200.5H251.436a17.7485,17.7485,0,0,1-17.7485-17.7485V102.2485A17.7485,17.7485,0,0,1,251.436,84.5Z" fill="none" stroke="#1e75e8" stroke-miterlimit="50" stroke-width="25"/>
    <path d="M251.436,399.5h97.1279a17.7486,17.7486,0,0,1,17.7486,17.7486v80.5029A17.7486,17.7486,0,0,1,348.5639,515.5H251.436a17.7485,17.7485,0,0,1-17.7485-17.7485V417.2485A17.7485,17.7485,0,0,1,251.436,399.5Z" fill="none" stroke="#1e75e8" stroke-miterlimit="50" stroke-width="25"/>
    <rect x="415.375" y="399.5" width="132.625" height="116" rx="17.7486" ry="17.7486" fill="none" stroke="#1e75e8" stroke-miterlimit="50" stroke-width="25"/>
    <rect x="52" y="399.5" width="132.625" height="116" rx="17.7486" ry="17.7486" fill="none" stroke="#1e75e8" stroke-miterlimit="50" stroke-width="25"/>
    <line x1="300" y1="209.5" x2="300" y2="399.5" fill="none" stroke="#1e75e8" stroke-linecap="round" stroke-linejoin="round" stroke-width="25"/>
    <line x1="118" y1="290.7854" x2="482" y2="290.7854" fill="none" stroke="#1e75e8" stroke-linecap="round" stroke-linejoin="round" stroke-width="25"/>
    <line x1="482" y1="292.1839" x2="482" y2="399.5" fill="none" stroke="#1e75e8" stroke-linecap="round" stroke-linejoin="round" stroke-width="25"/>
    <line x1="118" y1="395.5" x2="118" y2="293.8374" fill="none" stroke="#1e75e8" stroke-linecap="round" stroke-linejoin="round" stroke-width="25"/>
  </g>
</svg>
