<?xml version="1.0" encoding="utf-8"?>
<!-- Generator: Adobe Illustrator 23.0.4, SVG Export Plug-In . SVG Version: 6.00 Build 0)  -->
<svg version="1.1" id="Layer_1" xmlns="http://www.w3.org/2000/svg" xmlns:xlink="http://www.w3.org/1999/xlink" x="0px" y="0px"
	 viewBox="0 0 358.4 442.8" style="enable-background:new 0 0 358.4 442.8;" xml:space="preserve">
<style type="text/css">
	.st0{fill:none;stroke:#000000;stroke-width:25;stroke-linecap:round;stroke-linejoin:round;stroke-miterlimit:10;}
	.st1{fill:none;stroke:#000000;stroke-width:10;stroke-linecap:round;stroke-linejoin:round;stroke-miterlimit:10;}
</style>
<g>
	<path class="st0" d="M224.6,60.8l-1.4,128.4h0l96.4,235H34.5l95.1-235h0V60.8c0,0-2.4,0-2.4,0c-10,0-18-8.1-18-18v-2.3
		c0-10,8.1-18,18-18H227c10,0,18,8.1,18,18v2.3c0,10-8.1,18-18,18C227,60.8,224.6,60.8,224.6,60.8z"/>
	<line class="st1" x1="115.8" y1="223.3" x2="237.3" y2="223.3"/>
	<circle class="st1" cx="138.5" cy="320.8" r="11.4"/>
	<circle class="st1" cx="191.1" cy="268.2" r="7.2"/>
	<circle class="st1" cx="216.8" cy="353.1" r="11.3"/>
</g>
</svg>
