<?xml version="1.0" encoding="utf-8"?>
<!-- Generator: Adobe Illustrator 22.1.0, SVG Export Plug-In . SVG Version: 6.00 Build 0)  -->
<svg version="1.1" xmlns="http://www.w3.org/2000/svg" xmlns:xlink="http://www.w3.org/1999/xlink" x="0px" y="0px"
	 viewBox="0 0 500 500" style="enable-background:new 0 0 500 500;" xml:space="preserve">
<style type="text/css">
	.st0{fill:#006400;}
</style>
<path class="st0" d="M250,68.2c100.4,0,181.7,81.4,181.7,181.8s-81.4,181.7-181.8,181.7S68.2,350.4,68.2,250
	c0-48.2,19.1-94.4,53.2-128.5C155.5,87.3,201.8,68.1,250,68.2 M250,37.2C132.5,37.2,37.2,132.5,37.2,250S132.5,462.8,250,462.8
	S462.8,367.5,462.8,250S367.5,37.2,250,37.2z"/>
<path class="st0" d="M234.9,354.7l127.9-186.2c3.7-5.5,3-13.1-1.6-17.1L347,139.2c-1.7-1.5-3.9-2.3-6.1-2.3l0,0
	c-3.7,0.1-7.1,2-9.1,5.1L218.5,307l-57.7-48.5c-1.9-1.7-4.2-2.6-6.7-2.8l0,0c-1.8-0.1-3.5,0.8-4.6,2.2l-13.9,20.7
	c-2.1,3.2-0.5,8.6,3.6,12l80.9,68.1c1.9,1.7,4.2,2.6,6.7,2.8c1.8,0.1,3.5-0.8,4.6-2.2"/>
</svg>
