<svg xmlns="http://www.w3.org/2000/svg" width="600" height="600" viewBox="0 0 600 600">
  <title>appicons</title>
  <path d="M102.6453,477.5735,78.3685,511.636H539.5736A11.4513,11.4513,0,0,1,551,523.0315v5.5119a11.4312,11.4312,0,0,1-11.4262,11.3954H53.1309a1.2661,1.2661,0,0,1-.34-.031h-.3719a10.8312,10.8312,0,0,1-6.9673-2.601l-3.0656-2.6323a13.4555,13.4555,0,0,1-2.0125-17.7123l71.2214-99.9579A85.7981,85.7981,0,0,1,96.5761,404.37q-24.4322-25.64-27.9932-67.5057a4.7947,4.7947,0,0,1,4.8928-5.0782H96.0809a4.8687,4.8687,0,0,1,4.83,4.1493q3.8091,24.5252,20.1278,39.5434A57.784,57.784,0,0,0,134.54,384.8l5.574-7.8345,14.8327-20.84,13.6867-19.1989,28.1482-39.4814,4.3039-6.0694q-11.5193-10.4972-31.771-17.3408L138.318,263.0423Q105.5248,251.6158,90.6,230.4661,75.7365,209.332,75.7052,174.1083q0-42.0827,23.5343-68.0319a76.0216,76.0216,0,0,1,36.54-22.667V69.5368a9.4951,9.4951,0,0,1,9.475-9.4756h30.0685a9.5152,9.5152,0,0,1,9.475,9.4756V83.44q19.7871,5.8991,34.8985,22.2954,22.1562,24.014,25.1446,60.693a4.6116,4.6116,0,0,1-4.6448,4.9237H218.86a4.6829,4.6829,0,0,1-4.5829-3.9638q-3.7626-22.5275-17.0932-35.7035-14.4915-14.26-37.097-14.2754-24.1067,0-38.7383,15.08-14.6775,15.0959-14.6778,40.2556,0,19.4158,10.807,31.5542c7.2153,8.0822,19.1057,14.9875,35.7657,20.8091l25.2679,9.135c19.4156,6.5957,34.4964,14.9873,45.3964,25.0822l3.4678-4.8616,3.8707-5.388,3.5615-5.0475,6.8434-9.5683,9.6919-13.5941,18.2083-25.5778a10.9451,10.9451,0,0,1,16.2261-2.1986l2.3534,1.9818.093.093,93.8879,67.97,133.9893-19.54-3.4678-28.4266a2.4258,2.4258,0,0,1,3.9637-2.1366l44.59,37.19a2.4431,2.4431,0,0,1,.434,3.2513l-34.1245,48.6784a2.4386,2.4386,0,0,1-4.3976-1.1147l-3.4368-28.179L380.7187,293.0792l-.124.031a9.28,9.28,0,0,1-8.0507-1.4865l-90.606-65.6476-15.8239,22.1716-9.1658,12.8817-9.6919,13.5631-2.3225,3.2823-4.6146,6.441-20.282,28.52-3.3136,4.6139L192.106,352.0381l-5.9149,8.2678-11.8594,16.66-9.847,13.8419-3.0966,4.3041-3.5305,4.9546-12.4793,17.5266-.9911,1.3935-4.2729,6.0074-10.9931,15.39Z" fill="#2C70C9"/>
  <path d="M382.7345,313.6538a19.8858,19.8858,0,0,1-3.8113.3691,19.485,19.485,0,0,1-11.1722-3.52L323.1979,279.536l-.5808,203.4768c-.0221,7.649,6.4806,13.9244,14.45,13.9454l54.4131.1429c7.9693.021,14.5074-6.22,14.5295-13.8691l.4933-172.9267-23.53,3.29C382.8921,313.6114,382.8149,313.6381,382.7345,313.6538Z" fill="none" stroke="#2C70C9" stroke-miterlimit="10" stroke-width="10"/>
  <path d="M426.702,483.4531c-.0213,7.4058,6.2749,13.4816,13.9912,13.502l55.3328.1455c7.7171.02,14.0472-6.0226,14.0685-13.4284L510.63,295.75,427.204,307.4117Z" fill="none" stroke="#2C70C9" stroke-miterlimit="10" stroke-width="10"/>
  <path d="M176.7627,400.5554l-3.072,4.3109-3.5308,4.9568-12.4993,17.5432-.9843,1.3815-4.28,6.0072-10.9736,15.4023L114.932,487.34a11.6149,11.6149,0,0,0,11.541,9.5987l59.8935.1575A11.5571,11.5571,0,0,0,198.1479,485.85l.331-115.7758-11.857,16.6429Z" fill="none" stroke="#2C70C9" stroke-miterlimit="10" stroke-width="10"/>
  <path d="M218.8356,341.5591l-.4019,140.8527c-.0237,7.9809,6.7619,14.5285,15.0764,14.55l53.1553.14c8.3153.0218,15.1379-6.49,15.1607-14.4712l.62-217.5179-17.72-12.3171Z" fill="none" stroke="#2C70C9" stroke-miterlimit="10" stroke-width="10"/>
</svg>
