<svg id="svg2" xmlns="http://www.w3.org/2000/svg" width="1000" height="309" viewBox="0 0 1000 309"><defs><style>.cls-1,.cls-7{opacity:0.5;}.cls-2,.cls-3,.cls-4,.cls-5,.cls-6{fill:#76a4df;}.cls-2{fill-opacity:0.25;}.cls-3{fill-opacity:0.78;}.cls-4{fill-opacity:0.49;}.cls-5{fill-opacity:0.55;}.cls-6{fill-opacity:0.2;}.cls-7{fill:none;}</style></defs><title>partition</title><g class="cls-1"><path id="rect4356" class="cls-2" d="M9.97134,8.96V186.17h7.51689c1.44643-.08809,2.47173-.65376,2.32-1.28V10.24c.1517-.62623-.8736-1.19192-2.32-1.28Z" transform="translate(0.0085)"/><path id="rect4363" class="cls-3" d="M59.36473,17.49H294.15154c1.922,0,3.48.67158,3.48,1.5V126.32c0,.82843-1.55806,1.5-3.48,1.5H59.36473c-1.922,0-3.48-.67157-3.48-1.5V18.99C55.88469,18.16158,57.44275,17.49,59.36473,17.49Z" transform="translate(0.0085)"/><path id="rect4379" class="cls-3" d="M404.58489,26.52H639.37168c1.922,0,3.48005.67157,3.48005,1.5V96.46c0,.82843-1.55806,1.5-3.48005,1.5H404.58489c-1.922,0-3.48-.67157-3.48-1.5V28.02C401.10485,27.19157,402.66291,26.52,404.58489,26.52Z" transform="translate(0.0085)"/><path id="rect4381" class="cls-3" d="M404.58489,101.08H639.37168c1.922,0,3.48005.67157,3.48005,1.5v27.49c0,.82843-1.55806,1.5-3.48005,1.5H404.58489c-1.922,0-3.48-.67157-3.48-1.5V102.58C401.10485,101.75157,402.66291,101.08,404.58489,101.08Z" transform="translate(0.0085)"/><path id="rect4383" class="cls-3" d="M404.58489,134.68H639.37168c1.922,0,3.48005.67157,3.48005,1.5v8.11c0,.82843-1.55806,1.5-3.48005,1.5H404.58489c-1.922,0-3.48-.67157-3.48-1.5v-8.11C401.10485,135.35156,402.66291,134.68,404.58489,134.68Z" transform="translate(0.0085)"/><path id="rect4385" class="cls-3" d="M404.60811,149.42H639.37175c1.84984-.03392,3.41555.58284,3.50327,1.38h0c-.07519.80016-1.64111,1.42253-3.49746,1.39011l-.00581-.00011H404.60811c-1.84346.0336-3.401-.58331-3.479-1.37788l-.00106-.01212h0c.07519-.79463,1.63067-1.41252,3.47424-1.38011Z" transform="translate(0.0085)"/><path id="rect4405" class="cls-3" d="M749.8051,35.51H984.592c1.922,0,3.48.67157,3.48,1.5V75.47c0,.82843-1.55806,1.5-3.48,1.5H749.8051c-1.922,0-3.48-.67157-3.48-1.5V37.01C746.32506,36.18157,747.88312,35.51,749.8051,35.51Z" transform="translate(0.0085)"/><path id="rect4407" class="cls-3" d="M749.8051,80.22H984.592c1.922,0,3.48.67157,3.48,1.5v22.2c0,.82843-1.55806,1.5-3.48,1.5H749.8051c-1.922,0-3.48-.67157-3.48-1.5V81.72C746.32506,80.89157,747.88312,80.22,749.8051,80.22Z" transform="translate(0.0085)"/><path id="rect4409" class="cls-3" d="M749.82826,108.22H984.5919c1.86243-.02817,3.42779.5974,3.50326,1.4h0c-.07519.80015-1.64111,1.42253-3.49746,1.3901l-.0058-.00011H749.82826c-1.84347.0336-3.401-.58331-3.479-1.37788l-.00107-.01211h0c.063-.80036,1.61924-1.42719,3.47608-1.40006Z" transform="translate(0.0085)"/><path id="rect4411" class="cls-3" d="M749.82826,114.62H984.5919c1.86243-.02817,3.42779.59739,3.50326,1.4h0c-.07519.80015-1.64111,1.42253-3.49746,1.39011l-.0058-.00011H749.82826c-1.84347.0336-3.401-.58331-3.479-1.37789l-.00107-.01211h0c.063-.80035,1.61924-1.42719,3.47608-1.40006Z" transform="translate(0.0085)"/><path id="rect4413" class="cls-3" d="M749.8051,121.42H984.592c1.922,0,3.48.67157,3.48,1.5v14.4c0,.82843-1.55806,1.5-3.48,1.5H749.8051c-1.922,0-3.48-.67157-3.48-1.5v-14.4C746.32506,122.09157,747.88312,121.42,749.8051,121.42Z" transform="translate(0.0085)"/><path id="rect4415" class="cls-3" d="M749.82826,144.42H984.5919c1.73011-.07652,3.28548.45627,3.50326,1.2h0c-.22918.7397-1.78108,1.26687-3.50326,1.19H749.82826c-1.721.08212-3.27408-.44895-3.48005-1.19h0C746.55439,144.87775,748.103,144.34377,749.82826,144.42Z" transform="translate(0.0085)"/><path id="rect4417" class="cls-3" d="M749.8051,154.42H984.592c1.922,0,3.48.67157,3.48,1.5v7.6c0,.82843-1.55806,1.5-3.48,1.5H749.8051c-1.922,0-3.48-.67157-3.48-1.5v-7.6C746.32506,155.09157,747.88312,154.42,749.8051,154.42Z" transform="translate(0.0085)"/><path id="rect4419" class="cls-3" d="M749.8051,168.22H984.592c1.922,0,3.48.67157,3.48,1.5v1.01c0,.82843-1.55806,1.5-3.48,1.5H749.8051c-1.922,0-3.48-.67157-3.48-1.5v-1.01C746.32506,168.89157,747.88312,168.22,749.8051,168.22Z" transform="translate(0.0085)"/><path id="rect4421" class="cls-3" d="M749.8051,174.42H984.592c1.922,0,3.48.67157,3.48,1.5v1.4c0,.82843-1.55806,1.5-3.48,1.5H749.8051c-1.922,0-3.48-.67157-3.48-1.5v-1.4C746.32506,175.09157,747.88312,174.42,749.8051,174.42Z" transform="translate(0.0085)"/><path id="rect4423" class="cls-3" d="M749.82826,185.02H984.5919c1.92559,0,3.50326.35,3.50326.8h0c0,.44-1.5776.79-3.50326.79H749.82826c-1.9256,0-3.48005-.35-3.48005-.79h0C746.46426,185.37,747.90266,185.02,749.82826,185.02Z" transform="translate(0.0085)"/><path id="rect4425" class="cls-3" d="M749.8051,194.62H984.592c1.922,0,3.48.67156,3.48,1.5v.2c0,.82843-1.55806,1.5-3.48,1.5H749.8051c-1.922,0-3.48-.67157-3.48-1.5v-.2C746.32506,195.29156,747.88312,194.62,749.8051,194.62Z" transform="translate(0.0085)"/><path id="rect4427" class="cls-3" d="M749.82826,202.62H984.5919c1.92559,0,3.50326.44,3.50326,1h0c0,.55-1.5776,1-3.50326,1H749.82826c-1.9256,0-3.48005-.44-3.48005-1h0C746.46426,203.06,747.90266,202.62,749.82826,202.62Z" transform="translate(0.0085)"/><path id="rect4429" class="cls-3" d="M749.82826,211.02H984.5919c1.92559,0,3.50326.44,3.50326,1h0c0,.55-1.5776,1-3.50326,1H749.82826c-1.9256,0-3.48005-.44-3.48005-1h0C746.78145,211.36366,748.256,210.94,749.82826,211.02Z" transform="translate(0.0085)"/><g id="g4341"><path id="path4371" class="cls-4" d="M20.85227,9.42v109.4l34.80042,8.3V17.99Z" transform="translate(0.0085)"/><g id="g4300"><path id="path4481" class="cls-4" d="M298.69881,17.96V89.18L400.2,97.48V26.58Z" transform="translate(0.0085)"/><path id="path4483" class="cls-4" d="M298.69881,89.5v29.42L400.2,131.4V101.5Z" transform="translate(0.0085)"/><path id="path4487" class="cls-4" d="M298.69881,119.25v6.92L400.2,145.31V134.86Z" transform="translate(0.0085)"/><path id="path4489" class="cls-4" d="M298.69881,126.5v1.83L400.2,151.71v-2.53Z" transform="translate(0.0085)"/><path id="path4499" class="cls-4" d="M643.87261,26.87V68.39l101.50123,8.58V35.5Z" transform="translate(0.0085)"/><path id="path4501" class="cls-4" d="M643.87261,68.56V93.11l101.50123,12V80.29Z" transform="translate(0.0085)"/><path id="path4503" class="cls-4" d="M643.87261,93.28v1.86l101.50123,15.58v-2.53Z" transform="translate(0.0085)"/><path id="path4505" class="cls-4" d="M643.87261,95.3v2.07l101.50123,20v-2.38Z" transform="translate(0.0085)"/><path id="path4507" class="cls-4" d="M643.87261,101.36v17l101.50123,19.67V121.79Z" transform="translate(0.0085)"/><path id="path4509" class="cls-4" d="M643.87261,118.66v2.05l101.50123,25.57v-2.29Z" transform="translate(0.0085)"/><path id="path4511" class="cls-4" d="M643.87261,121.06v9.95l101.50123,33.57V154.29Z" transform="translate(0.0085)"/><path id="path4513" class="cls-4" d="M643.87261,134.76v4.1l101.50123,33v-3.71Z" transform="translate(0.0085)"/><path id="path4515" class="cls-4" d="M643.87261,139.25v3l101.50123,36V174.5Z" transform="translate(0.0085)"/><path id="path4517" class="cls-4" d="M643.87261,142.35v1.27l101.50123,42.66v-1.59Z" transform="translate(0.0085)"/><path id="path4519" class="cls-4" d="M643.87261,143.74v2l101.50123,51.14V194.7Z" transform="translate(0.0085)"/><path id="path4521" class="cls-4" d="M643.87261,149.79v1.27l101.50123,53.61v-2.08Z" transform="translate(0.0085)"/><path id="path4523" class="cls-4" d="M643.87261,151.26v1.42l101.50123,59.9v-1.37Z" transform="translate(0.0085)"/></g></g><path id="rect4365" class="cls-5" d="M59.36473,130.91H294.15154c1.922,0,3.48.67157,3.48,1.5v64.5c0,.82843-1.55806,1.5-3.48,1.5H59.36473c-1.922,0-3.48-.67157-3.48-1.5v-64.5C55.88469,131.58157,57.44275,130.91,59.36473,130.91Z" transform="translate(0.0085)"/><path id="rect4387" class="cls-5" d="M404.58489,157.15H639.37168c1.922,0,3.48005.67157,3.48005,1.5v33.24c0,.82843-1.55806,1.5-3.48005,1.5H404.58489c-1.922,0-3.48-.67157-3.48-1.5V158.65C401.10485,157.82156,402.66291,157.15,404.58489,157.15Z" transform="translate(0.0085)"/><path id="rect4389" class="cls-5" d="M404.58489,196.25H639.37168c1.922,0,3.48005.67157,3.48005,1.5v20.74c0,.82843-1.55806,1.5-3.48005,1.5H404.58489c-1.922,0-3.48-.67157-3.48-1.5V197.75C401.10485,196.92157,402.66291,196.25,404.58489,196.25Z" transform="translate(0.0085)"/><path id="rect4391" class="cls-5" d="M404.58489,223.15H639.37168c1.922,0,3.48005.67157,3.48005,1.5v5.5c0,.82843-1.55806,1.5-3.48005,1.5H404.58489c-1.922,0-3.48-.67157-3.48-1.5v-5.5C401.10485,223.82156,402.66291,223.15,404.58489,223.15Z" transform="translate(0.0085)"/><path id="rect4431" class="cls-5" d="M749.8051,218.37H984.592c1.922,0,3.48.67156,3.48,1.5v26.71c0,.82843-1.55806,1.5-3.48,1.5H749.8051c-1.922,0-3.48-.67157-3.48-1.5V219.87C746.32506,219.04156,747.88312,218.37,749.8051,218.37Z" transform="translate(0.0085)"/><path id="rect4433" class="cls-5" d="M749.8051,251.46H984.592c1.922,0,3.48.67157,3.48,1.5v2.67c0,.82844-1.55806,1.5-3.48,1.5H749.8051c-1.922,0-3.48-.67156-3.48-1.5v-2.67C746.32506,252.13156,747.88312,251.46,749.8051,251.46Z" transform="translate(0.0085)"/><path id="rect4435" class="cls-5" d="M749.8051,260.23H984.592c1.922,0,3.48.67157,3.48,1.5v7.2c0,.82843-1.55806,1.5-3.48,1.5H749.8051c-1.922,0-3.48-.67157-3.48-1.5v-7.2C746.32506,260.90158,747.88312,260.23,749.8051,260.23Z" transform="translate(0.0085)"/><path id="rect4437" class="cls-5" d="M749.8051,273.53H984.592c1.922,0,3.48.67157,3.48,1.5v.13c0,.82843-1.55806,1.5-3.48,1.5H749.8051c-1.922,0-3.48-.67157-3.48-1.5v-.13C746.32506,274.20157,747.88312,273.53,749.8051,273.53Z" transform="translate(0.0085)"/><path id="rect4439" class="cls-5" d="M749.8051,280.31H984.592c1.922,0,3.48.67157,3.48,1.5v6.55c0,.82843-1.55806,1.5-3.48,1.5H749.8051c-1.922,0-3.48-.67157-3.48-1.5v-6.55C746.32506,280.98157,747.88312,280.31,749.8051,280.31Z" transform="translate(0.0085)"/><path id="rect4537" class="cls-5" d="M749.8051,293.11H984.592c1.922,0,3.48.67157,3.48,1.5v.95c0,.82843-1.55806,1.5-3.48,1.5H749.8051c-1.922,0-3.48-.67157-3.48-1.5v-.95C746.32506,293.78156,747.88312,293.11,749.8051,293.11Z" transform="translate(0.0085)"/><path id="rect4539" class="cls-5" d="M749.82826,301.11H984.5919c1.84983-.03394,3.41554.58285,3.50326,1.38h0c-.08772.79715-1.65343,1.41394-3.50326,1.38H749.82826c-1.79249.00628-3.277-.59827-3.36407-1.37h0C746.527,301.7204,748.01849,301.1041,749.82826,301.11Z" transform="translate(0.0085)"/><g id="g4362"><path id="path4373" class="cls-6" d="M20.85227,119.02v67.24l34.80042,11.47V131.5Z" transform="translate(0.0085)"/><path id="path4491" class="cls-6" d="M298.69881,131.31v35.42L400.2,193.01V157.5Z" transform="translate(0.0085)"/><path id="path4493" class="cls-6" d="M298.69881,167.31v23L400.15366,219.5V196.35Z" transform="translate(0.0085)"/><path id="path4495" class="cls-6" d="M298.69881,190.71v7.3L400.2,231.3v-8.25Z" transform="translate(0.0085)"/><path id="path4525" class="cls-6" d="M643.87261,157.92v29.36l101.50123,59.91V218.01Z" transform="translate(0.0085)"/><path id="path4527" class="cls-6" d="M643.87261,187.7v5.8l101.50123,63v-5.56Z" transform="translate(0.0085)"/><path id="path4529" class="cls-6" d="M643.87261,197.3v9.85L745.37384,269.5v-9.56Z" transform="translate(0.0085)"/><path id="path4531" class="cls-6" d="M643.87261,207.5v2.91l101.50123,65.44v-3Z" transform="translate(0.0085)"/><path id="path4533" class="cls-6" d="M643.87261,210.72v8.86l101.50123,70.09v-9.66Z" transform="translate(0.0085)"/><path id="path4535" class="cls-6" d="M643.87261,223.5v4l101.50123,69v-3.66Z" transform="translate(0.0085)"/><path id="path4541" class="cls-6" d="M643.87261,227.87v3.35l101.50123,72.57v-2.82Z" transform="translate(0.0085)"/></g></g><polygon class="cls-7" points="0 0 998.67 0 1000 309 1.33 309 0 0"/></svg>