<svg id="Layer_1" data-name="Layer 1" xmlns="http://www.w3.org/2000/svg" width="450" height="395" viewBox="0 0 450 395"><defs><style>.cls-1,.cls-3{fill:none;}.cls-1,.cls-2,.cls-3{stroke:#2c70c9;stroke-width:7px;}.cls-1,.cls-2{stroke-miterlimit:10;}.cls-2{fill:#2c70c9;}.cls-3{stroke-linejoin:round;}</style></defs><title>partition-icon</title><path id="path4491" class="cls-1" d="M111.1644,216.8344V76.6461L4,7V150.517l104.2484,67.5977,2.916-1.28"/><rect class="cls-2" x="111.1644" y="77.1582" width="117.3706" height="141.0845"/><polygon class="cls-3" points="327.602 208.947 232.44 176.333 231.607 77.158 328.008 109.656 327.602 208.947"/><polygon class="cls-3" points="326.274 267.533 231.607 218.243 231.607 180.686 326.274 229.976 326.274 267.533"/><polygon class="cls-2" points="330.968 110.424 447 110.424 446.595 209.075 330.563 209.075 330.968 110.424"/><rect class="cls-2" x="328.4131" y="229.8479" width="118.1815" height="37.5568"/><path id="path4491-2" data-name="path4491" class="cls-1" d="M111.5588,330.9921V242.1258L4,157.65v90.9764l104.6427,83.1774,2.9161-.8116"/><rect class="cls-2" x="111.5588" y="242.4504" width="117.3706" height="89.4344"/><polygon class="cls-3" points="327.208 341.887 232.44 300.948 232.002 242.45 327.602 287.691 327.208 341.887"/><polygon class="cls-3" points="327.627 391 232.002 331.885 231.607 303.707 327.233 362.822 327.627 391"/><polygon class="cls-2" points="330.563 288.178 446.595 288.178 446.2 341.968 330.168 341.968 330.563 288.178"/><polygon class="cls-2" points="330.278 362.741 446.285 362.741 446.509 390.924 330.503 390.924 330.278 362.741"/></svg>