<svg id="Layer_1" data-name="Layer 1" xmlns="http://www.w3.org/2000/svg" width="432.3893" height="309.2487" viewBox="0 0 432.3893 309.2487"><defs><style>.cls-1,.cls-3{fill:none;}.cls-1,.cls-2,.cls-3{stroke:#2c70c9;stroke-width:7px;}.cls-1,.cls-2{stroke-miterlimit:10;}.cls-2{fill:#2c70c9;}.cls-3{stroke-linejoin:round;}</style></defs><title>partition-icon</title><path id="path4491" class="cls-1" d="M116.0464,177.1V67.6l-102.9-54.4V125.3l100.1,52.8,2.8-1" transform="translate(-9.6464 -7.3906)"/><rect class="cls-2" x="106.4" y="60.6094" width="112.7" height="110.2"/><polygon class="cls-3" points="314.225 163.548 222.85 138.074 222.05 60.609 314.614 85.993 314.225 163.548"/><polygon class="cls-3" points="312.95 209.309 222.05 170.809 222.05 141.474 312.95 179.974 312.95 209.309"/><polygon class="cls-2" points="317.457 86.593 428.872 86.593 428.482 163.648 317.068 163.648 317.457 86.593"/><rect class="cls-2" x="315.0036" y="179.874" width="113.4786" height="29.3353"/><path id="path4491-2" data-name="path4491" class="cls-1" d="M116.425,266.2676V196.8549L13.1464,130.8714v71.0609L113.625,266.9015l2.8-.6339" transform="translate(-9.6464 -7.3906)"/><rect class="cls-2" x="106.7786" y="189.7178" width="112.7" height="69.8565"/><polygon class="cls-3" points="314.225 270.8 223.229 238.823 222.429 189.718 314.225 225.055 314.225 270.8"/><polygon class="cls-3" points="314.249 305.749 222.429 259.574 222.429 240.978 314.249 287.153 314.249 305.749"/><rect class="cls-2" x="317.0678" y="225.435" width="111.4145" height="45.4287"/><polygon class="cls-2" points="317.173 287.089 428.564 287.089 428.401 305.689 317.01 305.689 317.173 287.089"/></svg>