<?xml version="1.0" encoding="utf-8"?>
<!-- Generator: Adobe Illustrator 23.0.1, SVG Export Plug-In . SVG Version: 6.00 Build 0)  -->
<svg version="1.1" id="Layer_1" xmlns="http://www.w3.org/2000/svg" xmlns:xlink="http://www.w3.org/1999/xlink" x="0px" y="0px"
	 viewBox="0 0 467.6 425.9" style="enable-background:new 0 0 467.6 425.9;" xml:space="preserve">
<style type="text/css">
	.st0{fill:#FFFFFF;}
</style>
<title>Budgeticon</title>
<g>
	<path class="st0" d="M235.4,83.2c-7.5-3-10.7-5.1-10.7-9.4c0-3.3,2.5-7.1,9.2-7.1c3.8,0,7.6,0.9,10.9,2.8L247,64
		c-3.5-1.9-7.3-2.9-11.3-2.9v-8h-5.4v8.3c-8,1.2-13.1,6.4-13.1,13.3c0,7.2,5.5,11,14.3,14.3c6.4,2.5,9.8,5.3,9.8,9.8
		c0,4.7-4.2,8.1-10.3,8.1c-4.4,0-8.7-1.2-12.5-3.5l-2.1,5.5c3,2.1,8.2,3.6,13.2,3.6v8.3h5.4v-8.6c8.9-1.4,13.7-7.5,13.7-14
		C248.9,90.9,244.4,86.6,235.4,83.2z"/>
	<path class="st0" d="M437.7,273.1h-50.8V148.5h35.5l15-22.1L233.6,10.3h-1.1L28.7,126.4l14.4,22.1h35.3v124.6h-50
		c-9.9,0.7-18,8.2-19.5,18v115.1h448.3V291C455.6,281.3,447.6,273.9,437.7,273.1z M297.5,148.5h49.7v124.6h-49.7V148.5z M75.7,367.8
		c-3,3.8-7.9,5.6-15,5.6c-2.9,0-5.8-0.2-8.7-0.7v-59.2c3.3-0.9,6.8-1.3,10.2-1.2c5.6,0,9.2,1.3,11.9,4.4c2.2,2.3,3.6,5.9,3.6,10.6
		c0,5.8-2.8,10.9-7.4,13.2v0.2c4.1,1.4,9,6.2,9,15.1C79.5,360.1,78.2,364.3,75.7,367.8z M118.9,347.8c0,18.5-7,26.1-16.4,26.1
		c-8.9,0-15.6-7-15.6-25.7v-35.4h5.7v35.6c0,13.5,4.3,19.2,10.1,19.2c6.5,0,10.6-5.9,10.6-19.2v-35.6h5.7V347.8z M158,364.8
		c-4.1,5.6-10.8,8.6-19.2,8.6c-3.4,0-6.8-0.2-10.2-0.7v-59.2c3.9-0.8,7.9-1.2,11.9-1.2c8.1,0,13.8,2.6,17.6,7.5
		c3.8,4.9,6.1,11.9,6.1,21.6C164.3,351.1,162.1,359.3,158,364.8L158,364.8z M167.9,273.1h-49.4l0-124.6h49.4V273.1z M204.6,370.3
		c-4.1,2.1-8.7,3.2-13.3,3.3c-6.6,0-12-2.3-16.2-7.9c-3.7-5-6.1-13-6.1-22.4c0.1-17.9,9-31,23.5-31c3.8-0.1,7.5,0.9,10.8,2.8
		l-1.3,6.3c-2.9-1.8-6.2-2.7-9.6-2.6c-10.6,0-17.5,9.1-17.5,24.2c0,15.3,6.6,24.3,16.8,24.3c3.7,0,6.2-0.7,7.5-1.6v-17.9h-8.8v-6.2
		h14.3L204.6,370.3z M213.2,372.9v-60.1h23.5v6.5h-17.9v19h16.9v6.4h-16.9v21.7h18.8l0,6.5H213.2z M208,273.1V148.5h49.4v124.6H208z
		 M259.9,319.4v53.5h-5.7v-53.5H241v-6.6h32.2l0,6.6H259.9z M232.9,131.3L232.9,131.3c-27.5,0-49.9-20.2-49.9-45.3
		c0-25,22.3-45.3,49.9-45.3s49.9,20.2,49.9,45.2S260.5,131.3,232.9,131.3z M289.7,372.9v-4.8l4.4-6c10.7-14.1,15.5-21.6,15.6-30.3
		c0-5.9-2.1-11.3-8.3-11.3c-3.8,0-7,2.7-8.9,4.9l-1.8-5.5c2.9-3.6,7.2-5.8,11.9-5.9c9,0,12.8,8.6,12.8,16.9
		c0,10.7-5.6,19.4-14.4,31.1l-3.4,4.3v0.2h18.8l0,6.5H289.7z M336,373.9L336,373.9c-8.1,0-13.7-10.6-13.8-29.8
		c0-19.5,6.1-30.2,14.6-30.2c8.8,0,13.9,10.9,13.9,29.4C350.6,363,345.3,373.9,336,373.9z M368.2,372.9v-50.7H368l-7.3,5.4l-1.1-6
		l9.2-6.8h4.8l0,58H368.2z M409.3,364.7c-3.3,4.4-7.8,7-12.4,7.7c-2.1,0.4-3.9,0.5-5.3,0.4v-6.4c1.2,0.2,2.7,0,4.6-0.3
		c3.3-0.6,6.5-2.5,8.9-5.6c2.8-3.5,4.8-8.5,5.6-15.4h-0.2c-2.4,3.9-5.8,6.2-10,6.2c-7.6,0-12.5-7.8-12.5-17.7
		c0-10.9,5.8-20.5,14.5-20.5c8.7,0,14.1,9.6,14.1,24.3C416.6,350.3,413.5,359.2,409.3,364.7z"/>
	<path class="st0" d="M402.1,319.2c-4.9,0-8.4,5.9-8.4,14c0,7.2,3.2,12.3,8.2,12.3c3.9,0,6.9-2.6,8.4-6c0.3-0.7,0.5-1.6,0.5-2.8
		C410.8,326.7,408.1,319.2,402.1,319.2z"/>
	<path class="st0" d="M140.8,318.5c-2.2,0-4.4,0.2-6.6,0.8v47.5c1.9,0.4,3.8,0.5,5.7,0.5c12,0,18.5-9.3,18.5-25.5
		C158.5,327.5,152.7,318.5,140.8,318.5z"/>
	<path class="st0" d="M336.4,320c-5,0-8.6,8.4-8.6,24.2c0,15.1,3.4,23.6,8.5,23.6c5.8,0,8.6-9.4,8.6-24.2
		C344.9,329.4,342.3,320,336.4,320z"/>
	<path class="st0" d="M72.1,328.1c0-7-3.9-9.8-9.5-9.8c-1.7-0.1-3.4,0.1-5,0.5v19.4h5.1C68.6,338.2,72.1,333.9,72.1,328.1z"/>
	<path class="st0" d="M62.2,344.1h-4.6V367c1.6,0.3,3.1,0.4,4.7,0.4c5.8,0,11.1-3,11.1-11.7C73.4,347.5,68.3,344.1,62.2,344.1z"/>
</g>
</svg>
