<?xml version="1.0" encoding="utf-8"?>
<!-- Generator: Adobe Illustrator 23.0.4, SVG Export Plug-In . SVG Version: 6.00 Build 0)  -->
<svg version="1.1" id="Layer_1" xmlns="http://www.w3.org/2000/svg" xmlns:xlink="http://www.w3.org/1999/xlink" x="0px" y="0px"
	 viewBox="0 0 450 323" style="enable-background:new 0 0 450 323;" xml:space="preserve">
<style type="text/css">
	.st0{fill:none;stroke:#2C70C9;stroke-width:3;stroke-miterlimit:10;}
	.st1{fill:none;stroke:#2C70C9;stroke-width:8;stroke-miterlimit:10;}
	.st2{fill:#2C70C9;}
	.st3{fill:#FFFFFF;}
	.st4{font-family:'Helvetica';}
	.st5{font-size:131.8052px;}
</style>
<path id="path4491" class="st0" d="M15,13.1v112.1l102.9,54.6V67.5L15,13.1z"/>
<path id="path4493" class="st0" d="M15,127v72.8l102.9,63.8v-73.3L15,127z"/>
<path id="path4495" class="st0" d="M15,201.1v23.1L117.9,301v-26.1L15,201.1z"/>
<rect x="117.9" y="67.8" class="st1" width="112.7" height="110.2"/>
<rect x="117.9" y="191" class="st1" width="112.7" height="71"/>
<rect x="117.9" y="275.2" class="st1" width="112.7" height="25.5"/>
<polygon class="st0" points="321.5,154.9 231.4,125.6 230.6,67.8 321.5,102.4 "/>
<polygon class="st0" points="321.5,188 231.4,158.7 231.4,124.1 321.5,164 "/>
<polygon class="st0" points="321.5,215.1 230.6,180.5 231.4,158.7 321.5,198.5 "/>
<polygon class="st0" points="321.5,269.2 231.4,239.8 230.6,191 321.5,225.6 "/>
<polygon class="st0" points="321.5,297.7 230.6,263.1 231.4,241.4 321.5,279.7 "/>
<rect x="322.3" y="102.4" class="st1" width="112.7" height="52.6"/>
<rect x="322.3" y="167" class="st1" width="112.7" height="19"/>
<rect x="322.3" y="198" class="st1" width="112.7" height="16.1"/>
<rect x="322.3" y="229.1" class="st1" width="112.7" height="39.9"/>
<rect x="322.3" y="281.2" class="st1" width="112.7" height="19.5"/>
<circle class="st2" cx="241.3" cy="174.6" r="74.5"/>
<text transform="matrix(1 0 0 1 204.6467 217.4985)" class="st3 st4 st5">$</text>
</svg>
