<svg xmlns="http://www.w3.org/2000/svg" width="170" height="165" viewBox="0 0 170 165">
  <title>home_menu_icons</title>
  <g>
    <rect x="80.4538" y="8.8568" width="9.0923" height="156.1432" rx="1.706" ry="1.706" fill="#fff"/>
    <ellipse cx="39.6391" cy="28.7388" rx="17.1624" ry="17.0928" fill="#fff"/>
    <path d="M39.639,53.9373c-18.8305,0-34.0955,8.3663-34.0955,18.6867v82.8086c0,4.9643,5.96,9.026,13.2441,9.026H60.4907c7.2841,0,13.2441-4.0617,13.2441-9.026V72.624C73.7348,62.3036,58.47,53.9373,39.639,53.9373Z" fill="#fff"/>
    <g>
      <rect x="96.5799" y="12.904" width="31.9971" height="23.8335" rx="1.8633" ry="1.8633" fill="#da3a38"/>
      <path d="M126.7137,13.9038a.8748.8748,0,0,1,.8633.8633V34.874a.8748.8748,0,0,1-.8633.8633h-28.27a.875.875,0,0,1-.8635-.8633V14.7671a.875.875,0,0,1,.8635-.8633h28.27m0-2h-28.27A2.8718,2.8718,0,0,0,95.58,14.7671V34.874a2.8718,2.8718,0,0,0,2.8635,2.8633h28.27a2.8716,2.8716,0,0,0,2.8633-2.8633V14.7671a2.8717,2.8717,0,0,0-2.8633-2.8633Z" fill="#fff"/>
    </g>
    <g>
      <path d="M99.4461,54.6555h54.2622a2.8667,2.8667,0,0,1,2.8667,2.8667V75.6228a2.8662,2.8662,0,0,1-2.8662,2.8662H99.4461A2.8662,2.8662,0,0,1,96.58,75.6228V57.5217A2.8662,2.8662,0,0,1,99.4461,54.6555Z" fill="#da3a38"/>
      <path d="M153.7086,55.6557a1.8686,1.8686,0,0,1,1.8664,1.8665v18.1a1.8686,1.8686,0,0,1-1.8664,1.8665H99.4466A1.8687,1.8687,0,0,1,97.58,75.6227v-18.1a1.8687,1.8687,0,0,1,1.8667-1.8665h54.262m0-2H99.4466A3.8779,3.8779,0,0,0,95.58,57.5222v18.1a3.8779,3.8779,0,0,0,3.8667,3.8665h54.262a3.8779,3.8779,0,0,0,3.8664-3.8665v-18.1a3.8779,3.8779,0,0,0-3.8664-3.8665Z" fill="#fff"/>
    </g>
    <g>
      <path d="M99.1434,96.4075h45.5347a2.564,2.564,0,0,1,2.564,2.564v18.7061a2.5635,2.5635,0,0,1-2.5635,2.5635H99.1434a2.5635,2.5635,0,0,1-2.5635-2.5635V98.9709A2.5635,2.5635,0,0,1,99.1434,96.4075Z" fill="#da3a38"/>
      <path d="M144.6788,97.4075a1.5654,1.5654,0,0,1,1.5637,1.5637v18.7062a1.5654,1.5654,0,0,1-1.5637,1.5637H99.1436a1.5654,1.5654,0,0,1-1.5637-1.5637V98.9712a1.5654,1.5654,0,0,1,1.5637-1.5637h45.5352m0-2H99.1436A3.5743,3.5743,0,0,0,95.58,98.9712v18.7062a3.5743,3.5743,0,0,0,3.5637,3.5637h45.5352a3.5743,3.5743,0,0,0,3.5637-3.5637V98.9712a3.5743,3.5743,0,0,0-3.5637-3.5637Z" fill="#fff"/>
    </g>
    <g>
      <rect x="96.5799" y="138.1594" width="69.3281" height="23.8335" rx="3.1475" ry="3.1475" fill="#da3a38"/>
      <path d="M162.76,139.1594a2.15,2.15,0,0,1,2.1475,2.1474v17.5387a2.15,2.15,0,0,1-2.1475,2.1474H99.7274a2.15,2.15,0,0,1-2.1475-2.1474V141.3068a2.15,2.15,0,0,1,2.1475-2.1474H162.76m0-2H99.7274a4.16,4.16,0,0,0-4.1475,4.1474v17.5387a4.16,4.16,0,0,0,4.1475,4.1474H162.76a4.16,4.16,0,0,0,4.1475-4.1474V141.3068a4.16,4.16,0,0,0-4.1475-4.1474Z" fill="#fff"/>
    </g>
    <rect width="170" height="165" fill="none"/>
  </g>
</svg>
