<?xml version="1.0"?>
<!-- 
Copyright Wikimedia

Permission is hereby granted, free of charge, to any person obtaining a copy of this software and associated documentation files (the "Software"), to deal in the Software without restriction, including without limitation the rights to use, copy, modify, merge, publish, distribute, sublicense, and/or sell copies of the Software, and to permit persons to whom the Software is furnished to do so, subject to the following conditions:

The above copyright notice and this permission notice shall be included in all copies or substantial portions of the Software.

The Software is provided "as is", without warranty of any kind, express or implied, including but not limited to the warranties of merchantability, fitness for a particular purpose and noninfringement. In no event shall the authors or copyright holders be liable for any claim, damages or other liability, whether in an action of contract, tort or otherwise, arising from, out of or in connection with the Software or the use or other dealings in the Software.
-->
<svg xmlns="http://www.w3.org/2000/svg" viewBox="0 0 30 30" width="30" height="30">
	<g fill="#fff">
		<path d="M20.437 2.69c-3.37 0-5.778 3.05-8.186 5.297.322 0 .804-.16 1.285-.16.803 0 1.605.16 2.408.48 1.284-1.283 2.568-2.727 4.494-2.727.963 0 2.087.48 2.89 1.123 1.605 1.605 1.605 4.174 0 5.78l-4.174 4.172c-.642.642-1.926 1.124-2.89 1.124-2.246 0-3.37-1.446-4.172-3.212l-2.086 2.087c1.284 2.408 3.21 4.173 6.1 4.173 1.926 0 3.69-.802 4.815-2.086l4.172-4.174c1.445-1.444 2.408-3.21 2.408-5.297-.32-3.53-3.53-6.58-7.063-6.58z"/>
		<path d="M13.535 22.113l-1.444 1.444c-.64.642-1.925 1.124-2.89 1.124-.962 0-2.085-.48-2.888-1.123-1.605-1.605-1.605-4.334 0-5.778l4.174-4.175c.642-.642 1.926-1.123 2.89-1.123 2.246 0 3.37 1.605 4.172 3.21l2.087-2.087c-1.284-2.407-3.21-4.173-6.1-4.173-1.926 0-3.692.803-4.815 2.087L4.547 15.69c-2.73 2.73-2.73 7.063 0 9.63 2.568 2.57 7.062 2.73 9.47 0l3.05-3.05c-.482.162-.963.162-1.445.162-.803 0-1.445 0-2.087-.32z"/>
	</g>
</svg>