<svg width="24" height="24" xmlns="http://www.w3.org/2000/svg">
 <g>
  <title>background</title>
  <rect x="-1" y="-1" width="26" height="26" id="canvas_background" fill="none"/>
 </g>
 <defs>
  <filter height="200%" width="200%" y="-50%" x="-50%" id="svg_2_blur">
   <feGaussianBlur stdDeviation="0" in="SourceGraphic"/>
  </filter>
 </defs>
 <g>
  <title>Layer 1</title>
  <path d="m0,0l24,0l0,24l-24,0l0,-24z" fill="none" id="svg_1"/>
  <path filter="url(#svg_2_blur)" transform="rotate(-180 12,12) " d="m12,6l0,-4l-5,5l5,5l0,-4c3.31,0 6,2.69 6,6s-2.69,6 -6,6s-6,-2.69 -6,-6l-2,0c0,4.42 3.58,8 8,8s8,-3.58 8,-8s-3.58,-8 -8,-8z" id="svg_2" fill="#000000" opacity="0.2"/>
 </g>
</svg>