<?xml version="1.0" encoding="utf-8"?>
<svg version="1.1" id="Layer_1" xmlns="http://www.w3.org/2000/svg" xmlns:xlink="http://www.w3.org/1999/xlink" x="0px" y="0px"
	 viewBox="0 0 175 170" style="enable-background:new 0 0 175 170;" xml:space="preserve">
<style type="text/css">
	.st0{fill:none;stroke:#FFFFFF;stroke-width:5;stroke-linejoin:round;}
	.st1{fill:#FFFFFF;}
	.st2{fill:#DA3A38;stroke:#FFFFFF;stroke-width:2;stroke-linejoin:bevel;}
</style>
<title>home_menu_icons</title>
<g>
	<path class="st0" d="M153,2.5H22C11.2,2.5,2.5,13.8,2.5,27.7v114.6c0,13.9,8.7,25.2,19.5,25.2h131c10.7,0,19.5-11.3,19.5-25.2V27.7
		C172.5,13.8,163.8,2.5,153,2.5z"/>
	<path class="st1" d="M73.3,62.1c0,12.7-7.9,22.9-17.7,22.9S37.9,74.7,37.9,62.1c0-12.7,7.9-22.9,17.7-22.9S73.3,49.4,73.3,62.1z"/>
	<path class="st1" d="M87.5,124c0,3.8-2.4,6.9-5.3,6.9H29.1c-2.9,0-5.3-3.1-5.3-6.9v-4.6c0-13.9,8.7-25.2,19.5-25.2H68
		c10.7,0,19.5,11.3,19.5,25.2V124z"/>
	<g>
		<path class="st2" d="M145.9,130.8h-39c-2.9,0-5.3-3.1-5.3-6.9s2.4-6.9,5.3-6.9h39c2.9,0,5.3,3.1,5.3,6.9S148.9,130.8,145.9,130.8z
			"/>
		<path class="st2" d="M145.9,94.2h-39c-2.9,0-5.3-3.1-5.3-6.9s2.4-6.9,5.3-6.9h39c2.9,0,5.3,3.1,5.3,6.9S148.9,94.2,145.9,94.2z"/>
		<path class="st2" d="M145.9,57.5l-39,0c-2.9,0-5.3-3.1-5.3-6.9s2.4-6.9,5.3-6.9l39,0c2.9,0,5.3,3.1,5.3,6.9S148.9,57.5,145.9,57.5
			z"/>
	</g>
</g>
</svg>
