<svg xmlns="http://www.w3.org/2000/svg" viewBox="-7 -40 525 440">
  <title>home_menu_icons</title>
  <g>
    <path d="m453.332031 0h-394.664062c-32.363281 0-58.667969 26.304688-58.667969 58.667969v266.664062c0 32.363281 26.304688 58.667969 58.667969 58.667969h394.664062c32.363281 0 58.667969-26.304688 58.667969-58.667969v-266.664062c0-32.363281-26.304688-58.667969-58.667969-58.667969zm0 0" style="fill:none;stroke:#FFF;stroke-width:20px;stroke-linejoin:round;"/>
    <path d="m213.332031 138.667969c0 29.453125-23.875 53.332031-53.332031 53.332031s-53.332031-23.878906-53.332031-53.332031c0-29.457031 23.875-53.335938 53.332031-53.335938s53.332031 23.878907 53.332031 53.335938zm0 0" style="fill:#FFF"/>
    <path d="m256 282.667969c0 8.832031-7.167969 16-16 16h-160c-8.832031 0-16-7.167969-16-16v-10.667969c0-32.363281 26.304688-58.667969 58.667969-58.667969h74.664062c32.363281 0 58.667969 26.304688 58.667969 58.667969zm0 0" style="fill:#FFF"/>
    <g>
      <path d="m432 298.667969h-117.332031c-8.832031 0-16-7.167969-16-16s7.167969-16 16-16h117.332031c8.832031 0 16 7.167969 16 16s-7.167969 16-16 16zm0 0" style="fill:#da3a38;stroke:#FFF;stroke-width:5px;stroke-linejoin:bevel;"/>
      <path d="m432 213.332031h-117.332031c-8.832031 0-16-7.167969-16-16s7.167969-16 16-16h117.332031c8.832031 0 16 7.167969 16 16s-7.167969 16-16 16zm0 0" style="fill:#da3a38;stroke:#FFF;stroke-width:5px;stroke-linejoin:bevel;"/>
      <path d="m432 128h-117.332031c-8.832031 0-16-7.167969-16-16s7.167969-16 16-16h117.332031c8.832031 0 16 7.167969 16 16s-7.167969 16-16 16zm0 0" style="fill:#da3a38;stroke:#FFF;stroke-width:5px;stroke-linejoin:bevel;"/>
    </g>
  </g>
</svg>
