<?xml version="1.0" encoding="utf-8"?>
<!-- Generator: Adobe Illustrator 23.0.4, SVG Export Plug-In . SVG Version: 6.00 Build 0)  -->
<svg version="1.1" id="Layer_1" xmlns="http://www.w3.org/2000/svg" xmlns:xlink="http://www.w3.org/1999/xlink" x="0px" y="0px"
	 viewBox="0 0 930.5 304.5" style="enable-background:new 0 0 930.5 304.5;" xml:space="preserve">
<style type="text/css">
	.st0{fill:#DA3A38;stroke:#FFFFFF;stroke-width:7;stroke-linecap:round;stroke-linejoin:round;stroke-miterlimit:10;}
	.st1{fill:none;stroke:#FFFFFF;stroke-width:15;stroke-linecap:round;stroke-linejoin:round;stroke-miterlimit:10;}
	.st2{fill:#FFFFFF;stroke:#FFFFFF;stroke-width:7;stroke-linecap:round;stroke-linejoin:round;stroke-miterlimit:10;}
	.st3{fill:none;stroke:#FFFFFF;stroke-width:7;stroke-miterlimit:10;}
	.st4{fill:#DA3A38;stroke:#FFFFFF;stroke-width:7;stroke-miterlimit:10;}
	.st5{fill:none;stroke:#FFFFFF;stroke-width:7;stroke-linejoin:round;stroke-miterlimit:10;}
	.st6{fill:#DA3A38;stroke:#FFFFFF;stroke-width:20;stroke-miterlimit:50;}
	.st7{fill:none;stroke:#FFFFFF;stroke-width:20;stroke-linecap:round;stroke-linejoin:round;}
</style>
<g>
	<polygon class="st0" points="916.7,285.5 728.7,285.5 782.3,153 862.5,153 	"/>
	<g>
		<path class="st1" d="M854.1,45.8l-0.9,84.7l0,0l63.6,155.1H728.7l62.7-155.1l0,0V45.8h-1.6c-6.6,0-11.9-5.4-11.9-11.9v-1.5
			c0-6.6,5.4-11.9,11.9-11.9h65.9c6.6,0,11.9,5.4,11.9,11.9v1.5c0,6.6-5.4,11.9-11.9,11.9H854.1z"/>
		<circle class="st2" cx="797.3" cy="217.3" r="7.5"/>
		<circle class="st2" cx="832" cy="182.6" r="4.7"/>
		<circle class="st2" cx="849" cy="238.7" r="7.4"/>
	</g>
</g>
<g>
	<path id="path4491" class="st3" d="M91.9,173.1V63.6L14.2,9.2v112.1l75.6,52.8L91.9,173.1"/>
	<path id="path4493" class="st3" d="M91.9,256v-66l-77.7-66.9v72.8l75.7,61.3L91.9,256"/>
	<rect x="91.9" y="63.9" class="st4" width="85.1" height="110.2"/>
	<rect x="91.9" y="191.4" class="st4" width="85.1" height="66.7"/>
	<polygon class="st5" points="245.7,151 177.6,121.7 177,63.9 245.7,98.5 	"/>
	<polygon class="st5" points="246.3,191.4 177.6,175.9 177.6,131.3 245.7,171.2 	"/>
	<polygon class="st5" points="246.6,255.5 177.6,235.9 177,191.4 245.7,224.7 	"/>
	<polygon class="st5" points="245.7,296.8 177,259.2 177.6,237.5 245.7,276.3 	"/>
	<rect x="246.3" y="98.5" class="st4" width="85.1" height="52.6"/>
	<rect x="246.3" y="172.4" class="st4" width="85.1" height="19"/>
	<rect x="246.3" y="225.2" class="st4" width="85.1" height="30.3"/>
	<rect x="246.3" y="277.3" class="st4" width="85.1" height="19.5"/>
</g>
<g>
	<path class="st6" d="M498.8,26.3h62.5c6.3,0,11.4,5.1,11.4,11.4v51.8c0,6.3-5.1,11.4-11.4,11.4h-62.5c-6.3,0-11.4-5.1-11.4-11.4
		V37.7C487.4,31.4,492.5,26.3,498.8,26.3z"/>
	<path class="st6" d="M498.8,205.1h62.5c6.3,0,11.4,5.1,11.4,11.4v51.8c0,6.3-5.1,11.4-11.4,11.4h-62.5c-6.3,0-11.4-5.1-11.4-11.4
		v-51.8C487.4,210.2,492.5,205.1,498.8,205.1z"/>
	<path class="st6" d="M615.6,205.1h62.5c6.3,0,11.4,5.1,11.4,11.4v51.8c0,6.3-5.1,11.4-11.4,11.4h-62.5c-6.3,0-11.4-5.1-11.4-11.4
		v-51.8C604.2,210.2,609.3,205.1,615.6,205.1z"/>
	<path class="st6" d="M381.9,205.1h62.5c6.3,0,11.4,5.1,11.4,11.4v51.8c0,6.3-5.1,11.4-11.4,11.4h-62.5c-6.3,0-11.4-5.1-11.4-11.4
		v-51.8C370.5,210.2,375.6,205.1,381.9,205.1z"/>
	<line class="st7" x1="530" y1="106.7" x2="530" y2="205.1"/>
	<line class="st7" x1="412.9" y1="147.9" x2="647.1" y2="147.9"/>
	<line class="st7" x1="647.1" y1="147.9" x2="647.1" y2="205.1"/>
	<line class="st7" x1="412.9" y1="202.5" x2="412.9" y2="148.5"/>
</g>
</svg>
