<?xml version="1.0" encoding="utf-8"?>
<!-- Generator: Adobe Illustrator 23.0.2, SVG Export Plug-In . SVG Version: 6.00 Build 0)  -->
<svg version="1.1" id="Layer_1" xmlns="http://www.w3.org/2000/svg" xmlns:xlink="http://www.w3.org/1999/xlink" x="0px" y="0px"
	 viewBox="0 0 600 600" style="enable-background:new 0 0 600 600;" xml:space="preserve">
<style type="text/css">
	.st0{fill:#2C70C9;}
	.st1{fill:none;stroke:#2C70C9;stroke-width:15;stroke-miterlimit:10;}
</style>
<title>appicons</title>
<g>
	<path class="st0" d="M526.5,76.5V532H69.1V76.5H526.5 M526.5,52.5H69.1c-13.3,0-24,10.7-24,24V532c0,13.3,10.7,24,24,24h457.5
		c13.3,0,24-10.7,24-24V76.5C550.5,63.2,539.8,52.5,526.5,52.5L526.5,52.5z"/>
</g>
<rect x="332.7" y="100.3" class="st1" width="171.3" height="204.9"/>
<rect x="91.2" y="100.3" class="st1" width="216" height="409.7"/>
<rect x="332.7" y="329.8" class="st1" width="171.3" height="107.1"/>
<rect x="332.7" y="462.7" class="st1" width="83" height="47.3"/>
<rect x="440.3" y="462.7" class="st1" width="63.7" height="47.3"/>
</svg>
