<svg xmlns="http://www.w3.org/2000/svg" width="500" height="500" viewBox="0 0 500 500">
  <path d="M160.9313,214.0964a89.0067,89.0067,0,0,1,4.1882-27.0525c-6.6057,4.5324-13.4294,9.7038-20.4512,15.6012a322.9537,322.9537,0,0,0-38.53,38.5176,370.1249,370.1249,0,0,0,40.2881,48.2412c21.7431,21.7465,53.7064,47.1386,88.7885,53.212L253.7753,303.08c-1.2525.0522-2.51.0852-3.7753.0852A89.0687,89.0687,0,0,1,160.9313,214.0964Z" fill="none"/>
  <path d="M354.5707,289.026a363.2776,363.2776,0,0,0,39.3379-47.7686,328.77,328.77,0,0,0-36.792-37.0309L297.015,332.25C319.5989,321.2529,339.5585,304.2585,354.5707,289.026Z" fill="none"/>
  <path d="M386.5682,80.95l.0447-.0953-23.9494-9.7192L327.38,146.2937c-18.0927-9.4539-38.01-16.68-59.1751-19.4011a89.7852,89.7852,0,0,0-36.41,0C143.8955,138.1959,77.4286,227.1183,74.46,231.149l-6.21,8.4317,5.5049,8.9082c2.8679,4.6407,64.6171,103.0676,147.9168,122.9744l-25.3838,54.07,23.8733,9.6883L386.4921,80.9191ZM182.1307,232.9457l70.02,49.8455c-6.8231,9.5848-28.0289,6.1964-47.3645-7.5681S175.3076,242.53,182.1307,232.9457Zm53.084,109.67c-35.0821-6.0734-67.0454-31.4655-88.7885-53.212a370.1249,370.1249,0,0,1-40.2881-48.2412,322.9537,322.9537,0,0,1,38.53-38.5176c7.0218-5.8974,13.8455-11.0688,20.4512-15.6012A89.1215,89.1215,0,0,0,250,303.165c1.2653,0,2.5228-.033,3.7753-.0852Z" fill="#4382d6"/>
  <path d="M425.54,231.149a335.4208,335.4208,0,0,0-54.7624-56.0229l-13.6614,29.1a328.77,328.77,0,0,1,36.792,37.0309,363.2776,363.2776,0,0,1-39.3379,47.7686c-15.0122,15.2325-34.9718,32.2269-57.5557,43.2237l-18.5278,39.4665C362.19,352.386,423.4725,253.0533,426.306,248.3893l5.3936-8.877Z" fill="#4382d6"/>
  <path d="M204.7866,275.2231c19.3356,13.7645,40.5414,17.1529,47.3645,7.5681l-70.02-49.8455C175.3076,242.53,185.4511,261.4587,204.7866,275.2231Z" fill="#fff"/>
</svg>
