<svg xmlns="http://www.w3.org/2000/svg" width="500" height="500" viewBox="0 0 500 500">
  <g>
    <g>
      <polygon points="52.927 189.67 122.11 124.399 319.028 310.179 249.845 375.45 52.927 189.67" fill="#fff"/>
      <path d="M122.11,145.7082,296.4416,310.18l-46.5968,43.9612L75.5132,189.6694,122.11,145.7082m0-42.6188-91.7706,86.58,219.5054,207.09,91.7706-86.58L122.11,103.0894Z" fill="#fff"/>
    </g>
    <g>
      <polygon points="180.971 310.33 377.89 124.55 447.074 189.821 250.155 375.601 180.971 310.33" fill="#fff"/>
      <path d="M377.89,145.8592l46.5968,43.9613L250.1553,354.2917,203.5585,310.33,377.89,145.8592m0-42.6187L158.3847,310.33l91.7705,86.58L469.6607,189.82l-91.7706-86.58Z" fill="#fff"/>
    </g>
  </g>
</svg>
