<svg xmlns="http://www.w3.org/2000/svg" width="600" height="600" viewBox="0 0 600 600">
  <title>appicons</title>
  <g>
    <path d="M480.578,114.5581l-39.9963-.0961-4.6829.0961v46.3651c0,1.2759-1.53,2.3948-3.2774,2.3948H167.3786c-1.747,0-3.2774-1.1189-3.2774-2.3948V114.462l-44.6792.0961c-24.0637,0-43.64,17.64-43.64,39.3241v362.74c0,21.6842,19.5759,39.3241,43.64,39.3241H480.578c24.0637,0,43.64-17.64,43.64-39.3241v-362.74C524.2176,132.198,504.6417,114.5581,480.578,114.5581ZM167.3786,186.54H432.6214c15.5638,0,28.2252-11.4922,28.2252-25.617V137.78H480.578c10.3078,0,18.6918,7.2239,18.6918,16.1019v362.74c0,8.8779-8.384,16.1019-18.6918,16.1019H119.422c-10.3078,0-18.6918-7.224-18.6918-16.1019v-362.74c0-8.878,8.384-16.1019,18.6918-16.1019H139.15v23.1429C139.15,175.048,151.8148,186.54,167.3786,186.54Z" fill="#1e75e8"/>
    <g>
      <path d="M411.6587,136.7243H188.3413V95.5348l46.5494.0045c1.49-20.5524,32.4623-37.6284,68.9581-37.6284s67.4683,17.076,68.9582,37.6284l38.8517-.0045Zm-220.2166-3.1009H408.5579V98.6356l-38.7943.0046V97.09c0-19.5561-30.1851-36.0779-65.9148-36.0779S237.9341,77.5336,237.9341,97.09v1.55l-46.492-.0046Z" fill="#1e75e8"/>
      <g>
        <path d="M411.8632,83.2284H383.9459a41.0579,41.0579,0,0,0-4.6186-7.9489c-13.0127-17.6732-41.56-29.6748-75.4785-29.6748S241.3854,57.6063,228.3715,75.28a41.0528,41.0528,0,0,0-4.6186,7.9489H188.1365c-7.6242,0-13.828,5.5164-13.828,12.2958V136.736c0,6.7794,6.2038,12.2947,13.828,12.2947H411.8632c7.6242,0,13.8281-5.5153,13.8281-12.2947V95.5242C425.6913,88.7448,419.4874,83.2284,411.8632,83.2284Zm-1.7551,51.9459H189.8917V97.0848h30.91v.0045H236.385c0-20.3967,30.895-37.6282,67.4638-37.6282,36.5712,0,67.4662,17.2315,67.4662,37.6282h15.5832v-.0045h23.21Z" fill="#1e75e8"/>
        <path d="M411.8647,150.5813H188.1353c-8.4789,0-15.3771-6.2108-15.3771-13.8449V95.5242c0-7.6356,6.8982-13.8465,15.3771-13.8465h34.6154a43.2963,43.2963,0,0,1,4.3727-7.3176C240.89,55.667,270.29,44.0539,303.8488,44.0539c33.5616,0,62.9623,11.6131,76.7255,30.3062a43.0959,43.0959,0,0,1,4.3727,7.3176h26.9177c8.4789,0,15.3771,6.2109,15.3771,13.8465v41.2122C427.2418,144.3705,420.3436,150.5813,411.8647,150.5813ZM188.1353,84.7786c-6.768,0-12.2763,4.8209-12.2763,10.7456v41.2122c0,5.9247,5.5083,10.7441,12.2763,10.7441H411.8647c6.768,0,12.2763-4.8194,12.2763-10.7441V95.5242c0-5.9247-5.5083-10.7456-12.2763-10.7456H382.9272l-.4058-.9327a39.5771,39.5771,0,0,0-4.4424-7.6477c-13.1908-17.9148-41.6346-29.0435-74.23-29.0435-32.5925,0-61.0363,11.1287-74.23,29.0435a39.8074,39.8074,0,0,0-4.4454,7.6492l-.4057.9312Zm223.5234,51.9457H188.3413V95.5348l46.5494.0045c1.49-20.5524,32.4623-37.6284,68.9581-37.6284s67.4683,17.076,68.9582,37.6284l38.8517-.0045Zm-220.2166-3.1009H408.5579V98.6356l-38.7943.0046V97.09c0-19.5561-30.1851-36.0779-65.9148-36.0779S237.9341,77.5336,237.9341,97.09v1.55l-46.492-.0046Z" fill="#1e75e8"/>
      </g>
    </g>
    <path d="M217.9238,432.631A11.4894,11.4894,0,0,1,229.38,444.0868v38.27a11.4894,11.4894,0,0,1-11.4557,11.4558H171.7323a11.4894,11.4894,0,0,1-11.4557-11.4558v-38.27a11.4893,11.4893,0,0,1,11.4557-11.4558h46.1915m0-7H171.7323a18.4767,18.4767,0,0,0-18.4557,18.4558v38.27a18.4767,18.4767,0,0,0,18.4557,18.4558h46.1915A18.4767,18.4767,0,0,0,236.38,482.3564v-38.27a18.4767,18.4767,0,0,0-18.4557-18.4558Z" fill="#1e75e8"/>
    <g>
      <path d="M217.9238,215.9616A11.4894,11.4894,0,0,1,229.38,227.4174v38.2695a11.49,11.49,0,0,1-11.4557,11.4558H171.7323a11.4894,11.4894,0,0,1-11.4557-11.4558V227.4174a11.4893,11.4893,0,0,1,11.4557-11.4558h46.1915m0-7H171.7323a18.4767,18.4767,0,0,0-18.4557,18.4558v38.2695a18.4767,18.4767,0,0,0,18.4557,18.4558h46.1915A18.4767,18.4767,0,0,0,236.38,265.6869V227.4174a18.4767,18.4767,0,0,0-18.4557-18.4558Z" fill="#1e75e8"/>
      <path d="M217.9238,325.1667A11.4894,11.4894,0,0,1,229.38,336.6225V374.892a11.4894,11.4894,0,0,1-11.4557,11.4558H171.7323a11.4893,11.4893,0,0,1-11.4557-11.4558V336.6225a11.4893,11.4893,0,0,1,11.4557-11.4558h46.1915m0-7H171.7323a18.4767,18.4767,0,0,0-18.4557,18.4558V374.892a18.4767,18.4767,0,0,0,18.4557,18.4558h46.1915A18.4767,18.4767,0,0,0,236.38,374.892V336.6225a18.4767,18.4767,0,0,0-18.4557-18.4558Z" fill="#1e75e8"/>
    </g>
    <line x1="281.7115" y1="248.2929" x2="450.9615" y2="248.2929" fill="none" stroke="#1e75e8" stroke-miterlimit="10" stroke-width="7"/>
    <line x1="281.7115" y1="355.7572" x2="450.9615" y2="355.7572" fill="none" stroke="#1e75e8" stroke-miterlimit="10" stroke-width="7"/>
    <line x1="281.7115" y1="463.2216" x2="450.9615" y2="463.2216" fill="none" stroke="#1e75e8" stroke-miterlimit="10" stroke-width="7"/>
  </g>
</svg>
