<?xml version="1.0" encoding="utf-8"?>
<!-- Generator: Adobe Illustrator 22.1.0, SVG Export Plug-In . SVG Version: 6.00 Build 0)  -->
<svg version="1.1" xmlns="http://www.w3.org/2000/svg" xmlns:xlink="http://www.w3.org/1999/xlink" x="0px" y="0px"
	 viewBox="0 0 500 500" style="enable-background:new 0 0 500 500;" xml:space="preserve">
<style type="text/css">
	.st0{fill:#4382D6;}
</style>
<path class="st0" d="M381.9,227.9c4.1,4.3,8,8.7,11.8,13.2c-11.7,17-24.9,33-39.3,47.8c-15,15.2-35,32.2-57.6,43.2l0,0l0,0
	l-18.5,39.5c83.7-19.3,145-118.7,147.8-123.3l5.4-8.9l-6-8.3c-16-20.7-34.4-39.6-54.8-56L357,204.2"/>
<path class="st0" d="M362.7,71.1l-35.3,75.2c-18.1-9.5-38-16.7-59.2-19.4c-12-2.5-24.4-2.5-36.4,0
	C143.9,138.2,77.4,227.1,74.5,231.1l-6.2,8.4l5.5,8.9c2.9,4.6,64.6,103.1,147.9,123l-25.4,54.1l23.9,9.7L386.5,80.9h0.1v-0.1
	L362.7,71.1z M182.1,232.9L182.1,232.9L182.1,232.9l70,49.8c-2.6,3.6-7.1,5.4-12.9,5.4c-9.6,0.1-22.4-4.4-34.5-13
	C185.5,261.5,175.3,242.5,182.1,232.9z M235.2,342.6c-35.1-6.1-67-31.5-88.8-53.2c-14.8-14.9-28.3-31-40.3-48.2
	c11.7-13.9,24.6-26.8,38.5-38.5c7-5.9,13.8-11.1,20.5-15.6c-14.9,46.9,11,97,57.9,111.9c8.7,2.8,17.8,4.2,26.9,4.2
	c1.3,0,2.5,0,3.8-0.1L235.2,342.6z"/>
</svg>
