<?xml version="1.0" encoding="utf-8"?>
<!-- Generator: Adobe Illustrator 22.1.0, SVG Export Plug-In . SVG Version: 6.00 Build 0)  -->
<svg version="1.1" xmlns="http://www.w3.org/2000/svg" xmlns:xlink="http://www.w3.org/1999/xlink" x="0px" y="0px"
	 viewBox="0 0 500 500" style="enable-background:new 0 0 500 500;" xml:space="preserve">
<style type="text/css">
	.st0{fill:#AA7005;}
</style>
<path class="st0" d="M250,68.2c100.4,0,181.8,81.4,181.8,181.8S350.4,431.8,250,431.8S68.3,350.4,68.3,250
	c0-48.2,19.1-94.4,53.2-128.5C155.5,87.3,201.8,68.1,250,68.2 M250,37.2C132.5,37.2,37.2,132.5,37.2,250S132.5,462.8,250,462.8
	S462.8,367.5,462.8,250S367.5,37.2,250,37.2z"/>
<path class="st0" d="M168.4,225.5h163.3c4.9,0,8.9,4,8.9,8.9v31.3c0,4.9-4,8.9-8.9,8.9H168.4c-4.9,0-8.9-4-8.9-8.9v-31.3
	C159.5,229.5,163.5,225.5,168.4,225.5z"/>
</svg>
