<svg xmlns="http://www.w3.org/2000/svg" width="500" height="500" viewBox="0 0 500 500">
  <title>glyph</title>
  <g>
    <g>
      <rect x="106.8579" y="218.1133" width="148.9722" height="73.4336"/>
      <path d="M240.33,233.6131v42.4336H122.3579V233.6131H240.33m28.644-31H93.7141a2.3561,2.3561,0,0,0-2.3562,2.356v99.7215a2.3561,2.3561,0,0,0,2.3562,2.3561h175.26a2.3561,2.3561,0,0,0,2.356-2.3561V204.9691a2.356,2.356,0,0,0-2.356-2.356Z"/>
    </g>
    <g>
      <polygon points="274.932 160.674 385.83 250 274.932 339.326 274.932 160.674"/>
      <path d="M290.4319,193.0617,361.1213,250l-70.6894,56.9383V193.0617m-27.79-61.3a3.1962,3.1962,0,0,0-3.21,3.2007V365.038a3.1964,3.1964,0,0,0,3.21,3.2007,3.1446,3.1446,0,0,0,1.9886-.7127L407.4513,252.488a3.1947,3.1947,0,0,0,0-4.976L264.6306,132.474a3.1446,3.1446,0,0,0-1.9886-.7127Z"/>
    </g>
  </g>
</svg>
