<svg xmlns="http://www.w3.org/2000/svg" width="600" height="600" viewBox="0 0 600 600">
  <title>appicons</title>
  <rect x="279.0583" y="58.5637" width="28.118" height="482.8726" rx="5.2758" ry="5.2758" fill="#1e75e8"/>
  <ellipse cx="152.8389" cy="120.0486" rx="53.0747" ry="52.8594" fill="#1e75e8"/>
  <path d="M152.8384,197.9749c-58.2333,0-105.44,25.8729-105.44,57.7887V511.849c0,15.3522,18.43,27.9129,40.9573,27.9129H217.3222c22.526,0,40.9573-12.5607,40.9573-27.9129V255.7636C258.2795,223.8478,211.0727,197.9749,152.8384,197.9749Z" fill="#1e75e8"/>
  <rect x="344.6438" y="61.5487" width="79.8902" height="105.1359" rx="8.8547" ry="8.8547" transform="translate(498.7056 -270.4723) rotate(90)" fill="none" stroke="#1e75e8" stroke-miterlimit="10" stroke-width="10"/>
  <rect x="387.9357" y="144.2819" width="79.8902" height="191.7195" rx="11.9573" ry="11.9573" transform="translate(668.0225 -187.7391) rotate(90)" fill="none" stroke="#1e75e8" stroke-miterlimit="10" stroke-width="10"/>
  <rect x="373.5051" y="284.7376" width="79.8902" height="162.8583" rx="11.0206" ry="11.0206" transform="translate(779.6169 -47.2834) rotate(90)" fill="none" stroke="#1e75e8" stroke-miterlimit="10" stroke-width="10"/>
  <rect x="402.3663" y="381.9015" width="79.8902" height="220.5808" rx="12.8258" ry="12.8258" transform="translate(934.5032 49.8805) rotate(90)" fill="none" stroke="#1e75e8" stroke-miterlimit="10" stroke-width="10"/>
</svg>
