<?xml version="1.0" encoding="UTF-8" standalone="no"?>
<!-- Created with Inkscape (http://www.inkscape.org/) -->

<svg
   xmlns:dc="http://purl.org/dc/elements/1.1/"
   xmlns:cc="http://creativecommons.org/ns#"
   xmlns:rdf="http://www.w3.org/1999/02/22-rdf-syntax-ns#"
   xmlns:svg="http://www.w3.org/2000/svg"
   xmlns="http://www.w3.org/2000/svg"
   xmlns:sodipodi="http://sodipodi.sourceforge.net/DTD/sodipodi-0.dtd"
   xmlns:inkscape="http://www.inkscape.org/namespaces/inkscape"
   width="254"
   height="250"
   viewBox="0 0 254 250"
   id="svg2"
   version="1.1"
   inkscape:version="0.91 r13725"
   sodipodi:docname="Money.svg">
  <defs
     id="defs4">
    <inkscape:path-effect
       effect="spiro"
       id="path-effect5020"
       is_visible="true" />
    <marker
       inkscape:stockid="Arrow1Lstart"
       orient="auto"
       refY="0"
       refX="0"
       id="marker4806"
       style="overflow:visible"
       inkscape:isstock="true">
      <path
         id="path4808"
         d="M 0,0 5,-5 -12.5,0 5,5 0,0 Z"
         style="fill:#000000;fill-opacity:1;fill-rule:evenodd;stroke:#000000;stroke-width:1pt;stroke-opacity:1"
         transform="matrix(0.8,0,0,0.8,10,0)"
         inkscape:connector-curvature="0" />
    </marker>
    <marker
       inkscape:stockid="Arrow1Lstart"
       orient="auto"
       refY="0"
       refX="0"
       id="marker4742"
       style="overflow:visible"
       inkscape:isstock="true">
      <path
         id="path4744"
         d="M 0,0 5,-5 -12.5,0 5,5 0,0 Z"
         style="fill:#000000;fill-opacity:1;fill-rule:evenodd;stroke:#000000;stroke-width:1pt;stroke-opacity:1"
         transform="matrix(0.8,0,0,0.8,10,0)"
         inkscape:connector-curvature="0" />
    </marker>
    <marker
       inkscape:stockid="Arrow1Lstart"
       orient="auto"
       refY="0"
       refX="0"
       id="marker4684"
       style="overflow:visible"
       inkscape:isstock="true">
      <path
         id="path4686"
         d="M 0,0 5,-5 -12.5,0 5,5 0,0 Z"
         style="fill:#000000;fill-opacity:1;fill-rule:evenodd;stroke:#000000;stroke-width:1pt;stroke-opacity:1"
         transform="matrix(0.8,0,0,0.8,10,0)"
         inkscape:connector-curvature="0" />
    </marker>
    <marker
       inkscape:stockid="Arrow1Lstart"
       orient="auto"
       refY="0"
       refX="0"
       id="marker4632"
       style="overflow:visible"
       inkscape:isstock="true">
      <path
         id="path4634"
         d="M 0,0 5,-5 -12.5,0 5,5 0,0 Z"
         style="fill:#000000;fill-opacity:1;fill-rule:evenodd;stroke:#000000;stroke-width:1pt;stroke-opacity:1"
         transform="matrix(0.8,0,0,0.8,10,0)"
         inkscape:connector-curvature="0" />
    </marker>
    <marker
       inkscape:stockid="Arrow1Lstart"
       orient="auto"
       refY="0"
       refX="0"
       id="marker4586"
       style="overflow:visible"
       inkscape:isstock="true">
      <path
         id="path4588"
         d="M 0,0 5,-5 -12.5,0 5,5 0,0 Z"
         style="fill:#000000;fill-opacity:1;fill-rule:evenodd;stroke:#000000;stroke-width:1pt;stroke-opacity:1"
         transform="matrix(0.8,0,0,0.8,10,0)"
         inkscape:connector-curvature="0" />
    </marker>
    <marker
       inkscape:stockid="Arrow1Lstart"
       orient="auto"
       refY="0"
       refX="0"
       id="marker4546"
       style="overflow:visible"
       inkscape:isstock="true">
      <path
         id="path4548"
         d="M 0,0 5,-5 -12.5,0 5,5 0,0 Z"
         style="fill:#000000;fill-opacity:1;fill-rule:evenodd;stroke:#000000;stroke-width:1pt;stroke-opacity:1"
         transform="matrix(0.8,0,0,0.8,10,0)"
         inkscape:connector-curvature="0" />
    </marker>
    <marker
       inkscape:stockid="Arrow1Lstart"
       orient="auto"
       refY="0"
       refX="0"
       id="marker4512"
       style="overflow:visible"
       inkscape:isstock="true">
      <path
         id="path4514"
         d="M 0,0 5,-5 -12.5,0 5,5 0,0 Z"
         style="fill:#000000;fill-opacity:1;fill-rule:evenodd;stroke:#000000;stroke-width:1pt;stroke-opacity:1"
         transform="matrix(0.8,0,0,0.8,10,0)"
         inkscape:connector-curvature="0" />
    </marker>
    <marker
       inkscape:stockid="Arrow1Lstart"
       orient="auto"
       refY="0"
       refX="0"
       id="marker4484"
       style="overflow:visible"
       inkscape:isstock="true">
      <path
         id="path4486"
         d="M 0,0 5,-5 -12.5,0 5,5 0,0 Z"
         style="fill:#000000;fill-opacity:1;fill-rule:evenodd;stroke:#000000;stroke-width:1pt;stroke-opacity:1"
         transform="matrix(0.8,0,0,0.8,10,0)"
         inkscape:connector-curvature="0" />
    </marker>
    <marker
       inkscape:stockid="Arrow1Lstart"
       orient="auto"
       refY="0"
       refX="0"
       id="marker4462"
       style="overflow:visible"
       inkscape:isstock="true">
      <path
         id="path4464"
         d="M 0,0 5,-5 -12.5,0 5,5 0,0 Z"
         style="fill:#000000;fill-opacity:1;fill-rule:evenodd;stroke:#000000;stroke-width:1pt;stroke-opacity:1"
         transform="matrix(0.8,0,0,0.8,10,0)"
         inkscape:connector-curvature="0" />
    </marker>
    <marker
       inkscape:stockid="Arrow1Lstart"
       orient="auto"
       refY="0"
       refX="0"
       id="Arrow1Lstart"
       style="overflow:visible"
       inkscape:isstock="true">
      <path
         id="path4192"
         d="M 0,0 5,-5 -12.5,0 5,5 0,0 Z"
         style="fill:#000000;fill-opacity:1;fill-rule:evenodd;stroke:#000000;stroke-width:1pt;stroke-opacity:1"
         transform="matrix(0.8,0,0,0.8,10,0)"
         inkscape:connector-curvature="0" />
    </marker>
  </defs>
  <sodipodi:namedview
     id="base"
     pagecolor="#ffffff"
     bordercolor="#666666"
     borderopacity="1.0"
     inkscape:pageopacity="0.0"
     inkscape:pageshadow="2"
     inkscape:zoom="0.42960528"
     inkscape:cx="-0.39461469"
     inkscape:cy="457.17765"
     inkscape:document-units="px"
     inkscape:current-layer="layer1"
     showgrid="false"
     inkscape:snap-to-guides="true"
     inkscape:snap-grids="false"
     inkscape:window-width="1826"
     inkscape:window-height="981"
     inkscape:window-x="246"
     inkscape:window-y="378"
     inkscape:window-maximized="0"
     inkscape:snap-midpoints="false"
     units="px" />
  <metadata
     id="metadata7">
    <rdf:RDF>
      <cc:Work
         rdf:about="">
        <dc:format>image/svg+xml</dc:format>
        <dc:type
           rdf:resource="http://purl.org/dc/dcmitype/StillImage" />
        <dc:title></dc:title>
      </cc:Work>
    </rdf:RDF>
  </metadata>
  <g
     inkscape:label="Layer 1"
     inkscape:groupmode="layer"
     id="layer1"
     transform="translate(0,-802.3623)">
    <flowRoot
       xml:space="preserve"
       id="flowRoot4138"
       style="font-style:normal;font-weight:normal;font-size:106.7828064px;line-height:125%;font-family:sans-serif;letter-spacing:0px;word-spacing:0px;fill:#000000;fill-opacity:1;stroke:none;stroke-width:1px;stroke-linecap:butt;stroke-linejoin:miter;stroke-opacity:1"
       transform="matrix(0.74936748,0,0,0.89602188,80.984656,11.436472)"><flowRegion
         id="flowRegion4140"><rect
           id="rect4142"
           width="61.871834"
           height="122.63884"
           x="160.20389"
           y="159.63989"
           style="font-size:106.7828064px" /></flowRegion><flowPara
         id="flowPara4144">$</flowPara></flowRoot>    <rect
       style="fill:#005172;fill-opacity:0.34901962;fill-rule:evenodd;stroke:#000000;stroke-width:10;stroke-linecap:square;stroke-linejoin:round;stroke-miterlimit:4;stroke-dasharray:none;stroke-dashoffset:0;stroke-opacity:1"
       id="rect3336"
       width="243.45105"
       height="239.03162"
       x="5.2744746"
       y="-1046.8781"
       ry="34.250484"
       rx="34.250484"
       transform="scale(1,-1)" />
    <g
       transform="matrix(3.9192558,0,0,3.2792708,-230.34886,618.73955)"
       style="font-style:normal;font-weight:normal;font-size:40px;line-height:125%;font-family:sans-serif;letter-spacing:0px;word-spacing:0px;fill:#000000;fill-opacity:1;stroke:none;stroke-width:1px;stroke-linecap:butt;stroke-linejoin:miter;stroke-opacity:1"
       id="flowRoot4990">
      <path
         d="m 93.348145,77.143009 0,3.349609 q 2.016601,0.324707 3.298339,1.333008 1.281739,1.008301 2.443848,3.093262 l -3.33252,1.862793 q -1.503906,-2.734375 -3.930664,-2.734375 -1.503906,0 -2.495117,0.888672 -0.991211,0.888672 -0.991211,2.221679 0,1.213379 0.803223,2.016602 0.786133,0.786133 3.178711,1.862793 2.067871,0.939941 3.417969,1.777344 1.350097,0.820312 2.033691,1.589355 1.931152,2.084961 1.931152,5.041504 0,2.905275 -1.743164,5.126955 -1.726074,2.20459 -4.614257,2.97363 l 0,3.5376 -2.990723,0 0,-3.43506 q -3.34961,-0.54687 -5.109863,-2.30713 -1.760254,-1.76025 -2.597657,-5.434569 l 3.759766,-0.786133 q 0.769043,2.597652 1.879883,3.708492 1.162109,1.05957 3.093261,1.05957 1.879883,0 3.144532,-1.21337 1.247558,-1.19629 1.247558,-3.093266 0,-1.691895 -1.04248,-2.717285 -0.529785,-0.495606 -1.572266,-1.11084 -1.02539,-0.632324 -2.631836,-1.367188 -3.315429,-1.486816 -4.35791,-2.734375 -1.657715,-1.862793 -1.657715,-4.460449 0,-1.230469 0.393067,-2.290039 0.393066,-1.05957 1.127929,-1.914062 0.751954,-0.871583 1.845704,-1.503907 1.09375,-0.632324 2.478027,-0.991211 l 0,-3.349609 2.990723,0 z"
         style="font-style:normal;font-variant:normal;font-weight:500;font-stretch:normal;font-size:35px;font-family:Futura;-inkscape-font-specification:'Futura Medium'"
         id="path5018" />
    </g>
  </g>
</svg>
