<?xml version="1.0" encoding="utf-8"?>
<!-- Generator: Adobe Illustrator 22.1.0, SVG Export Plug-In . SVG Version: 6.00 Build 0)  -->
<svg version="1.1" xmlns="http://www.w3.org/2000/svg" xmlns:xlink="http://www.w3.org/1999/xlink" x="0px" y="0px"
	 viewBox="0 0 500 500" style="enable-background:new 0 0 500 500;" xml:space="preserve">
<path d="M407.9,248c-0.1-0.2-0.3-0.3-0.5-0.5l-142.8-115c-0.6-0.5-1.3-0.7-2-0.7l0,0c-1.8,0-3.2,1.4-3.2,3.2l0,0v67.7H93.7
	c-1.3,0-2.4,1.1-2.4,2.4v99.7c0,1.3,1.1,2.4,2.4,2.4l0,0h165.7v58c0,1.8,1.4,3.2,3.2,3.2l0,0c0.7,0,1.4-0.3,2-0.7l142.8-115
	C408.8,251.4,409,249.4,407.9,248z"/>
</svg>
