<?xml version="1.0" encoding="utf-8"?>
<!-- Generator: Adobe Illustrator 22.1.0, SVG Export Plug-In . SVG Version: 6.00 Build 0)  -->
<svg version="1.1" id="Layer_1" xmlns="http://www.w3.org/2000/svg" xmlns:xlink="http://www.w3.org/1999/xlink" x="0px" y="0px"
	 viewBox="0 0 500 500" style="enable-background:new 0 0 500 500;" xml:space="preserve">
<style type="text/css">
	.st0{fill:#880707;}
</style>
<path class="st0" d="M250,68.2c100.4,0,181.7,81.4,181.7,181.8c0,100.4-81.4,181.7-181.8,181.7S68.2,350.4,68.2,250
	c0-48.2,19.1-94.4,53.2-128.5C155.5,87.3,201.8,68.1,250,68.2 M250,37.2C132.5,37.2,37.2,132.5,37.2,250S132.5,462.8,250,462.8
	S462.8,367.5,462.8,250S367.5,37.2,250,37.2z"/>
<g>
	<path class="st0" d="M276.6,126.3L276.6,126.3l-53.1,0c-5.8,0-10.3,9-9.6,19.2l9.5,147.8c0.6,8.7,4.7,15.3,9.6,15.3h32.2
		c4.8,0,8.9-6.4,9.6-14.9l11.5-147.8C286.9,135.5,282.4,126.3,276.6,126.3z"/>
	<path class="st0" d="M250,326.3c-13.1,0.1-23.6,10.8-23.5,23.9c0.1,13.1,10.8,23.6,23.9,23.5c13-0.1,23.5-10.7,23.5-23.7
		C273.8,336.9,263.1,326.3,250,326.3z"/>
</g>
</svg>
