<svg id="Layer_1" data-name="Layer 1" xmlns="http://www.w3.org/2000/svg" xmlns:xlink="http://www.w3.org/1999/xlink" width="669.18" height="1909.93" viewBox="0 0 669.18 1909.93"><defs><style>.cls-1{fill:#284262;}.cls-2{opacity:0.4;}.cls-10,.cls-11,.cls-12,.cls-13,.cls-14,.cls-15,.cls-16,.cls-17,.cls-18,.cls-19,.cls-20,.cls-21,.cls-22,.cls-23,.cls-24,.cls-25,.cls-26,.cls-27,.cls-28,.cls-29,.cls-3,.cls-30,.cls-31,.cls-32,.cls-33,.cls-34,.cls-35,.cls-36,.cls-37,.cls-38,.cls-39,.cls-4,.cls-40,.cls-41,.cls-42,.cls-43,.cls-44,.cls-45,.cls-46,.cls-47,.cls-48,.cls-49,.cls-5,.cls-50,.cls-51,.cls-52,.cls-6,.cls-7,.cls-8,.cls-9{stroke:#fff;stroke-miterlimit:10;stroke-width:0.75px;}.cls-3{fill:url(#linear-gradient);}.cls-4{fill:url(#linear-gradient-2);}.cls-5{fill:url(#linear-gradient-3);}.cls-6{fill:url(#linear-gradient-4);}.cls-7{fill:url(#linear-gradient-5);}.cls-8{fill:url(#linear-gradient-6);}.cls-9{fill:url(#linear-gradient-7);}.cls-10{fill:url(#linear-gradient-8);}.cls-11{fill:url(#linear-gradient-9);}.cls-12{fill:url(#linear-gradient-10);}.cls-13{fill:url(#linear-gradient-11);}.cls-14{fill:url(#linear-gradient-12);}.cls-15{fill:url(#linear-gradient-13);}.cls-16{fill:url(#linear-gradient-14);}.cls-17{fill:url(#linear-gradient-15);}.cls-18{fill:url(#linear-gradient-16);}.cls-19{fill:url(#linear-gradient-17);}.cls-20{fill:url(#linear-gradient-18);}.cls-21{fill:url(#linear-gradient-19);}.cls-22{fill:url(#linear-gradient-20);}.cls-23{fill:url(#linear-gradient-21);}.cls-24{fill:url(#linear-gradient-22);}.cls-25{fill:url(#linear-gradient-23);}.cls-26{fill:url(#linear-gradient-24);}.cls-27{fill:url(#linear-gradient-25);}.cls-28{fill:url(#linear-gradient-26);}.cls-29{fill:url(#linear-gradient-27);}.cls-30{fill:url(#linear-gradient-28);}.cls-31{fill:url(#linear-gradient-29);}.cls-32{fill:url(#linear-gradient-30);}.cls-33{fill:url(#linear-gradient-31);}.cls-34{fill:url(#linear-gradient-32);}.cls-35{fill:url(#linear-gradient-33);}.cls-36{fill:url(#linear-gradient-34);}.cls-37{fill:url(#linear-gradient-35);}.cls-38{fill:url(#linear-gradient-36);}.cls-39{fill:url(#linear-gradient-37);}.cls-40{fill:url(#linear-gradient-38);}.cls-41{fill:url(#linear-gradient-39);}.cls-42{fill:url(#linear-gradient-40);}.cls-43{fill:url(#linear-gradient-41);}.cls-44{fill:url(#linear-gradient-42);}.cls-45{fill:url(#linear-gradient-43);}.cls-46{fill:url(#linear-gradient-44);}.cls-47{fill:url(#linear-gradient-45);}.cls-48{fill:url(#linear-gradient-46);}.cls-49{fill:url(#linear-gradient-47);}.cls-50{fill:url(#linear-gradient-48);}.cls-51{fill:url(#linear-gradient-49);}.cls-52{fill:url(#linear-gradient-50);}</style><linearGradient id="linear-gradient" x1="585.62" y1="162.84" x2="590.45" y2="167.66" gradientTransform="translate(-8116.45 28668.6) rotate(-90) scale(48 53)" gradientUnits="userSpaceOnUse"><stop offset="0" stop-color="#807e7e"/><stop offset="1" stop-color="#838282"/></linearGradient><linearGradient id="linear-gradient-2" x1="555.19" y1="218.61" x2="559.66" y2="223.09" gradientTransform="translate(-3496.73 15707.18) rotate(-90) scale(28 16)" gradientUnits="userSpaceOnUse"><stop offset="0" stop-color="#959393"/><stop offset="1" stop-color="#939191"/></linearGradient><linearGradient id="linear-gradient-3" x1="552.98" y1="231.36" x2="559.72" y2="238.11" gradientTransform="translate(-3684.32 15731.18) rotate(-90) scale(28 18)" gradientUnits="userSpaceOnUse"><stop offset="0" stop-color="#868485"/><stop offset="1" stop-color="#858383"/></linearGradient><linearGradient id="linear-gradient-4" x1="528.91" y1="193.63" x2="537.04" y2="201.75" gradientTransform="translate(-4957.27 11876.36) rotate(-90) scale(22 28)" gradientUnits="userSpaceOnUse"><stop offset="0" stop-color="#828181"/><stop offset="1" stop-color="#828181"/></linearGradient><linearGradient id="linear-gradient-5" x1="540.26" y1="165.25" x2="543.64" y2="168.63" gradientTransform="translate(-7757.76 13156.3) rotate(-90) scale(24 50)" gradientUnits="userSpaceOnUse"><stop offset="0" stop-color="#807e7e"/><stop offset="1" stop-color="#7f7e7e"/></linearGradient><linearGradient id="linear-gradient-6" x1="582.45" y1="165.33" x2="587.46" y2="170.34" gradientTransform="translate(-7757.76 24042.31) rotate(-90) scale(41 50)" gradientUnits="userSpaceOnUse"><stop offset="0" stop-color="#818080"/><stop offset="1" stop-color="#7c7a7b"/></linearGradient><linearGradient id="linear-gradient-7" x1="565.44" y1="218.61" x2="569.9" y2="223.06" gradientTransform="translate(-3496.73 17614.59) rotate(-90) scale(31 16)" gradientUnits="userSpaceOnUse"><stop offset="0" stop-color="#949292"/><stop offset="1" stop-color="#8e8c8c"/></linearGradient><linearGradient id="linear-gradient-8" x1="533.54" y1="238.76" x2="538.95" y2="244.16" gradientTransform="translate(-3111.85 11830.36) rotate(-90) scale(22 13)" gradientUnits="userSpaceOnUse"><stop offset="0" stop-color="#8d8b8b"/><stop offset="1" stop-color="#8c8a8a"/></linearGradient><linearGradient id="linear-gradient-9" x1="577.66" y1="169.02" x2="582.56" y2="173.9" gradientTransform="translate(-7244.53 24135.31) rotate(-90) scale(41 46)" gradientUnits="userSpaceOnUse"><stop offset="0" stop-color="#878585"/><stop offset="1" stop-color="#868485"/></linearGradient><linearGradient id="linear-gradient-10" x1="602.87" y1="167.82" x2="608.44" y2="173.39" gradientTransform="translate(-7244.53 42091.49) rotate(-90) scale(69 46)" gradientUnits="userSpaceOnUse"><stop offset="0" stop-color="#828181"/><stop offset="1" stop-color="#858383"/></linearGradient><linearGradient id="linear-gradient-11" x1="556.73" y1="262.3" x2="562.46" y2="268.04" gradientTransform="translate(-3171.14 17038.12) rotate(-90) scale(30 14)" gradientUnits="userSpaceOnUse"><stop offset="0" stop-color="#878585"/><stop offset="1" stop-color="#878585"/></linearGradient><linearGradient id="linear-gradient-12" x1="564.02" y1="206.62" x2="569.52" y2="212.13" gradientTransform="translate(-4444.09 18962.53) rotate(-90) scale(33 24)" gradientUnits="userSpaceOnUse"><stop offset="0" stop-color="#838282"/><stop offset="1" stop-color="#858383"/></linearGradient><linearGradient id="linear-gradient-13" x1="534.35" y1="178.19" x2="540.09" y2="183.93" gradientTransform="translate(-5749.05 13189.3) rotate(-90) scale(24 34)" gradientUnits="userSpaceOnUse"><stop offset="0" stop-color="#8c8a8a"/><stop offset="1" stop-color="#8e8c8c"/></linearGradient><linearGradient id="linear-gradient-14" x1="585.14" y1="157.85" x2="591.07" y2="163.79" gradientTransform="translate(-8058.26 26660.19) rotate(-90) scale(45 52)" xlink:href="#linear-gradient-7"/><linearGradient id="linear-gradient-15" x1="551.23" y1="157.14" x2="558.06" y2="163.97" gradientTransform="translate(-8058.26 15731.18) rotate(-90) scale(28 52)" gradientUnits="userSpaceOnUse"><stop offset="0" stop-color="#888686"/><stop offset="1" stop-color="#8a8989"/></linearGradient><linearGradient id="linear-gradient-16" x1="562.34" y1="343.24" x2="568.49" y2="349.4" gradientTransform="translate(-2337.08 17634.59) rotate(-90) scale(31 7)" gradientUnits="userSpaceOnUse"><stop offset="0" stop-color="#949292"/><stop offset="1" stop-color="#928f90"/></linearGradient><linearGradient id="linear-gradient-17" x1="563.25" y1="157.8" x2="570.16" y2="164.73" gradientTransform="translate(-7936.05 17634.59) rotate(-90) scale(31 51)" gradientUnits="userSpaceOnUse"><stop offset="0" stop-color="#888686"/><stop offset="1" stop-color="#8f8d8e"/></linearGradient><linearGradient id="linear-gradient-18" x1="576.88" y1="173.64" x2="576.88" y2="173.64" gradientTransform="translate(-5766.69 37096.09) rotate(-90) scale(61 34)" gradientUnits="userSpaceOnUse"><stop offset="0" stop-color="#9d9b9b"/><stop offset="1" stop-color="#a6a4a4"/></linearGradient><linearGradient id="linear-gradient-19" x1="576.88" y1="211.23" x2="576.88" y2="211.23" gradientTransform="translate(-3876.27 37096.09) rotate(-90) scale(61 19)" gradientUnits="userSpaceOnUse"><stop offset="0" stop-color="#a9a6a6"/><stop offset="1" stop-color="#aca9a9"/></linearGradient><linearGradient id="linear-gradient-20" x1="570.68" y1="172.37" x2="573.32" y2="175" gradientTransform="translate(-5670.73 34526.86) rotate(-90) scale(57 33)" gradientUnits="userSpaceOnUse"><stop offset="0" stop-color="#b4b1b1"/><stop offset="1" stop-color="#afacac"/></linearGradient><linearGradient id="linear-gradient-21" x1="545.25" y1="425.34" x2="552.59" y2="432.67" gradientTransform="translate(-2085.49 13754.77) rotate(-90) scale(25 5)" gradientUnits="userSpaceOnUse"><stop offset="0" stop-color="#8c8a8a"/><stop offset="1" stop-color="#8a8787"/></linearGradient><linearGradient id="linear-gradient-22" x1="528.69" y1="163.53" x2="552.78" y2="187.63" gradientTransform="translate(-5670.73 19079.53) rotate(-90) scale(33)" gradientUnits="userSpaceOnUse"><stop offset="0" stop-color="#b4b1b1"/><stop offset="1" stop-color="#acaaaa"/></linearGradient><linearGradient id="linear-gradient-23" x1="526.51" y1="163.56" x2="549.73" y2="186.79" gradientTransform="translate(-5297.85 19079.53) rotate(-90) scale(33 30)" gradientUnits="userSpaceOnUse"><stop offset="0" stop-color="#b8b5b5"/><stop offset="1" stop-color="#b5b2b2"/></linearGradient><linearGradient id="linear-gradient-24" x1="573.07" y1="176.12" x2="575.69" y2="178.74" gradientTransform="translate(-5297.85 23540.84) rotate(-90) scale(40 30)" gradientUnits="userSpaceOnUse"><stop offset="0" stop-color="#b9b7b7"/><stop offset="1" stop-color="#b2b0b0"/></linearGradient><linearGradient id="linear-gradient-25" x1="591.43" y1="163.65" x2="596.3" y2="168.51" gradientTransform="translate(-6437.51 33800.39) rotate(-90) scale(56 39)" gradientUnits="userSpaceOnUse"><stop offset="0" stop-color="#b1aeae"/><stop offset="1" stop-color="#aaa7a7"/></linearGradient><linearGradient id="linear-gradient-26" x1="535.24" y1="164.48" x2="539.24" y2="168.48" gradientTransform="translate(-6437.51 13878.77) rotate(-90) scale(25 39)" gradientUnits="userSpaceOnUse"><stop offset="0" stop-color="#afadad"/><stop offset="1" stop-color="#a5a2a2"/></linearGradient><linearGradient id="linear-gradient-27" x1="568.28" y1="180.89" x2="571.19" y2="183.8" gradientTransform="translate(-4910 20934.95) rotate(-90) scale(36 27)" xlink:href="#linear-gradient-25"/><linearGradient id="linear-gradient-28" x1="547.43" y1="187.98" x2="553.35" y2="193.91" gradientTransform="translate(-4628.39 15783.18) rotate(-90) scale(28 25)" gradientUnits="userSpaceOnUse"><stop offset="0" stop-color="#a09d9d"/><stop offset="1" stop-color="#9e9c9c"/></linearGradient><linearGradient id="linear-gradient-29" x1="528.36" y1="164.7" x2="533.67" y2="170" gradientTransform="translate(-6424.51 12570.83) rotate(-90) scale(23 39)" gradientUnits="userSpaceOnUse"><stop offset="0" stop-color="#a6a4a4"/><stop offset="1" stop-color="#a09d9d"/></linearGradient><linearGradient id="linear-gradient-30" x1="602.52" y1="158.42" x2="607.12" y2="163.03" gradientTransform="translate(-7936.05 38796.17) rotate(-90) scale(64 51)" gradientUnits="userSpaceOnUse"><stop offset="0" stop-color="#858383"/><stop offset="1" stop-color="#868485"/></linearGradient><linearGradient id="linear-gradient-31" x1="602.66" y1="182.09" x2="609.69" y2="189.12" gradientTransform="translate(-5605.73 38796.17) rotate(-90) scale(64 33)" gradientUnits="userSpaceOnUse"><stop offset="0" stop-color="#818080"/><stop offset="1" stop-color="#7e7d7d"/></linearGradient><linearGradient id="linear-gradient-32" x1="581.99" y1="166.67" x2="586.21" y2="170.9" gradientTransform="translate(-6536.81 23376.84) rotate(-90) scale(40)" gradientUnits="userSpaceOnUse"><stop offset="0" stop-color="#8a8787"/><stop offset="1" stop-color="#838282"/></linearGradient><linearGradient id="linear-gradient-33" x1="560.89" y1="155.45" x2="566.37" y2="160.94" gradientTransform="translate(-7964.05 18333.06) rotate(-90) scale(32 51)" xlink:href="#linear-gradient-29"/><linearGradient id="linear-gradient-34" x1="584.58" y1="157.04" x2="588.08" y2="160.54" gradientTransform="translate(-7964.05 26660.19) rotate(-90) scale(45 51)" gradientUnits="userSpaceOnUse"><stop offset="0" stop-color="#9a9797"/><stop offset="1" stop-color="#9d9b9b"/></linearGradient><linearGradient id="linear-gradient-35" x1="553.73" y1="171.42" x2="557.24" y2="174.93" gradientTransform="translate(-5672.73 15735.18) rotate(-90) scale(28 33)" gradientUnits="userSpaceOnUse"><stop offset="0" stop-color="#979495"/><stop offset="1" stop-color="#9d9b9b"/></linearGradient><linearGradient id="linear-gradient-36" x1="587.42" y1="183.09" x2="590.16" y2="185.83" gradientTransform="translate(-4781.68 26640.19) rotate(-90) scale(45 26)" gradientUnits="userSpaceOnUse"><stop offset="0" stop-color="#9a9797"/><stop offset="1" stop-color="#9e9c9c"/></linearGradient><linearGradient id="linear-gradient-37" x1="572.54" y1="163.62" x2="572.54" y2="163.62" gradientTransform="translate(-8660.42 34541.19) rotate(-90) scale(57)" gradientUnits="userSpaceOnUse"><stop offset="0" stop-color="#878585"/><stop offset="1" stop-color="#908e8f"/></linearGradient><linearGradient id="linear-gradient-38" x1="572.54" y1="152.3" x2="572.54" y2="152.3" gradientTransform="translate(-11822.81 34541.19) rotate(-90) scale(57 82)" gradientUnits="userSpaceOnUse"><stop offset="0" stop-color="#828181"/><stop offset="1" stop-color="#838282"/></linearGradient><linearGradient id="linear-gradient-39" x1="567.05" y1="156.14" x2="575.9" y2="164.99" gradientTransform="translate(-8310.84 34526.86) rotate(-90) scale(57 54)" gradientUnits="userSpaceOnUse"><stop offset="0" stop-color="#9a9797"/><stop offset="1" stop-color="#9b999a"/></linearGradient><linearGradient id="linear-gradient-40" x1="569.22" y1="152.3" x2="569.22" y2="152.3" gradientTransform="translate(-11822.81 33213.25) rotate(-90) scale(55 82)" gradientUnits="userSpaceOnUse"><stop offset="0" stop-color="#7c7b7c"/><stop offset="1" stop-color="#858383"/></linearGradient><linearGradient id="linear-gradient-41" x1="599.24" y1="154.25" x2="610.23" y2="165.23" gradientTransform="translate(-9784.44 53087.49) rotate(-90) scale(86 66)" gradientUnits="userSpaceOnUse"><stop offset="0" stop-color="#818080"/><stop offset="1" stop-color="#8a8989"/></linearGradient><linearGradient id="linear-gradient-42" x1="493.77" y1="136.26" x2="541.53" y2="184.02" gradientTransform="translate(-8310.84 15882.18) rotate(-90) scale(28 54)" gradientUnits="userSpaceOnUse"><stop offset="0" stop-color="#959393"/><stop offset="1" stop-color="#a19f9f"/></linearGradient><linearGradient id="linear-gradient-43" x1="599.13" y1="173.31" x2="608.98" y2="183.16" gradientTransform="translate(-6373.51 53087.49) rotate(-90) scale(86 39)" gradientUnits="userSpaceOnUse"><stop offset="0" stop-color="#928f90"/><stop offset="1" stop-color="#928f90"/></linearGradient><linearGradient id="linear-gradient-44" x1="504.31" y1="148.74" x2="545.79" y2="190.23" gradientTransform="translate(-6540.81 15867.18) rotate(-90) scale(28 40)" gradientUnits="userSpaceOnUse"><stop offset="0" stop-color="#a9a6a6"/><stop offset="1" stop-color="#a5a2a2"/></linearGradient><linearGradient id="linear-gradient-45" x1="600.07" y1="165.81" x2="606" y2="171.73" gradientTransform="translate(-6540.81 43437.43) rotate(-90) scale(71 40)" gradientUnits="userSpaceOnUse"><stop offset="0" stop-color="#aaa7a7"/><stop offset="1" stop-color="#a19f9f"/></linearGradient><linearGradient id="linear-gradient-46" x1="603.58" y1="172.67" x2="609.86" y2="178.94" gradientTransform="translate(-6373.51 46003.31) rotate(-90) scale(75 39)" gradientUnits="userSpaceOnUse"><stop offset="0" stop-color="#979495"/><stop offset="1" stop-color="#8f8d8e"/></linearGradient><linearGradient id="linear-gradient-47" x1="601.38" y1="187.32" x2="608.88" y2="194.83" gradientTransform="translate(-4743.68 46003.31) rotate(-90) scale(75 26)" gradientUnits="userSpaceOnUse"><stop offset="0" stop-color="#9b999a"/><stop offset="1" stop-color="#9b999a"/></linearGradient><linearGradient id="linear-gradient-48" x1="574.79" y1="174.84" x2="580.78" y2="180.83" gradientTransform="translate(-6245.19 24135.31) rotate(-90) scale(41 38)" gradientUnits="userSpaceOnUse"><stop offset="0" stop-color="#8a8989"/><stop offset="1" stop-color="#8f8d8e"/></linearGradient><linearGradient id="linear-gradient-49" x1="546.64" y1="189.93" x2="552.13" y2="195.42" gradientTransform="translate(-4743.68 15783.18) rotate(-90) scale(28 26)" gradientUnits="userSpaceOnUse"><stop offset="0" stop-color="#9d9b9b"/><stop offset="1" stop-color="#979495"/></linearGradient><linearGradient id="linear-gradient-50" x1="533.86" y1="179.98" x2="539.09" y2="185.22" gradientTransform="translate(-5494.44 13213.3) rotate(-90) scale(24 32)" gradientUnits="userSpaceOnUse"><stop offset="0" stop-color="#949292"/><stop offset="1" stop-color="#8f8d8e"/></linearGradient></defs><title>backbanner</title><rect class="cls-1" x="1.64" y="1.49" width="666" height="1904.59"/><g class="cls-2"><g class="cls-2"><line class="cls-3" x1="667.64" y1="348.27" x2="667.64" y2="490.53"/><polygon class="cls-4" points="71.1 34.18 1.64 87.09 55.74 140 71.1 34.18"/><polygon class="cls-5" points="601.78 208.03 463.34 124.88 509.5 230.71 601.78 208.03"/><polygon class="cls-6" points="667.64 196.7 463.34 124.88 601.78 208.03 667.64 196.7"/><polygon class="cls-7" points="667.64 105.99 463.34 124.88 667.64 196.7 667.64 105.99"/><polygon class="cls-8" points="667.64 0.67 463.34 124.88 667.64 105.99 667.64 0.67"/><polygon class="cls-9" points="71.1 34.18 1.64 0.67 1.64 87.09 71.1 34.18"/><polygon class="cls-10" points="48.83 0.67 1.64 0.67 71.1 34.18 48.83 0.67"/><polygon class="cls-11" points="667.64 348.27 494.1 321.41 667.64 490.53 667.64 348.27"/><polygon class="cls-12" points="667.64 348.27 667.64 196.7 494.1 321.41 667.64 348.27"/><polygon class="cls-13" points="601.78 208.03 509.5 230.71 494.1 321.41 601.78 208.03"/><polygon class="cls-14" points="667.64 196.7 601.78 208.03 494.1 321.41 667.64 196.7"/><polygon class="cls-15" points="494.1 321.41 509.5 230.71 248 321.41 494.1 321.41"/><polygon class="cls-16" points="509.5 230.71 109.58 151.34 248 321.41 509.5 230.71"/><polygon class="cls-17" points="509.5 230.71 463.34 124.88 109.58 151.34 509.5 230.71"/><polygon class="cls-18" points="109.58 151.34 71.1 34.18 55.74 140 109.58 151.34"/><polygon class="cls-19" points="463.34 124.88 71.1 34.18 109.58 151.34 463.34 124.88"/><path class="cls-20" d="M137.07,1906.24" transform="translate(1.64 0.67)"/><path class="cls-21" d="M137.07,1906.24" transform="translate(1.64 0.67)"/><line class="cls-22" x1="138.71" y1="1906.91" x2="1.64" y2="1906.91"/><polygon class="cls-23" points="48.83 0.67 71.1 34.18 82.66 0.67 48.83 0.67"/><polygon class="cls-24" points="32.66 638.88 1.64 1906.91 138.71 1906.91 32.66 638.88"/><polygon class="cls-25" points="1.64 638.88 1.64 1906.91 32.66 638.88 1.64 638.88"/><polygon class="cls-26" points="1.64 513.49 1.64 638.88 32.66 638.88 1.64 513.49"/><polygon class="cls-27" points="148.02 427.23 1.64 513.49 32.66 638.88 148.02 427.23"/><polygon class="cls-28" points="55.74 408.34 1.64 513.49 148.02 427.23 55.74 408.34"/><polygon class="cls-29" points="1.64 366.76 1.64 513.49 55.74 408.34 1.64 366.76"/><polygon class="cls-30" points="55.74 408.34 148.02 427.23 248 321.41 55.74 408.34"/><polygon class="cls-31" points="1.64 366.76 55.74 408.34 248 321.41 1.64 366.76"/><polygon class="cls-32" points="463.34 124.88 371.06 0.67 71.1 34.18 463.34 124.88"/><polygon class="cls-33" points="667.64 0.67 371.06 0.67 463.34 124.88 667.64 0.67"/><polygon class="cls-34" points="71.1 34.18 371.06 0.67 82.66 0.67 71.1 34.18"/><polygon class="cls-35" points="248 321.41 1.64 245.82 1.64 366.76 248 321.41"/><polygon class="cls-36" points="109.58 151.34 1.64 245.82 248 321.41 109.58 151.34"/><polygon class="cls-37" points="55.74 140 1.64 245.82 109.58 151.34 55.74 140"/><polygon class="cls-38" points="55.74 140 1.64 87.09 1.64 245.82 55.74 140"/><path class="cls-39" d="M666,1906.24" transform="translate(1.64 0.67)"/><path class="cls-40" d="M666,1906.24" transform="translate(1.64 0.67)"/><line class="cls-41" x1="667.64" y1="1906.91" x2="138.71" y2="1906.91"/><path class="cls-42" d="M666,1906.24" transform="translate(1.64 0.67)"/><line class="cls-43" x1="667.64" y1="490.53" x2="667.64" y2="1906.91"/><polygon class="cls-44" points="340.3 695.57 138.71 1906.91 667.64 1906.91 340.3 695.57"/><polygon class="cls-45" points="667.64 1906.91 667.64 490.53 340.3 695.57 667.64 1906.91"/><polygon class="cls-46" points="32.66 638.88 138.71 1906.91 340.3 695.57 32.66 638.88"/><polygon class="cls-47" points="148.02 427.23 32.66 638.88 340.3 695.57 148.02 427.23"/><polygon class="cls-48" points="340.3 695.57 667.64 490.53 347.98 412.11 340.3 695.57"/><polygon class="cls-49" points="347.98 412.11 148.02 427.23 340.3 695.57 347.98 412.11"/><polygon class="cls-50" points="667.64 490.53 494.1 321.41 347.98 412.11 667.64 490.53"/><polygon class="cls-51" points="248 321.41 148.02 427.23 347.98 412.11 248 321.41"/><polygon class="cls-52" points="494.1 321.41 248 321.41 347.98 412.11 494.1 321.41"/></g></g></svg>