<svg xmlns="http://www.w3.org/2000/svg" viewBox="0 0 600 600">
  <title>appicons</title>
  <path d="M300,69a230.14,230.14,0,1,1-89.91,18.14A229.56,229.56,0,0,1,300,69m0-23C159.72,46,46,159.72,46,300S159.72,554,300,554,554,440.28,554,300,440.28,46,300,46Z" fill="#1e75e8"/>
  <path d="M216.5,110A99.5,99.5,0,1,1,117,209.5,99.62,99.62,0,0,1,216.5,110m0-15A114.5,114.5,0,1,0,331,209.5,114.5,114.5,0,0,0,216.5,95Z" fill="#1e75e8"/>
  <path d="M348,299a111,111,0,1,1-78.49,32.51A110.3,110.3,0,0,1,348,299m0-15A126,126,0,1,0,474,410,126,126,0,0,0,348,284Z" fill="#1e75e8"/>
  <path d="M418,137a72,72,0,1,1-72,72,72.08,72.08,0,0,1,72-72m0-15a87,87,0,1,0,87,87,87,87,0,0,0-87-87Z" fill="#1e75e8"/>
  <path d="M159.5,331A58.5,58.5,0,1,1,101,389.5,58.56,58.56,0,0,1,159.5,331m0-15A73.5,73.5,0,1,0,233,389.5,73.5,73.5,0,0,0,159.5,316Z" fill="#1e75e8"/>
</svg>
