<?xml version="1.0" encoding="utf-8"?>
<!-- Generator: Adobe Illustrator 22.1.0, SVG Export Plug-In . SVG Version: 6.00 Build 0)  -->
<svg version="1.1" id="Layer_1" xmlns="http://www.w3.org/2000/svg" xmlns:xlink="http://www.w3.org/1999/xlink" x="0px" y="0px"
	 viewBox="0 0 500 500" style="enable-background:new 0 0 500 500;" xml:space="preserve">
<style type="text/css">
	.st0{fill:#006400;}
</style>
<path class="st0" d="M250,68.2c100.4,0,181.7,81.4,181.7,181.8s-81.4,181.7-181.8,181.7S68.2,350.4,68.2,250
	c0-48.2,19.1-94.4,53.2-128.5C155.5,87.3,201.8,68.1,250,68.2 M250,37.2C132.5,37.2,37.2,132.5,37.2,250S132.5,462.8,250,462.8
	S462.8,367.5,462.8,250S367.5,37.2,250,37.2z"/>
<path class="st0" d="M226.8,267.3c0.6,1.5,1.8,2.6,2.9,3.8l82.9,82.9c3,3,7.8,3,10.7,0l0,0l15.6-15.6c3-3,3-7.8,0-10.7l0,0
	l-75.5-75.5v-135c0-4.6-3.7-8.3-8.3-8.3l0,0h-20.7c-4.6,0-8.3,3.7-8.3,8.3v147.1c0,0,0,0,0,0.1C226.1,265.2,226.5,266.5,226.8,267.3
	"/>
</svg>
