<?xml version="1.0" encoding="UTF-8" standalone="no"?><!DOCTYPE svg PUBLIC "-//W3C//DTD SVG 1.1//EN" "http://www.w3.org/Graphics/SVG/1.1/DTD/svg11.dtd"><svg width="100%" height="100%" viewBox="0 0 100 100" version="1.1" xmlns="http://www.w3.org/2000/svg" xmlns:xlink="http://www.w3.org/1999/xlink" xml:space="preserve" xmlns:serif="http://www.serif.com/" style="fill-rule:evenodd;clip-rule:evenodd;stroke-linecap:round;stroke-linejoin:round;stroke-miterlimit:1.5;"><rect x="13.95" y="-0.091" width="70.926" height="10.169"/><rect x="29.987" y="10.078" width="40.156" height="29.922"/><g><path d="M29.987,40c0,0 -22.947,7.106 -22.947,26.01" style="stroke:#000;stroke-width:1px;"/><path d="M70.143,40c0,0 22.805,7.106 22.805,26.01" style="stroke:#000;stroke-width:1px;"/><path d="M7.04,66.01l85.908,0" style="fill:none;stroke:#000;stroke-width:1px;"/></g><path d="M29.987,40l-22.947,26.01l85.908,0l-22.805,-26.01l-40.156,0Z" style="stroke:#000;stroke-width:1px;"/><path d="M55.02,64.511c0,-2.77 -2.25,-5.019 -5.02,-5.019c-2.77,0 -5.02,2.249 -5.02,5.019l0,30.469c0,2.771 2.25,5.02 5.02,5.02c2.77,0 5.02,-2.249 5.02,-5.02l0,-30.469Z"/></svg>